#N canvas 462 22 857 774 10;
#X obj 351 675 dac~;
#X obj 382 605 tgl 15 0 empty \$0-panner_on Panner_off/on 17 7 0 10
-262144 -1 -1 0 1;
#X floatatom 372 585 5 0 0 1 Panner_depth #0-panner_depth -;
#X floatatom 362 565 5 0 0 1 Panner_rate #0-panner_rate -;
#X obj 343 624 panner~;
#X obj 343 512 remove_dc_offset~;
#X obj 343 538 normalize~;
#X obj 508 520 vsl 15 128 0 1 0 0 empty \$0-volume Volume -9 -9 1 10
-166441 -1 -1 0 1;
#X obj 526 636 hsl 128 15 0 100 0 0 empty \$0-pan Pan 73 8 1 10 -91543
-203890 -262074 0 1;
#N canvas 216 22 450 300 audio_effects~ 0;
#X obj 19 643 outlet~;
#X obj 19 14 inlet~;
#X obj 19 135 gain~;
#X obj 46 116 tgl 15 0 empty empty Gain_off/on 17 7 0 10 -262144 -1
-1 0 1;
#X floatatom 32 95 5 0 0 1 Gain_amount - -;
#X obj 19 216 chorus~;
#X obj 182 187 tgl 15 0 empty empty Chorus_off/on 17 7 0 10 -262144
-1 -1 0 1;
#X floatatom 172 167 5 0 0 1 Chorus_mix - -;
#X floatatom 162 147 5 0 0 1 Chorus_depth - -;
#X floatatom 152 127 5 0 0 1 Chorus_rate - -;
#X obj 19 351 tremolo~;
#X obj 544 269 tgl 15 0 empty empty Tremolo_off/on 17 7 0 10 -262144
-1 -1 0 1;
#X floatatom 532 250 5 0 0 1 Tremolo_Shape_(0-3) - -;
#X floatatom 521 231 5 0 0 1 Tremolo_Depth - -;
#X floatatom 510 212 5 0 0 1 Tremolo_rate - -;
#X obj 19 308 ringmod~;
#X obj 350 205 tgl 15 0 empty empty Ring_Modulator_off/on 17 7 0 10
-262144 -1 -1 0 1;
#X floatatom 335 185 5 0 0 1 Ring_Modulator_depth - -;
#X floatatom 320 165 5 0 0 1 Ring_Modulator_rate - -;
#X obj 32 42 r \$0-gain_amount;
#X obj 46 62 r \$0-gain_on;
#X obj 152 98 r \$0-chorus_rate;
#X obj 162 75 r \$0-chorus_depth;
#X obj 172 52 r \$0-chorus_mix;
#X obj 182 29 r \$0-chorus_on;
#X obj 320 84 r \$0-ringmod_rate;
#X obj 335 106 r \$0-ringmod_depth;
#X obj 350 128 r \$0-ringmod_on;
#X obj 510 125 r \$0-tremolo_rate;
#X obj 521 146 r \$0-tremolo_depth;
#X obj 532 167 r \$0-tremolo_shape;
#X obj 544 188 r \$0-tremolo_on;
#X obj 19 521 eq~ --------------------------;
#X obj 278 504 pack 1 20;
#X obj 282 437 tgl 15 0 empty empty EQ_hp_on 17 7 0 10 -262144 -1 -1
0 1;
#X floatatom 289 456 5 0 0 1 EQ_hp_freq - -;
#X obj 378 504 pack 1 80 0.3;
#X obj 302 484 t b f;
#X obj 388 484 t b f;
#X obj 426 484 t b f;
#X obj 381 418 tgl 15 0 empty empty EQ_bp1_on 17 7 0 10 -262144 -1
-1 0 1;
#X floatatom 390 438 5 0 0 1 EQ_bp1_freq - -;
#X floatatom 399 460 5 0 0 1 EQ_bp1_q - -;
#X obj 494 504 pack 1 80 0.3;
#X obj 504 484 t b f;
#X obj 542 484 t b f;
#X obj 497 418 tgl 15 0 empty empty EQ_bp1_on 17 7 0 10 -262144 -1
-1 0 1;
#X floatatom 506 438 5 0 0 1 EQ_bp1_freq - -;
#X floatatom 515 460 5 0 0 1 EQ_bp1_q - -;
#X obj 611 504 pack 1 80 0.3;
#X obj 621 484 t b f;
#X obj 659 484 t b f;
#X obj 614 418 tgl 15 0 empty empty EQ_bp1_on 17 7 0 10 -262144 -1
-1 0 1;
#X floatatom 623 438 5 0 0 1 EQ_bp1_freq - -;
#X floatatom 632 460 5 0 0 1 EQ_bp1_q - -;
#X obj 724 504 pack 1 80 0.3;
#X obj 734 484 t b f;
#X obj 772 484 t b f;
#X obj 727 418 tgl 15 0 empty empty EQ_bp1_on 17 7 0 10 -262144 -1
-1 0 1;
#X floatatom 736 438 5 0 0 1 EQ_bp1_freq - -;
#X floatatom 745 460 5 0 0 1 EQ_bp1_q - -;
#X obj 838 504 pack 1 80 0.3;
#X obj 848 484 t b f;
#X obj 886 484 t b f;
#X obj 841 418 tgl 15 0 empty empty EQ_bp1_on 17 7 0 10 -262144 -1
-1 0 1;
#X floatatom 850 438 5 0 0 1 EQ_bp1_freq - -;
#X floatatom 859 460 5 0 0 1 EQ_bp1_q - -;
#X obj 953 504 pack 1 80 0.3;
#X obj 963 484 t b f;
#X obj 1001 484 t b f;
#X obj 956 418 tgl 15 0 empty empty EQ_bp1_on 17 7 0 10 -262144 -1
-1 0 1;
#X floatatom 965 438 5 0 0 1 EQ_bp1_freq - -;
#X floatatom 974 460 5 0 0 1 EQ_bp1_q - -;
#X obj 1068 504 pack 1 80 0.3;
#X obj 1078 484 t b f;
#X obj 1116 484 t b f;
#X obj 1071 418 tgl 15 0 empty empty EQ_bp1_on 17 7 0 10 -262144 -1
-1 0 1;
#X floatatom 1080 438 5 0 0 1 EQ_bp1_freq - -;
#X floatatom 1089 460 5 0 0 1 EQ_bp1_q - -;
#X obj 1178 504 pack 1 80 0.3;
#X obj 1188 484 t b f;
#X obj 1226 484 t b f;
#X obj 1181 418 tgl 15 0 empty empty EQ_bp1_on 17 7 0 10 -262144 -1
-1 0 1;
#X floatatom 1190 438 5 0 0 1 EQ_bp1_freq - -;
#X floatatom 1199 460 5 0 0 1 EQ_bp1_q - -;
#X obj 1293 504 pack 1 20;
#X obj 1297 437 tgl 15 0 empty empty EQ_hp_on 17 7 0 10 -262144 -1
-1 0 1;
#X floatatom 1304 456 5 0 0 1 EQ_hp_freq - -;
#X obj 1317 484 t b f;
#X obj 196 486 tgl 15 0 empty empty EQ_off/on 17 7 0 10 -262144 -1
-1 0 1;
#X obj 196 466 r \$0-eq_on;
#X obj 51 406 r \$0-eq_bp_1;
#X obj 67 426 r \$0-eq_bp_2;
#X obj 83 446 r \$0-eq_bp_3;
#X obj 99 466 r \$0-eq_bp_4;
#X obj 115 486 r \$0-eq_bp_5;
#X obj 131 386 r \$0-eq_bp_6;
#X obj 147 406 r \$0-eq_bp_7;
#X obj 163 426 r \$0-eq_bp_8;
#X obj 179 446 r \$0-eq_lp;
#X obj 35 386 r \$0-eq_hp;
#X text 229 550 EQ Receive format: (off/on) (frequency) (Q);
#X text 155 570 Examples:;
#X text 158 607 \$0-eq_bp_3: 1 530 0.5 -- turns bandpass 3 on \, sets
center;
#X text 500 607 frequency to 530 Hz \, sets Q to 0.5;
#X text 158 590 \$0-eq_hp: 1 40 -- turns highpass on \, sets cutoff
to 40 Hz;
#X text 158 625 \$0-eq_lp: 1 22000 -- turns lowpass on \, sets cutoff
to 22000;
#X text 517 625 Hz;
#X connect 1 0 2 0;
#X connect 2 0 5 0;
#X connect 3 0 2 2;
#X connect 4 0 2 1;
#X connect 5 0 15 0;
#X connect 6 0 5 4;
#X connect 7 0 5 3;
#X connect 8 0 5 2;
#X connect 9 0 5 1;
#X connect 10 0 32 0;
#X connect 13 0 10 2;
#X connect 14 0 10 1;
#X connect 15 0 10 0;
#X connect 16 0 15 3;
#X connect 17 0 15 2;
#X connect 18 0 15 1;
#X connect 19 0 4 0;
#X connect 20 0 3 0;
#X connect 21 0 9 0;
#X connect 22 0 8 0;
#X connect 23 0 7 0;
#X connect 24 0 6 0;
#X connect 25 0 18 0;
#X connect 26 0 17 0;
#X connect 27 0 16 0;
#X connect 28 0 14 0;
#X connect 29 0 13 0;
#X connect 30 0 12 0;
#X connect 31 0 11 0;
#X connect 32 0 0 0;
#X connect 33 0 32 1;
#X connect 34 0 33 0;
#X connect 35 0 37 0;
#X connect 36 0 32 2;
#X connect 37 0 33 0;
#X connect 37 1 33 1;
#X connect 38 0 36 0;
#X connect 38 1 36 1;
#X connect 39 0 36 0;
#X connect 39 1 36 2;
#X connect 40 0 36 0;
#X connect 41 0 38 0;
#X connect 42 0 39 0;
#X connect 43 0 32 3;
#X connect 44 0 43 0;
#X connect 44 1 43 1;
#X connect 45 0 43 0;
#X connect 45 1 43 2;
#X connect 46 0 43 0;
#X connect 47 0 44 0;
#X connect 48 0 45 0;
#X connect 49 0 32 4;
#X connect 50 0 49 0;
#X connect 50 1 49 1;
#X connect 51 0 49 0;
#X connect 51 1 49 2;
#X connect 52 0 49 0;
#X connect 53 0 50 0;
#X connect 54 0 51 0;
#X connect 55 0 32 5;
#X connect 56 0 55 0;
#X connect 56 1 55 1;
#X connect 57 0 55 0;
#X connect 57 1 55 2;
#X connect 58 0 55 0;
#X connect 59 0 56 0;
#X connect 60 0 57 0;
#X connect 61 0 32 6;
#X connect 62 0 61 0;
#X connect 62 1 61 1;
#X connect 63 0 61 0;
#X connect 63 1 61 2;
#X connect 64 0 61 0;
#X connect 65 0 62 0;
#X connect 66 0 63 0;
#X connect 67 0 32 7;
#X connect 68 0 67 0;
#X connect 68 1 67 1;
#X connect 69 0 67 0;
#X connect 69 1 67 2;
#X connect 70 0 67 0;
#X connect 71 0 68 0;
#X connect 72 0 69 0;
#X connect 73 0 32 8;
#X connect 74 0 73 0;
#X connect 74 1 73 1;
#X connect 75 0 73 0;
#X connect 75 1 73 2;
#X connect 76 0 73 0;
#X connect 77 0 74 0;
#X connect 78 0 75 0;
#X connect 79 0 32 9;
#X connect 80 0 79 0;
#X connect 80 1 79 1;
#X connect 81 0 79 0;
#X connect 81 1 79 2;
#X connect 82 0 79 0;
#X connect 83 0 80 0;
#X connect 84 0 81 0;
#X connect 85 0 32 10;
#X connect 86 0 85 0;
#X connect 87 0 88 0;
#X connect 88 0 85 0;
#X connect 88 1 85 1;
#X connect 89 0 32 11;
#X connect 90 0 32 11;
#X connect 91 0 32 2;
#X connect 92 0 32 3;
#X connect 93 0 32 4;
#X connect 94 0 32 5;
#X connect 95 0 32 6;
#X connect 96 0 32 7;
#X connect 97 0 32 8;
#X connect 98 0 32 9;
#X connect 99 0 32 10;
#X connect 100 0 32 1;
#X restore 343 486 pd audio_effects~;
#X obj 343 651 volume~;
#X connect 1 0 4 4;
#X connect 2 0 4 3;
#X connect 3 0 4 2;
#X connect 4 0 10 0;
#X connect 4 1 10 4;
#X connect 5 0 6 0;
#X connect 6 0 4 0;
#X connect 7 0 10 2;
#X connect 8 0 10 1;
#X connect 8 0 10 3;
#X connect 9 0 5 0;
#X connect 10 0 0 0;
#X connect 10 1 0 1;
