#N canvas 412 90 462 525 10;
#X obj 80 -188 inlet;
#X obj 296 -186 inlet;
#X obj 146 201 *~;
#X obj 25 -188 inlet~;
#X obj 338 -186 inlet~;
#X floatatom 161 81 5 0 1 0 - - -;
#X obj 273 206 *~;
#X floatatom 288 90 5 0 1 0 - - -;
#X obj 161 136 line~;
#X obj 288 140 line~;
#X obj 288 114 pack f 50;
#X obj 161 111 pack f 50;
#X obj 146 266 outlet~;
#X obj 273 270 outlet~;
#X obj 371 -53 loadbang;
#X obj 371 -30 t b b;
#X msg 371 -8 0;
#X msg 398 -8 1;
#X obj 150 -188 inlet;
#X floatatom 150 -163 5 0 0 0 - - -;
#X obj 176 -56 / 100;
#X floatatom 174 -2 5 0 0 0 - - -;
#X floatatom 206 -2 5 0 0 0 - - -;
#X obj 195 -165 loadbang;
#X msg 195 -120 0;
#X obj 176 -79 Number;
#X msg 222 -120 100;
#X obj 195 -142 t b b b;
#X msg 246 -120 50;
#X text 17 -208 Signal R;
#X text 80 -206 Gain R;
#X text 337 -206 Signal L;
#X text 294 -204 Gain L;
#X text 147 -207 Pan (%);
#X obj 161 172 *~;
#X obj 289 172 *~;
#X obj 225 138 line~;
#X obj 352 142 line~;
#X obj 352 114 pack f 50;
#X obj 225 113 pack f 50;
#X floatatom 6 -28 5 0 0 0 - - -;
#X obj 235 -73 t b f;
#X msg 235 -49 1;
#X obj 250 -26 -;
#X obj 161 53 number;
#X obj 287 54 number;
#X connect 0 0 40 0;
#X connect 0 0 44 0;
#X connect 1 0 45 0;
#X connect 2 0 12 0;
#X connect 3 0 2 0;
#X connect 4 0 6 0;
#X connect 5 0 11 0;
#X connect 6 0 13 0;
#X connect 7 0 10 0;
#X connect 8 0 34 0;
#X connect 9 0 35 0;
#X connect 10 0 9 0;
#X connect 11 0 8 0;
#X connect 14 0 15 0;
#X connect 15 0 16 0;
#X connect 15 1 17 0;
#X connect 16 0 44 1;
#X connect 16 0 45 1;
#X connect 17 0 44 2;
#X connect 17 0 44 0;
#X connect 17 0 45 2;
#X connect 17 0 45 0;
#X connect 18 0 19 0;
#X connect 19 0 25 0;
#X connect 20 0 21 0;
#X connect 21 0 38 0;
#X connect 21 0 41 0;
#X connect 22 0 39 0;
#X connect 23 0 27 0;
#X connect 24 0 25 1;
#X connect 25 0 20 0;
#X connect 26 0 25 2;
#X connect 27 0 24 0;
#X connect 27 1 26 0;
#X connect 27 2 28 0;
#X connect 28 0 25 0;
#X connect 34 0 2 1;
#X connect 35 0 6 1;
#X connect 36 0 34 1;
#X connect 37 0 35 1;
#X connect 38 0 37 0;
#X connect 39 0 36 0;
#X connect 41 0 42 0;
#X connect 41 1 43 1;
#X connect 42 0 43 0;
#X connect 43 0 22 0;
#X connect 44 0 5 0;
#X connect 45 0 7 0;
