#N canvas 91 472 191 320 10;
#X obj 68 121 UZI;
#X obj 19 67 bng 15 250 50 0 empty empty empty 17 7 0 10 -262144 -1
-1;
#X obj 23 149 iterator;
#X msg 50 196 0;
#X obj 83 68 loadbang;
#X msg 83 94 127;
#X msg 23 120 1;
#X obj -27 7 inlet;
#X obj -25 269 outlet;
#X obj 23 172 t f b;
#X obj 9 219 pack 0 0;
#X obj 19 88 t b b b b;
#X obj -25 246 gswitch;
#X msg 26 246 1;
#X msg 54 246 0;
#X obj 18 38 t b b b b b;
#X obj 18 8 bng 15 250 50 0 empty empty empty 17 7 0 10 -262144 -1
-1;
#X obj 54 10 inlet;
#X connect 0 0 2 5;
#X connect 1 0 11 0;
#X connect 2 0 9 0;
#X connect 3 0 10 1;
#X connect 4 0 5 0;
#X connect 5 0 0 1;
#X connect 6 0 2 0;
#X connect 7 0 12 0;
#X connect 9 0 10 0;
#X connect 9 1 3 0;
#X connect 10 0 12 1;
#X connect 11 0 14 0;
#X connect 11 1 0 0;
#X connect 11 2 6 0;
#X connect 11 3 13 0;
#X connect 12 0 8 0;
#X connect 13 0 12 2;
#X connect 14 0 12 2;
#X connect 15 0 1 0;
#X connect 15 1 1 0;
#X connect 15 2 1 0;
#X connect 15 3 1 0;
#X connect 15 4 1 0;
#X connect 16 0 15 0;
#X connect 17 0 16 0;
