#N canvas 653 101 218 144 10;
#X obj -162 -53 inlet;
#X obj -119 -53 inlet;
#X obj -144 45 outlet;
#X obj -162 -30 bng 15 250 50 0 empty empty empty 17 7 0 10 -262144
-1 -1;
#X obj -144 -5 int;
#X floatatom -110 -15 5 0 0 0 - - -;
#N canvas 556 332 176 252 UZI_to10999 0;
#X obj 47 80 int;
#X obj 38 52 t b f;
#X floatatom 46 107 5 0 0 0 - - -;
#X floatatom 83 108 5 0 0 0 - - -;
#X obj 49 28 / 100;
#X obj 94 29 % 100;
#X obj 25 5 inlet;
#X obj 87 212 outlet;
#N canvas 691 221 162 275 UZI_to100 0;
#X obj 81 -417 % 10;
#X obj 36 -418 / 10;
#X obj 34 -366 int;
#X obj 25 -394 t b f;
#X floatatom 33 -339 5 0 0 0 - - -;
#X floatatom 70 -338 5 0 0 0 - - -;
#X obj 23 -316 t b f;
#X obj 82 -316 t b f;
#X obj 17 -446 inlet;
#X obj 6 -203 outlet;
#N canvas 289 22 692 404 UZI_to10 0;
#X obj 16 8 inlet;
#X obj 59 8 inlet;
#X obj 382 367 outlet;
#X obj 16 31 bng 15 250 50 0 empty empty empty 17 7 0 10 -262144 -1
-1;
#X obj 44 78 sel 1;
#X obj 86 103 sel 2;
#X obj 149 129 sel 3;
#X obj 206 152 sel 4;
#X obj 255 176 sel 5;
#X obj 322 202 sel 6;
#X obj 374 226 sel 7;
#X obj 445 255 sel 8;
#X obj 517 279 sel 9;
#X obj 594 302 sel 10;
#X obj 32 54 int 0;
#X obj 43 101 bng 15 250 50 0 empty empty empty 17 7 0 10 -262144 -1
-1;
#N canvas 393 192 79 163 UZI2 0;
#X obj 18 16 inlet;
#X obj 24 121 outlet;
#X obj 18 51 t b b;
#X connect 0 0 2 0;
#X connect 2 0 1 0;
#X connect 2 1 1 0;
#X restore 86 127 pd UZI2;
#N canvas 606 261 81 157 UZI3 0;
#X obj 18 16 inlet;
#X obj 24 121 outlet;
#X obj 18 51 t b b b;
#X connect 0 0 2 0;
#X connect 2 0 1 0;
#X connect 2 1 1 0;
#X connect 2 2 1 0;
#X restore 129 151 pd UZI3;
#N canvas 393 192 79 163 UZI2 0;
#X obj 18 16 inlet;
#X obj 24 121 outlet;
#X obj 18 51 t b b;
#X connect 0 0 2 0;
#X connect 2 0 1 0;
#X connect 2 1 1 0;
#X restore 162 174 pd UZI2;
#N canvas 393 192 79 163 UZI2 0;
#X obj 18 16 inlet;
#X obj 24 121 outlet;
#X obj 18 51 t b b;
#X connect 0 0 2 0;
#X connect 2 0 1 0;
#X connect 2 1 1 0;
#X restore 188 196 pd UZI2;
#N canvas 393 192 79 163 UZI2 0;
#X obj 18 16 inlet;
#X obj 24 121 outlet;
#X obj 18 51 t b b;
#X connect 0 0 2 0;
#X connect 2 0 1 0;
#X connect 2 1 1 0;
#X restore 257 200 pd UZI2;
#N canvas 606 261 81 157 UZI3 0;
#X obj 18 16 inlet;
#X obj 24 121 outlet;
#X obj 18 51 t b b b;
#X connect 0 0 2 0;
#X connect 2 0 1 0;
#X connect 2 1 1 0;
#X connect 2 2 1 0;
#X restore 218 221 pd UZI3;
#N canvas 606 261 81 157 UZI3 0;
#X obj 18 16 inlet;
#X obj 24 121 outlet;
#X obj 18 51 t b b b;
#X connect 0 0 2 0;
#X connect 2 0 1 0;
#X connect 2 1 1 0;
#X connect 2 2 1 0;
#X restore 286 225 pd UZI3;
#N canvas 606 261 81 157 UZI3 0;
#X obj 18 16 inlet;
#X obj 24 121 outlet;
#X obj 18 51 t b b b;
#X connect 0 0 2 0;
#X connect 2 0 1 0;
#X connect 2 1 1 0;
#X connect 2 2 1 0;
#X restore 311 246 pd UZI3;
#N canvas 393 192 79 163 UZI2 0;
#X obj 18 16 inlet;
#X obj 24 121 outlet;
#X obj 18 51 t b b;
#X connect 0 0 2 0;
#X connect 2 0 1 0;
#X connect 2 1 1 0;
#X restore 366 254 pd UZI2;
#N canvas 606 261 81 157 UZI3 0;
#X obj 18 16 inlet;
#X obj 24 121 outlet;
#X obj 18 51 t b b b;
#X connect 0 0 2 0;
#X connect 2 0 1 0;
#X connect 2 1 1 0;
#X connect 2 2 1 0;
#X restore 324 277 pd UZI3;
#N canvas 393 192 79 163 UZI2 0;
#X obj 18 16 inlet;
#X obj 24 121 outlet;
#X obj 18 51 t b b;
#X connect 0 0 2 0;
#X connect 2 0 1 0;
#X connect 2 1 1 0;
#X restore 377 277 pd UZI2;
#N canvas 393 192 79 163 UZI2 0;
#X obj 18 16 inlet;
#X obj 24 121 outlet;
#X obj 18 51 t b b;
#X connect 0 0 2 0;
#X connect 2 0 1 0;
#X connect 2 1 1 0;
#X restore 440 288 pd UZI2;
#N canvas 393 192 79 163 UZI2 0;
#X obj 18 16 inlet;
#X obj 24 121 outlet;
#X obj 18 51 t b b;
#X connect 0 0 2 0;
#X connect 2 0 1 0;
#X connect 2 1 1 0;
#X restore 452 310 pd UZI2;
#N canvas 393 192 79 163 UZI2 0;
#X obj 18 16 inlet;
#X obj 24 121 outlet;
#X obj 18 51 t b b;
#X connect 0 0 2 0;
#X connect 2 0 1 0;
#X connect 2 1 1 0;
#X restore 385 302 pd UZI2;
#N canvas 393 192 79 163 UZI2 0;
#X obj 18 16 inlet;
#X obj 24 121 outlet;
#X obj 18 51 t b b;
#X connect 0 0 2 0;
#X connect 2 0 1 0;
#X connect 2 1 1 0;
#X restore 399 326 pd UZI2;
#N canvas 606 261 81 157 UZI3 0;
#X obj 18 16 inlet;
#X obj 24 121 outlet;
#X obj 18 51 t b b b;
#X connect 0 0 2 0;
#X connect 2 0 1 0;
#X connect 2 1 1 0;
#X connect 2 2 1 0;
#X restore 505 308 pd UZI3;
#N canvas 606 261 81 157 UZI3 0;
#X obj 18 16 inlet;
#X obj 24 121 outlet;
#X obj 18 51 t b b b;
#X connect 0 0 2 0;
#X connect 2 0 1 0;
#X connect 2 1 1 0;
#X connect 2 2 1 0;
#X restore 508 329 pd UZI3;
#N canvas 606 261 81 157 UZI3 0;
#X obj 18 16 inlet;
#X obj 24 121 outlet;
#X obj 18 51 t b b b;
#X connect 0 0 2 0;
#X connect 2 0 1 0;
#X connect 2 1 1 0;
#X connect 2 2 1 0;
#X restore 518 347 pd UZI3;
#N canvas 606 261 81 157 UZI3 0;
#X obj 18 16 inlet;
#X obj 24 121 outlet;
#X obj 18 51 t b b b;
#X connect 0 0 2 0;
#X connect 2 0 1 0;
#X connect 2 1 1 0;
#X connect 2 2 1 0;
#X restore 602 327 pd UZI3;
#N canvas 606 261 81 157 UZI3 0;
#X obj 18 16 inlet;
#X obj 24 121 outlet;
#X obj 18 51 t b b b;
#X connect 0 0 2 0;
#X connect 2 0 1 0;
#X connect 2 1 1 0;
#X connect 2 2 1 0;
#X restore 633 349 pd UZI3;
#N canvas 393 192 79 163 UZI2 0;
#X obj 18 16 inlet;
#X obj 24 121 outlet;
#X obj 18 51 t b b;
#X connect 0 0 2 0;
#X connect 2 0 1 0;
#X connect 2 1 1 0;
#X restore 582 349 pd UZI2;
#N canvas 393 192 79 163 UZI2 0;
#X obj 18 16 inlet;
#X obj 24 121 outlet;
#X obj 18 51 t b b;
#X connect 0 0 2 0;
#X connect 2 0 1 0;
#X connect 2 1 1 0;
#X restore 605 371 pd UZI2;
#X connect 0 0 3 0;
#X connect 1 0 14 1;
#X connect 3 0 14 0;
#X connect 4 0 15 0;
#X connect 4 1 5 0;
#X connect 5 0 16 0;
#X connect 5 1 6 0;
#X connect 6 0 17 0;
#X connect 6 1 7 0;
#X connect 7 0 18 0;
#X connect 7 0 19 0;
#X connect 7 1 8 0;
#X connect 8 0 20 0;
#X connect 8 0 21 0;
#X connect 8 1 9 0;
#X connect 9 0 22 0;
#X connect 9 0 23 0;
#X connect 9 1 10 0;
#X connect 10 0 24 0;
#X connect 10 0 26 0;
#X connect 10 0 25 0;
#X connect 10 1 11 0;
#X connect 11 0 27 0;
#X connect 11 0 28 0;
#X connect 11 0 29 0;
#X connect 11 0 30 0;
#X connect 11 1 12 0;
#X connect 12 0 31 0;
#X connect 12 0 32 0;
#X connect 12 0 33 0;
#X connect 12 1 13 0;
#X connect 13 0 34 0;
#X connect 13 0 36 0;
#X connect 13 0 35 0;
#X connect 13 0 37 0;
#X connect 14 0 4 0;
#X connect 15 0 2 0;
#X connect 16 0 2 0;
#X connect 17 0 2 0;
#X connect 18 0 2 0;
#X connect 19 0 2 0;
#X connect 20 0 2 0;
#X connect 21 0 2 0;
#X connect 22 0 2 0;
#X connect 23 0 2 0;
#X connect 24 0 2 0;
#X connect 25 0 2 0;
#X connect 26 0 2 0;
#X connect 27 0 2 0;
#X connect 28 0 2 0;
#X connect 29 0 2 0;
#X connect 30 0 2 0;
#X connect 31 0 2 0;
#X connect 32 0 2 0;
#X connect 33 0 2 0;
#X connect 34 0 2 0;
#X connect 35 0 2 0;
#X connect 36 0 2 0;
#X connect 37 0 2 0;
#X restore 81 -292 pd UZI_to10;
#N canvas 289 22 692 404 UZI_to10 0;
#X obj 16 8 inlet;
#X obj 59 8 inlet;
#X obj 382 367 outlet;
#X obj 16 31 bng 15 250 50 0 empty empty empty 17 7 0 10 -262144 -1
-1;
#X obj 44 78 sel 1;
#X obj 86 103 sel 2;
#X obj 149 129 sel 3;
#X obj 206 152 sel 4;
#X obj 255 176 sel 5;
#X obj 322 202 sel 6;
#X obj 374 226 sel 7;
#X obj 445 255 sel 8;
#X obj 517 279 sel 9;
#X obj 594 302 sel 10;
#X obj 32 54 int 0;
#X obj 43 101 bng 15 250 50 0 empty empty empty 17 7 0 10 -262144 -1
-1;
#N canvas 393 192 79 163 UZI2 0;
#X obj 18 16 inlet;
#X obj 24 121 outlet;
#X obj 18 51 t b b;
#X connect 0 0 2 0;
#X connect 2 0 1 0;
#X connect 2 1 1 0;
#X restore 86 127 pd UZI2;
#N canvas 606 261 81 157 UZI3 0;
#X obj 18 16 inlet;
#X obj 24 121 outlet;
#X obj 18 51 t b b b;
#X connect 0 0 2 0;
#X connect 2 0 1 0;
#X connect 2 1 1 0;
#X connect 2 2 1 0;
#X restore 129 151 pd UZI3;
#N canvas 393 192 79 163 UZI2 0;
#X obj 18 16 inlet;
#X obj 24 121 outlet;
#X obj 18 51 t b b;
#X connect 0 0 2 0;
#X connect 2 0 1 0;
#X connect 2 1 1 0;
#X restore 162 174 pd UZI2;
#N canvas 393 192 79 163 UZI2 0;
#X obj 18 16 inlet;
#X obj 24 121 outlet;
#X obj 18 51 t b b;
#X connect 0 0 2 0;
#X connect 2 0 1 0;
#X connect 2 1 1 0;
#X restore 188 196 pd UZI2;
#N canvas 393 192 79 163 UZI2 0;
#X obj 18 16 inlet;
#X obj 24 121 outlet;
#X obj 18 51 t b b;
#X connect 0 0 2 0;
#X connect 2 0 1 0;
#X connect 2 1 1 0;
#X restore 257 200 pd UZI2;
#N canvas 606 261 81 157 UZI3 0;
#X obj 18 16 inlet;
#X obj 24 121 outlet;
#X obj 18 51 t b b b;
#X connect 0 0 2 0;
#X connect 2 0 1 0;
#X connect 2 1 1 0;
#X connect 2 2 1 0;
#X restore 218 221 pd UZI3;
#N canvas 606 261 81 157 UZI3 0;
#X obj 18 16 inlet;
#X obj 24 121 outlet;
#X obj 18 51 t b b b;
#X connect 0 0 2 0;
#X connect 2 0 1 0;
#X connect 2 1 1 0;
#X connect 2 2 1 0;
#X restore 286 225 pd UZI3;
#N canvas 606 261 81 157 UZI3 0;
#X obj 18 16 inlet;
#X obj 24 121 outlet;
#X obj 18 51 t b b b;
#X connect 0 0 2 0;
#X connect 2 0 1 0;
#X connect 2 1 1 0;
#X connect 2 2 1 0;
#X restore 311 246 pd UZI3;
#N canvas 393 192 79 163 UZI2 0;
#X obj 18 16 inlet;
#X obj 24 121 outlet;
#X obj 18 51 t b b;
#X connect 0 0 2 0;
#X connect 2 0 1 0;
#X connect 2 1 1 0;
#X restore 366 254 pd UZI2;
#N canvas 606 261 81 157 UZI3 0;
#X obj 18 16 inlet;
#X obj 24 121 outlet;
#X obj 18 51 t b b b;
#X connect 0 0 2 0;
#X connect 2 0 1 0;
#X connect 2 1 1 0;
#X connect 2 2 1 0;
#X restore 324 277 pd UZI3;
#N canvas 393 192 79 163 UZI2 0;
#X obj 18 16 inlet;
#X obj 24 121 outlet;
#X obj 18 51 t b b;
#X connect 0 0 2 0;
#X connect 2 0 1 0;
#X connect 2 1 1 0;
#X restore 377 277 pd UZI2;
#N canvas 393 192 79 163 UZI2 0;
#X obj 18 16 inlet;
#X obj 24 121 outlet;
#X obj 18 51 t b b;
#X connect 0 0 2 0;
#X connect 2 0 1 0;
#X connect 2 1 1 0;
#X restore 440 288 pd UZI2;
#N canvas 393 192 79 163 UZI2 0;
#X obj 18 16 inlet;
#X obj 24 121 outlet;
#X obj 18 51 t b b;
#X connect 0 0 2 0;
#X connect 2 0 1 0;
#X connect 2 1 1 0;
#X restore 452 310 pd UZI2;
#N canvas 393 192 79 163 UZI2 0;
#X obj 18 16 inlet;
#X obj 24 121 outlet;
#X obj 18 51 t b b;
#X connect 0 0 2 0;
#X connect 2 0 1 0;
#X connect 2 1 1 0;
#X restore 385 302 pd UZI2;
#N canvas 393 192 79 163 UZI2 0;
#X obj 18 16 inlet;
#X obj 24 121 outlet;
#X obj 18 51 t b b;
#X connect 0 0 2 0;
#X connect 2 0 1 0;
#X connect 2 1 1 0;
#X restore 399 326 pd UZI2;
#N canvas 606 261 81 157 UZI3 0;
#X obj 18 16 inlet;
#X obj 24 121 outlet;
#X obj 18 51 t b b b;
#X connect 0 0 2 0;
#X connect 2 0 1 0;
#X connect 2 1 1 0;
#X connect 2 2 1 0;
#X restore 505 308 pd UZI3;
#N canvas 606 261 81 157 UZI3 0;
#X obj 18 16 inlet;
#X obj 24 121 outlet;
#X obj 18 51 t b b b;
#X connect 0 0 2 0;
#X connect 2 0 1 0;
#X connect 2 1 1 0;
#X connect 2 2 1 0;
#X restore 508 329 pd UZI3;
#N canvas 606 261 81 157 UZI3 0;
#X obj 18 16 inlet;
#X obj 24 121 outlet;
#X obj 18 51 t b b b;
#X connect 0 0 2 0;
#X connect 2 0 1 0;
#X connect 2 1 1 0;
#X connect 2 2 1 0;
#X restore 518 347 pd UZI3;
#N canvas 606 261 81 157 UZI3 0;
#X obj 18 16 inlet;
#X obj 24 121 outlet;
#X obj 18 51 t b b b;
#X connect 0 0 2 0;
#X connect 2 0 1 0;
#X connect 2 1 1 0;
#X connect 2 2 1 0;
#X restore 602 327 pd UZI3;
#N canvas 606 261 81 157 UZI3 0;
#X obj 18 16 inlet;
#X obj 24 121 outlet;
#X obj 18 51 t b b b;
#X connect 0 0 2 0;
#X connect 2 0 1 0;
#X connect 2 1 1 0;
#X connect 2 2 1 0;
#X restore 633 349 pd UZI3;
#N canvas 393 192 79 163 UZI2 0;
#X obj 18 16 inlet;
#X obj 24 121 outlet;
#X obj 18 51 t b b;
#X connect 0 0 2 0;
#X connect 2 0 1 0;
#X connect 2 1 1 0;
#X restore 582 349 pd UZI2;
#N canvas 393 192 79 163 UZI2 0;
#X obj 18 16 inlet;
#X obj 24 121 outlet;
#X obj 18 51 t b b;
#X connect 0 0 2 0;
#X connect 2 0 1 0;
#X connect 2 1 1 0;
#X restore 605 371 pd UZI2;
#X connect 0 0 3 0;
#X connect 1 0 14 1;
#X connect 3 0 14 0;
#X connect 4 0 15 0;
#X connect 4 1 5 0;
#X connect 5 0 16 0;
#X connect 5 1 6 0;
#X connect 6 0 17 0;
#X connect 6 1 7 0;
#X connect 7 0 18 0;
#X connect 7 0 19 0;
#X connect 7 1 8 0;
#X connect 8 0 20 0;
#X connect 8 0 21 0;
#X connect 8 1 9 0;
#X connect 9 0 22 0;
#X connect 9 0 23 0;
#X connect 9 1 10 0;
#X connect 10 0 24 0;
#X connect 10 0 26 0;
#X connect 10 0 25 0;
#X connect 10 1 11 0;
#X connect 11 0 27 0;
#X connect 11 0 28 0;
#X connect 11 0 29 0;
#X connect 11 0 30 0;
#X connect 11 1 12 0;
#X connect 12 0 31 0;
#X connect 12 0 32 0;
#X connect 12 0 33 0;
#X connect 12 1 13 0;
#X connect 13 0 34 0;
#X connect 13 0 36 0;
#X connect 13 0 35 0;
#X connect 13 0 37 0;
#X connect 14 0 4 0;
#X connect 15 0 2 0;
#X connect 16 0 2 0;
#X connect 17 0 2 0;
#X connect 18 0 2 0;
#X connect 19 0 2 0;
#X connect 20 0 2 0;
#X connect 21 0 2 0;
#X connect 22 0 2 0;
#X connect 23 0 2 0;
#X connect 24 0 2 0;
#X connect 25 0 2 0;
#X connect 26 0 2 0;
#X connect 27 0 2 0;
#X connect 28 0 2 0;
#X connect 29 0 2 0;
#X connect 30 0 2 0;
#X connect 31 0 2 0;
#X connect 32 0 2 0;
#X connect 33 0 2 0;
#X connect 34 0 2 0;
#X connect 35 0 2 0;
#X connect 36 0 2 0;
#X connect 37 0 2 0;
#X restore 6 -292 pd UZI_to10;
#N canvas 289 22 692 404 UZI_to10 0;
#X obj 16 8 inlet;
#X obj 59 8 inlet;
#X obj 382 367 outlet;
#X obj 16 31 bng 15 250 50 0 empty empty empty 17 7 0 10 -262144 -1
-1;
#X obj 44 78 sel 1;
#X obj 86 103 sel 2;
#X obj 149 129 sel 3;
#X obj 206 152 sel 4;
#X obj 255 176 sel 5;
#X obj 322 202 sel 6;
#X obj 374 226 sel 7;
#X obj 445 255 sel 8;
#X obj 517 279 sel 9;
#X obj 594 302 sel 10;
#X obj 32 54 int 0;
#X obj 43 101 bng 15 250 50 0 empty empty empty 17 7 0 10 -262144 -1
-1;
#N canvas 393 192 79 163 UZI2 0;
#X obj 18 16 inlet;
#X obj 24 121 outlet;
#X obj 18 51 t b b;
#X connect 0 0 2 0;
#X connect 2 0 1 0;
#X connect 2 1 1 0;
#X restore 86 127 pd UZI2;
#N canvas 606 261 81 157 UZI3 0;
#X obj 18 16 inlet;
#X obj 24 121 outlet;
#X obj 18 51 t b b b;
#X connect 0 0 2 0;
#X connect 2 0 1 0;
#X connect 2 1 1 0;
#X connect 2 2 1 0;
#X restore 129 151 pd UZI3;
#N canvas 393 192 79 163 UZI2 0;
#X obj 18 16 inlet;
#X obj 24 121 outlet;
#X obj 18 51 t b b;
#X connect 0 0 2 0;
#X connect 2 0 1 0;
#X connect 2 1 1 0;
#X restore 162 174 pd UZI2;
#N canvas 393 192 79 163 UZI2 0;
#X obj 18 16 inlet;
#X obj 24 121 outlet;
#X obj 18 51 t b b;
#X connect 0 0 2 0;
#X connect 2 0 1 0;
#X connect 2 1 1 0;
#X restore 188 196 pd UZI2;
#N canvas 393 192 79 163 UZI2 0;
#X obj 18 16 inlet;
#X obj 24 121 outlet;
#X obj 18 51 t b b;
#X connect 0 0 2 0;
#X connect 2 0 1 0;
#X connect 2 1 1 0;
#X restore 257 200 pd UZI2;
#N canvas 606 261 81 157 UZI3 0;
#X obj 18 16 inlet;
#X obj 24 121 outlet;
#X obj 18 51 t b b b;
#X connect 0 0 2 0;
#X connect 2 0 1 0;
#X connect 2 1 1 0;
#X connect 2 2 1 0;
#X restore 218 221 pd UZI3;
#N canvas 606 261 81 157 UZI3 0;
#X obj 18 16 inlet;
#X obj 24 121 outlet;
#X obj 18 51 t b b b;
#X connect 0 0 2 0;
#X connect 2 0 1 0;
#X connect 2 1 1 0;
#X connect 2 2 1 0;
#X restore 286 225 pd UZI3;
#N canvas 606 261 81 157 UZI3 0;
#X obj 18 16 inlet;
#X obj 24 121 outlet;
#X obj 18 51 t b b b;
#X connect 0 0 2 0;
#X connect 2 0 1 0;
#X connect 2 1 1 0;
#X connect 2 2 1 0;
#X restore 311 246 pd UZI3;
#N canvas 393 192 79 163 UZI2 0;
#X obj 18 16 inlet;
#X obj 24 121 outlet;
#X obj 18 51 t b b;
#X connect 0 0 2 0;
#X connect 2 0 1 0;
#X connect 2 1 1 0;
#X restore 366 254 pd UZI2;
#N canvas 606 261 81 157 UZI3 0;
#X obj 18 16 inlet;
#X obj 24 121 outlet;
#X obj 18 51 t b b b;
#X connect 0 0 2 0;
#X connect 2 0 1 0;
#X connect 2 1 1 0;
#X connect 2 2 1 0;
#X restore 324 277 pd UZI3;
#N canvas 393 192 79 163 UZI2 0;
#X obj 18 16 inlet;
#X obj 24 121 outlet;
#X obj 18 51 t b b;
#X connect 0 0 2 0;
#X connect 2 0 1 0;
#X connect 2 1 1 0;
#X restore 377 277 pd UZI2;
#N canvas 393 192 79 163 UZI2 0;
#X obj 18 16 inlet;
#X obj 24 121 outlet;
#X obj 18 51 t b b;
#X connect 0 0 2 0;
#X connect 2 0 1 0;
#X connect 2 1 1 0;
#X restore 440 288 pd UZI2;
#N canvas 393 192 79 163 UZI2 0;
#X obj 18 16 inlet;
#X obj 24 121 outlet;
#X obj 18 51 t b b;
#X connect 0 0 2 0;
#X connect 2 0 1 0;
#X connect 2 1 1 0;
#X restore 452 310 pd UZI2;
#N canvas 393 192 79 163 UZI2 0;
#X obj 18 16 inlet;
#X obj 24 121 outlet;
#X obj 18 51 t b b;
#X connect 0 0 2 0;
#X connect 2 0 1 0;
#X connect 2 1 1 0;
#X restore 385 302 pd UZI2;
#N canvas 393 192 79 163 UZI2 0;
#X obj 18 16 inlet;
#X obj 24 121 outlet;
#X obj 18 51 t b b;
#X connect 0 0 2 0;
#X connect 2 0 1 0;
#X connect 2 1 1 0;
#X restore 399 326 pd UZI2;
#N canvas 606 261 81 157 UZI3 0;
#X obj 18 16 inlet;
#X obj 24 121 outlet;
#X obj 18 51 t b b b;
#X connect 0 0 2 0;
#X connect 2 0 1 0;
#X connect 2 1 1 0;
#X connect 2 2 1 0;
#X restore 505 308 pd UZI3;
#N canvas 606 261 81 157 UZI3 0;
#X obj 18 16 inlet;
#X obj 24 121 outlet;
#X obj 18 51 t b b b;
#X connect 0 0 2 0;
#X connect 2 0 1 0;
#X connect 2 1 1 0;
#X connect 2 2 1 0;
#X restore 508 329 pd UZI3;
#N canvas 606 261 81 157 UZI3 0;
#X obj 18 16 inlet;
#X obj 24 121 outlet;
#X obj 18 51 t b b b;
#X connect 0 0 2 0;
#X connect 2 0 1 0;
#X connect 2 1 1 0;
#X connect 2 2 1 0;
#X restore 518 347 pd UZI3;
#N canvas 606 261 81 157 UZI3 0;
#X obj 18 16 inlet;
#X obj 24 121 outlet;
#X obj 18 51 t b b b;
#X connect 0 0 2 0;
#X connect 2 0 1 0;
#X connect 2 1 1 0;
#X connect 2 2 1 0;
#X restore 602 327 pd UZI3;
#N canvas 606 261 81 157 UZI3 0;
#X obj 18 16 inlet;
#X obj 24 121 outlet;
#X obj 18 51 t b b b;
#X connect 0 0 2 0;
#X connect 2 0 1 0;
#X connect 2 1 1 0;
#X connect 2 2 1 0;
#X restore 633 349 pd UZI3;
#N canvas 393 192 79 163 UZI2 0;
#X obj 18 16 inlet;
#X obj 24 121 outlet;
#X obj 18 51 t b b;
#X connect 0 0 2 0;
#X connect 2 0 1 0;
#X connect 2 1 1 0;
#X restore 582 349 pd UZI2;
#N canvas 393 192 79 163 UZI2 0;
#X obj 18 16 inlet;
#X obj 24 121 outlet;
#X obj 18 51 t b b;
#X connect 0 0 2 0;
#X connect 2 0 1 0;
#X connect 2 1 1 0;
#X restore 605 371 pd UZI2;
#X connect 0 0 3 0;
#X connect 1 0 14 1;
#X connect 3 0 14 0;
#X connect 4 0 15 0;
#X connect 4 1 5 0;
#X connect 5 0 16 0;
#X connect 5 1 6 0;
#X connect 6 0 17 0;
#X connect 6 1 7 0;
#X connect 7 0 18 0;
#X connect 7 0 19 0;
#X connect 7 1 8 0;
#X connect 8 0 20 0;
#X connect 8 0 21 0;
#X connect 8 1 9 0;
#X connect 9 0 22 0;
#X connect 9 0 23 0;
#X connect 9 1 10 0;
#X connect 10 0 24 0;
#X connect 10 0 26 0;
#X connect 10 0 25 0;
#X connect 10 1 11 0;
#X connect 11 0 27 0;
#X connect 11 0 28 0;
#X connect 11 0 29 0;
#X connect 11 0 30 0;
#X connect 11 1 12 0;
#X connect 12 0 31 0;
#X connect 12 0 32 0;
#X connect 12 0 33 0;
#X connect 12 1 13 0;
#X connect 13 0 34 0;
#X connect 13 0 36 0;
#X connect 13 0 35 0;
#X connect 13 0 37 0;
#X connect 14 0 4 0;
#X connect 15 0 2 0;
#X connect 16 0 2 0;
#X connect 17 0 2 0;
#X connect 18 0 2 0;
#X connect 19 0 2 0;
#X connect 20 0 2 0;
#X connect 21 0 2 0;
#X connect 22 0 2 0;
#X connect 23 0 2 0;
#X connect 24 0 2 0;
#X connect 25 0 2 0;
#X connect 26 0 2 0;
#X connect 27 0 2 0;
#X connect 28 0 2 0;
#X connect 29 0 2 0;
#X connect 30 0 2 0;
#X connect 31 0 2 0;
#X connect 32 0 2 0;
#X connect 33 0 2 0;
#X connect 34 0 2 0;
#X connect 35 0 2 0;
#X connect 36 0 2 0;
#X connect 37 0 2 0;
#X restore 6 -229 pd UZI_to10;
#X obj 6 -268 t b b;
#X msg 69 -251 10;
#X connect 0 0 5 0;
#X connect 1 0 3 0;
#X connect 2 0 4 0;
#X connect 3 0 2 0;
#X connect 3 1 2 1;
#X connect 4 0 6 0;
#X connect 5 0 7 0;
#X connect 6 0 11 0;
#X connect 6 1 11 1;
#X connect 7 0 10 0;
#X connect 7 1 10 1;
#X connect 8 0 1 0;
#X connect 8 0 0 0;
#X connect 10 0 9 0;
#X connect 11 0 13 0;
#X connect 12 0 9 0;
#X connect 13 0 12 0;
#X connect 13 1 14 0;
#X connect 14 0 12 1;
#X restore 87 141 pd UZI_to100;
#N canvas 691 221 162 275 UZI_to100 0;
#X obj 81 -417 % 10;
#X obj 36 -418 / 10;
#X obj 34 -366 int;
#X obj 25 -394 t b f;
#X floatatom 33 -339 5 0 0 0 - - -;
#X floatatom 70 -338 5 0 0 0 - - -;
#X obj 23 -316 t b f;
#X obj 82 -316 t b f;
#X obj 17 -446 inlet;
#X obj 6 -203 outlet;
#N canvas 289 22 692 404 UZI_to10 0;
#X obj 16 8 inlet;
#X obj 59 8 inlet;
#X obj 382 367 outlet;
#X obj 16 31 bng 15 250 50 0 empty empty empty 17 7 0 10 -262144 -1
-1;
#X obj 44 78 sel 1;
#X obj 86 103 sel 2;
#X obj 149 129 sel 3;
#X obj 206 152 sel 4;
#X obj 255 176 sel 5;
#X obj 322 202 sel 6;
#X obj 374 226 sel 7;
#X obj 445 255 sel 8;
#X obj 517 279 sel 9;
#X obj 594 302 sel 10;
#X obj 32 54 int 0;
#X obj 43 101 bng 15 250 50 0 empty empty empty 17 7 0 10 -262144 -1
-1;
#N canvas 393 192 79 163 UZI2 0;
#X obj 18 16 inlet;
#X obj 24 121 outlet;
#X obj 18 51 t b b;
#X connect 0 0 2 0;
#X connect 2 0 1 0;
#X connect 2 1 1 0;
#X restore 86 127 pd UZI2;
#N canvas 606 261 81 157 UZI3 0;
#X obj 18 16 inlet;
#X obj 24 121 outlet;
#X obj 18 51 t b b b;
#X connect 0 0 2 0;
#X connect 2 0 1 0;
#X connect 2 1 1 0;
#X connect 2 2 1 0;
#X restore 129 151 pd UZI3;
#N canvas 393 192 79 163 UZI2 0;
#X obj 18 16 inlet;
#X obj 24 121 outlet;
#X obj 18 51 t b b;
#X connect 0 0 2 0;
#X connect 2 0 1 0;
#X connect 2 1 1 0;
#X restore 162 174 pd UZI2;
#N canvas 393 192 79 163 UZI2 0;
#X obj 18 16 inlet;
#X obj 24 121 outlet;
#X obj 18 51 t b b;
#X connect 0 0 2 0;
#X connect 2 0 1 0;
#X connect 2 1 1 0;
#X restore 188 196 pd UZI2;
#N canvas 393 192 79 163 UZI2 0;
#X obj 18 16 inlet;
#X obj 24 121 outlet;
#X obj 18 51 t b b;
#X connect 0 0 2 0;
#X connect 2 0 1 0;
#X connect 2 1 1 0;
#X restore 257 200 pd UZI2;
#N canvas 606 261 81 157 UZI3 0;
#X obj 18 16 inlet;
#X obj 24 121 outlet;
#X obj 18 51 t b b b;
#X connect 0 0 2 0;
#X connect 2 0 1 0;
#X connect 2 1 1 0;
#X connect 2 2 1 0;
#X restore 218 221 pd UZI3;
#N canvas 606 261 81 157 UZI3 0;
#X obj 18 16 inlet;
#X obj 24 121 outlet;
#X obj 18 51 t b b b;
#X connect 0 0 2 0;
#X connect 2 0 1 0;
#X connect 2 1 1 0;
#X connect 2 2 1 0;
#X restore 286 225 pd UZI3;
#N canvas 606 261 81 157 UZI3 0;
#X obj 18 16 inlet;
#X obj 24 121 outlet;
#X obj 18 51 t b b b;
#X connect 0 0 2 0;
#X connect 2 0 1 0;
#X connect 2 1 1 0;
#X connect 2 2 1 0;
#X restore 311 246 pd UZI3;
#N canvas 393 192 79 163 UZI2 0;
#X obj 18 16 inlet;
#X obj 24 121 outlet;
#X obj 18 51 t b b;
#X connect 0 0 2 0;
#X connect 2 0 1 0;
#X connect 2 1 1 0;
#X restore 366 254 pd UZI2;
#N canvas 606 261 81 157 UZI3 0;
#X obj 18 16 inlet;
#X obj 24 121 outlet;
#X obj 18 51 t b b b;
#X connect 0 0 2 0;
#X connect 2 0 1 0;
#X connect 2 1 1 0;
#X connect 2 2 1 0;
#X restore 324 277 pd UZI3;
#N canvas 393 192 79 163 UZI2 0;
#X obj 18 16 inlet;
#X obj 24 121 outlet;
#X obj 18 51 t b b;
#X connect 0 0 2 0;
#X connect 2 0 1 0;
#X connect 2 1 1 0;
#X restore 377 277 pd UZI2;
#N canvas 393 192 79 163 UZI2 0;
#X obj 18 16 inlet;
#X obj 24 121 outlet;
#X obj 18 51 t b b;
#X connect 0 0 2 0;
#X connect 2 0 1 0;
#X connect 2 1 1 0;
#X restore 440 288 pd UZI2;
#N canvas 393 192 79 163 UZI2 0;
#X obj 18 16 inlet;
#X obj 24 121 outlet;
#X obj 18 51 t b b;
#X connect 0 0 2 0;
#X connect 2 0 1 0;
#X connect 2 1 1 0;
#X restore 452 310 pd UZI2;
#N canvas 393 192 79 163 UZI2 0;
#X obj 18 16 inlet;
#X obj 24 121 outlet;
#X obj 18 51 t b b;
#X connect 0 0 2 0;
#X connect 2 0 1 0;
#X connect 2 1 1 0;
#X restore 385 302 pd UZI2;
#N canvas 393 192 79 163 UZI2 0;
#X obj 18 16 inlet;
#X obj 24 121 outlet;
#X obj 18 51 t b b;
#X connect 0 0 2 0;
#X connect 2 0 1 0;
#X connect 2 1 1 0;
#X restore 399 326 pd UZI2;
#N canvas 606 261 81 157 UZI3 0;
#X obj 18 16 inlet;
#X obj 24 121 outlet;
#X obj 18 51 t b b b;
#X connect 0 0 2 0;
#X connect 2 0 1 0;
#X connect 2 1 1 0;
#X connect 2 2 1 0;
#X restore 505 308 pd UZI3;
#N canvas 606 261 81 157 UZI3 0;
#X obj 18 16 inlet;
#X obj 24 121 outlet;
#X obj 18 51 t b b b;
#X connect 0 0 2 0;
#X connect 2 0 1 0;
#X connect 2 1 1 0;
#X connect 2 2 1 0;
#X restore 508 329 pd UZI3;
#N canvas 606 261 81 157 UZI3 0;
#X obj 18 16 inlet;
#X obj 24 121 outlet;
#X obj 18 51 t b b b;
#X connect 0 0 2 0;
#X connect 2 0 1 0;
#X connect 2 1 1 0;
#X connect 2 2 1 0;
#X restore 518 347 pd UZI3;
#N canvas 606 261 81 157 UZI3 0;
#X obj 18 16 inlet;
#X obj 24 121 outlet;
#X obj 18 51 t b b b;
#X connect 0 0 2 0;
#X connect 2 0 1 0;
#X connect 2 1 1 0;
#X connect 2 2 1 0;
#X restore 602 327 pd UZI3;
#N canvas 606 261 81 157 UZI3 0;
#X obj 18 16 inlet;
#X obj 24 121 outlet;
#X obj 18 51 t b b b;
#X connect 0 0 2 0;
#X connect 2 0 1 0;
#X connect 2 1 1 0;
#X connect 2 2 1 0;
#X restore 633 349 pd UZI3;
#N canvas 393 192 79 163 UZI2 0;
#X obj 18 16 inlet;
#X obj 24 121 outlet;
#X obj 18 51 t b b;
#X connect 0 0 2 0;
#X connect 2 0 1 0;
#X connect 2 1 1 0;
#X restore 582 349 pd UZI2;
#N canvas 393 192 79 163 UZI2 0;
#X obj 18 16 inlet;
#X obj 24 121 outlet;
#X obj 18 51 t b b;
#X connect 0 0 2 0;
#X connect 2 0 1 0;
#X connect 2 1 1 0;
#X restore 605 371 pd UZI2;
#X connect 0 0 3 0;
#X connect 1 0 14 1;
#X connect 3 0 14 0;
#X connect 4 0 15 0;
#X connect 4 1 5 0;
#X connect 5 0 16 0;
#X connect 5 1 6 0;
#X connect 6 0 17 0;
#X connect 6 1 7 0;
#X connect 7 0 18 0;
#X connect 7 0 19 0;
#X connect 7 1 8 0;
#X connect 8 0 20 0;
#X connect 8 0 21 0;
#X connect 8 1 9 0;
#X connect 9 0 22 0;
#X connect 9 0 23 0;
#X connect 9 1 10 0;
#X connect 10 0 24 0;
#X connect 10 0 26 0;
#X connect 10 0 25 0;
#X connect 10 1 11 0;
#X connect 11 0 27 0;
#X connect 11 0 28 0;
#X connect 11 0 29 0;
#X connect 11 0 30 0;
#X connect 11 1 12 0;
#X connect 12 0 31 0;
#X connect 12 0 32 0;
#X connect 12 0 33 0;
#X connect 12 1 13 0;
#X connect 13 0 34 0;
#X connect 13 0 36 0;
#X connect 13 0 35 0;
#X connect 13 0 37 0;
#X connect 14 0 4 0;
#X connect 15 0 2 0;
#X connect 16 0 2 0;
#X connect 17 0 2 0;
#X connect 18 0 2 0;
#X connect 19 0 2 0;
#X connect 20 0 2 0;
#X connect 21 0 2 0;
#X connect 22 0 2 0;
#X connect 23 0 2 0;
#X connect 24 0 2 0;
#X connect 25 0 2 0;
#X connect 26 0 2 0;
#X connect 27 0 2 0;
#X connect 28 0 2 0;
#X connect 29 0 2 0;
#X connect 30 0 2 0;
#X connect 31 0 2 0;
#X connect 32 0 2 0;
#X connect 33 0 2 0;
#X connect 34 0 2 0;
#X connect 35 0 2 0;
#X connect 36 0 2 0;
#X connect 37 0 2 0;
#X restore 81 -292 pd UZI_to10;
#N canvas 289 22 692 404 UZI_to10 0;
#X obj 16 8 inlet;
#X obj 59 8 inlet;
#X obj 382 367 outlet;
#X obj 16 31 bng 15 250 50 0 empty empty empty 17 7 0 10 -262144 -1
-1;
#X obj 44 78 sel 1;
#X obj 86 103 sel 2;
#X obj 149 129 sel 3;
#X obj 206 152 sel 4;
#X obj 255 176 sel 5;
#X obj 322 202 sel 6;
#X obj 374 226 sel 7;
#X obj 445 255 sel 8;
#X obj 517 279 sel 9;
#X obj 594 302 sel 10;
#X obj 32 54 int 0;
#X obj 43 101 bng 15 250 50 0 empty empty empty 17 7 0 10 -262144 -1
-1;
#N canvas 393 192 79 163 UZI2 0;
#X obj 18 16 inlet;
#X obj 24 121 outlet;
#X obj 18 51 t b b;
#X connect 0 0 2 0;
#X connect 2 0 1 0;
#X connect 2 1 1 0;
#X restore 86 127 pd UZI2;
#N canvas 606 261 81 157 UZI3 0;
#X obj 18 16 inlet;
#X obj 24 121 outlet;
#X obj 18 51 t b b b;
#X connect 0 0 2 0;
#X connect 2 0 1 0;
#X connect 2 1 1 0;
#X connect 2 2 1 0;
#X restore 129 151 pd UZI3;
#N canvas 393 192 79 163 UZI2 0;
#X obj 18 16 inlet;
#X obj 24 121 outlet;
#X obj 18 51 t b b;
#X connect 0 0 2 0;
#X connect 2 0 1 0;
#X connect 2 1 1 0;
#X restore 162 174 pd UZI2;
#N canvas 393 192 79 163 UZI2 0;
#X obj 18 16 inlet;
#X obj 24 121 outlet;
#X obj 18 51 t b b;
#X connect 0 0 2 0;
#X connect 2 0 1 0;
#X connect 2 1 1 0;
#X restore 188 196 pd UZI2;
#N canvas 393 192 79 163 UZI2 0;
#X obj 18 16 inlet;
#X obj 24 121 outlet;
#X obj 18 51 t b b;
#X connect 0 0 2 0;
#X connect 2 0 1 0;
#X connect 2 1 1 0;
#X restore 257 200 pd UZI2;
#N canvas 606 261 81 157 UZI3 0;
#X obj 18 16 inlet;
#X obj 24 121 outlet;
#X obj 18 51 t b b b;
#X connect 0 0 2 0;
#X connect 2 0 1 0;
#X connect 2 1 1 0;
#X connect 2 2 1 0;
#X restore 218 221 pd UZI3;
#N canvas 606 261 81 157 UZI3 0;
#X obj 18 16 inlet;
#X obj 24 121 outlet;
#X obj 18 51 t b b b;
#X connect 0 0 2 0;
#X connect 2 0 1 0;
#X connect 2 1 1 0;
#X connect 2 2 1 0;
#X restore 286 225 pd UZI3;
#N canvas 606 261 81 157 UZI3 0;
#X obj 18 16 inlet;
#X obj 24 121 outlet;
#X obj 18 51 t b b b;
#X connect 0 0 2 0;
#X connect 2 0 1 0;
#X connect 2 1 1 0;
#X connect 2 2 1 0;
#X restore 311 246 pd UZI3;
#N canvas 393 192 79 163 UZI2 0;
#X obj 18 16 inlet;
#X obj 24 121 outlet;
#X obj 18 51 t b b;
#X connect 0 0 2 0;
#X connect 2 0 1 0;
#X connect 2 1 1 0;
#X restore 366 254 pd UZI2;
#N canvas 606 261 81 157 UZI3 0;
#X obj 18 16 inlet;
#X obj 24 121 outlet;
#X obj 18 51 t b b b;
#X connect 0 0 2 0;
#X connect 2 0 1 0;
#X connect 2 1 1 0;
#X connect 2 2 1 0;
#X restore 324 277 pd UZI3;
#N canvas 393 192 79 163 UZI2 0;
#X obj 18 16 inlet;
#X obj 24 121 outlet;
#X obj 18 51 t b b;
#X connect 0 0 2 0;
#X connect 2 0 1 0;
#X connect 2 1 1 0;
#X restore 377 277 pd UZI2;
#N canvas 393 192 79 163 UZI2 0;
#X obj 18 16 inlet;
#X obj 24 121 outlet;
#X obj 18 51 t b b;
#X connect 0 0 2 0;
#X connect 2 0 1 0;
#X connect 2 1 1 0;
#X restore 440 288 pd UZI2;
#N canvas 393 192 79 163 UZI2 0;
#X obj 18 16 inlet;
#X obj 24 121 outlet;
#X obj 18 51 t b b;
#X connect 0 0 2 0;
#X connect 2 0 1 0;
#X connect 2 1 1 0;
#X restore 452 310 pd UZI2;
#N canvas 393 192 79 163 UZI2 0;
#X obj 18 16 inlet;
#X obj 24 121 outlet;
#X obj 18 51 t b b;
#X connect 0 0 2 0;
#X connect 2 0 1 0;
#X connect 2 1 1 0;
#X restore 385 302 pd UZI2;
#N canvas 393 192 79 163 UZI2 0;
#X obj 18 16 inlet;
#X obj 24 121 outlet;
#X obj 18 51 t b b;
#X connect 0 0 2 0;
#X connect 2 0 1 0;
#X connect 2 1 1 0;
#X restore 399 326 pd UZI2;
#N canvas 606 261 81 157 UZI3 0;
#X obj 18 16 inlet;
#X obj 24 121 outlet;
#X obj 18 51 t b b b;
#X connect 0 0 2 0;
#X connect 2 0 1 0;
#X connect 2 1 1 0;
#X connect 2 2 1 0;
#X restore 505 308 pd UZI3;
#N canvas 606 261 81 157 UZI3 0;
#X obj 18 16 inlet;
#X obj 24 121 outlet;
#X obj 18 51 t b b b;
#X connect 0 0 2 0;
#X connect 2 0 1 0;
#X connect 2 1 1 0;
#X connect 2 2 1 0;
#X restore 508 329 pd UZI3;
#N canvas 606 261 81 157 UZI3 0;
#X obj 18 16 inlet;
#X obj 24 121 outlet;
#X obj 18 51 t b b b;
#X connect 0 0 2 0;
#X connect 2 0 1 0;
#X connect 2 1 1 0;
#X connect 2 2 1 0;
#X restore 518 347 pd UZI3;
#N canvas 606 261 81 157 UZI3 0;
#X obj 18 16 inlet;
#X obj 24 121 outlet;
#X obj 18 51 t b b b;
#X connect 0 0 2 0;
#X connect 2 0 1 0;
#X connect 2 1 1 0;
#X connect 2 2 1 0;
#X restore 602 327 pd UZI3;
#N canvas 606 261 81 157 UZI3 0;
#X obj 18 16 inlet;
#X obj 24 121 outlet;
#X obj 18 51 t b b b;
#X connect 0 0 2 0;
#X connect 2 0 1 0;
#X connect 2 1 1 0;
#X connect 2 2 1 0;
#X restore 633 349 pd UZI3;
#N canvas 393 192 79 163 UZI2 0;
#X obj 18 16 inlet;
#X obj 24 121 outlet;
#X obj 18 51 t b b;
#X connect 0 0 2 0;
#X connect 2 0 1 0;
#X connect 2 1 1 0;
#X restore 582 349 pd UZI2;
#N canvas 393 192 79 163 UZI2 0;
#X obj 18 16 inlet;
#X obj 24 121 outlet;
#X obj 18 51 t b b;
#X connect 0 0 2 0;
#X connect 2 0 1 0;
#X connect 2 1 1 0;
#X restore 605 371 pd UZI2;
#X connect 0 0 3 0;
#X connect 1 0 14 1;
#X connect 3 0 14 0;
#X connect 4 0 15 0;
#X connect 4 1 5 0;
#X connect 5 0 16 0;
#X connect 5 1 6 0;
#X connect 6 0 17 0;
#X connect 6 1 7 0;
#X connect 7 0 18 0;
#X connect 7 0 19 0;
#X connect 7 1 8 0;
#X connect 8 0 20 0;
#X connect 8 0 21 0;
#X connect 8 1 9 0;
#X connect 9 0 22 0;
#X connect 9 0 23 0;
#X connect 9 1 10 0;
#X connect 10 0 24 0;
#X connect 10 0 26 0;
#X connect 10 0 25 0;
#X connect 10 1 11 0;
#X connect 11 0 27 0;
#X connect 11 0 28 0;
#X connect 11 0 29 0;
#X connect 11 0 30 0;
#X connect 11 1 12 0;
#X connect 12 0 31 0;
#X connect 12 0 32 0;
#X connect 12 0 33 0;
#X connect 12 1 13 0;
#X connect 13 0 34 0;
#X connect 13 0 36 0;
#X connect 13 0 35 0;
#X connect 13 0 37 0;
#X connect 14 0 4 0;
#X connect 15 0 2 0;
#X connect 16 0 2 0;
#X connect 17 0 2 0;
#X connect 18 0 2 0;
#X connect 19 0 2 0;
#X connect 20 0 2 0;
#X connect 21 0 2 0;
#X connect 22 0 2 0;
#X connect 23 0 2 0;
#X connect 24 0 2 0;
#X connect 25 0 2 0;
#X connect 26 0 2 0;
#X connect 27 0 2 0;
#X connect 28 0 2 0;
#X connect 29 0 2 0;
#X connect 30 0 2 0;
#X connect 31 0 2 0;
#X connect 32 0 2 0;
#X connect 33 0 2 0;
#X connect 34 0 2 0;
#X connect 35 0 2 0;
#X connect 36 0 2 0;
#X connect 37 0 2 0;
#X restore 6 -292 pd UZI_to10;
#N canvas 289 22 692 404 UZI_to10 0;
#X obj 16 8 inlet;
#X obj 59 8 inlet;
#X obj 382 367 outlet;
#X obj 16 31 bng 15 250 50 0 empty empty empty 17 7 0 10 -262144 -1
-1;
#X obj 44 78 sel 1;
#X obj 86 103 sel 2;
#X obj 149 129 sel 3;
#X obj 206 152 sel 4;
#X obj 255 176 sel 5;
#X obj 322 202 sel 6;
#X obj 374 226 sel 7;
#X obj 445 255 sel 8;
#X obj 517 279 sel 9;
#X obj 594 302 sel 10;
#X obj 32 54 int 0;
#X obj 43 101 bng 15 250 50 0 empty empty empty 17 7 0 10 -262144 -1
-1;
#N canvas 393 192 79 163 UZI2 0;
#X obj 18 16 inlet;
#X obj 24 121 outlet;
#X obj 18 51 t b b;
#X connect 0 0 2 0;
#X connect 2 0 1 0;
#X connect 2 1 1 0;
#X restore 86 127 pd UZI2;
#N canvas 606 261 81 157 UZI3 0;
#X obj 18 16 inlet;
#X obj 24 121 outlet;
#X obj 18 51 t b b b;
#X connect 0 0 2 0;
#X connect 2 0 1 0;
#X connect 2 1 1 0;
#X connect 2 2 1 0;
#X restore 129 151 pd UZI3;
#N canvas 393 192 79 163 UZI2 0;
#X obj 18 16 inlet;
#X obj 24 121 outlet;
#X obj 18 51 t b b;
#X connect 0 0 2 0;
#X connect 2 0 1 0;
#X connect 2 1 1 0;
#X restore 162 174 pd UZI2;
#N canvas 393 192 79 163 UZI2 0;
#X obj 18 16 inlet;
#X obj 24 121 outlet;
#X obj 18 51 t b b;
#X connect 0 0 2 0;
#X connect 2 0 1 0;
#X connect 2 1 1 0;
#X restore 188 196 pd UZI2;
#N canvas 393 192 79 163 UZI2 0;
#X obj 18 16 inlet;
#X obj 24 121 outlet;
#X obj 18 51 t b b;
#X connect 0 0 2 0;
#X connect 2 0 1 0;
#X connect 2 1 1 0;
#X restore 257 200 pd UZI2;
#N canvas 606 261 81 157 UZI3 0;
#X obj 18 16 inlet;
#X obj 24 121 outlet;
#X obj 18 51 t b b b;
#X connect 0 0 2 0;
#X connect 2 0 1 0;
#X connect 2 1 1 0;
#X connect 2 2 1 0;
#X restore 218 221 pd UZI3;
#N canvas 606 261 81 157 UZI3 0;
#X obj 18 16 inlet;
#X obj 24 121 outlet;
#X obj 18 51 t b b b;
#X connect 0 0 2 0;
#X connect 2 0 1 0;
#X connect 2 1 1 0;
#X connect 2 2 1 0;
#X restore 286 225 pd UZI3;
#N canvas 606 261 81 157 UZI3 0;
#X obj 18 16 inlet;
#X obj 24 121 outlet;
#X obj 18 51 t b b b;
#X connect 0 0 2 0;
#X connect 2 0 1 0;
#X connect 2 1 1 0;
#X connect 2 2 1 0;
#X restore 311 246 pd UZI3;
#N canvas 393 192 79 163 UZI2 0;
#X obj 18 16 inlet;
#X obj 24 121 outlet;
#X obj 18 51 t b b;
#X connect 0 0 2 0;
#X connect 2 0 1 0;
#X connect 2 1 1 0;
#X restore 366 254 pd UZI2;
#N canvas 606 261 81 157 UZI3 0;
#X obj 18 16 inlet;
#X obj 24 121 outlet;
#X obj 18 51 t b b b;
#X connect 0 0 2 0;
#X connect 2 0 1 0;
#X connect 2 1 1 0;
#X connect 2 2 1 0;
#X restore 324 277 pd UZI3;
#N canvas 393 192 79 163 UZI2 0;
#X obj 18 16 inlet;
#X obj 24 121 outlet;
#X obj 18 51 t b b;
#X connect 0 0 2 0;
#X connect 2 0 1 0;
#X connect 2 1 1 0;
#X restore 377 277 pd UZI2;
#N canvas 393 192 79 163 UZI2 0;
#X obj 18 16 inlet;
#X obj 24 121 outlet;
#X obj 18 51 t b b;
#X connect 0 0 2 0;
#X connect 2 0 1 0;
#X connect 2 1 1 0;
#X restore 440 288 pd UZI2;
#N canvas 393 192 79 163 UZI2 0;
#X obj 18 16 inlet;
#X obj 24 121 outlet;
#X obj 18 51 t b b;
#X connect 0 0 2 0;
#X connect 2 0 1 0;
#X connect 2 1 1 0;
#X restore 452 310 pd UZI2;
#N canvas 393 192 79 163 UZI2 0;
#X obj 18 16 inlet;
#X obj 24 121 outlet;
#X obj 18 51 t b b;
#X connect 0 0 2 0;
#X connect 2 0 1 0;
#X connect 2 1 1 0;
#X restore 385 302 pd UZI2;
#N canvas 393 192 79 163 UZI2 0;
#X obj 18 16 inlet;
#X obj 24 121 outlet;
#X obj 18 51 t b b;
#X connect 0 0 2 0;
#X connect 2 0 1 0;
#X connect 2 1 1 0;
#X restore 399 326 pd UZI2;
#N canvas 606 261 81 157 UZI3 0;
#X obj 18 16 inlet;
#X obj 24 121 outlet;
#X obj 18 51 t b b b;
#X connect 0 0 2 0;
#X connect 2 0 1 0;
#X connect 2 1 1 0;
#X connect 2 2 1 0;
#X restore 505 308 pd UZI3;
#N canvas 606 261 81 157 UZI3 0;
#X obj 18 16 inlet;
#X obj 24 121 outlet;
#X obj 18 51 t b b b;
#X connect 0 0 2 0;
#X connect 2 0 1 0;
#X connect 2 1 1 0;
#X connect 2 2 1 0;
#X restore 508 329 pd UZI3;
#N canvas 606 261 81 157 UZI3 0;
#X obj 18 16 inlet;
#X obj 24 121 outlet;
#X obj 18 51 t b b b;
#X connect 0 0 2 0;
#X connect 2 0 1 0;
#X connect 2 1 1 0;
#X connect 2 2 1 0;
#X restore 518 347 pd UZI3;
#N canvas 606 261 81 157 UZI3 0;
#X obj 18 16 inlet;
#X obj 24 121 outlet;
#X obj 18 51 t b b b;
#X connect 0 0 2 0;
#X connect 2 0 1 0;
#X connect 2 1 1 0;
#X connect 2 2 1 0;
#X restore 602 327 pd UZI3;
#N canvas 606 261 81 157 UZI3 0;
#X obj 18 16 inlet;
#X obj 24 121 outlet;
#X obj 18 51 t b b b;
#X connect 0 0 2 0;
#X connect 2 0 1 0;
#X connect 2 1 1 0;
#X connect 2 2 1 0;
#X restore 633 349 pd UZI3;
#N canvas 393 192 79 163 UZI2 0;
#X obj 18 16 inlet;
#X obj 24 121 outlet;
#X obj 18 51 t b b;
#X connect 0 0 2 0;
#X connect 2 0 1 0;
#X connect 2 1 1 0;
#X restore 582 349 pd UZI2;
#N canvas 393 192 79 163 UZI2 0;
#X obj 18 16 inlet;
#X obj 24 121 outlet;
#X obj 18 51 t b b;
#X connect 0 0 2 0;
#X connect 2 0 1 0;
#X connect 2 1 1 0;
#X restore 605 371 pd UZI2;
#X connect 0 0 3 0;
#X connect 1 0 14 1;
#X connect 3 0 14 0;
#X connect 4 0 15 0;
#X connect 4 1 5 0;
#X connect 5 0 16 0;
#X connect 5 1 6 0;
#X connect 6 0 17 0;
#X connect 6 1 7 0;
#X connect 7 0 18 0;
#X connect 7 0 19 0;
#X connect 7 1 8 0;
#X connect 8 0 20 0;
#X connect 8 0 21 0;
#X connect 8 1 9 0;
#X connect 9 0 22 0;
#X connect 9 0 23 0;
#X connect 9 1 10 0;
#X connect 10 0 24 0;
#X connect 10 0 26 0;
#X connect 10 0 25 0;
#X connect 10 1 11 0;
#X connect 11 0 27 0;
#X connect 11 0 28 0;
#X connect 11 0 29 0;
#X connect 11 0 30 0;
#X connect 11 1 12 0;
#X connect 12 0 31 0;
#X connect 12 0 32 0;
#X connect 12 0 33 0;
#X connect 12 1 13 0;
#X connect 13 0 34 0;
#X connect 13 0 36 0;
#X connect 13 0 35 0;
#X connect 13 0 37 0;
#X connect 14 0 4 0;
#X connect 15 0 2 0;
#X connect 16 0 2 0;
#X connect 17 0 2 0;
#X connect 18 0 2 0;
#X connect 19 0 2 0;
#X connect 20 0 2 0;
#X connect 21 0 2 0;
#X connect 22 0 2 0;
#X connect 23 0 2 0;
#X connect 24 0 2 0;
#X connect 25 0 2 0;
#X connect 26 0 2 0;
#X connect 27 0 2 0;
#X connect 28 0 2 0;
#X connect 29 0 2 0;
#X connect 30 0 2 0;
#X connect 31 0 2 0;
#X connect 32 0 2 0;
#X connect 33 0 2 0;
#X connect 34 0 2 0;
#X connect 35 0 2 0;
#X connect 36 0 2 0;
#X connect 37 0 2 0;
#X restore 6 -229 pd UZI_to10;
#X obj 6 -268 t b b;
#X msg 69 -251 10;
#X connect 0 0 5 0;
#X connect 1 0 3 0;
#X connect 2 0 4 0;
#X connect 3 0 2 0;
#X connect 3 1 2 1;
#X connect 4 0 6 0;
#X connect 5 0 7 0;
#X connect 6 0 11 0;
#X connect 6 1 11 1;
#X connect 7 0 10 0;
#X connect 7 1 10 1;
#X connect 8 0 1 0;
#X connect 8 0 0 0;
#X connect 10 0 9 0;
#X connect 11 0 13 0;
#X connect 12 0 9 0;
#X connect 13 0 12 0;
#X connect 13 1 14 0;
#X connect 14 0 12 1;
#X restore 8 185 pd UZI_to100;
#X msg 8 163 100;
#N canvas 691 221 162 275 UZI_to100 0;
#X obj 81 -417 % 10;
#X obj 36 -418 / 10;
#X obj 34 -366 int;
#X obj 25 -394 t b f;
#X floatatom 33 -339 5 0 0 0 - - -;
#X floatatom 70 -338 5 0 0 0 - - -;
#X obj 23 -316 t b f;
#X obj 82 -316 t b f;
#X obj 17 -446 inlet;
#X obj 6 -203 outlet;
#N canvas 289 22 692 404 UZI_to10 0;
#X obj 16 8 inlet;
#X obj 59 8 inlet;
#X obj 382 367 outlet;
#X obj 16 31 bng 15 250 50 0 empty empty empty 17 7 0 10 -262144 -1
-1;
#X obj 44 78 sel 1;
#X obj 86 103 sel 2;
#X obj 149 129 sel 3;
#X obj 206 152 sel 4;
#X obj 255 176 sel 5;
#X obj 322 202 sel 6;
#X obj 374 226 sel 7;
#X obj 445 255 sel 8;
#X obj 517 279 sel 9;
#X obj 594 302 sel 10;
#X obj 32 54 int 0;
#X obj 43 101 bng 15 250 50 0 empty empty empty 17 7 0 10 -262144 -1
-1;
#N canvas 393 192 79 163 UZI2 0;
#X obj 18 16 inlet;
#X obj 24 121 outlet;
#X obj 18 51 t b b;
#X connect 0 0 2 0;
#X connect 2 0 1 0;
#X connect 2 1 1 0;
#X restore 86 127 pd UZI2;
#N canvas 606 261 81 157 UZI3 0;
#X obj 18 16 inlet;
#X obj 24 121 outlet;
#X obj 18 51 t b b b;
#X connect 0 0 2 0;
#X connect 2 0 1 0;
#X connect 2 1 1 0;
#X connect 2 2 1 0;
#X restore 129 151 pd UZI3;
#N canvas 393 192 79 163 UZI2 0;
#X obj 18 16 inlet;
#X obj 24 121 outlet;
#X obj 18 51 t b b;
#X connect 0 0 2 0;
#X connect 2 0 1 0;
#X connect 2 1 1 0;
#X restore 162 174 pd UZI2;
#N canvas 393 192 79 163 UZI2 0;
#X obj 18 16 inlet;
#X obj 24 121 outlet;
#X obj 18 51 t b b;
#X connect 0 0 2 0;
#X connect 2 0 1 0;
#X connect 2 1 1 0;
#X restore 188 196 pd UZI2;
#N canvas 393 192 79 163 UZI2 0;
#X obj 18 16 inlet;
#X obj 24 121 outlet;
#X obj 18 51 t b b;
#X connect 0 0 2 0;
#X connect 2 0 1 0;
#X connect 2 1 1 0;
#X restore 257 200 pd UZI2;
#N canvas 606 261 81 157 UZI3 0;
#X obj 18 16 inlet;
#X obj 24 121 outlet;
#X obj 18 51 t b b b;
#X connect 0 0 2 0;
#X connect 2 0 1 0;
#X connect 2 1 1 0;
#X connect 2 2 1 0;
#X restore 218 221 pd UZI3;
#N canvas 606 261 81 157 UZI3 0;
#X obj 18 16 inlet;
#X obj 24 121 outlet;
#X obj 18 51 t b b b;
#X connect 0 0 2 0;
#X connect 2 0 1 0;
#X connect 2 1 1 0;
#X connect 2 2 1 0;
#X restore 286 225 pd UZI3;
#N canvas 606 261 81 157 UZI3 0;
#X obj 18 16 inlet;
#X obj 24 121 outlet;
#X obj 18 51 t b b b;
#X connect 0 0 2 0;
#X connect 2 0 1 0;
#X connect 2 1 1 0;
#X connect 2 2 1 0;
#X restore 311 246 pd UZI3;
#N canvas 393 192 79 163 UZI2 0;
#X obj 18 16 inlet;
#X obj 24 121 outlet;
#X obj 18 51 t b b;
#X connect 0 0 2 0;
#X connect 2 0 1 0;
#X connect 2 1 1 0;
#X restore 366 254 pd UZI2;
#N canvas 606 261 81 157 UZI3 0;
#X obj 18 16 inlet;
#X obj 24 121 outlet;
#X obj 18 51 t b b b;
#X connect 0 0 2 0;
#X connect 2 0 1 0;
#X connect 2 1 1 0;
#X connect 2 2 1 0;
#X restore 324 277 pd UZI3;
#N canvas 393 192 79 163 UZI2 0;
#X obj 18 16 inlet;
#X obj 24 121 outlet;
#X obj 18 51 t b b;
#X connect 0 0 2 0;
#X connect 2 0 1 0;
#X connect 2 1 1 0;
#X restore 377 277 pd UZI2;
#N canvas 393 192 79 163 UZI2 0;
#X obj 18 16 inlet;
#X obj 24 121 outlet;
#X obj 18 51 t b b;
#X connect 0 0 2 0;
#X connect 2 0 1 0;
#X connect 2 1 1 0;
#X restore 440 288 pd UZI2;
#N canvas 393 192 79 163 UZI2 0;
#X obj 18 16 inlet;
#X obj 24 121 outlet;
#X obj 18 51 t b b;
#X connect 0 0 2 0;
#X connect 2 0 1 0;
#X connect 2 1 1 0;
#X restore 452 310 pd UZI2;
#N canvas 393 192 79 163 UZI2 0;
#X obj 18 16 inlet;
#X obj 24 121 outlet;
#X obj 18 51 t b b;
#X connect 0 0 2 0;
#X connect 2 0 1 0;
#X connect 2 1 1 0;
#X restore 385 302 pd UZI2;
#N canvas 393 192 79 163 UZI2 0;
#X obj 18 16 inlet;
#X obj 24 121 outlet;
#X obj 18 51 t b b;
#X connect 0 0 2 0;
#X connect 2 0 1 0;
#X connect 2 1 1 0;
#X restore 399 326 pd UZI2;
#N canvas 606 261 81 157 UZI3 0;
#X obj 18 16 inlet;
#X obj 24 121 outlet;
#X obj 18 51 t b b b;
#X connect 0 0 2 0;
#X connect 2 0 1 0;
#X connect 2 1 1 0;
#X connect 2 2 1 0;
#X restore 505 308 pd UZI3;
#N canvas 606 261 81 157 UZI3 0;
#X obj 18 16 inlet;
#X obj 24 121 outlet;
#X obj 18 51 t b b b;
#X connect 0 0 2 0;
#X connect 2 0 1 0;
#X connect 2 1 1 0;
#X connect 2 2 1 0;
#X restore 508 329 pd UZI3;
#N canvas 606 261 81 157 UZI3 0;
#X obj 18 16 inlet;
#X obj 24 121 outlet;
#X obj 18 51 t b b b;
#X connect 0 0 2 0;
#X connect 2 0 1 0;
#X connect 2 1 1 0;
#X connect 2 2 1 0;
#X restore 518 347 pd UZI3;
#N canvas 606 261 81 157 UZI3 0;
#X obj 18 16 inlet;
#X obj 24 121 outlet;
#X obj 18 51 t b b b;
#X connect 0 0 2 0;
#X connect 2 0 1 0;
#X connect 2 1 1 0;
#X connect 2 2 1 0;
#X restore 602 327 pd UZI3;
#N canvas 606 261 81 157 UZI3 0;
#X obj 18 16 inlet;
#X obj 24 121 outlet;
#X obj 18 51 t b b b;
#X connect 0 0 2 0;
#X connect 2 0 1 0;
#X connect 2 1 1 0;
#X connect 2 2 1 0;
#X restore 633 349 pd UZI3;
#N canvas 393 192 79 163 UZI2 0;
#X obj 18 16 inlet;
#X obj 24 121 outlet;
#X obj 18 51 t b b;
#X connect 0 0 2 0;
#X connect 2 0 1 0;
#X connect 2 1 1 0;
#X restore 582 349 pd UZI2;
#N canvas 393 192 79 163 UZI2 0;
#X obj 18 16 inlet;
#X obj 24 121 outlet;
#X obj 18 51 t b b;
#X connect 0 0 2 0;
#X connect 2 0 1 0;
#X connect 2 1 1 0;
#X restore 605 371 pd UZI2;
#X connect 0 0 3 0;
#X connect 1 0 14 1;
#X connect 3 0 14 0;
#X connect 4 0 15 0;
#X connect 4 1 5 0;
#X connect 5 0 16 0;
#X connect 5 1 6 0;
#X connect 6 0 17 0;
#X connect 6 1 7 0;
#X connect 7 0 18 0;
#X connect 7 0 19 0;
#X connect 7 1 8 0;
#X connect 8 0 20 0;
#X connect 8 0 21 0;
#X connect 8 1 9 0;
#X connect 9 0 22 0;
#X connect 9 0 23 0;
#X connect 9 1 10 0;
#X connect 10 0 24 0;
#X connect 10 0 26 0;
#X connect 10 0 25 0;
#X connect 10 1 11 0;
#X connect 11 0 27 0;
#X connect 11 0 28 0;
#X connect 11 0 29 0;
#X connect 11 0 30 0;
#X connect 11 1 12 0;
#X connect 12 0 31 0;
#X connect 12 0 32 0;
#X connect 12 0 33 0;
#X connect 12 1 13 0;
#X connect 13 0 34 0;
#X connect 13 0 36 0;
#X connect 13 0 35 0;
#X connect 13 0 37 0;
#X connect 14 0 4 0;
#X connect 15 0 2 0;
#X connect 16 0 2 0;
#X connect 17 0 2 0;
#X connect 18 0 2 0;
#X connect 19 0 2 0;
#X connect 20 0 2 0;
#X connect 21 0 2 0;
#X connect 22 0 2 0;
#X connect 23 0 2 0;
#X connect 24 0 2 0;
#X connect 25 0 2 0;
#X connect 26 0 2 0;
#X connect 27 0 2 0;
#X connect 28 0 2 0;
#X connect 29 0 2 0;
#X connect 30 0 2 0;
#X connect 31 0 2 0;
#X connect 32 0 2 0;
#X connect 33 0 2 0;
#X connect 34 0 2 0;
#X connect 35 0 2 0;
#X connect 36 0 2 0;
#X connect 37 0 2 0;
#X restore 81 -292 pd UZI_to10;
#N canvas 289 22 692 404 UZI_to10 0;
#X obj 16 8 inlet;
#X obj 59 8 inlet;
#X obj 382 367 outlet;
#X obj 16 31 bng 15 250 50 0 empty empty empty 17 7 0 10 -262144 -1
-1;
#X obj 44 78 sel 1;
#X obj 86 103 sel 2;
#X obj 149 129 sel 3;
#X obj 206 152 sel 4;
#X obj 255 176 sel 5;
#X obj 322 202 sel 6;
#X obj 374 226 sel 7;
#X obj 445 255 sel 8;
#X obj 517 279 sel 9;
#X obj 594 302 sel 10;
#X obj 32 54 int 0;
#X obj 43 101 bng 15 250 50 0 empty empty empty 17 7 0 10 -262144 -1
-1;
#N canvas 393 192 79 163 UZI2 0;
#X obj 18 16 inlet;
#X obj 24 121 outlet;
#X obj 18 51 t b b;
#X connect 0 0 2 0;
#X connect 2 0 1 0;
#X connect 2 1 1 0;
#X restore 86 127 pd UZI2;
#N canvas 606 261 81 157 UZI3 0;
#X obj 18 16 inlet;
#X obj 24 121 outlet;
#X obj 18 51 t b b b;
#X connect 0 0 2 0;
#X connect 2 0 1 0;
#X connect 2 1 1 0;
#X connect 2 2 1 0;
#X restore 129 151 pd UZI3;
#N canvas 393 192 79 163 UZI2 0;
#X obj 18 16 inlet;
#X obj 24 121 outlet;
#X obj 18 51 t b b;
#X connect 0 0 2 0;
#X connect 2 0 1 0;
#X connect 2 1 1 0;
#X restore 162 174 pd UZI2;
#N canvas 393 192 79 163 UZI2 0;
#X obj 18 16 inlet;
#X obj 24 121 outlet;
#X obj 18 51 t b b;
#X connect 0 0 2 0;
#X connect 2 0 1 0;
#X connect 2 1 1 0;
#X restore 188 196 pd UZI2;
#N canvas 393 192 79 163 UZI2 0;
#X obj 18 16 inlet;
#X obj 24 121 outlet;
#X obj 18 51 t b b;
#X connect 0 0 2 0;
#X connect 2 0 1 0;
#X connect 2 1 1 0;
#X restore 257 200 pd UZI2;
#N canvas 606 261 81 157 UZI3 0;
#X obj 18 16 inlet;
#X obj 24 121 outlet;
#X obj 18 51 t b b b;
#X connect 0 0 2 0;
#X connect 2 0 1 0;
#X connect 2 1 1 0;
#X connect 2 2 1 0;
#X restore 218 221 pd UZI3;
#N canvas 606 261 81 157 UZI3 0;
#X obj 18 16 inlet;
#X obj 24 121 outlet;
#X obj 18 51 t b b b;
#X connect 0 0 2 0;
#X connect 2 0 1 0;
#X connect 2 1 1 0;
#X connect 2 2 1 0;
#X restore 286 225 pd UZI3;
#N canvas 606 261 81 157 UZI3 0;
#X obj 18 16 inlet;
#X obj 24 121 outlet;
#X obj 18 51 t b b b;
#X connect 0 0 2 0;
#X connect 2 0 1 0;
#X connect 2 1 1 0;
#X connect 2 2 1 0;
#X restore 311 246 pd UZI3;
#N canvas 393 192 79 163 UZI2 0;
#X obj 18 16 inlet;
#X obj 24 121 outlet;
#X obj 18 51 t b b;
#X connect 0 0 2 0;
#X connect 2 0 1 0;
#X connect 2 1 1 0;
#X restore 366 254 pd UZI2;
#N canvas 606 261 81 157 UZI3 0;
#X obj 18 16 inlet;
#X obj 24 121 outlet;
#X obj 18 51 t b b b;
#X connect 0 0 2 0;
#X connect 2 0 1 0;
#X connect 2 1 1 0;
#X connect 2 2 1 0;
#X restore 324 277 pd UZI3;
#N canvas 393 192 79 163 UZI2 0;
#X obj 18 16 inlet;
#X obj 24 121 outlet;
#X obj 18 51 t b b;
#X connect 0 0 2 0;
#X connect 2 0 1 0;
#X connect 2 1 1 0;
#X restore 377 277 pd UZI2;
#N canvas 393 192 79 163 UZI2 0;
#X obj 18 16 inlet;
#X obj 24 121 outlet;
#X obj 18 51 t b b;
#X connect 0 0 2 0;
#X connect 2 0 1 0;
#X connect 2 1 1 0;
#X restore 440 288 pd UZI2;
#N canvas 393 192 79 163 UZI2 0;
#X obj 18 16 inlet;
#X obj 24 121 outlet;
#X obj 18 51 t b b;
#X connect 0 0 2 0;
#X connect 2 0 1 0;
#X connect 2 1 1 0;
#X restore 452 310 pd UZI2;
#N canvas 393 192 79 163 UZI2 0;
#X obj 18 16 inlet;
#X obj 24 121 outlet;
#X obj 18 51 t b b;
#X connect 0 0 2 0;
#X connect 2 0 1 0;
#X connect 2 1 1 0;
#X restore 385 302 pd UZI2;
#N canvas 393 192 79 163 UZI2 0;
#X obj 18 16 inlet;
#X obj 24 121 outlet;
#X obj 18 51 t b b;
#X connect 0 0 2 0;
#X connect 2 0 1 0;
#X connect 2 1 1 0;
#X restore 399 326 pd UZI2;
#N canvas 606 261 81 157 UZI3 0;
#X obj 18 16 inlet;
#X obj 24 121 outlet;
#X obj 18 51 t b b b;
#X connect 0 0 2 0;
#X connect 2 0 1 0;
#X connect 2 1 1 0;
#X connect 2 2 1 0;
#X restore 505 308 pd UZI3;
#N canvas 606 261 81 157 UZI3 0;
#X obj 18 16 inlet;
#X obj 24 121 outlet;
#X obj 18 51 t b b b;
#X connect 0 0 2 0;
#X connect 2 0 1 0;
#X connect 2 1 1 0;
#X connect 2 2 1 0;
#X restore 508 329 pd UZI3;
#N canvas 606 261 81 157 UZI3 0;
#X obj 18 16 inlet;
#X obj 24 121 outlet;
#X obj 18 51 t b b b;
#X connect 0 0 2 0;
#X connect 2 0 1 0;
#X connect 2 1 1 0;
#X connect 2 2 1 0;
#X restore 518 347 pd UZI3;
#N canvas 606 261 81 157 UZI3 0;
#X obj 18 16 inlet;
#X obj 24 121 outlet;
#X obj 18 51 t b b b;
#X connect 0 0 2 0;
#X connect 2 0 1 0;
#X connect 2 1 1 0;
#X connect 2 2 1 0;
#X restore 602 327 pd UZI3;
#N canvas 606 261 81 157 UZI3 0;
#X obj 18 16 inlet;
#X obj 24 121 outlet;
#X obj 18 51 t b b b;
#X connect 0 0 2 0;
#X connect 2 0 1 0;
#X connect 2 1 1 0;
#X connect 2 2 1 0;
#X restore 633 349 pd UZI3;
#N canvas 393 192 79 163 UZI2 0;
#X obj 18 16 inlet;
#X obj 24 121 outlet;
#X obj 18 51 t b b;
#X connect 0 0 2 0;
#X connect 2 0 1 0;
#X connect 2 1 1 0;
#X restore 582 349 pd UZI2;
#N canvas 393 192 79 163 UZI2 0;
#X obj 18 16 inlet;
#X obj 24 121 outlet;
#X obj 18 51 t b b;
#X connect 0 0 2 0;
#X connect 2 0 1 0;
#X connect 2 1 1 0;
#X restore 605 371 pd UZI2;
#X connect 0 0 3 0;
#X connect 1 0 14 1;
#X connect 3 0 14 0;
#X connect 4 0 15 0;
#X connect 4 1 5 0;
#X connect 5 0 16 0;
#X connect 5 1 6 0;
#X connect 6 0 17 0;
#X connect 6 1 7 0;
#X connect 7 0 18 0;
#X connect 7 0 19 0;
#X connect 7 1 8 0;
#X connect 8 0 20 0;
#X connect 8 0 21 0;
#X connect 8 1 9 0;
#X connect 9 0 22 0;
#X connect 9 0 23 0;
#X connect 9 1 10 0;
#X connect 10 0 24 0;
#X connect 10 0 26 0;
#X connect 10 0 25 0;
#X connect 10 1 11 0;
#X connect 11 0 27 0;
#X connect 11 0 28 0;
#X connect 11 0 29 0;
#X connect 11 0 30 0;
#X connect 11 1 12 0;
#X connect 12 0 31 0;
#X connect 12 0 32 0;
#X connect 12 0 33 0;
#X connect 12 1 13 0;
#X connect 13 0 34 0;
#X connect 13 0 36 0;
#X connect 13 0 35 0;
#X connect 13 0 37 0;
#X connect 14 0 4 0;
#X connect 15 0 2 0;
#X connect 16 0 2 0;
#X connect 17 0 2 0;
#X connect 18 0 2 0;
#X connect 19 0 2 0;
#X connect 20 0 2 0;
#X connect 21 0 2 0;
#X connect 22 0 2 0;
#X connect 23 0 2 0;
#X connect 24 0 2 0;
#X connect 25 0 2 0;
#X connect 26 0 2 0;
#X connect 27 0 2 0;
#X connect 28 0 2 0;
#X connect 29 0 2 0;
#X connect 30 0 2 0;
#X connect 31 0 2 0;
#X connect 32 0 2 0;
#X connect 33 0 2 0;
#X connect 34 0 2 0;
#X connect 35 0 2 0;
#X connect 36 0 2 0;
#X connect 37 0 2 0;
#X restore 6 -292 pd UZI_to10;
#N canvas 289 22 692 404 UZI_to10 0;
#X obj 16 8 inlet;
#X obj 59 8 inlet;
#X obj 382 367 outlet;
#X obj 16 31 bng 15 250 50 0 empty empty empty 17 7 0 10 -262144 -1
-1;
#X obj 44 78 sel 1;
#X obj 86 103 sel 2;
#X obj 149 129 sel 3;
#X obj 206 152 sel 4;
#X obj 255 176 sel 5;
#X obj 322 202 sel 6;
#X obj 374 226 sel 7;
#X obj 445 255 sel 8;
#X obj 517 279 sel 9;
#X obj 594 302 sel 10;
#X obj 32 54 int 0;
#X obj 43 101 bng 15 250 50 0 empty empty empty 17 7 0 10 -262144 -1
-1;
#N canvas 393 192 79 163 UZI2 0;
#X obj 18 16 inlet;
#X obj 24 121 outlet;
#X obj 18 51 t b b;
#X connect 0 0 2 0;
#X connect 2 0 1 0;
#X connect 2 1 1 0;
#X restore 86 127 pd UZI2;
#N canvas 606 261 81 157 UZI3 0;
#X obj 18 16 inlet;
#X obj 24 121 outlet;
#X obj 18 51 t b b b;
#X connect 0 0 2 0;
#X connect 2 0 1 0;
#X connect 2 1 1 0;
#X connect 2 2 1 0;
#X restore 129 151 pd UZI3;
#N canvas 393 192 79 163 UZI2 0;
#X obj 18 16 inlet;
#X obj 24 121 outlet;
#X obj 18 51 t b b;
#X connect 0 0 2 0;
#X connect 2 0 1 0;
#X connect 2 1 1 0;
#X restore 162 174 pd UZI2;
#N canvas 393 192 79 163 UZI2 0;
#X obj 18 16 inlet;
#X obj 24 121 outlet;
#X obj 18 51 t b b;
#X connect 0 0 2 0;
#X connect 2 0 1 0;
#X connect 2 1 1 0;
#X restore 188 196 pd UZI2;
#N canvas 393 192 79 163 UZI2 0;
#X obj 18 16 inlet;
#X obj 24 121 outlet;
#X obj 18 51 t b b;
#X connect 0 0 2 0;
#X connect 2 0 1 0;
#X connect 2 1 1 0;
#X restore 257 200 pd UZI2;
#N canvas 606 261 81 157 UZI3 0;
#X obj 18 16 inlet;
#X obj 24 121 outlet;
#X obj 18 51 t b b b;
#X connect 0 0 2 0;
#X connect 2 0 1 0;
#X connect 2 1 1 0;
#X connect 2 2 1 0;
#X restore 218 221 pd UZI3;
#N canvas 606 261 81 157 UZI3 0;
#X obj 18 16 inlet;
#X obj 24 121 outlet;
#X obj 18 51 t b b b;
#X connect 0 0 2 0;
#X connect 2 0 1 0;
#X connect 2 1 1 0;
#X connect 2 2 1 0;
#X restore 286 225 pd UZI3;
#N canvas 606 261 81 157 UZI3 0;
#X obj 18 16 inlet;
#X obj 24 121 outlet;
#X obj 18 51 t b b b;
#X connect 0 0 2 0;
#X connect 2 0 1 0;
#X connect 2 1 1 0;
#X connect 2 2 1 0;
#X restore 311 246 pd UZI3;
#N canvas 393 192 79 163 UZI2 0;
#X obj 18 16 inlet;
#X obj 24 121 outlet;
#X obj 18 51 t b b;
#X connect 0 0 2 0;
#X connect 2 0 1 0;
#X connect 2 1 1 0;
#X restore 366 254 pd UZI2;
#N canvas 606 261 81 157 UZI3 0;
#X obj 18 16 inlet;
#X obj 24 121 outlet;
#X obj 18 51 t b b b;
#X connect 0 0 2 0;
#X connect 2 0 1 0;
#X connect 2 1 1 0;
#X connect 2 2 1 0;
#X restore 324 277 pd UZI3;
#N canvas 393 192 79 163 UZI2 0;
#X obj 18 16 inlet;
#X obj 24 121 outlet;
#X obj 18 51 t b b;
#X connect 0 0 2 0;
#X connect 2 0 1 0;
#X connect 2 1 1 0;
#X restore 377 277 pd UZI2;
#N canvas 393 192 79 163 UZI2 0;
#X obj 18 16 inlet;
#X obj 24 121 outlet;
#X obj 18 51 t b b;
#X connect 0 0 2 0;
#X connect 2 0 1 0;
#X connect 2 1 1 0;
#X restore 440 288 pd UZI2;
#N canvas 393 192 79 163 UZI2 0;
#X obj 18 16 inlet;
#X obj 24 121 outlet;
#X obj 18 51 t b b;
#X connect 0 0 2 0;
#X connect 2 0 1 0;
#X connect 2 1 1 0;
#X restore 452 310 pd UZI2;
#N canvas 393 192 79 163 UZI2 0;
#X obj 18 16 inlet;
#X obj 24 121 outlet;
#X obj 18 51 t b b;
#X connect 0 0 2 0;
#X connect 2 0 1 0;
#X connect 2 1 1 0;
#X restore 385 302 pd UZI2;
#N canvas 393 192 79 163 UZI2 0;
#X obj 18 16 inlet;
#X obj 24 121 outlet;
#X obj 18 51 t b b;
#X connect 0 0 2 0;
#X connect 2 0 1 0;
#X connect 2 1 1 0;
#X restore 399 326 pd UZI2;
#N canvas 606 261 81 157 UZI3 0;
#X obj 18 16 inlet;
#X obj 24 121 outlet;
#X obj 18 51 t b b b;
#X connect 0 0 2 0;
#X connect 2 0 1 0;
#X connect 2 1 1 0;
#X connect 2 2 1 0;
#X restore 505 308 pd UZI3;
#N canvas 606 261 81 157 UZI3 0;
#X obj 18 16 inlet;
#X obj 24 121 outlet;
#X obj 18 51 t b b b;
#X connect 0 0 2 0;
#X connect 2 0 1 0;
#X connect 2 1 1 0;
#X connect 2 2 1 0;
#X restore 508 329 pd UZI3;
#N canvas 606 261 81 157 UZI3 0;
#X obj 18 16 inlet;
#X obj 24 121 outlet;
#X obj 18 51 t b b b;
#X connect 0 0 2 0;
#X connect 2 0 1 0;
#X connect 2 1 1 0;
#X connect 2 2 1 0;
#X restore 518 347 pd UZI3;
#N canvas 606 261 81 157 UZI3 0;
#X obj 18 16 inlet;
#X obj 24 121 outlet;
#X obj 18 51 t b b b;
#X connect 0 0 2 0;
#X connect 2 0 1 0;
#X connect 2 1 1 0;
#X connect 2 2 1 0;
#X restore 602 327 pd UZI3;
#N canvas 606 261 81 157 UZI3 0;
#X obj 18 16 inlet;
#X obj 24 121 outlet;
#X obj 18 51 t b b b;
#X connect 0 0 2 0;
#X connect 2 0 1 0;
#X connect 2 1 1 0;
#X connect 2 2 1 0;
#X restore 633 349 pd UZI3;
#N canvas 393 192 79 163 UZI2 0;
#X obj 18 16 inlet;
#X obj 24 121 outlet;
#X obj 18 51 t b b;
#X connect 0 0 2 0;
#X connect 2 0 1 0;
#X connect 2 1 1 0;
#X restore 582 349 pd UZI2;
#N canvas 393 192 79 163 UZI2 0;
#X obj 18 16 inlet;
#X obj 24 121 outlet;
#X obj 18 51 t b b;
#X connect 0 0 2 0;
#X connect 2 0 1 0;
#X connect 2 1 1 0;
#X restore 605 371 pd UZI2;
#X connect 0 0 3 0;
#X connect 1 0 14 1;
#X connect 3 0 14 0;
#X connect 4 0 15 0;
#X connect 4 1 5 0;
#X connect 5 0 16 0;
#X connect 5 1 6 0;
#X connect 6 0 17 0;
#X connect 6 1 7 0;
#X connect 7 0 18 0;
#X connect 7 0 19 0;
#X connect 7 1 8 0;
#X connect 8 0 20 0;
#X connect 8 0 21 0;
#X connect 8 1 9 0;
#X connect 9 0 22 0;
#X connect 9 0 23 0;
#X connect 9 1 10 0;
#X connect 10 0 24 0;
#X connect 10 0 26 0;
#X connect 10 0 25 0;
#X connect 10 1 11 0;
#X connect 11 0 27 0;
#X connect 11 0 28 0;
#X connect 11 0 29 0;
#X connect 11 0 30 0;
#X connect 11 1 12 0;
#X connect 12 0 31 0;
#X connect 12 0 32 0;
#X connect 12 0 33 0;
#X connect 12 1 13 0;
#X connect 13 0 34 0;
#X connect 13 0 36 0;
#X connect 13 0 35 0;
#X connect 13 0 37 0;
#X connect 14 0 4 0;
#X connect 15 0 2 0;
#X connect 16 0 2 0;
#X connect 17 0 2 0;
#X connect 18 0 2 0;
#X connect 19 0 2 0;
#X connect 20 0 2 0;
#X connect 21 0 2 0;
#X connect 22 0 2 0;
#X connect 23 0 2 0;
#X connect 24 0 2 0;
#X connect 25 0 2 0;
#X connect 26 0 2 0;
#X connect 27 0 2 0;
#X connect 28 0 2 0;
#X connect 29 0 2 0;
#X connect 30 0 2 0;
#X connect 31 0 2 0;
#X connect 32 0 2 0;
#X connect 33 0 2 0;
#X connect 34 0 2 0;
#X connect 35 0 2 0;
#X connect 36 0 2 0;
#X connect 37 0 2 0;
#X restore 6 -229 pd UZI_to10;
#X obj 6 -268 t b b;
#X msg 69 -251 10;
#X connect 0 0 5 0;
#X connect 1 0 3 0;
#X connect 2 0 4 0;
#X connect 3 0 2 0;
#X connect 3 1 2 1;
#X connect 4 0 6 0;
#X connect 5 0 7 0;
#X connect 6 0 11 0;
#X connect 6 1 11 1;
#X connect 7 0 10 0;
#X connect 7 1 10 1;
#X connect 8 0 1 0;
#X connect 8 0 0 0;
#X connect 10 0 9 0;
#X connect 11 0 13 0;
#X connect 12 0 9 0;
#X connect 13 0 12 0;
#X connect 13 1 14 0;
#X connect 14 0 12 1;
#X restore 8 141 pd UZI_to100;
#X connect 0 0 2 0;
#X connect 1 0 0 0;
#X connect 1 1 0 1;
#X connect 2 0 11 0;
#X connect 3 0 8 0;
#X connect 4 0 1 0;
#X connect 5 0 3 0;
#X connect 6 0 4 0;
#X connect 6 0 5 0;
#X connect 8 0 7 0;
#X connect 9 0 7 0;
#X connect 10 0 9 0;
#X connect 11 0 10 0;
#X restore -144 16 pd UZI_to10999;
#X text -160 -75 Note: Max value allowed is 10999;
#X connect 0 0 3 0;
#X connect 1 0 4 1;
#X connect 1 0 5 0;
#X connect 3 0 4 0;
#X connect 4 0 6 0;
#X connect 6 0 2 0;
