#N canvas 1094 412 162 156 10;
#X obj -23 72 metro 30;
#X obj -24 0 loadbang;
#X msg -24 25 1;
#X obj 45 0 inlet~;
#X obj 28 109 snapshot~;
#X obj 28 131 outlet;
#X obj -23 52 tgl 15 0 empty empty empty 17 7 0 10 -262144 -1 -1 0
1;
#X obj 90 0 inlet;
#X connect 0 0 4 0;
#X connect 1 0 2 0;
#X connect 2 0 6 0;
#X connect 3 0 4 0;
#X connect 4 0 5 0;
#X connect 6 0 0 0;
#X connect 7 0 6 0;
