#N canvas 427 313 502 338 10;
#X obj 12 -3 inlet;
#X text 7 -20 Velocity;
#X obj 199 4 inlet;
#X text 202 -16 Attack;
#X obj 244 3 inlet;
#X text 245 -16 Decay;
#X obj 302 3 inlet;
#X obj 399 2 inlet;
#X text 305 -17 Sustain;
#X text 400 -17 Release;
#X obj 12 21 sel 0;
#X obj 12 112 s \$0-off;
#X obj 39 43 bng 15 250 50 0 empty empty empty 17 7 0 10 -262144 -1
-1;
#X obj 175 256 vline~;
#X obj 75 111 pack 1 100;
#X obj 148 109 delay 100;
#X obj 175 180 pack 0.5 500;
#X obj 256 206 pack 0 300;
#X obj 175 281 outlet~;
#X obj 175 211 ggate;
#X obj 302 33 t b f b;
#X msg 302 54 0;
#X msg 341 54 1;
#X floatatom 69 20 5 0 0 0 - - -;
#X obj 256 180 r \$0-off;
#X obj 199 26 t f f;
#X obj 12 43 bng 15 250 50 0 empty empty empty 17 7 0 10 -262144 -1
-1;
#X obj 449 0 inlet;
#X obj 373 163 b;
#X obj 328 205 pack 0 50;
#X obj 88 71 t b b b;
#X obj 12 81 t b b;
#X msg 176 134 0;
#X msg 190 134 1;
#X obj 148 155 spigot;
#X text 452 -17 Kill;
#X obj 12 269 print ADSR;
#X msg 12 154 note off;
#X msg 39 178 note on;
#X msg 54 213 note kill note;
#X connect 0 0 10 0;
#X connect 0 0 23 0;
#X connect 2 0 25 0;
#X connect 4 0 16 1;
#X connect 6 0 20 0;
#X connect 7 0 17 1;
#X connect 10 0 26 0;
#X connect 10 1 12 0;
#X connect 12 0 38 0;
#X connect 12 0 30 0;
#X connect 13 0 18 0;
#X connect 14 0 13 0;
#X connect 15 0 34 0;
#X connect 16 0 19 0;
#X connect 17 0 13 0;
#X connect 19 0 13 0;
#X connect 20 0 21 0;
#X connect 20 1 16 0;
#X connect 20 2 22 0;
#X connect 21 0 19 1;
#X connect 22 0 19 1;
#X connect 24 0 17 0;
#X connect 25 0 14 1;
#X connect 25 1 15 1;
#X connect 26 0 31 0;
#X connect 27 0 28 0;
#X connect 27 0 39 0;
#X connect 28 0 29 0;
#X connect 29 0 13 0;
#X connect 30 0 15 0;
#X connect 30 1 14 0;
#X connect 30 2 33 0;
#X connect 31 0 11 0;
#X connect 31 0 37 0;
#X connect 31 1 32 0;
#X connect 32 0 34 1;
#X connect 33 0 34 1;
#X connect 34 0 16 0;
#X connect 37 0 36 0;
#X connect 38 0 36 0;
#X connect 39 0 36 0;
