#N canvas 263 23 927 486 10;
#X obj 17 -96 inlet;
#X text 12 -113 Velocity;
#X obj 225 -81 inlet;
#X text 228 -101 Attack;
#X obj 319 -82 inlet;
#X text 320 -101 Decay;
#X obj 407 -81 inlet;
#X obj 504 -80 inlet;
#X text 410 -101 Sustain;
#X text 505 -99 Release;
#X obj 17 -72 sel 0;
#X obj 17 101 s \$0-off;
#X obj 44 -50 bng 15 250 50 0 empty empty empty 17 7 0 10 -262144 -1
-1;
#X obj 143 283 vline~;
#X obj 183 50 pack 1 100;
#X obj 309 58 delay 100;
#X obj 309 144 pack 0.5 500;
#X obj 569 7 pack 0 300;
#X obj 143 308 outlet~;
#X floatatom 74 -73 5 0 0 0 - - -;
#X obj 569 -14 r \$0-off;
#X obj 275 4 t f f;
#X obj 17 -50 bng 15 250 50 0 empty empty empty 17 7 0 10 -262144 -1
-1;
#X obj 593 -82 inlet;
#X obj 725 8 b;
#X obj 725 30 pack 0 50;
#X obj 164 10 t b b b;
#X obj 17 53 t b b;
#X msg 411 57 0;
#X msg 385 57 1;
#X obj 309 91 spigot;
#X text 596 -99 Kill;
#X msg 23 152 note off;
#X msg 32 193 note on;
#X msg 40 235 kill note;
#X obj 244 310 outlet;
#X obj 244 272 tgl 15 0 empty empty empty 17 7 0 10 -262144 -1 -1 1
1;
#X obj 660 -83 inlet;
#X text 658 -100 Print;
#X obj 660 -58 s \$0-print;
#X obj 56 261 r \$0-print;
#X obj 23 286 spigot;
#X obj 725 63 t l l;
#X obj 752 88 s \$0-indicate;
#X obj 569 29 t l l;
#X obj 183 73 t l l;
#X obj 356 190 t l l;
#X obj 244 290 diff;
#X obj 593 -58 s \$0-kill;
#X obj 40 214 r \$0-kill;
#X obj 356 167 spigot;
#X obj 244 183 r \$0-indicate;
#X obj 44 16 s \$0-on;
#X obj 23 131 r \$0-off;
#X obj 32 172 r \$0-on;
#X obj 23 309 print ADSR-\$0;
#X obj 164 -15 r \$0-on;
#X obj 44 -25 t b b;
#X obj 71 -5 s \$0-pre_on;
#X obj 225 -58 s \$0-attack;
#X obj 275 -20 r \$0-attack;
#X obj 319 -58 s \$0-decay;
#X obj 378 96 r \$0-decay;
#X obj 407 -58 s \$0-sustain;
#X obj 462 68 r \$0-sustain;
#X obj 504 -58 s \$0-release;
#X obj 626 -15 r \$0-release;
#X obj 725 -15 r \$0-kill;
#X obj 569 74 s \$0-out_gain;
#X obj 143 259 r \$0-out_gain;
#X obj 356 235 s \$0-out_gain;
#X obj 183 114 s \$0-out_gain;
#X obj 210 94 s \$0-indicate;
#X obj 725 109 s \$0-out_gain;
#X obj 596 52 s \$0-indicate;
#X obj 383 214 s \$0-indicate;
#X obj 462 90 t b f b;
#X obj 244 203 line 0 0 1;
#X obj 244 226 == 0;
#X obj 244 247 == 0;
#X text 528 195 ADSR: A note-on triggers attack & decay messages to
the vline~ \, and note-off triggers the release. Print statements can
be toggled & the Kill inlet immediately releases the note.;
#X text 529 259 Before initiating the vline~ commands \, it sends indicator
messages to both indicate the note is about to play and when the note
has finished playing. This makes using the switch~ object to toggle
DSP computation much simpler \, since it can be controlled directly
by this ADSR.;
#X text 61 -96 <- Note on/off command;
#X text 79 48 Start Note On ->;
#X text 168 143 Start Sustain Phase ->;
#X text 430 5 Start Release Phase ->;
#X text 788 32 <- Kill Immediately;
#X obj 44 80 s \$0-kill_decay;
#X obj 411 31 r \$0-kill_decay;
#X floatatom 153 -62 5 0 0 0 - - -;
#X obj 208 -56 cnv 15 15 15 empty empty empty 20 12 0 14 -181071 -66577
0;
#X obj 258 -20 cnv 15 15 15 empty empty empty 20 12 0 14 -181071 -66577
0;
#X obj 390 -56 cnv 15 15 15 empty empty empty 20 12 0 14 -71602 -66577
0;
#X obj 444 68 cnv 15 15 15 empty empty empty 20 12 0 14 -71602 -66577
0;
#X obj 361 97 cnv 15 15 15 empty empty empty 20 12 0 14 -259329 -66577
0;
#X obj 302 -56 cnv 15 15 15 empty empty empty 20 12 0 14 -259329 -66577
0;
#X obj 487 -56 cnv 15 15 15 empty empty empty 20 12 0 14 -11423 -66577
0;
#X obj 704 -13 cnv 15 15 15 empty empty empty 20 12 0 14 -11423 -66577
0;
#X obj 144 328 view~;
#X floatatom 144 351 20 0 0 0 - - -;
#X msg 501 114 0;
#X msg 462 114 1;
#X connect 0 0 10 0;
#X connect 0 0 19 0;
#X connect 2 0 59 0;
#X connect 4 0 61 0;
#X connect 6 0 63 0;
#X connect 7 0 65 0;
#X connect 10 0 22 0;
#X connect 10 1 12 0;
#X connect 12 0 57 0;
#X connect 13 0 18 0;
#X connect 13 0 98 0;
#X connect 14 0 45 0;
#X connect 15 0 30 0;
#X connect 16 0 50 0;
#X connect 17 0 44 0;
#X connect 20 0 17 0;
#X connect 21 0 14 1;
#X connect 21 1 15 1;
#X connect 22 0 27 0;
#X connect 23 0 48 0;
#X connect 24 0 25 0;
#X connect 25 0 42 0;
#X connect 26 0 15 0;
#X connect 26 1 14 0;
#X connect 26 2 29 0;
#X connect 27 0 11 0;
#X connect 27 1 87 0;
#X connect 28 0 30 1;
#X connect 29 0 30 1;
#X connect 30 0 16 0;
#X connect 32 0 41 0;
#X connect 33 0 41 0;
#X connect 34 0 41 0;
#X connect 36 0 47 0;
#X connect 37 0 39 0;
#X connect 40 0 41 1;
#X connect 41 0 55 0;
#X connect 42 0 73 0;
#X connect 42 1 43 0;
#X connect 44 0 68 0;
#X connect 44 1 74 0;
#X connect 45 0 71 0;
#X connect 45 1 72 0;
#X connect 46 0 70 0;
#X connect 46 1 75 0;
#X connect 47 0 35 0;
#X connect 49 0 34 0;
#X connect 50 0 46 0;
#X connect 51 0 77 0;
#X connect 53 0 32 0;
#X connect 54 0 33 0;
#X connect 56 0 26 0;
#X connect 57 0 52 0;
#X connect 57 1 58 0;
#X connect 60 0 21 0;
#X connect 62 0 16 1;
#X connect 64 0 76 0;
#X connect 66 0 17 1;
#X connect 67 0 24 0;
#X connect 69 0 13 0;
#X connect 76 0 101 0;
#X connect 76 1 16 0;
#X connect 76 2 100 0;
#X connect 77 0 78 0;
#X connect 78 0 79 0;
#X connect 79 0 36 0;
#X connect 88 0 28 0;
#X connect 89 0 10 0;
#X connect 98 0 99 0;
#X connect 100 0 50 1;
#X connect 101 0 50 1;
