#N canvas 545 600 221 306 10;
#N canvas 49 37 115 149 input~ 0;
#X obj 14 46 adc~;
#X obj 24 80 *~ 1;
#X obj 45 20 inlet;
#X obj 24 113 outlet~;
#X connect 0 0 1 0;
#X connect 0 1 1 0;
#X connect 1 0 3 0;
#X connect 2 0 1 1;
#X restore 68 73 pd input~;
#X obj 68 26 r \$0-input_gain;
#X floatatom 68 50 5 0 0 0 - - -;
#N canvas 39 61 450 300 controls 0;
#X obj 13 31 s \$0-input_gain;
#X floatatom 13 11 5 0 0 0 - - -;
#X obj 121 12 tgl 15 0 empty empty 0-play_1-record 17 7 0 10 -262144
-1 -1 0 1;
#X obj 121 31 s \$0-mode;
#X connect 1 0 0 0;
#X connect 2 0 3 0;
#X restore 67 -4 pd controls;
#X obj 68 168 ggate~;
#X obj 101 145 tgl 15 0 empty empty empty 17 7 0 10 -262144 -1 -1 0
1;
#X obj 101 122 r \$0-mode;
#X text 64 -28 Audio To Midi App;
#N canvas 194 495 450 300 record~ 0;
#X obj 14 11 inlet~;
#X restore 68 205 pd record~;
#N canvas 471 210 450 300 play~ 0;
#X obj 19 14 inlet~;
#X obj 20 256 outlet;
#X restore 141 205 pd play~;
#X connect 0 0 4 0;
#X connect 1 0 2 0;
#X connect 2 0 0 0;
#X connect 4 0 8 0;
#X connect 4 1 9 0;
#X connect 5 0 4 1;
#X connect 6 0 5 0;
