#N canvas 93 24 607 389 10;
#X obj -329 -19 inlet~;
#X obj -329 39 rfft~;
#X obj -329 72 *~;
#X obj -298 72 *~;
#X obj -329 97 sqrt~;
#X obj -329 153 biquad~ 0 0 0 0 1;
#X text -293 40 Fourier series;
#X text -266 75 magnitude;
#X text -268 65 calculate;
#X text -350 -39 signal to analyze;
#X text -320 123 delay two samples;
#X text -321 135 for better graphing;
#X obj -329 318 tabwrite~ \$0-spectrum;
#X obj -310 298 metro;
#X obj -310 280 tgl 15 0 empty empty empty 17 7 0 10 -262144 -1 -1
1 1;
#X obj -329 177 /~ \$1;
#X obj -283 252 loadbang;
#X obj 66 255 block~ \$1 1;
#X obj -151 202 f \$0;
#X obj -151 277 pack 0 0;
#X obj -72 201 f \$1;
#X obj -151 158 loadbang;
#X obj -151 180 t b b;
#X msg -151 298 \; \$1-spectrum resize \$2 \;;
#X obj -72 222 / 2;
#X obj -329 230 *~ 1;
#X msg -283 274 0;
#X obj -88 246 t b f;
#X obj -77 53 inlet;
#X obj -70 179 / 2;
#X obj -76 97 t b f;
#X obj -76 119 f \$1;
#X obj -76 76 * 1;
#X obj 20 117 cnv 15 170 60 empty empty Click_To_See_Graph: 9 12 0
14 -538 -262144 0;
#X obj 41 146 table \$0-spectrum \$1;
#X obj -308 207 r \$0-gain;
#X obj -215 -23 inlet;
#X obj -213 0 s \$0-gain;
#X text -228 -40 Gain Control (Graph Only);
#X text -105 20 Resize Factor;
#X text 2 -38 Argument: Number of points in FFT.;
#X text 0 -22 4096 -> Lowest Resolvable Freq: 10 Hz;
#X text 0 -9 2048 -> Lowest Resolvable Freq: 21 Hz;
#X text 15 20 In General:;
#X text 13 34 lowest_freq = sampling_rate / N;
#X text -129 34 Zooms in Low Freqs;
#X text 38 51 10.7 Hz = 44100 / 4069;
#X connect 0 0 1 0;
#X connect 1 0 2 0;
#X connect 1 0 2 1;
#X connect 1 1 3 0;
#X connect 1 1 3 1;
#X connect 2 0 4 0;
#X connect 3 0 4 0;
#X connect 4 0 5 0;
#X connect 5 0 15 0;
#X connect 13 0 12 0;
#X connect 14 0 13 0;
#X connect 15 0 25 0;
#X connect 16 0 14 0;
#X connect 16 0 26 0;
#X connect 18 0 19 0;
#X connect 19 0 23 0;
#X connect 20 0 24 0;
#X connect 21 0 22 0;
#X connect 22 0 18 0;
#X connect 22 1 20 0;
#X connect 24 0 27 0;
#X connect 25 0 12 0;
#X connect 26 0 13 1;
#X connect 27 0 19 0;
#X connect 27 1 19 1;
#X connect 28 0 32 0;
#X connect 29 0 20 0;
#X connect 30 0 31 0;
#X connect 30 1 29 1;
#X connect 31 0 29 0;
#X connect 32 0 30 0;
#X connect 35 0 25 1;
#X connect 36 0 37 0;
