#N canvas 599 59 383 334 10;
#X obj -1 -41 cnv 10 380 250 empty empty Dictionary: 20 12 0 14 -212281
-66577 0;
#X text 16 26 A patch that stores key-value pairs for use later;
#X text 37 39 Valid Keys: any symbol or number \, no lists;
#X text 37 53 Valid Values: anything;
#X text 14 76 The SET inlet takes an expression (e.g. "new_var 5")
and writes a new entry \, with the first term being the key and the
rest being the value. Blank values (e.g. "5") will have a default value
of "bang".;
#X text 13 144 GET takes a key and then outputs the associated value.
If there is no match for the key \, it is routed through the NO_MATCH
outlet. In both cases \, the key is routed through the KEY outlet.
;
#X obj -1 210 cnv 1 380 80 empty empty empty 20 12 0 14 -228856 -66577
0;
#X obj 128 221 inlet RESET;
#X obj 202 221 inlet OUTPUT_ALL;
#X obj 306 221 inlet DEBUG;
#X obj 4 221 inlet SET;
#X obj 66 221 inlet GET;
#N canvas 377 175 1076 641 backend 1;
#X obj 517 353 counter;
#X obj 672 348 list;
#X obj 690 324 list;
#X obj 278 565 s pd-entries;
#X obj 673 378 list trim;
#X msg 674 256 dictionary_entry;
#X msg 596 318 obj \$1 \$2;
#X obj 596 293 pack 0 50;
#X obj 595 246 counter;
#X obj 761 173 t b b b a;
#X msg 762 134 routes 1 2 3;
#X obj 596 271 * 100;
#X obj 478 486 lobject;
#X msg 491 442 dictionary_entry;
#X obj 213 -3 bng 15 250 50 0 empty empty empty 17 7 0 10 -262144 -1
-1;
#X msg 205 428 connect 2 0 1 0;
#X msg 343 424 connect -1 0 2 0;
#X msg 468 217 connect 0 0 3 0;
#X msg 205 401 set connect \$1 0 1 0;
#X obj 275 311 + 3;
#X obj 517 376 - 1;
#X msg 359 374 -1 2 0;
#X obj 317 194 ggate;
#X obj 343 144 >= 1;
#X obj 343 119 t f f f;
#X obj 359 285 t b f;
#X obj 368 257 + 2;
#X msg 343 399 set connect \$1 \$3 \$2 0;
#X obj 374 322 pack 0 0 0;
#X msg 359 343 set \$1 \$2 \$3;
#X msg 399 285 0;
#X msg 437 285 1;
#X obj 299 236 t f b;
#X obj 364 228 t f b;
#X obj 655 442 t b b b;
#X msg 694 468 clear;
#X msg 674 492 obj 0 0 inlet \, obj 0 100 outlet \, obj 50 100 outlet
;
#X obj 638 65 list split 1;
#X obj -43 1 t b b b b b b a b a;
#X obj 712 21 t a b;
#X obj 739 46 counter;
#X msg 739 87 set \$1;
#X msg 528 110 0;
#X obj 638 109 list trim;
#X msg 560 134 clear;
#X msg 515 134 rewind;
#N canvas 149 508 178 162 dictionary 0;
#X obj 3 -7 r \$0-key;
#X obj 3 71 s \$0-value;
#X obj 76 71 s \$0-no_match;
#N canvas 10 729 1377 129 entries 0;
#X obj 0 0 inlet;
#X obj 0 100 outlet;
#X obj 50 100 outlet;
#X restore 4 31 pd entries;
#X connect 0 0 3 0;
#X connect 3 0 1 0;
#X connect 3 1 2 0;
#X restore -15 568 pd dictionary;
#X obj 442 560 s pd-dictionary;
#X msg 655 514 connect 0 0 3 0 \, connect 3 0 1 0 \, connect 3 1 2
0;
#X obj 582 213 s \$0-key;
#X obj 742 333 r \$0-value;
#X obj 517 421 pack 0 50;
#X obj 889 329 r \$0-no_match;
#X obj 888 352 list trim;
#X obj 638 165 textfile;
#X msg 652 130 print;
#X obj 638 86 list prepend add;
#X obj 746 355 list trim;
#X obj 517 399 * 200;
#X msg -66 422 set connect \$1 1 2 0;
#X msg -66 443 connect 2 1 2 0;
#X obj 48 402 - 1;
#X obj 29 366 t f f;
#X obj -21 351 t b b;
#X msg 48 441 set disconnect \$1 1 2 0;
#X msg 48 463 disconnect 1 1 2 0;
#X obj 818 74 + 2;
#X floatatom 816 97 5 0 0 0 - - -;
#X obj 421 89 t b b b;
#X obj 418 138 minigun;
#X obj 349 -4 bng 15 250 50 0 empty empty empty 17 7 0 10 -262144 -1
-1;
#X obj 515 83 t b b;
#X obj 589 469 s \$0-reset;
#X obj 515 64 r \$0-reset;
#X obj 770 16 r \$0-reset;
#X obj 506 310 r \$0-reset;
#X obj 211 -30 inlet RESET;
#X obj 345 -32 inlet OUTPUT_ALL;
#X obj 490 -31 inlet DEBUG;
#X obj 491 -9 bng 15 250 50 0 empty empty empty 17 7 0 10 -262144 -1
-1;
#X obj -37 -31 inlet SET;
#X obj 820 355 list trim;
#X obj 107 -30 inlet GET;
#X obj 820 331 r \$0-key;
#X obj 739 420 outlet VALUE;
#X obj 816 418 outlet KEY;
#X obj 891 418 outlet NO_MATCH;
#X connect 0 0 20 0;
#X connect 1 0 4 0;
#X connect 2 0 1 1;
#X connect 5 0 2 0;
#X connect 6 0 1 0;
#X connect 7 0 6 0;
#X connect 8 0 11 0;
#X connect 9 0 8 0;
#X connect 9 2 5 0;
#X connect 9 3 2 1;
#X connect 10 0 9 0;
#X connect 11 0 7 0;
#X connect 12 0 3 0;
#X connect 13 0 12 1;
#X connect 14 0 34 0;
#X connect 15 0 3 0;
#X connect 16 0 3 0;
#X connect 17 0 3 0;
#X connect 18 0 15 0;
#X connect 19 0 18 0;
#X connect 19 0 28 1;
#X connect 19 0 62 0;
#X connect 20 0 24 0;
#X connect 20 0 58 0;
#X connect 21 0 27 0;
#X connect 22 0 32 0;
#X connect 22 1 33 0;
#X connect 23 0 22 1;
#X connect 24 0 22 0;
#X connect 24 1 23 0;
#X connect 24 2 19 0;
#X connect 25 0 21 0;
#X connect 25 1 28 0;
#X connect 26 0 25 0;
#X connect 27 0 16 0;
#X connect 28 0 29 0;
#X connect 29 0 21 0;
#X connect 30 0 28 2;
#X connect 31 0 28 2;
#X connect 32 0 25 0;
#X connect 32 1 30 0;
#X connect 33 0 26 0;
#X connect 33 1 31 0;
#X connect 34 0 48 0;
#X connect 34 0 72 0;
#X connect 34 1 36 0;
#X connect 34 2 35 0;
#X connect 35 0 3 0;
#X connect 36 0 3 0;
#X connect 37 0 56 0;
#X connect 38 1 63 0;
#X connect 38 2 15 0;
#X connect 38 3 16 0;
#X connect 38 4 12 0;
#X connect 38 5 13 0;
#X connect 38 6 12 2;
#X connect 38 7 0 0;
#X connect 38 8 39 0;
#X connect 39 0 37 0;
#X connect 39 1 40 0;
#X connect 40 0 41 0;
#X connect 40 0 66 0;
#X connect 41 0 42 0;
#X connect 42 0 69 1;
#X connect 43 0 54 0;
#X connect 44 0 54 0;
#X connect 45 0 54 0;
#X connect 48 0 47 0;
#X connect 50 0 57 0;
#X connect 51 0 12 3;
#X connect 52 0 53 0;
#X connect 53 0 86 0;
#X connect 54 0 49 0;
#X connect 55 0 54 0;
#X connect 56 0 43 0;
#X connect 57 0 84 0;
#X connect 58 0 51 0;
#X connect 59 0 60 0;
#X connect 60 0 3 0;
#X connect 61 0 64 0;
#X connect 62 0 59 0;
#X connect 62 1 61 0;
#X connect 63 0 60 0;
#X connect 63 1 65 0;
#X connect 64 0 65 0;
#X connect 65 0 3 0;
#X connect 66 0 67 0;
#X connect 68 0 69 0;
#X connect 68 1 42 0;
#X connect 68 2 45 0;
#X connect 69 0 54 0;
#X connect 70 0 68 0;
#X connect 71 0 45 0;
#X connect 71 1 44 0;
#X connect 73 0 71 0;
#X connect 74 0 40 3;
#X connect 75 0 0 3;
#X connect 76 0 14 0;
#X connect 77 0 70 0;
#X connect 78 0 79 0;
#X connect 79 0 55 0;
#X connect 80 0 38 0;
#X connect 81 0 85 0;
#X connect 82 0 49 0;
#X connect 83 0 81 0;
#X restore 140 245 pd backend;
#X obj 61 267 outlet VALUE;
#X obj 139 267 outlet KEY;
#X obj 205 267 outlet NO_MATCH;
#X text 15 -13 THIS IS A TEMPLATE - COPY AND PASTE EVERYTHING HERE
INTO A SUBPATCH TO USE YOUR OWN PERSISTENT DICTIONARY.;
#X connect 7 0 12 2;
#X connect 8 0 12 3;
#X connect 9 0 12 4;
#X connect 10 0 12 0;
#X connect 11 0 12 1;
#X connect 12 0 13 0;
#X connect 12 1 14 0;
#X connect 12 2 15 0;
