#N canvas 537 42 426 345 10;
#X obj 178 158 inlet SET;
#X obj 86 155 inlet RUN;
#N canvas 235 93 992 728 backend 0;
#X msg 114 76 obj 164 17 inlet \, obj 195 70 list length \, obj 198
94 >= 1 \, obj 171 119 spigot \, obj 171 142 list split 1 \, obj 164
46 t a a b \, obj 333 190 list \, obj 93 87 sel 0 \, obj 93 112 t b
b \, obj 97 54 t f f \, obj 173 166 t b b b a \, obj 172 275 outlet
\,;
#X obj 308 221 list;
#X msg 286 172 obj 212 191;
#X obj 226 -51 bng 15 250 50 0 empty empty empty 17 7 0 10 -262144
-1 -1;
#X obj 313 263 list trim;
#X obj 267 -72 inlet SET;
#X obj 308 138 t b a;
#X msg 80 -51 makefilename %sPoop;
#X msg 420 302 clear;
#X obj 242 -30 t b b a b b;
#X obj 38 72 t b b;
#X msg 30 258 connect 0 0 2 0 \, connect 2 0 1 0;
#X obj 33 388 r \$0-out;
#X obj 19 -52 s \$0-in;
#X obj 19 -83 inlet RUN;
#X obj 28 431 outlet;
#X obj 242 369 s pd-\$0-FOR;
#N canvas 299 80 197 253 \$0-shell 0;
#X obj 76 -17 r \$0-in;
#X obj 77 59 s \$0-out;
#N canvas 158 535 450 300 \$0-FOR 0;
#X restore 78 21 pd \$0-FOR;
#X restore 56 352 pd \$0-shell;
#X obj 30 283 s pd-\$0-shell;
#X msg 450 -22 obj 170 248 lbuilder \, connect 0 0 5 0 \, connect 1
0 9 0 \, connect 2 0 3 1 \, connect 3 0 4 0 \, connect 4 0 10 0 \,
connect 4 1 6 1 \, connect 5 0 3 0 \, connect 5 1 1 0 \, connect 6
0 5 0 \, connect 7 0 8 0 \, connect 8 0 13 2 \, connect 8 1 13 1 \,
connect 9 0 7 0 \, connect 9 1 2 0 \, connect 10 0 6 0 \, connect 10
3 12 0 \, connect 12 0 13 0 \, connect 13 0 11 0 \, loadbang \,;
#X connect 0 0 16 0;
#X connect 1 0 4 0;
#X connect 2 0 1 0;
#X connect 3 0 9 0;
#X connect 4 0 16 0;
#X connect 5 0 9 0;
#X connect 6 0 2 0;
#X connect 6 1 1 1;
#X connect 7 0 9 0;
#X connect 8 0 16 0;
#X connect 9 0 10 0;
#X connect 9 1 19 0;
#X connect 9 2 6 0;
#X connect 9 3 0 0;
#X connect 9 4 8 0;
#X connect 10 1 11 0;
#X connect 11 0 18 0;
#X connect 12 0 15 0;
#X connect 14 0 13 0;
#X connect 19 0 16 0;
#X restore 115 188 pd backend;
#X text 4 -57 THIS IS A TEMPLATE - COPY AND PASTE IN A SUBPATCH TO
USE IN YOUR OWN PROJECT. DO NOT USE OR SAVE OVER THIS COPY.;
#X text 18 5 For loop that iterates over each element in a list and
passes them through the object defined in the SET inlet: Example:;
#X msg 39 60 makefilename PREFIX_%s;
#X text 39 79 will cause each element in the list to be routed through
the makefilename object \, which will prepend "PREFIX_" to each element
in the list.;
#X obj 117 221 outlet LOOP_OUTPUT;
#X connect 0 0 2 1;
#X connect 1 0 2 0;
#X connect 2 0 7 0;
