#N canvas 114 502 331 258 10;
#X obj 203 131 bng 15 250 50 0 empty empty empty 17 7 0 10 -262144
-1 -1;
#N canvas 766 37 452 409 add_entry 1;
#X msg 206 54 dictionary_entry;
#X obj 185 184 bng 15 250 50 0 empty empty empty 17 7 0 10 -262144
-1 -1;
#X obj 185 29 t b b a b;
#X msg 30 316 connect 0 0 \$1 0 \, connect \$1 0 1 0 \, connect \$1
1 2 0;
#X obj 30 257 f;
#X obj 146 55 t b b b;
#X obj 45 137 moses 4;
#X obj 84 192 pack 0 0;
#X obj 84 156 t f f;
#X obj 30 201 bng 15 250 50 0 empty empty empty 17 7 0 10 -262144 -1
-1;
#X obj 63 176 bng 15 250 50 0 empty empty empty 17 7 0 10 -262144 -1
-1;
#X obj 63 224 list;
#X msg 63 245 disconnect \$2 1 2 0 \, connect \$2 1 \$1 0 \, connect
\$1 0 1 0 \, connect \$1 1 2 0;
#X obj 7 131 ggate;
#X obj 86 114 >= 4;
#X obj 236 163 t b f;
#X obj 236 184 pack 0 0;
#X obj 236 144 * 25;
#X obj 185 5 inlet;
#X obj 130 371 s pd-var-bindings-entries;
#X obj 193 206 lobject;
#X obj 236 123 - 1;
#X obj 236 103 counter;
#X obj 143 120 + 3;
#X floatatom 138 147 5 0 0 0 - - -;
#X obj 129 173 - 1;
#X obj 110 141 bng 15 250 50 0 empty empty empty 17 7 0 10 -262144
-1 -1;
#X obj 245 78 r &var-bindings-reset;
#X connect 0 0 20 1;
#X connect 1 0 20 0;
#X connect 2 0 5 0;
#X connect 2 1 0 0;
#X connect 2 2 20 2;
#X connect 2 3 22 0;
#X connect 3 0 19 0;
#X connect 4 0 3 0;
#X connect 5 0 20 4;
#X connect 5 1 13 0;
#X connect 5 2 1 0;
#X connect 6 0 4 1;
#X connect 6 1 8 0;
#X connect 7 0 11 1;
#X connect 8 0 7 0;
#X connect 8 1 25 0;
#X connect 9 0 4 0;
#X connect 10 0 11 0;
#X connect 11 0 12 0;
#X connect 12 0 19 0;
#X connect 13 0 9 0;
#X connect 13 1 10 0;
#X connect 14 0 13 1;
#X connect 15 0 16 0;
#X connect 15 1 16 1;
#X connect 16 0 20 3;
#X connect 17 0 15 0;
#X connect 18 0 2 0;
#X connect 20 0 19 0;
#X connect 21 0 17 0;
#X connect 21 0 23 0;
#X connect 22 0 21 0;
#X connect 23 0 6 0;
#X connect 23 0 14 0;
#X connect 23 0 24 0;
#X connect 25 0 7 1;
#X connect 26 0 7 0;
#X connect 27 0 22 3;
#X restore 121 129 pd add_entry;
#X obj 27 75 inlet GET;
#X obj 121 76 inlet SET;
#X obj 203 75 inlet CLEAR;
#X text 34 9 SET key-value pairs;
#X text 34 24 GET value from key (or key if no value);
#X text 33 39 CLEAR to erase all key-value pairs;
#N canvas 421 365 659 420 reset 0;
#X obj 198 95 f \$0;
#X obj 159 52 bng 15 250 50 0 empty empty empty 17 7 0 10 -262144 -1
-1;
#X msg 159 178 connect 0 0 3 0 \, connect 3 0 1 0 \, connect 3 1 2
0;
#X obj 132 7 inlet;
#X msg 178 157 obj 0 -25 inlet \, obj -60 -25 outlet \, obj 250 -25
outlet;
#X obj 159 206 t a a;
#X obj 198 263 s pd-var-bindings-shell;
#X obj 159 282 s pd-var-bindings-guts;
#X msg 198 123 clear \, obj 0 0 inlet \, obj 0 100 outlet \, obj 87
100 outlet \, obj 0 50 pd var-bindings-entries;
#X obj 178 241 s pd-var-bindings-entries;
#X obj 84 94 s &NEW_VAR;
#X msg 84 71 &NULL 0;
#X obj 132 29 t b b;
#X obj 168 8 bng 15 250 50 0 empty empty empty 17 7 0 10 -262144 -1
-1;
#X obj 159 72 t b b b b;
#X obj 239 94 s &var-bindings-reset;
#X connect 0 0 8 0;
#X connect 1 0 14 0;
#X connect 2 0 5 0;
#X connect 3 0 12 0;
#X connect 4 0 9 0;
#X connect 5 0 7 0;
#X connect 5 1 6 0;
#X connect 8 0 6 0;
#X connect 11 0 10 0;
#X connect 12 0 11 0;
#X connect 12 1 1 0;
#X connect 13 0 12 0;
#X connect 14 0 2 0;
#X connect 14 1 4 0;
#X connect 14 2 0 0;
#X connect 14 3 15 0;
#X restore 203 149 pd reset;
#X obj 66 215 outlet VALUE;
#X obj 183 214 outlet NO_MATCH;
#X text 72 152 Illegal Bindings;
#X obj 27 151 route 0;
#N canvas 692 323 450 300 filter_bad_input 0;
#X obj -228 38 t a a;
#X obj -201 60 list length;
#X obj -201 82 > 1;
#X obj -234 103 spigot;
#X obj -233 4 inlet;
#X obj -231 148 outlet;
#X text -189 39 Filter lists length 1 or less;
#X connect 0 0 3 0;
#X connect 0 1 1 0;
#X connect 1 0 2 0;
#X connect 2 0 3 1;
#X connect 3 0 5 0;
#X connect 4 0 0 0;
#X restore 121 102 pd filter_bad_input;
#N canvas 899 263 450 300 guts 0;
#X obj 7 13 inlet KEY;
#X obj 11 142 outlet VALUE;
#X obj 98 143 outlet NO_MATCH;
#N canvas 249 648 450 300 var-bindings-shell 0;
#X obj 0 0 inlet;
#X obj 0 100 outlet;
#X obj 87 100 outlet;
#N canvas 927 526 450 300 var-bindings-entries 0;
#X obj 0 -25 inlet;
#X obj -60 -25 outlet;
#X obj 250 -25 outlet;
#X obj 0 0 dictionary_entry &NULL 0;
#X connect 0 0 3 0;
#X connect 3 0 1 0;
#X connect 3 1 2 0;
#X restore 0 50 pd var-bindings-entries;
#X connect 0 0 3 0;
#X connect 3 0 1 0;
#X connect 3 1 2 0;
#X restore 24 74 pd var-bindings-shell;
#X connect 0 0 3 0;
#X connect 3 0 1 0;
#X connect 3 1 2 0;
#X restore 66 185 pd guts;
#X connect 0 0 8 0;
#X connect 2 0 12 0;
#X connect 3 0 13 0;
#X connect 4 0 0 0;
#X connect 12 1 14 0;
#X connect 13 0 1 0;
#X connect 14 0 9 0;
#X connect 14 1 10 0;
