#N canvas 468 466 647 158 10;
#X obj 16 64 bng 15 250 50 0 empty empty empty 17 7 0 10 -262144 -1
-1;
#N canvas 616 98 140 71 \$0-guts 0;
#X obj 5 45 outlet~;
#X obj 68 45 outlet~;
#N canvas 305 296 443 300 \$0-shell 0;
#X obj 0 200 outlet~ L;
#X obj 100 200 outlet~ R;
#X obj 0 180 catch~ 1066-L;
#X obj 100 180 catch~ 1066-R;
#X connect 2 0 0 0;
#X connect 3 0 1 0;
#X restore 5 5 pd \$0-shell;
#X connect 2 0 0 0;
#X connect 2 1 1 0;
#X restore 16 105 pd \$0-guts;
#X obj 16 134 outlet~;
#X obj 73 134 outlet~;
#X obj 306 84 bng 15 250 50 0 empty empty empty 17 7 0 10 -262144 -1
-1;
#N canvas 574 500 432 247 \$0-reset 0;
#X obj 15 6 inlet;
#X obj 54 139 s pd-\$0-shell;
#X obj 34 179 s pd-\$0-guts;
#X msg 34 159 connect 2 0 0 0 \, connect 2 1 1 0 \,;
#X obj 15 30 bng 15 250 50 0 empty empty empty 17 7 0 10 -262144 -1
-1;
#X obj 15 49 t b b b;
#X obj 15 220 s \$0-count;
#X msg 15 198 0;
#X obj 54 71 f \$0;
#X msg 54 93 clear \, obj 0 200 outlet~ L \, obj 100 200 outlet~ R
\, obj 0 180 catch~ \$1-L \, obj 100 180 catch~ \$1-R \, connect 2
0 0 0 \, connect 3 0 1 0;
#X connect 0 0 4 0;
#X connect 3 0 2 0;
#X connect 4 0 5 0;
#X connect 5 0 7 0;
#X connect 5 1 3 0;
#X connect 5 2 8 0;
#X connect 7 0 6 0;
#X connect 8 0 9 0;
#X connect 9 0 1 0;
#X restore 306 112 pd \$0-reset;
#X obj 191 79 bng 15 250 50 0 empty empty empty 17 7 0 10 -262144 -1
-1;
#X obj 16 8 inlet CONTROLS;
#X obj 16 30 route new delete reset;
#N canvas 194 300 450 300 \$0-delete 0;
#X obj 35 19 inlet;
#X restore 190 112 pd \$0-delete;
#N canvas 756 23 408 444 \$0-new 0;
#X obj 77 4 inlet;
#X obj 5 3 r \$0-count;
#X obj 5 28 + 1;
#X floatatom 5 89 5 0 0 0 - - -;
#X obj 39 412 s pd-\$0-shell;
#X obj 77 32 bng 15 250 50 0 empty empty empty 17 7 0 10 -262144 -1
-1;
#X obj 5 112 f!= 0;
#X obj 39 202 pack 0 0;
#X msg 39 223 obj \$2 100 pd ch\$1;
#X obj 84 176 * 100;
#X obj 84 154 - 1;
#X obj 22 367 s;
#X obj 5 134 t f f f f;
#X obj 5 157 + 1;
#X msg 49 345 symbol pd-ch\$1;
#X obj 5 62 iterator;
#X obj 46 112 s NOTE_COUNT;
#X obj 22 178 t f b f;
#X msg 22 283 obj 0 0 r channel\$1 \, obj 0 25 list trim \, obj 0 80
Note \, obj 0 125 throw~ \$2-L \, obj 100 125 throw~ \$2-R \, connect
0 0 1 0 \, connect 1 0 2 0 \, connect 2 0 3 0 \, connect 2 1 4 0 \,
loadbang;
#X obj 22 263 pack 0 \$0;
#X msg 5 387 connect \$1 0 0 0 \, connect \$1 1 1 0 \,;
#X connect 0 0 5 0;
#X connect 1 0 2 0;
#X connect 2 0 15 0;
#X connect 3 0 6 0;
#X connect 3 0 16 0;
#X connect 5 0 15 5;
#X connect 6 0 12 0;
#X connect 7 0 8 0;
#X connect 8 0 4 0;
#X connect 9 0 7 1;
#X connect 10 0 9 0;
#X connect 12 0 13 0;
#X connect 12 1 17 0;
#X connect 12 2 7 0;
#X connect 12 3 10 0;
#X connect 13 0 20 0;
#X connect 14 0 11 1;
#X connect 15 0 3 0;
#X connect 17 0 19 0;
#X connect 17 2 14 0;
#X connect 18 0 11 0;
#X connect 19 0 18 0;
#X restore 16 82 pd \$0-new;
#X obj 306 36 loadbang;
#X connect 0 0 10 0;
#X connect 1 0 2 0;
#X connect 1 1 3 0;
#X connect 4 0 5 0;
#X connect 6 0 9 0;
#X connect 7 0 8 0;
#X connect 8 0 0 0;
#X connect 8 1 6 0;
#X connect 8 2 4 0;
#X connect 11 0 4 0;
