#N canvas 741 397 349 202 10;
#N canvas 1101 84 95 59 \$0-manager 1;
#X obj 6 0 inlet;
#N canvas 1160 170 141 70 \$0-shell 1;
#X obj 6 0 inlet;
#X obj 6 30 s 1540-dynamic_send;
#X connect 0 0 1 0;
#X restore 6 29 pd \$0-shell;
#X connect 0 0 1 0;
#X restore 11 171 pd \$0-manager;
#N canvas 821 107 247 311 \$0-swap-sender 0;
#X msg 49 221 connect 0 0 1 0;
#X msg 33 242 vis 0;
#X obj 45 126 lset;
#X obj 18 82 list;
#X obj 18 104 t b a;
#X obj 18 30 t b a;
#X obj 18 10 inlet;
#X obj 123 259 outlet;
#X msg 81 177 clear \, obj 6 0 inlet;
#X msg 65 199 obj 6 30 s 1540-dynamic_send;
#X msg 18 55 obj 6 30 s;
#X obj 18 291 outlet;
#X obj 18 149 t b b b b b;
#X msg 18 264 connect 0 0 1 0;
#X connect 0 0 7 0;
#X connect 1 0 7 0;
#X connect 2 0 9 0;
#X connect 3 0 4 0;
#X connect 4 0 12 0;
#X connect 4 1 2 0;
#X connect 5 0 10 0;
#X connect 5 1 3 1;
#X connect 6 0 5 0;
#X connect 8 0 7 0;
#X connect 9 0 7 0;
#X connect 10 0 3 0;
#X connect 12 0 13 0;
#X connect 12 1 1 0;
#X connect 12 2 0 0;
#X connect 12 3 9 0;
#X connect 12 4 8 0;
#X connect 13 0 11 0;
#X restore 147 142 pd \$0-swap-sender;
#X obj 246 169 s pd-\$0-shell;
#X obj 147 170 s pd-\$0-manager;
#X obj 194 59 dollarg;
#X obj 11 5 inlet SEND;
#X obj 147 5 inlet SET_SENDER;
#X obj 194 35 loadbang;
#X obj 233 79 sel 0;
#X obj 233 100 f \$0;
#X obj 233 121 lapp -dynamic_send;
#X obj 11 61 lfl> 1;
#X obj 11 88 list split 1;
#X obj 11 128 list;
#X obj 11 149 list trim;
#X obj 11 108 t b a;
#X obj 11 28 route send;
#X connect 1 0 3 0;
#X connect 1 1 2 0;
#X connect 4 0 1 0;
#X connect 4 1 8 0;
#X connect 5 0 16 0;
#X connect 6 0 1 0;
#X connect 7 0 4 0;
#X connect 8 0 9 0;
#X connect 9 0 10 0;
#X connect 10 0 1 0;
#X connect 11 0 12 0;
#X connect 12 0 15 0;
#X connect 12 1 13 1;
#X connect 13 0 14 0;
#X connect 14 0 0 0;
#X connect 15 0 13 0;
#X connect 15 1 1 0;
#X connect 16 0 11 0;
#X connect 16 1 0 0;
