#N canvas 1230 22 508 224 10;
#X obj 50 168 outlet~;
#N canvas 981 273 647 443 INIT 0;
#X obj 84 260 s pd-controller;
#X obj 70 334 s pd-sandbox;
#X obj 42 114 s pd-dynamic_pd;
#X obj 14 44 t b b b b b b b b;
#X msg 14 377 \; pd dsp 1 \;;
#X obj 48 2 inlet;
#X msg 439 73 \; pd dsp 0 \; reset_count bang \; init_grid bang \;
height 100 \;;
#X obj 374 -3 loadbang;
#X obj 374 49 s gridsize;
#X obj 442 -4 loadbang;
#X obj 442 48 s height;
#X msg 442 22 100;
#X obj 499 -2 r init_grid;
#X msg 374 23 150;
#X msg 56 222 connect 2 0 0 0 \, connect 2 1 1 0 \, connect 3 0 5 0
\, connect 4 0 6 0;
#X msg 70 280 obj 0 200 outlet~ \, obj 67 200 outlet~;
#X msg 42 76 connect 3 0 2 0 \, connect 4 0 2 1 \, connect 2 0 0 0
\, connect 2 1 1 0 \, connect 5 0 6 0;
#X obj 3 352 outlet;
#X msg 84 171 clear \, obj 10 200 outlet~ \, obj 67 200 outlet~ \,
obj 10 100 pd sandbox \, obj 10 0 inlet \, obj 80 0 inlet \, msg 150
40 poop \, msg 270 40 poop;
#X connect 3 0 4 0;
#X connect 3 0 17 0;
#X connect 3 2 16 0;
#X connect 3 3 14 0;
#X connect 3 4 15 0;
#X connect 3 5 18 0;
#X connect 3 7 6 0;
#X connect 5 0 3 0;
#X connect 7 0 13 0;
#X connect 9 0 11 0;
#X connect 11 0 10 0;
#X connect 12 0 11 0;
#X connect 12 0 13 0;
#X connect 13 0 8 0;
#X connect 14 0 0 0;
#X connect 15 0 1 0;
#X connect 16 0 2 0;
#X connect 18 0 0 0;
#X restore 272 33 pd INIT;
#N canvas 32 591 464 123 dynamic_pd 1;
#X obj 15 91 outlet~;
#X obj 90 92 outlet~;
#N canvas 1150 172 450 300 controller 0;
#X obj 10 200 outlet~;
#X obj 67 200 outlet~;
#N canvas 32 591 450 300 sandbox 1;
#X obj 0 200 outlet~;
#X obj 67 200 outlet~;
#X restore 10 100 pd sandbox;
#X obj 10 0 inlet;
#X obj 80 0 inlet;
#X msg 150 40 poop;
#X msg 270 40 poop;
#X connect 2 0 0 0;
#X connect 2 1 1 0;
#X connect 3 0 5 0;
#X connect 4 0 6 0;
#X restore 15 49 pd controller;
#X obj 15 7 inlet;
#X obj 90 8 inlet;
#X obj 150 8 inlet;
#X obj 150 50 s control0;
#X connect 2 0 0 0;
#X connect 2 1 1 0;
#X connect 3 0 2 0;
#X connect 4 0 2 1;
#X connect 5 0 6 0;
#X connect 5 0 6 0;
#X restore 50 145 pd dynamic_pd;
#X obj 272 7 bng 15 250 50 0 empty empty empty 17 7 0 10 -262144 -1
-1;
#X obj 310 -17 loadbang;
#N canvas 402 268 759 841 add_channel 0;
#X obj 194 423 s pd-sandbox;
#X obj 196 110 iterator;
#X obj 239 84 bng 15 250 50 0 empty empty empty 17 7 0 10 -262144 -1
-1;
#X obj 196 85 bng 15 250 50 0 empty empty empty 17 7 0 10 -262144 -1
-1;
#X obj 120 85 loadfloat 0;
#X obj 270 250 r height;
#X obj 260 229 r gridsize;
#X floatatom 196 134 5 0 0 0 Number_of_Channels - -;
#X text 161 10 New Channel:;
#X obj 184 157 spigot;
#X obj 262 63 t b b b;
#X obj 262 43 bng 15 250 50 0 empty empty empty 17 7 0 10 -262144 -1
-1;
#X msg 274 107 0;
#X msg 301 107 1;
#X obj 158 55 r reset_count;
#X obj 218 230 - 1;
#X obj 223 514 r gridsize;
#X obj 182 704 s pd-controller;
#X text 211 211 Create pd patch to change;
#X text 272 453 Create config receivers;
#X obj 168 182 t b f f f;
#X obj 275 273 + 20;
#X obj 218 366 pack 0 0 0 0 0 0;
#X text 323 250 route;
#X text 306 272 pd ch#;
#X text 320 294 *~;
#X obj 218 302 t f f;
#X text 328 322 x val for line~ \, r ch#vol;
#X obj 296 324 + 50;
#X obj 218 257 * 130;
#X obj 40 804 s pd-sandbox;
#X obj 40 676 - 1;
#X obj 66 676 - 1;
#X obj 40 654 t f f f f f;
#X obj 91 676 - 1;
#X obj 117 676 - 1;
#X obj 288 295 + 30;
#X obj 263 540 r height;
#X obj 262 12 inlet;
#X text 180 743 Connect Sandbox Stuff;
#X obj 377 199 s num_channels;
#X obj 377 177 f;
#X obj 377 149 r get_num_channels;
#X obj 337 150 t b f;
#X obj 283 174 outlet;
#X msg 194 387 obj \$1 \$3 pd ch\$6 \, obj \$1 \$4 *~ \, obj \$5 \$2
r chvol\$6 \, obj \$5 \$3 vline~ 0;
#X obj 40 720 + 2;
#X obj 66 720 + 3;
#X obj 91 720 + 4;
#X obj 117 720 + 5;
#X obj 182 609 pack 0 0 0 0 0 0;
#X obj 226 569 + 60;
#X obj 158 493 t f f f f;
#X msg 338 541 7;
#X msg 363 538 8;
#X obj 40 698 * 4;
#X obj 66 698 * 4;
#X obj 91 698 * 4;
#X obj 117 698 * 4;
#X obj 40 744 pack 0 0 0 0;
#X msg 40 766 connect \$4 0 \$2 1 \, connect \$3 0 \$4 0 \, connect
\$2 0 0 0 \, connect \$2 0 1 0 \,;
#X obj 607 512 > 1;
#X obj 504 540 ggate;
#X msg 596 662 find +s 1 \, cut;
#X msg 599 642 find +s 1 \, cut;
#X obj 175 450 t f f b f f f;
#X obj 550 576 t b b;
#X msg 182 635 obj 10 40 s pd-ch\$1 \, obj 80 40 s chvol\$1 \, connect
3 0 \$5 0 \, connect 4 0 \$6 0 \,;
#X connect 1 0 7 0;
#X connect 2 0 1 1;
#X connect 3 0 1 0;
#X connect 4 0 1 3;
#X connect 5 0 21 0;
#X connect 5 0 22 1;
#X connect 6 0 29 1;
#X connect 7 0 9 0;
#X connect 7 0 43 0;
#X connect 7 0 44 0;
#X connect 9 0 20 0;
#X connect 10 0 12 0;
#X connect 10 1 1 5;
#X connect 10 2 13 0;
#X connect 11 0 10 0;
#X connect 12 0 9 1;
#X connect 13 0 9 1;
#X connect 14 0 2 0;
#X connect 15 0 29 0;
#X connect 16 0 51 0;
#X connect 16 0 50 1;
#X connect 20 1 65 0;
#X connect 20 2 15 0;
#X connect 20 3 22 5;
#X connect 21 0 22 2;
#X connect 21 0 36 0;
#X connect 22 0 45 0;
#X connect 26 0 22 0;
#X connect 26 1 28 0;
#X connect 28 0 22 4;
#X connect 29 0 26 0;
#X connect 31 0 55 0;
#X connect 32 0 56 0;
#X connect 33 0 31 0;
#X connect 33 1 32 0;
#X connect 33 2 34 0;
#X connect 33 3 35 0;
#X connect 34 0 57 0;
#X connect 35 0 58 0;
#X connect 36 0 22 3;
#X connect 37 0 50 3;
#X connect 38 0 11 0;
#X connect 41 0 40 0;
#X connect 42 0 41 0;
#X connect 43 0 41 0;
#X connect 43 1 41 1;
#X connect 45 0 0 0;
#X connect 46 0 59 0;
#X connect 47 0 59 1;
#X connect 48 0 59 2;
#X connect 49 0 59 3;
#X connect 50 0 67 0;
#X connect 51 0 50 2;
#X connect 52 0 33 0;
#X connect 52 2 50 0;
#X connect 53 0 50 4;
#X connect 54 0 50 5;
#X connect 55 0 46 0;
#X connect 56 0 47 0;
#X connect 57 0 48 0;
#X connect 58 0 49 0;
#X connect 59 0 60 0;
#X connect 60 0 30 0;
#X connect 61 0 62 1;
#X connect 62 1 66 0;
#X connect 63 0 17 0;
#X connect 64 0 17 0;
#X connect 65 0 52 0;
#X connect 65 2 62 0;
#X connect 65 3 61 0;
#X connect 65 4 53 0;
#X connect 65 5 54 0;
#X connect 66 0 63 0;
#X connect 66 1 64 0;
#X connect 67 0 17 0;
#X restore 128 74 pd add_channel;
#N canvas 1234 311 526 631 configure_channel 0;
#X obj 199 533 s pd-sandbox;
#X obj 199 405 - 1;
#X obj 225 405 - 1;
#X obj 250 405 - 1;
#X obj 276 405 - 1;
#X floatatom 39 -38 5 0 0 0 - - -;
#X obj 294 345 textfile;
#X msg 358 321 clear;
#X obj 381 174 iterator;
#X obj 426 154 bng 15 250 50 0 empty empty empty 17 7 0 10 -262144
-1 -1;
#X obj 366 199 f;
#X obj 103 338 once;
#X obj 82 -39 bng 15 250 50 0 empty empty empty 17 7 0 10 -262144 -1
-1;
#X obj 366 267 minigun;
#X obj 366 222 t b f;
#X obj 199 295 f;
#X obj 39 330 f;
#X obj 39 -61 inlet;
#X obj 82 -61 inlet;
#X obj 294 300 list prepend add;
#X obj 294 321 list trim;
#X obj 33 397 outlet;
#X obj 199 449 + 2;
#X obj 225 449 + 3;
#X obj 250 449 + 4;
#X obj 276 449 + 5;
#X obj 199 427 * 4;
#X obj 225 427 * 4;
#X obj 250 427 * 4;
#X obj 276 427 * 4;
#X msg 199 495 connect \$1 0 \$2 0;
#X obj 199 473 pack 0 0 0 0;
#X obj 103 399 outlet;
#X obj 199 383 t f f f f;
#X msg 39 353 1 5;
#X obj 39 -19 t f f;
#X obj 107 307 bng 15 250 50 0 empty empty empty 17 7 0 10 -262144
-1 -1;
#X obj 393 246 + 1;
#X obj 39 96 t b b b b b a;
#X obj 82 -19 s \$0-prepare-config;
#X obj 399 299 r \$0-prepare-config;
#X obj 390 131 r \$0-prepare-config;
#X obj 127 315 r \$0-prepare-config;
#X obj 66 5 s \$0-config-channel;
#X obj 53 265 r \$0-config-channel;
#X obj 149 399 outlet;
#X obj 149 376 bng 15 250 50 0 empty empty empty 17 7 0 10 -262144
-1 -1;
#X floatatom 13 2 5 0 0 0 - - -;
#X obj 185 154 t a b;
#X msg 103 359 0 3;
#X obj 324 174 delay 10;
#X obj 199 275 delay 10;
#X obj 39 307 delay 50;
#X obj 286 108 bng 15 250 50 0 empty empty empty 17 7 0 10 -262144
-1 -1;
#X msg 39 32 obj 0 0 r control\$1 \, obj 0 25 list trim \, obj 0 50
Note \, obj 0 100 outlet~ \, msg 70 50 poop \, connect 0 0 1 0 \, connect
1 0 2 0 \, connect 2 0 3 0 \, connect 1 0 4 0 \, loadbang \,;
#X connect 1 0 26 0;
#X connect 2 0 27 0;
#X connect 3 0 28 0;
#X connect 4 0 29 0;
#X connect 5 0 35 0;
#X connect 6 0 21 0;
#X connect 7 0 6 0;
#X connect 8 0 10 1;
#X connect 9 0 8 5;
#X connect 10 0 14 0;
#X connect 11 0 49 0;
#X connect 12 0 39 0;
#X connect 13 0 6 0;
#X connect 14 0 13 0;
#X connect 14 1 37 0;
#X connect 15 0 33 0;
#X connect 16 0 34 0;
#X connect 17 0 5 0;
#X connect 18 0 12 0;
#X connect 19 0 20 0;
#X connect 20 0 6 0;
#X connect 22 0 31 0;
#X connect 23 0 31 1;
#X connect 24 0 31 2;
#X connect 25 0 31 3;
#X connect 26 0 22 0;
#X connect 27 0 23 0;
#X connect 28 0 24 0;
#X connect 29 0 25 0;
#X connect 30 0 0 0;
#X connect 31 0 30 0;
#X connect 33 0 1 0;
#X connect 33 1 2 0;
#X connect 33 2 3 0;
#X connect 33 3 4 0;
#X connect 34 0 32 0;
#X connect 34 0 46 0;
#X connect 35 0 47 0;
#X connect 35 1 43 0;
#X connect 36 0 11 0;
#X connect 37 0 13 1;
#X connect 38 0 52 0;
#X connect 38 1 51 0;
#X connect 38 2 50 0;
#X connect 38 4 9 0;
#X connect 38 5 48 0;
#X connect 40 0 7 0;
#X connect 41 0 8 1;
#X connect 42 0 11 1;
#X connect 44 0 15 1;
#X connect 44 0 16 1;
#X connect 46 0 45 0;
#X connect 47 0 54 0;
#X connect 48 0 19 0;
#X connect 48 1 36 0;
#X connect 49 0 32 0;
#X connect 50 0 10 0;
#X connect 51 0 15 0;
#X connect 52 0 16 0;
#X connect 53 0 50 0;
#X connect 54 0 38 0;
#X restore -28 117 pd configure_channel;
#X obj 68 -21 inlet;
#X text 108 -20 Add Note;
#X obj 224 -19 inlet;
#X text 261 -20 Reset;
#X obj -28 91 f;
#X obj 68 51 t b b b;
#X text -118 156 Dynamic Programming:;
#X text -119 168 Implementing PD in PD;
#X floatatom -62 33 5 0 0 0 - - -;
#X obj -62 -21 inlet;
#N canvas 1161 393 265 231 swap_sender 0;
#X obj -6 189 s pd-dynamic_pd;
#X obj -27 54 t f b;
#X msg 8 96 find +s 1 \, cut;
#X obj -27 9 inlet;
#X msg -30 126 obj 150 50 s control\$1 \, connect 5 0 6 0;
#X connect 1 0 4 0;
#X connect 1 1 2 0;
#X connect 2 0 0 0;
#X connect 3 0 1 0;
#X connect 4 0 0 0;
#X restore -62 55 pd swap_sender;
#X obj 68 31 bng 15 250 50 0 empty empty empty 17 7 0 10 -262144 -1
-1;
#X obj 211 165 outlet;
#X msg 257 143 finished config;
#X obj -90 120 inlet;
#X obj 68 8 once;
#X obj 251 113 delay 30;
#X obj 125 167 outlet~;
#X connect 1 0 22 1;
#X connect 1 0 23 0;
#X connect 2 0 0 0;
#X connect 2 1 24 0;
#X connect 3 0 1 0;
#X connect 4 0 3 0;
#X connect 5 0 11 1;
#X connect 6 0 2 0;
#X connect 6 1 2 1;
#X connect 6 2 20 0;
#X connect 6 2 22 1;
#X connect 6 2 23 0;
#X connect 7 0 22 0;
#X connect 9 0 3 0;
#X connect 11 0 6 0;
#X connect 12 0 11 0;
#X connect 12 1 6 1;
#X connect 12 2 5 0;
#X connect 15 0 17 0;
#X connect 16 0 15 0;
#X connect 18 0 12 0;
#X connect 21 0 2 2;
#X connect 22 0 18 0;
#X connect 23 0 19 0;
