#N canvas 164 153 767 139 10;
#X obj -72 71 outlet~;
#X obj 3 70 outlet~;
#N canvas 359 230 578 388 INIT 0;
#X obj 84 233 s pd-controller;
#X obj 70 299 s pd-sandbox;
#X obj 42 114 s pd-dynamic_pd;
#X obj 14 44 t b b b b b b b b;
#X msg 14 329 \; pd dsp 1 \;;
#X msg 42 93 connect 2 0 0 0 \, connect 2 1 1 0 \, connect 3 0 2 0
;
#X msg 56 213 connect 2 0 0 0 \, connect 2 1 1 0 \, connect 3 0 2 0
;
#X msg 70 266 obj 0 200 outlet~ \, obj 67 200 outlet~ \, obj 0 0 inlet
\,;
#X obj 48 2 inlet;
#X msg 373 73 \; pd dsp 0 \; reset_count bang \; init_grid bang \;
height 100 \;;
#X msg 84 167 clear \, obj 10 200 outlet~ \, obj 67 200 outlet~ \,
obj 10 40 pd sandbox \, obj 10 0 inlet \, obj 150 40 r config \, obj
210 40 r chvol;
#X obj 374 -3 loadbang;
#X obj 374 49 s gridsize;
#X obj 442 -4 loadbang;
#X obj 442 48 s height;
#X msg 442 22 100;
#X obj 499 -2 r init_grid;
#X msg 374 23 150;
#X connect 3 0 4 0;
#X connect 3 2 5 0;
#X connect 3 3 6 0;
#X connect 3 4 7 0;
#X connect 3 5 10 0;
#X connect 3 7 9 0;
#X connect 5 0 2 0;
#X connect 6 0 0 0;
#X connect 7 0 1 0;
#X connect 8 0 3 0;
#X connect 10 0 0 0;
#X connect 11 0 17 0;
#X connect 13 0 15 0;
#X connect 15 0 14 0;
#X connect 16 0 15 0;
#X connect 16 0 17 0;
#X connect 17 0 12 0;
#X restore 437 70 pd INIT;
#N canvas 1395 22 464 123 dynamic_pd 0;
#X obj 14 80 outlet~;
#X obj 89 81 outlet~;
#N canvas 21 316 1855 265 controller 0;
#X obj 10 200 outlet~;
#X obj 67 200 outlet~;
#N canvas 1463 82 450 300 sandbox 0;
#X obj 0 200 outlet~;
#X obj 67 200 outlet~;
#X obj 0 0 inlet;
#X obj 0 100 route 1;
#N canvas 1463 82 450 300 ch1 0;
#X obj 0 0 inlet;
#X obj 0 50 Note;
#X obj 0 100 outlet~;
#X connect 0 0 1 0;
#X connect 1 0 2 0;
#X restore 0 120 pd ch1;
#X obj 0 150 *~;
#X obj 50 100 r chvol1;
#X obj 50 120 vline~ 0;
#X connect 2 0 3 0;
#X connect 3 0 4 0;
#X connect 4 0 5 0;
#X connect 5 0 0 0;
#X connect 5 0 1 0;
#X connect 6 0 7 0;
#X connect 7 0 5 1;
#X restore 10 40 pd sandbox;
#X obj 10 0 inlet;
#X obj 150 40 r config;
#X obj 210 40 r chvol;
#X obj 150 100 route 1;
#X obj 150 130 s pd-ch1;
#X obj 210 100 route 1;
#X obj 210 130 s chvol1;
#X connect 2 0 0 0;
#X connect 2 1 1 0;
#X connect 3 0 2 0;
#X connect 4 0 6 0;
#X connect 5 0 8 0;
#X connect 6 0 7 0;
#X connect 8 0 9 0;
#X restore 14 43 pd controller;
#X obj 14 3 inlet;
#X text 57 3 Creation Order: outlet~ L \, outlet~ R \, pd controller
\, inlet \, comment;
#X connect 2 0 0 0;
#X connect 2 1 1 0;
#X connect 3 0 2 0;
#X restore -72 33 pd dynamic_pd;
#X obj 437 49 bng 15 250 50 0 empty empty empty 17 7 0 10 -262144 -1
-1;
#X obj 437 26 loadbang;
#N canvas 636 161 678 833 add_channel 0;
#X obj 194 423 s pd-sandbox;
#X obj 196 110 iterator;
#X obj 239 84 bng 15 250 50 0 empty empty empty 17 7 0 10 -262144 -1
-1;
#X obj 196 85 bng 15 250 50 0 empty empty empty 17 7 0 10 -262144 -1
-1;
#X obj 120 85 loadfloat 0;
#X obj 270 250 r height;
#X obj 260 229 r gridsize;
#X floatatom 196 134 5 0 0 0 Number_of_Channels - -;
#X text 161 10 New Channel:;
#X obj 184 157 spigot;
#X obj 262 63 t b b b;
#X obj 262 43 bng 15 250 50 0 empty empty empty 17 7 0 10 -262144 -1
-1;
#X msg 274 107 0;
#X msg 301 107 1;
#X obj 158 55 r reset_count;
#X obj 218 230 - 1;
#X obj 223 485 r gridsize;
#X obj 340 493 - 1;
#X obj 366 493 - 1;
#X obj 182 704 s pd-controller;
#X text 211 211 Create pd patch to change;
#X text 272 453 Create config receivers;
#X obj 168 182 t b f f f;
#X obj 275 273 + 20;
#X obj 218 366 pack 0 0 0 0 0 0;
#X text 323 250 route;
#X text 306 272 pd ch#;
#X text 320 294 *~;
#X obj 218 302 t f f;
#X text 328 322 x val for line~ \, r ch#vol;
#X obj 296 324 + 50;
#X obj 218 257 * 130;
#X obj 40 804 s pd-sandbox;
#X obj 40 676 - 1;
#X obj 66 676 - 1;
#X obj 40 720 + 3;
#X obj 66 720 + 4;
#X obj 40 744 pack 0 0 0 0 0;
#X obj 40 654 t f f f f f;
#X obj 91 676 - 1;
#X obj 117 676 - 1;
#X obj 141 676 - 1;
#X obj 91 720 + 5;
#X obj 117 720 + 6;
#X obj 141 720 + 7;
#X obj 40 698 * 5;
#X obj 66 698 * 5;
#X obj 91 698 * 5;
#X obj 117 698 * 5;
#X obj 141 698 * 5;
#X msg 40 766 connect 2 0 \$1 0 \, connect \$5 0 \$3 1 \, connect \$4
0 \$5 0 \, connect \$3 0 0 0 \, connect \$3 0 1 0 \,;
#X obj 158 493 t f f;
#X obj 288 295 + 30;
#X obj 340 537 + 6;
#X obj 366 537 + 7;
#X obj 182 626 pack 0 0 0 0 0 0 0 0 0;
#X text 238 515 x1;
#X text 242 541 x2;
#X obj 263 511 r height;
#X text 319 512 y1;
#X obj 202 516 * 150;
#X obj 270 542 + 30;
#X obj 393 493 - 1;
#X obj 419 493 - 1;
#X obj 185 453 t f f f f f f;
#X obj 393 537 + 8;
#X obj 419 537 + 9;
#X msg 182 649 obj \$2 \$4 route \$1 \, obj \$2 \$5 s pd-ch\$1 \, obj
\$3 \$4 route \$1 \, obj \$3 \$5 s chvol\$1 \, connect 4 0 \$6 0 \,
connect \$6 0 \$7 0 \, connect 5 0 \$8 0 \, connect \$8 0 \$9 0;
#X obj 212 539 + 60;
#X obj 340 515 * 4;
#X obj 366 515 * 4;
#X obj 393 515 * 4;
#X obj 419 515 * 4;
#X obj 262 12 inlet;
#X text 180 743 Connect Sandbox Stuff;
#X obj 377 199 s num_channels;
#X obj 377 177 f;
#X obj 377 149 r get_num_channels;
#X obj 337 150 t b f;
#X msg 194 387 obj \$1 \$2 route \$6 \, obj \$1 \$3 pd ch\$6 \, obj
\$1 \$4 *~ \, obj \$5 \$2 r chvol\$6 \, obj \$5 \$3 vline~ 0;
#X connect 1 0 7 0;
#X connect 2 0 1 1;
#X connect 3 0 1 0;
#X connect 4 0 1 3;
#X connect 5 0 23 0;
#X connect 5 0 24 1;
#X connect 6 0 31 1;
#X connect 7 0 9 0;
#X connect 7 0 78 0;
#X connect 9 0 22 0;
#X connect 10 0 12 0;
#X connect 10 1 1 5;
#X connect 10 2 13 0;
#X connect 11 0 10 0;
#X connect 12 0 9 1;
#X connect 13 0 9 1;
#X connect 14 0 2 0;
#X connect 15 0 31 0;
#X connect 16 0 60 1;
#X connect 17 0 69 0;
#X connect 18 0 70 0;
#X connect 22 1 64 0;
#X connect 22 2 15 0;
#X connect 22 3 24 5;
#X connect 23 0 24 2;
#X connect 23 0 52 0;
#X connect 24 0 79 0;
#X connect 28 0 24 0;
#X connect 28 1 30 0;
#X connect 30 0 24 4;
#X connect 31 0 28 0;
#X connect 33 0 45 0;
#X connect 34 0 46 0;
#X connect 35 0 37 0;
#X connect 36 0 37 1;
#X connect 37 0 50 0;
#X connect 38 0 33 0;
#X connect 38 1 34 0;
#X connect 38 2 39 0;
#X connect 38 3 40 0;
#X connect 38 4 41 0;
#X connect 39 0 47 0;
#X connect 40 0 48 0;
#X connect 41 0 49 0;
#X connect 42 0 37 2;
#X connect 43 0 37 3;
#X connect 44 0 37 4;
#X connect 45 0 35 0;
#X connect 46 0 36 0;
#X connect 47 0 42 0;
#X connect 48 0 43 0;
#X connect 49 0 44 0;
#X connect 50 0 32 0;
#X connect 51 0 38 0;
#X connect 51 1 55 0;
#X connect 52 0 24 3;
#X connect 53 0 55 5;
#X connect 54 0 55 6;
#X connect 55 0 67 0;
#X connect 58 0 55 3;
#X connect 58 0 61 0;
#X connect 60 0 55 1;
#X connect 60 0 68 0;
#X connect 61 0 55 4;
#X connect 62 0 71 0;
#X connect 63 0 72 0;
#X connect 64 0 51 0;
#X connect 64 1 60 0;
#X connect 64 2 17 0;
#X connect 64 3 18 0;
#X connect 64 4 62 0;
#X connect 64 5 63 0;
#X connect 65 0 55 7;
#X connect 66 0 55 8;
#X connect 67 0 19 0;
#X connect 68 0 55 2;
#X connect 69 0 53 0;
#X connect 70 0 54 0;
#X connect 71 0 65 0;
#X connect 72 0 66 0;
#X connect 73 0 11 0;
#X connect 76 0 75 0;
#X connect 77 0 76 0;
#X connect 78 0 76 0;
#X connect 78 1 76 1;
#X connect 79 0 0 0;
#X restore 312 70 pd add_channel;
#N canvas 670 319 496 539 configure_channel 0;
#X obj 199 511 s pd-sandbox;
#X obj 199 383 - 1;
#X obj 225 383 - 1;
#X obj 199 427 + 3;
#X obj 225 427 + 4;
#X obj 199 451 pack 0 0 0 0 0;
#X obj 199 361 t f f f f f;
#X obj 250 383 - 1;
#X obj 276 383 - 1;
#X obj 300 383 - 1;
#X obj 250 427 + 5;
#X obj 276 427 + 6;
#X obj 300 427 + 7;
#X obj 199 405 * 5;
#X obj 225 405 * 5;
#X obj 250 405 * 5;
#X obj 276 405 * 5;
#X obj 300 405 * 5;
#X msg 199 473 connect \$1 0 \$2 0 \, connect \$2 0 \$3 0;
#X obj 213 246 s chvol;
#X floatatom 6 40 5 0 0 0 - - -;
#X obj 320 299 textfile;
#X obj 286 138 prepend add;
#X msg 265 239 \$1;
#X msg 443 113 clear;
#X obj 396 150 iterator;
#X obj 441 130 bng 15 250 50 0 empty empty empty 17 7 0 10 -262144
-1 -1;
#X obj 381 205 f;
#X obj 213 203 once;
#X obj 443 71 bng 15 250 50 0 empty empty empty 17 7 0 10 -262144 -1
-1;
#X msg 213 182 \$1;
#X obj 381 257 minigun;
#X obj 381 232 t b f;
#X obj 321 326 s config;
#X obj 219 308 f;
#X obj 211 108 t b b b a a a;
#X obj 108 396 s chvol;
#X msg 108 374 \$1 1 5;
#X obj 108 344 f;
#X msg 6 61 \$1 clear \, \$1 obj 0 0 inlet \, \$1 obj 0 50 Note \,
\$1 obj 0 100 outlet~ \, \$1 connect 0 0 1 0 \, \$1 connect 1 0 2 0
\, \$1 loadbang;
#X obj 6 5 inlet;
#X obj 443 30 inlet;
#X msg 213 224 \$1 0 2;
#X obj 368 124 delay 5;
#X obj 166 147 delay 10;
#X obj 104 145 delay 15;
#X connect 1 0 13 0;
#X connect 2 0 14 0;
#X connect 3 0 5 0;
#X connect 4 0 5 1;
#X connect 5 0 18 0;
#X connect 6 0 1 0;
#X connect 6 1 2 0;
#X connect 6 2 7 0;
#X connect 6 3 8 0;
#X connect 6 4 9 0;
#X connect 7 0 15 0;
#X connect 8 0 16 0;
#X connect 9 0 17 0;
#X connect 10 0 5 2;
#X connect 11 0 5 3;
#X connect 12 0 5 4;
#X connect 13 0 3 0;
#X connect 14 0 4 0;
#X connect 15 0 10 0;
#X connect 16 0 11 0;
#X connect 17 0 12 0;
#X connect 18 0 0 0;
#X connect 20 0 39 0;
#X connect 21 0 33 0;
#X connect 22 0 21 0;
#X connect 23 0 26 0;
#X connect 23 0 34 1;
#X connect 24 0 21 0;
#X connect 25 0 27 1;
#X connect 26 0 25 5;
#X connect 27 0 32 0;
#X connect 28 0 42 0;
#X connect 29 0 28 1;
#X connect 29 0 24 0;
#X connect 29 0 25 1;
#X connect 30 0 28 0;
#X connect 31 0 21 0;
#X connect 32 0 31 0;
#X connect 32 1 31 1;
#X connect 34 0 38 1;
#X connect 34 0 6 0;
#X connect 35 0 45 0;
#X connect 35 1 44 0;
#X connect 35 2 43 0;
#X connect 35 3 30 0;
#X connect 35 4 23 0;
#X connect 35 5 22 0;
#X connect 37 0 36 0;
#X connect 38 0 37 0;
#X connect 39 0 35 0;
#X connect 40 0 20 0;
#X connect 41 0 29 0;
#X connect 42 0 19 0;
#X connect 43 0 27 0;
#X connect 44 0 34 0;
#X connect 45 0 38 0;
#X restore 175 70 pd configure_channel;
#N canvas 600 612 450 300 scratchpad 0;
#X obj 22 75 pack 0 0;
#X obj 22 164 print;
#X msg 22 110 editmode 1 \, mouse \$1 \$2 0 0 0 \, cut \, mouseup \$1
\$2 0 \, editmode 0;
#X obj 67 52 r height;
#X obj 43 22 r gridsize;
#X obj 22 53 * 50;
#X msg 123 191 connect \$1 0 \$2 0 \, connect \$2 0 \$3 0;
#X connect 0 0 2 0;
#X connect 2 0 1 0;
#X connect 3 0 0 1;
#X connect 4 0 5 1;
#X connect 5 0 0 0;
#X restore 24 -33 pd scratchpad;
#X obj -72 -34 inlet;
#X text -32 -35 Control;
#X obj 273 -35 inlet;
#X text 313 -34 Add Note;
#X obj 437 -33 inlet;
#X text 474 -34 Reset;
#X obj 190 17 r num_channels;
#X obj 175 40 f;
#X obj 273 -9 t b b b;
#N canvas 252 265 128 102 test 0;
#X msg -45 6 1 note 60 90;
#X msg -22 26 1 note 60 0;
#X msg 4 46 1 wave 0;
#X obj -20 72 outlet;
#X connect 0 0 3 0;
#X connect 1 0 3 0;
#X connect 2 0 3 0;
#X restore 23 -9 pd test;
#X text 13 29 <-- Crazy Shit!;
#X text 335 -12 Adds Channel \,;
#X text 335 -1 Prepares it \,;
#X text 335 11 Configures it;
#X text 123 -27 Dynamic Programming:;
#X text 122 -15 Implementing PD in PD;
#X connect 3 0 0 0;
#X connect 3 1 1 0;
#X connect 4 0 2 0;
#X connect 5 0 4 0;
#X connect 9 0 3 0;
#X connect 11 0 17 0;
#X connect 13 0 5 0;
#X connect 15 0 16 1;
#X connect 16 0 7 0;
#X connect 17 0 16 0;
#X connect 17 1 7 1;
#X connect 17 2 6 0;
#X connect 18 0 3 0;
