#N canvas 446 307 490 224 10;
#N canvas 504 272 647 443 INIT 0;
#X obj 84 260 s pd-controller;
#X obj 70 334 s pd-sandbox;
#X obj 42 114 s pd-dynamic_pd;
#X obj 14 44 t b b b b b b b b;
#X msg 37 403 \; pd dsp 1 \;;
#X obj 48 2 inlet;
#X msg 439 73 \; pd dsp 0 \; reset_count bang \; init_grid bang \;
height 100 \;;
#X obj 374 -3 loadbang;
#X obj 374 49 s gridsize;
#X obj 442 -4 loadbang;
#X obj 442 48 s height;
#X msg 442 22 100;
#X obj 499 -2 r init_grid;
#X msg 374 23 150;
#X obj 3 352 outlet;
#X msg 84 171 clear \, obj 10 200 outlet~ \, obj 67 200 outlet~ \,
obj 10 100 pd sandbox \, obj 10 0 inlet \, obj 80 0 inlet;
#X obj 37 380 delay 5;
#X msg 56 222 connect 2 0 0 0 \, connect 2 1 1 0 \, vis 0 \,;
#X msg 70 280 obj 0 200 outlet~ \, obj 67 200 outlet~ \, vis 0 \,;
#X msg 42 76 connect 3 0 2 0 \, connect 4 0 2 1 \, connect 2 0 0 0
\, connect 2 1 1 0 \, connect 5 0 6 0 \, vis 0 \,;
#X connect 3 0 14 0;
#X connect 3 1 16 0;
#X connect 3 2 19 0;
#X connect 3 3 17 0;
#X connect 3 4 18 0;
#X connect 3 5 15 0;
#X connect 3 7 6 0;
#X connect 5 0 3 0;
#X connect 7 0 13 0;
#X connect 9 0 11 0;
#X connect 11 0 10 0;
#X connect 12 0 11 0;
#X connect 12 0 13 0;
#X connect 13 0 8 0;
#X connect 15 0 0 0;
#X connect 16 0 4 0;
#X connect 17 0 0 0;
#X connect 18 0 1 0;
#X connect 19 0 2 0;
#X restore 272 33 pd INIT;
#X obj 272 7 bng 15 250 50 0 empty empty empty 17 7 0 10 -262144 -1
-1;
#X obj 310 -17 loadbang;
#N canvas 474 23 759 841 add_channel 0;
#X obj 194 423 s pd-sandbox;
#X obj 196 110 iterator;
#X obj 239 84 bng 15 250 50 0 empty empty empty 17 7 0 10 -262144 -1
-1;
#X obj 196 85 bng 15 250 50 0 empty empty empty 17 7 0 10 -262144 -1
-1;
#X obj 120 85 loadfloat 0;
#X obj 270 250 r height;
#X obj 260 229 r gridsize;
#X floatatom 196 134 5 0 0 0 Number_of_Channels - -;
#X text 161 10 New Channel:;
#X obj 184 157 spigot;
#X obj 262 63 t b b b;
#X obj 262 43 bng 15 250 50 0 empty empty empty 17 7 0 10 -262144 -1
-1;
#X msg 274 107 0;
#X msg 301 107 1;
#X obj 158 55 r reset_count;
#X obj 218 230 - 1;
#X obj 223 514 r gridsize;
#X obj 182 704 s pd-controller;
#X text 211 211 Create pd patch to change;
#X text 272 453 Create config receivers;
#X obj 168 182 t b f f f;
#X obj 275 273 + 20;
#X obj 218 366 pack 0 0 0 0 0 0;
#X text 323 250 route;
#X text 306 272 pd ch#;
#X text 320 294 *~;
#X obj 218 302 t f f;
#X text 328 322 x val for line~ \, r ch#vol;
#X obj 296 324 + 50;
#X obj 218 257 * 130;
#X obj 40 804 s pd-sandbox;
#X obj 40 676 - 1;
#X obj 66 676 - 1;
#X obj 40 654 t f f f f f;
#X obj 91 676 - 1;
#X obj 117 676 - 1;
#X obj 288 295 + 30;
#X obj 263 540 r height;
#X obj 262 12 inlet;
#X text 180 743 Connect Sandbox Stuff;
#X obj 377 199 s num_channels;
#X obj 377 177 f;
#X obj 377 149 r get_num_channels;
#X obj 337 150 t b f;
#X obj 283 174 outlet;
#X obj 40 720 + 2;
#X obj 66 720 + 3;
#X obj 91 720 + 4;
#X obj 117 720 + 5;
#X obj 182 609 pack 0 0 0 0 0 0;
#X obj 226 569 + 60;
#X obj 158 493 t f f f f;
#X obj 40 698 * 4;
#X obj 66 698 * 4;
#X obj 91 698 * 4;
#X obj 117 698 * 4;
#X obj 40 744 pack 0 0 0 0;
#X obj 607 512 > 1;
#X obj 504 540 ggate;
#X msg 596 662 find +s 1 \, cut;
#X msg 599 642 find +s 1 \, cut;
#X obj 175 450 t f f b f f f;
#X obj 550 576 t b b;
#X msg 338 541 5;
#X msg 363 538 6;
#X msg 194 387 obj \$1 \$3 pd ch\$6 \, obj \$1 \$4 *~ \, obj \$5 \$2
r chvol\$6 \, obj \$5 \$3 line~ 0 \, vis 0 \,;
#X msg 182 635 obj 10 40 s pd-ch\$1 \, obj 80 40 s chvol\$1 \, connect
3 0 \$5 0 \, connect 4 0 \$6 0 \, vis 0 \,;
#X msg 40 766 connect \$4 0 \$2 1 \, connect \$3 0 \$4 0 \, connect
\$2 0 0 0 \, connect \$2 0 1 0 \, vis 0 \,;
#X connect 1 0 7 0;
#X connect 2 0 1 1;
#X connect 3 0 1 0;
#X connect 4 0 1 3;
#X connect 5 0 21 0;
#X connect 5 0 22 1;
#X connect 6 0 29 1;
#X connect 7 0 9 0;
#X connect 7 0 43 0;
#X connect 7 0 44 0;
#X connect 9 0 20 0;
#X connect 10 0 12 0;
#X connect 10 1 1 5;
#X connect 10 2 13 0;
#X connect 11 0 10 0;
#X connect 12 0 9 1;
#X connect 13 0 9 1;
#X connect 14 0 2 0;
#X connect 15 0 29 0;
#X connect 16 0 50 0;
#X connect 16 0 49 1;
#X connect 20 1 61 0;
#X connect 20 2 15 0;
#X connect 20 3 22 5;
#X connect 21 0 22 2;
#X connect 21 0 36 0;
#X connect 22 0 65 0;
#X connect 26 0 22 0;
#X connect 26 1 28 0;
#X connect 28 0 22 4;
#X connect 29 0 26 0;
#X connect 31 0 52 0;
#X connect 32 0 53 0;
#X connect 33 0 31 0;
#X connect 33 1 32 0;
#X connect 33 2 34 0;
#X connect 33 3 35 0;
#X connect 34 0 54 0;
#X connect 35 0 55 0;
#X connect 36 0 22 3;
#X connect 37 0 49 3;
#X connect 38 0 11 0;
#X connect 41 0 40 0;
#X connect 42 0 41 0;
#X connect 43 0 41 0;
#X connect 43 1 41 1;
#X connect 45 0 56 0;
#X connect 46 0 56 1;
#X connect 47 0 56 2;
#X connect 48 0 56 3;
#X connect 49 0 66 0;
#X connect 50 0 49 2;
#X connect 51 0 33 0;
#X connect 51 2 49 0;
#X connect 52 0 45 0;
#X connect 53 0 46 0;
#X connect 54 0 47 0;
#X connect 55 0 48 0;
#X connect 56 0 67 0;
#X connect 57 0 58 1;
#X connect 58 1 62 0;
#X connect 59 0 17 0;
#X connect 60 0 17 0;
#X connect 61 0 51 0;
#X connect 61 2 58 0;
#X connect 61 3 57 0;
#X connect 61 4 63 0;
#X connect 61 5 64 0;
#X connect 62 0 59 0;
#X connect 62 1 60 0;
#X connect 63 0 49 4;
#X connect 64 0 49 5;
#X connect 65 0 0 0;
#X connect 66 0 17 0;
#X connect 67 0 30 0;
#X restore 156 79 pd add_channel;
#N canvas 830 182 637 621 configure_channel 0;
#X obj 199 533 s pd-sandbox;
#X obj 199 405 - 1;
#X obj 225 405 - 1;
#X obj 250 405 - 1;
#X obj 276 405 - 1;
#X floatatom 39 -38 5 0 0 0 - - -;
#X obj 294 345 textfile;
#X msg 358 321 clear;
#X obj 381 174 iterator;
#X obj 426 154 bng 15 250 50 0 empty empty empty 17 7 0 10 -262144
-1 -1;
#X obj 366 199 f;
#X obj 103 338 once;
#X obj 82 -39 bng 15 250 50 0 empty empty empty 17 7 0 10 -262144 -1
-1;
#X obj 366 267 minigun;
#X obj 366 222 t b f;
#X obj 199 295 f;
#X obj 39 330 f;
#X obj 39 -61 inlet;
#X obj 82 -61 inlet;
#X obj 294 300 list prepend add;
#X obj 294 321 list trim;
#X obj 33 397 outlet;
#X obj 199 449 + 2;
#X obj 225 449 + 3;
#X obj 250 449 + 4;
#X obj 276 449 + 5;
#X obj 199 427 * 4;
#X obj 225 427 * 4;
#X obj 250 427 * 4;
#X obj 276 427 * 4;
#X obj 199 473 pack 0 0 0 0;
#X obj 103 399 outlet;
#X obj 199 383 t f f f f;
#X msg 39 353 1 5;
#X obj 39 -19 t f f;
#X obj 107 307 bng 15 250 50 0 empty empty empty 17 7 0 10 -262144
-1 -1;
#X obj 393 246 + 1;
#X obj 39 127 t b b b b b a;
#X obj 82 -19 s \$0-prepare-config;
#X obj 399 299 r \$0-prepare-config;
#X obj 390 131 r \$0-prepare-config;
#X obj 127 315 r \$0-prepare-config;
#X obj 66 3 s \$0-config-channel;
#X obj 53 265 r \$0-config-channel;
#X obj 149 399 outlet;
#X obj 149 376 bng 15 250 50 0 empty empty empty 17 7 0 10 -262144
-1 -1;
#X obj 216 233 t a b;
#X msg 103 359 0 3;
#X obj 324 174 delay 10;
#X obj 199 275 delay 10;
#X obj 39 307 delay 50;
#X obj 323 133 bng 15 250 50 0 empty empty empty 17 7 0 10 -262144
-1 -1;
#X msg 199 495 connect \$1 0 \$2 0 \, vis 0;
#X msg 39 26 obj 0 0 r control\$1 \, obj 0 25 list trim \, obj 0 80
Note \, obj 0 125 outlet~ \, connect 0 0 1 0 \, connect 1 0 2 0 \,
connect 2 0 3 0 \, loadbang;
#X connect 1 0 26 0;
#X connect 2 0 27 0;
#X connect 3 0 28 0;
#X connect 4 0 29 0;
#X connect 5 0 34 0;
#X connect 6 0 21 0;
#X connect 7 0 6 0;
#X connect 8 0 10 1;
#X connect 9 0 8 5;
#X connect 10 0 14 0;
#X connect 11 0 47 0;
#X connect 12 0 38 0;
#X connect 13 0 6 0;
#X connect 14 0 13 0;
#X connect 14 1 36 0;
#X connect 15 0 32 0;
#X connect 16 0 33 0;
#X connect 17 0 5 0;
#X connect 18 0 12 0;
#X connect 19 0 20 0;
#X connect 20 0 6 0;
#X connect 22 0 30 0;
#X connect 23 0 30 1;
#X connect 24 0 30 2;
#X connect 25 0 30 3;
#X connect 26 0 22 0;
#X connect 27 0 23 0;
#X connect 28 0 24 0;
#X connect 29 0 25 0;
#X connect 30 0 52 0;
#X connect 32 0 1 0;
#X connect 32 1 2 0;
#X connect 32 2 3 0;
#X connect 32 3 4 0;
#X connect 33 0 31 0;
#X connect 33 0 45 0;
#X connect 34 0 53 0;
#X connect 34 1 42 0;
#X connect 35 0 11 0;
#X connect 36 0 13 1;
#X connect 37 0 50 0;
#X connect 37 1 49 0;
#X connect 37 2 48 0;
#X connect 37 4 9 0;
#X connect 37 5 46 0;
#X connect 39 0 7 0;
#X connect 40 0 8 1;
#X connect 41 0 11 1;
#X connect 43 0 15 1;
#X connect 43 0 16 1;
#X connect 45 0 44 0;
#X connect 46 0 19 0;
#X connect 46 1 35 0;
#X connect 47 0 31 0;
#X connect 48 0 10 0;
#X connect 49 0 15 0;
#X connect 50 0 16 0;
#X connect 51 0 48 0;
#X connect 52 0 0 0;
#X connect 53 0 37 0;
#X restore 21 117 pd configure_channel;
#X obj 117 -21 inlet;
#X text 137 -38 Add Note;
#X obj 224 -19 inlet;
#X text 224 -37 Reset;
#X obj 21 96 f;
#X obj 117 51 t b b b;
#X floatatom 19 7 5 0 0 0 - - -;
#X obj 19 -17 inlet;
#N canvas 715 23 265 231 swap_sender 0;
#X obj -1 189 s pd-dynamic_pd;
#X obj -27 54 t f b;
#X msg 0 96 find +s 1 \, cut;
#X obj -27 9 inlet;
#X msg -30 126 obj 150 50 s control\$1 \, connect 5 0 6 0 \, vis 0
;
#X connect 1 0 4 0;
#X connect 1 1 2 0;
#X connect 2 0 0 0;
#X connect 3 0 1 0;
#X connect 4 0 0 0;
#X restore 19 29 pd swap_sender;
#X obj 117 31 bng 15 250 50 0 empty empty empty 17 7 0 10 -262144 -1
-1;
#X obj -52 -20 inlet;
#X obj 117 8 once;
#X obj 272 143 delay 30;
#X obj 272 165 s config-ready;
#X obj 138 167 outlet~;
#X obj 21 168 outlet~;
#X text -86 -38 Control Messages;
#X text 27 -37 Set Control #;
#N canvas 747 78 229 107 dynamic_pd 0;
#X obj 23 73 outlet~;
#X obj 98 72 outlet~;
#N canvas 386 488 205 243 controller 0;
#X obj 10 200 outlet~;
#X obj 67 200 outlet~;
#N canvas 374 352 450 300 sandbox 0;
#X obj 0 200 outlet~;
#X obj 67 200 outlet~;
#N canvas 765 44 450 300 ch1 1;
#X obj 0 0 r control1;
#X obj 0 25 list trim;
#X obj 0 80 Note;
#X obj 0 125 outlet~;
#X connect 0 0 1 0;
#X connect 1 0 2 0;
#X connect 2 0 3 0;
#X restore 0 120 pd ch1;
#X obj 0 150 *~;
#X obj 50 100 r chvol1;
#X obj 50 120 line~ 0;
#X connect 2 0 3 0;
#X connect 3 0 0 0;
#X connect 3 0 1 0;
#X connect 4 0 5 0;
#X connect 5 0 3 1;
#X restore 10 100 pd sandbox;
#X obj 10 0 inlet;
#X obj 80 0 inlet;
#X obj 10 40 s pd-ch1;
#X obj 80 40 s chvol1;
#X connect 2 0 0 0;
#X connect 2 1 1 0;
#X connect 3 0 5 0;
#X connect 4 0 6 0;
#X restore 23 44 pd controller;
#X obj 23 12 inlet;
#X obj 98 12 inlet;
#X obj 150 12 inlet;
#X obj 150 50 s control1;
#X connect 2 0 0 0;
#X connect 2 1 1 0;
#X connect 3 0 2 0;
#X connect 4 0 2 1;
#X connect 5 0 6 0;
#X restore 21 145 pd dynamic_pd ______;
#X obj -92 27 route view;
#N canvas 715 23 425 231 swap_sender 0;
#X obj -27 70 t f b;
#X msg 0 96 find +s 1 \, cut;
#X obj -27 9 inlet;
#X obj -27 41 f;
#X obj -1 189 s pd-channel_patch;
#X msg -27 126 obj 10 50 s pd-ch\$1 \, connect 0 0 1 0 \, vis 0;
#X connect 0 0 5 0;
#X connect 0 1 1 0;
#X connect 1 0 4 0;
#X connect 2 0 3 0;
#X connect 3 0 0 0;
#X connect 5 0 4 0;
#X restore -65 74 pd swap_sender;
#X obj -92 51 t b f;
#N canvas 84 540 450 300 channel_patch 0;
#X obj 10 5 inlet;
#X obj 10 50 s pd-ch1;
#X connect 0 0 1 0;
#X restore -92 132 pd channel_patch;
#X msg -101 -10 view 1;
#X msg -92 93 vis 1 \,;
#X connect 0 0 16 1;
#X connect 0 0 17 0;
#X connect 1 0 0 0;
#X connect 2 0 1 0;
#X connect 3 0 9 1;
#X connect 4 0 23 0;
#X connect 4 1 23 1;
#X connect 4 2 16 1;
#X connect 4 2 17 0;
#X connect 5 0 16 0;
#X connect 7 0 1 0;
#X connect 9 0 4 0;
#X connect 10 0 9 0;
#X connect 10 1 4 1;
#X connect 10 2 3 0;
#X connect 11 0 13 0;
#X connect 12 0 11 0;
#X connect 14 0 10 0;
#X connect 15 0 24 0;
#X connect 16 0 14 0;
#X connect 17 0 18 0;
#X connect 23 0 20 0;
#X connect 23 1 19 0;
#X connect 24 0 26 0;
#X connect 24 1 23 2;
#X connect 26 0 29 0;
#X connect 26 1 25 0;
#X connect 28 0 24 0;
#X connect 29 0 27 0;
