#N canvas 888 75 791 467 10;
#X obj 5 5 inlet;
#X obj 9 274 outlet~;
#N canvas 367 700 1129 247 dynamo~ 1;
#X obj 10 0 r 1360-note;
#X obj 10 100 Note --------------;
#X obj 10 200 send~ 1360-out;
#X obj 120 0 r 1360-wave;
#X obj 220 0 r 1360-attack;
#X obj 320 0 r 1360-decay;
#X obj 420 0 r 1360-sustain;
#X obj 520 0 r 1360-release;
#X obj 620 0 r 1360-flush;
#X obj 720 0 r 1360-pitchbend;
#X obj 820 0 r 1360-pitchbend_range;
#X connect 0 0 1 0;
#X connect 1 0 2 0;
#X connect 3 0 1 1;
#X connect 4 0 1 2;
#X connect 5 0 1 3;
#X connect 6 0 1 4;
#X connect 7 0 1 5;
#X connect 8 0 1 6;
#X connect 9 0 1 7;
#X connect 10 0 1 8;
#X restore 10 119 pd dynamo~;
#X obj 85 33 t b a b;
#X obj 343 78 f \$0;
#X obj 190 79 list prepend obj 10 100;
#X obj 190 99 list trim;
#X obj 126 379 s pd-dynamo~;
#X obj 78 91 f \$0;
#X msg 343 106 clear \, obj 10 0 r \$1-note;
#X msg 79 10 Note --------------;
#X msg 152 189 obj 10 200 send~ \$1-out \, obj 120 0 r \$1-wave \,
obj 220 0 r \$1-attack \, obj 320 0 r \$1-decay \, obj 420 0 r \$1-sustain
\, obj 520 0 r \$1-release \, obj 620 0 r \$1-flush \, obj 720 0 r
\$1-pitchbend \, obj 820 0 r \$1-pitchbend_range \, connect 0 0 1 0
\, connect 1 0 2 0 \, connect 3 0 1 1 \, connect 4 0 1 2 \, connect
5 0 1 3 \, connect 6 0 1 4 \, connect 7 0 1 5 \, connect 8 0 1 6 \,
connect 9 0 1 7 \, connect 10 0 1 8 \,;
#X obj 120 81 route Note;
#X obj 118 129 ggate;
#X msg 125 104 1;
#X msg 152 104 0;
#X msg 117 292 obj 10 200 send~ \$1-out \, obj 120 0 r \$1-wave \,
obj 220 0 r \$1-attack \, obj 320 0 r \$1-decay \, obj 420 0 r \$1-sustain
\, obj 520 0 r \$1-release \, obj 620 0 r \$1-flush \, obj 720 0 r
\$1-pitchbend \, obj 820 0 r \$1-pitchbend_range \, connect 1 0 2 0
;
#X msg 207 9 Blank~;
#X obj 9 243 receive~ 13-out;
#X connect 0 0 3 0;
#X connect 3 0 8 0;
#X connect 3 1 5 0;
#X connect 3 1 12 0;
#X connect 3 2 4 0;
#X connect 4 0 9 0;
#X connect 5 0 6 0;
#X connect 6 0 7 0;
#X connect 8 0 13 0;
#X connect 9 0 7 0;
#X connect 10 0 3 0;
#X connect 11 0 7 0;
#X connect 12 0 14 0;
#X connect 12 1 15 0;
#X connect 13 0 16 0;
#X connect 13 1 11 0;
#X connect 14 0 13 1;
#X connect 15 0 13 1;
#X connect 16 0 7 0;
#X connect 17 0 3 0;
#X connect 18 0 1 0;
