#N canvas 595 126 715 445 10;
#X obj 15 15 inlet;
#X obj 19 284 outlet~;
#X obj 19 253 receive~ \$0-out;
#X obj 95 43 t b a b;
#X obj 403 89 f \$0;
#X obj 250 90 list prepend obj 10 100;
#X obj 250 110 list trim;
#X obj 88 101 f \$0;
#X msg 162 199 obj 10 200 send~ \$1-out \, obj 120 0 r \$1-wave \,
obj 220 0 r \$1-attack \, obj 320 0 r \$1-decay \, obj 420 0 r \$1-sustain
\, obj 520 0 r \$1-release \, obj 620 0 r \$1-flush \, obj 720 0 r
\$1-pitchbend \, obj 820 0 r \$1-pitchbend_range \, connect 0 0 1 0
\, connect 1 0 2 0 \, connect 3 0 1 1 \, connect 4 0 1 2 \, connect
5 0 1 3 \, connect 6 0 1 4 \, connect 7 0 1 5 \, connect 8 0 1 6 \,
connect 9 0 1 7 \, connect 10 0 1 8 \,;
#X obj 128 139 ggate;
#X msg 135 114 1;
#X msg 162 114 0;
#X msg 217 19 Blank~;
#N canvas 365 700 1129 247 effects~ 1;
#X obj 10 0 receive~ 1359-in;
#X obj 10 100 effects_rack~ --------------;
#X obj 10 200 send~ 1359-out;
#X obj 120 0 r 1359-wave;
#X obj 220 0 r 1359-attack;
#X obj 320 0 r 1359-decay;
#X obj 420 0 r 1359-sustain;
#X obj 520 0 r 1359-release;
#X obj 620 0 r 1359-flush;
#X obj 720 0 r 1359-pitchbend;
#X obj 820 0 r 1359-pitchbend_range;
#X connect 0 0 1 0;
#X connect 1 0 2 0;
#X restore 20 129 pd effects~;
#X obj 136 389 s pd-effects~;
#X msg 403 117 clear \, obj 10 0 receive~ \$1-in;
#X msg 127 302 obj 10 200 send~ \$1-out \, obj 120 0 r \$1-wave \,
obj 220 0 r \$1-attack \, obj 320 0 r \$1-decay \, obj 420 0 r \$1-sustain
\, obj 520 0 r \$1-release \, obj 620 0 r \$1-flush \, obj 720 0 r
\$1-pitchbend \, obj 820 0 r \$1-pitchbend_range \, connect 0 0 1 0
\, connect 1 0 2 0;
#X msg 89 20 effects_rack~ --------------;
#X obj 130 91 route effects_rack~;
#X connect 0 0 3 0;
#X connect 2 0 1 0;
#X connect 3 0 7 0;
#X connect 3 1 5 0;
#X connect 3 1 18 0;
#X connect 3 2 4 0;
#X connect 4 0 15 0;
#X connect 5 0 6 0;
#X connect 6 0 14 0;
#X connect 7 0 9 0;
#X connect 8 0 14 0;
#X connect 9 0 16 0;
#X connect 9 1 8 0;
#X connect 10 0 9 1;
#X connect 11 0 9 1;
#X connect 12 0 3 0;
#X connect 15 0 14 0;
#X connect 16 0 14 0;
#X connect 17 0 3 0;
#X connect 18 0 10 0;
#X connect 18 1 11 0;
