#N canvas 559 22 728 533 10;
#X obj 296 274 list prepend obj 10 100;
#X obj 294 214 f \$0;
#X obj 296 328 f \$0;
#X obj 151 56 inlet;
#X obj 296 305 list trim;
#X obj 33 455 outlet~;
#N canvas 541 616 450 300 receive 0;
#X obj 106 239 outlet~;
#X obj 106 190 r~ \$0-out;
#X connect 1 0 0 0;
#X restore 33 374 pd receive;
#N canvas 50 549 450 300 dsp-order-force 0;
#N canvas 115 399 450 300 \$0-dsp 0;
#X obj 10 100 osc~ 200;
#X obj 10 200 s~ 1379-out;
#X connect 0 0 1 0;
#X restore 102 146 pd \$0-dsp;
#X restore 32 302 pd dsp-order-force;
#X obj 216 455 s pd-\$0-dsp;
#X obj 151 182 t b b;
#X obj 151 82 t b a b b;
#X msg 294 247 clear;
#X msg 296 350 obj 10 200 s~ \$1-out \, connect 0 0 1 0;
#X msg 89 46 osc~ 200;
#X connect 0 0 4 0;
#X connect 1 0 11 0;
#X connect 2 0 12 0;
#X connect 3 0 10 0;
#X connect 4 0 8 0;
#X connect 6 0 5 0;
#X connect 9 1 2 0;
#X connect 10 0 9 0;
#X connect 10 1 0 0;
#X connect 10 2 1 0;
#X connect 11 0 8 0;
#X connect 12 0 8 0;
#X connect 13 0 10 0;
