#N canvas 260 40 1567 899 10;
#X obj -11 805 outlet~;
#X obj -11 23 inlet~;
#X obj 16 125 tgl 15 0 empty empty Gain_off/on 17 7 0 10 -262144 -1
-1 0 1;
#X floatatom 2 104 5 0 0 1 Gain_amount - -;
#X obj 205 614 tgl 15 0 empty empty Chorus_off/on 17 7 0 10 -262144
-1 -1 0 1;
#X floatatom 195 594 5 0 0 1 Chorus_mix - -;
#X floatatom 185 574 5 0 0 1 Chorus_depth - -;
#X floatatom 175 554 5 0 0 1 Chorus_rate - -;
#X obj 354 669 tgl 15 0 empty empty Tremolo_off/on 17 7 0 10 -262144
-1 -1 0 1;
#X floatatom 342 650 5 0 0 1 Tremolo_Shape_(0-3) - -;
#X floatatom 331 631 5 0 0 1 Tremolo_Depth - -;
#X floatatom 320 612 5 0 0 1 Tremolo_rate - -;
#X obj 157 160 tgl 15 0 empty empty Ring_Modulator_off/on 17 7 0 10
-262144 -1 -1 0 1;
#X floatatom 142 140 5 0 0 1 Ring_Modulator_depth - -;
#X floatatom 127 120 5 0 0 1 Ring_Modulator_rate - -;
#X obj 175 519 r \$0-chorus_rate;
#X obj 185 496 r \$0-chorus_depth;
#X obj 195 473 r \$0-chorus_mix;
#X obj 205 450 r \$0-chorus_on;
#X obj 127 53 r \$0-ringmod_rate;
#X obj 142 75 r \$0-ringmod_depth;
#X obj 157 97 r \$0-ringmod_on;
#X obj 320 525 r \$0-tremolo_rate;
#X obj 331 546 r \$0-tremolo_depth;
#X obj 342 567 r \$0-tremolo_shape;
#X obj -11 711 multitremolo~;
#X obj -11 144 gain~;
#X obj -11 656 chorus~;
#X obj -11 249 ringmod~;
#X obj 349 98 f \$0;
#X obj 349 68 bng 15 250 50 0 empty empty empty 17 7 0 10 -262144 -1
-1;
#X obj 349 36 loadbang;
#X obj 354 588 r \$0-tremolo_on;
#X obj 59 549 tgl 15 0 empty empty Delay_off/on 17 7 0 10 -262144 -1
-1 0 1;
#X floatatom 38 530 5 0 0 1 Delay_Feedback - -;
#X floatatom 17 510 5 0 0 1 Delay_Time_(ms) - -;
#X obj 17 445 r \$0-delay_time;
#X obj 38 466 r \$0-delay_feedback;
#X obj 59 486 r \$0-delay_on;
#X obj -11 588 multidelay~;
#X obj 2 51 r \$0-pregain_amount;
#X obj 16 71 r \$0-pregain_on;
#X obj 654 749 tgl 15 0 empty empty Gain_off/on 17 7 0 10 -262144 -1
-1 0 1;
#X floatatom 640 728 5 0 0 1 Gain_amount - -;
#X obj -11 781 gain~;
#X obj 640 675 r \$0-gain_amount;
#X obj 654 695 r \$0-gain_on;
#X obj -11 751 vibrato~;
#X obj 533 711 tgl 15 0 empty empty Vibrato_off/on 17 7 0 10 -262144
-1 -1 0 1;
#X floatatom 510 691 5 0 0 1 Vibrato_Depth - -;
#X floatatom 499 672 5 0 0 1 Vibrato_rate - -;
#X obj 499 585 r \$0-vibrato_rate;
#X obj 510 606 r \$0-vibrato_depth;
#X obj 533 630 r \$0-vibrato_on;
#X msg 349 121 \; \$1-chorus_rate 0.3 \; \$1-chorus_depth 0.7 \; \$1-chorus_mix
50 \; \$1-tremolo_shape 1 \; \$1-tremolo_depth 1 \; \$1-tremolo_rate
8 \; \$1-ringmod_depth 1 \; \$1-ringmod_rate 60 \; \$1-delay_time 700
\; \$1-delay_feedback 0.4 \; \$1-vibrato_rate 1.5 \; \$1-vibrato_depth
0.3 \;;
#X obj -11 411 multifilter~;
#X connect 1 0 26 0;
#X connect 2 0 26 2;
#X connect 3 0 26 1;
#X connect 4 0 27 4;
#X connect 5 0 27 3;
#X connect 6 0 27 2;
#X connect 7 0 27 1;
#X connect 8 0 25 4;
#X connect 9 0 25 3;
#X connect 10 0 25 2;
#X connect 11 0 25 1;
#X connect 12 0 28 3;
#X connect 13 0 28 2;
#X connect 14 0 28 1;
#X connect 15 0 7 0;
#X connect 16 0 6 0;
#X connect 17 0 5 0;
#X connect 18 0 4 0;
#X connect 19 0 14 0;
#X connect 20 0 13 0;
#X connect 21 0 12 0;
#X connect 22 0 11 0;
#X connect 23 0 10 0;
#X connect 24 0 9 0;
#X connect 25 0 47 0;
#X connect 26 0 28 0;
#X connect 27 0 25 0;
#X connect 28 0 55 0;
#X connect 29 0 54 0;
#X connect 30 0 29 0;
#X connect 31 0 30 0;
#X connect 32 0 8 0;
#X connect 33 0 39 3;
#X connect 34 0 39 2;
#X connect 35 0 39 1;
#X connect 36 0 35 0;
#X connect 37 0 34 0;
#X connect 38 0 33 0;
#X connect 39 0 27 0;
#X connect 40 0 3 0;
#X connect 41 0 2 0;
#X connect 42 0 44 2;
#X connect 43 0 44 1;
#X connect 44 0 0 0;
#X connect 45 0 43 0;
#X connect 46 0 42 0;
#X connect 47 0 44 0;
#X connect 48 0 47 3;
#X connect 49 0 47 2;
#X connect 50 0 47 1;
#X connect 51 0 50 0;
#X connect 52 0 49 0;
#X connect 53 0 48 0;
#X connect 55 0 39 0;
