#N canvas 513 23 1013 534 10;
#X text 776 124 MONO:;
#X msg 775 142 ringmod filter delay chorus tremolo vibrato gain volume
;
#N canvas 658 586 336 148 \$0-shell 1;
#X restore 619 350 pd \$0-shell;
#X obj 626 390 s pd-\$0-shell;
#X obj 376 6 inlet;
#X text 587 12 METHODS;
#X text 608 27 new <effect> <id>;
#X text 608 43 delete <id>;
#X text 609 59 <id> <message>;
#X obj 88 255 catch~ \$0-WET;
#X obj 87 203 throw~ \$0-DRY;
#X obj 384 205 catch~ \$0-DRY;
#X obj 385 271 throw~ \$0-WET;
#X obj 105 386 catch~ OUTLET;
#X obj 167 310 throw~ OUTLET;
#X obj 202 483 outlet~ WET_SIGNAL;
#X obj 90 9 inlet~ DRY_SIGNAL;
#X obj 78 92 catch~ INLET;
#X obj 7 59 throw~ INLET;
#X obj 86 176 ggate~;
#X obj 430 55 t b a;
#X obj 442 95 -;
#X msg 430 75 1;
#X floatatom 430 32 5 0 1 0 - - -;
#X obj 430 6 inlet MIX;
#X obj -24 12 noise~;
#X obj 385 250 biquad~ 0.2 0.8 5 5 1;
#N canvas 0 22 450 278 (subpatch) 0;
#X array SPECTRUM 100 float 3;
#A 0 -1 -1 -1 -1 -1 -1 -1 -1 -1 -1 -1 -1 -1 -1 -1 -1 -1 -1 -1 -1 -1
-1 -1 -1 -1 -1 -1 -1 -1 -1 -1 -1 -1 -1 -1 -1 -1 -1 -1 -1 -1 -1 -1 -1
-1 -1 -1 -1 -1 -1 -1 -1 -1 -1 -1 -1 -1 -1 -1 -1 -1 -1 -1 -1 -1 -1 -1
-1 -1 -1 -1 -1 -1 -1 -1 -1 -1 -1 -1 -1 -1 -1 -1 -1 -1 -1 -1 -1 -1 -1
-1 -1 -1 -1 -1 -1 -1 -1 -1 -1;
#X coords 0 1 99 -1 200 140 1;
#X restore 368 354 graph;
#X obj 118 436 autospectrum~ SPECTRUM;
#X obj 493 181 biquad_coefficients;
#X floatatom 492 144 5 0 0 0 - - -;
#X floatatom 530 145 5 0 0 0 - - -;
#X floatatom 574 145 5 0 0 0 - - -;
#X obj 553 243 pack 0 0 0 0 0;
#X obj 556 275 print BIQUAD;
#X obj 8 438 dac~;
#X floatatom 159 411 5 0 0 0 - - -;
#X obj 471 229 list trim;
#X msg 605 155 lowpass;
#X connect 9 0 14 0;
#X connect 11 0 26 0;
#X connect 13 0 28 0;
#X connect 13 0 35 0;
#X connect 17 0 19 0;
#X connect 19 0 10 0;
#X connect 19 1 14 0;
#X connect 20 0 22 0;
#X connect 20 1 21 1;
#X connect 21 0 19 1;
#X connect 22 0 21 0;
#X connect 23 0 20 0;
#X connect 24 0 23 0;
#X connect 25 0 18 0;
#X connect 26 0 12 0;
#X connect 29 0 33 2;
#X connect 29 1 33 3;
#X connect 29 2 33 4;
#X connect 29 3 33 0;
#X connect 29 4 33 1;
#X connect 30 0 29 0;
#X connect 31 0 29 1;
#X connect 32 0 29 2;
#X connect 33 0 34 0;
#X connect 33 0 37 0;
#X connect 36 0 28 2;
#X connect 37 0 26 0;
#X connect 38 0 29 3;
