#N canvas 244 134 1013 534 10;
#X text 776 124 MONO:;
#X msg 775 142 ringmod filter delay chorus tremolo vibrato gain volume
;
#N canvas 920 333 450 300 \$0-shell 1;
#X obj 31 223;
#X restore 619 350 pd \$0-shell;
#X obj 626 390 s pd-\$0-shell;
#X obj 376 6 inlet;
#X text 587 12 METHODS;
#X text 608 27 new <effect> <id>;
#X text 608 43 delete <id>;
#X text 609 59 <id> <message>;
#X obj 88 255 catch~ \$0-WET;
#X obj 87 203 throw~ \$0-DRY;
#X obj -24 12 osc~ 220;
#X obj 384 205 catch~ \$0-DRY;
#X obj 385 271 throw~ \$0-WET;
#X obj -18 446 view~;
#X obj -20 423 catch~ OUTLET;
#X obj 167 310 throw~ OUTLET;
#X obj 25 447 dac~;
#X obj 385 239 abs~;
#X obj 202 483 outlet~ WET_SIGNAL;
#X obj 90 9 inlet~ DRY_SIGNAL;
#X obj 78 92 catch~ INLET;
#X obj 7 59 throw~ INLET;
#X obj 86 176 ggate~;
#X obj 430 55 t b a;
#X obj 442 95 -;
#X msg 430 75 1;
#X floatatom 430 32 5 0 1 0 - - -;
#X obj 430 6 inlet MIX;
#X connect 9 0 16 0;
#X connect 11 0 22 0;
#X connect 12 0 18 0;
#X connect 15 0 14 0;
#X connect 15 0 17 0;
#X connect 15 0 17 1;
#X connect 18 0 13 0;
#X connect 21 0 23 0;
#X connect 23 0 10 0;
#X connect 23 1 16 0;
#X connect 24 0 26 0;
#X connect 24 1 25 1;
#X connect 25 0 23 1;
#X connect 26 0 25 0;
#X connect 27 0 24 0;
#X connect 28 0 27 0;
