#N canvas 255 156 1107 611 10;
#X obj 79 35 hip~;
#X obj 57 58 gswitch~;
#X obj 35 -11 inlet~;
#X obj 57 112 gswitch~;
#X obj 79 89 bp~;
#X obj 57 158 gswitch~;
#X obj 79 135 bp~;
#X obj 57 209 gswitch~;
#X obj 79 186 bp~;
#X obj 57 257 gswitch~;
#X obj 79 234 bp~;
#X obj 116 -12 inlet;
#X obj 116 11 unpack 1 20;
#X obj 188 -12 inlet;
#X obj 188 11 unpack 1 20 0.6;
#X obj 285 -12 inlet;
#X obj 285 11 unpack 1 20 0.6;
#X obj 381 -12 inlet;
#X obj 381 11 unpack 1 20 0.6;
#X obj 477 -12 inlet;
#X obj 477 11 unpack 1 20 0.6;
#X obj 57 308 gswitch~;
#X obj 79 285 bp~;
#X obj 57 358 gswitch~;
#X obj 79 335 bp~;
#X obj 57 409 gswitch~;
#X obj 79 386 bp~;
#X obj 57 458 gswitch~;
#X obj 79 435 bp~;
#X obj 573 -12 inlet;
#X obj 573 11 unpack 1 20 0.6;
#X obj 669 -12 inlet;
#X obj 669 11 unpack 1 20 0.6;
#X obj 765 -12 inlet;
#X obj 765 11 unpack 1 20 0.6;
#X obj 861 -12 inlet;
#X obj 861 11 unpack 1 20 0.6;
#X obj 57 509 gswitch~;
#X obj 957 -12 inlet;
#X obj 957 11 unpack 1 20;
#X obj 79 486 lop~;
#X obj 35 544 gswitch~;
#X obj 1040 -12 inlet;
#X obj 35 567 outlet~;
#X obj 575 305 ||;
#X obj 118 529 tgl 15 0 empty empty empty 17 7 0 10 -262144 -1 -1 0
1;
#X obj 575 282 t b f;
#X obj 624 322 ||;
#X obj 624 299 t b f;
#X obj 672 339 ||;
#X obj 672 316 t b f;
#X obj 719 356 ||;
#X obj 719 333 t b f;
#X obj 765 373 ||;
#X obj 765 350 t b f;
#X obj 814 390 ||;
#X obj 814 367 t b f;
#X obj 862 407 ||;
#X obj 862 384 t b f;
#X obj 909 424 ||;
#X obj 909 401 t b f;
#X obj 957 441 ||;
#X obj 957 418 t b f;
#X text 578 442 Automatically Turns on Plugin when an individual filter
is turned on.;
#X text 406 551 Right now bandpasses conflict with each other (are
not additive). This is a very bad design and needs to be fixed.;
#X connect 0 0 1 1;
#X connect 1 0 3 0;
#X connect 1 0 4 0;
#X connect 2 0 1 0;
#X connect 2 0 0 0;
#X connect 2 0 41 0;
#X connect 3 0 6 0;
#X connect 3 0 5 0;
#X connect 4 0 3 1;
#X connect 5 0 7 0;
#X connect 5 0 8 0;
#X connect 6 0 5 1;
#X connect 7 0 10 0;
#X connect 7 0 9 0;
#X connect 8 0 7 1;
#X connect 9 0 21 0;
#X connect 9 0 22 0;
#X connect 10 0 9 1;
#X connect 11 0 12 0;
#X connect 12 0 1 2;
#X connect 12 0 44 0;
#X connect 12 1 0 1;
#X connect 13 0 14 0;
#X connect 14 0 3 2;
#X connect 14 0 46 0;
#X connect 14 1 4 1;
#X connect 14 2 4 2;
#X connect 15 0 16 0;
#X connect 16 0 5 2;
#X connect 16 0 48 0;
#X connect 16 1 6 1;
#X connect 16 2 6 2;
#X connect 17 0 18 0;
#X connect 18 0 7 2;
#X connect 18 0 50 0;
#X connect 18 1 8 1;
#X connect 18 2 8 2;
#X connect 19 0 20 0;
#X connect 20 0 9 2;
#X connect 20 0 52 0;
#X connect 20 1 10 1;
#X connect 20 2 10 2;
#X connect 21 0 24 0;
#X connect 21 0 23 0;
#X connect 22 0 21 1;
#X connect 23 0 25 0;
#X connect 23 0 26 0;
#X connect 24 0 23 1;
#X connect 25 0 28 0;
#X connect 25 0 27 0;
#X connect 26 0 25 1;
#X connect 27 0 40 0;
#X connect 27 0 37 0;
#X connect 28 0 27 1;
#X connect 29 0 30 0;
#X connect 30 0 21 2;
#X connect 30 0 54 0;
#X connect 30 1 22 1;
#X connect 30 2 22 2;
#X connect 31 0 32 0;
#X connect 32 0 23 2;
#X connect 32 0 56 0;
#X connect 32 1 24 1;
#X connect 32 2 24 2;
#X connect 33 0 34 0;
#X connect 34 0 25 2;
#X connect 34 0 58 0;
#X connect 34 1 26 1;
#X connect 34 2 26 2;
#X connect 35 0 36 0;
#X connect 36 0 27 2;
#X connect 36 0 60 0;
#X connect 36 1 28 1;
#X connect 36 2 28 2;
#X connect 37 0 41 1;
#X connect 38 0 39 0;
#X connect 39 0 37 2;
#X connect 39 0 62 0;
#X connect 39 1 40 1;
#X connect 40 0 37 1;
#X connect 41 0 43 0;
#X connect 42 0 45 0;
#X connect 44 0 47 0;
#X connect 45 0 41 2;
#X connect 46 0 44 0;
#X connect 46 1 44 1;
#X connect 47 0 49 0;
#X connect 48 0 47 0;
#X connect 48 1 47 1;
#X connect 49 0 51 0;
#X connect 50 0 49 0;
#X connect 50 1 49 1;
#X connect 51 0 53 0;
#X connect 52 0 51 0;
#X connect 52 1 51 1;
#X connect 53 0 55 0;
#X connect 54 0 53 0;
#X connect 54 1 53 1;
#X connect 55 0 57 0;
#X connect 56 0 55 0;
#X connect 56 1 55 1;
#X connect 57 0 59 0;
#X connect 58 0 57 0;
#X connect 58 1 57 1;
#X connect 59 0 61 0;
#X connect 60 0 59 0;
#X connect 60 1 59 1;
#X connect 61 0 45 0;
#X connect 62 0 61 0;
#X connect 62 1 61 1;
