#N canvas 339 53 1107 611 10;
#X obj 79 35 hip~;
#X obj 57 58 gswitch~;
#X obj 35 -11 inlet~;
#X obj 57 116 gswitch~;
#X obj 79 93 bp~;
#X obj 57 162 gswitch~;
#X obj 79 139 bp~;
#X obj 57 213 gswitch~;
#X obj 79 190 bp~;
#X obj 57 261 gswitch~;
#X obj 79 238 bp~;
#X obj 116 -12 inlet;
#X obj 116 11 unpack 1 20;
#X obj 188 -12 inlet;
#X obj 188 11 unpack 1 20 0.6;
#X obj 285 -12 inlet;
#X obj 285 11 unpack 1 20 0.6;
#X obj 381 -12 inlet;
#X obj 381 11 unpack 1 20 0.6;
#X obj 477 -12 inlet;
#X obj 477 11 unpack 1 20 0.6;
#X obj 57 312 gswitch~;
#X obj 79 289 bp~;
#X obj 57 362 gswitch~;
#X obj 79 339 bp~;
#X obj 57 413 gswitch~;
#X obj 79 390 bp~;
#X obj 57 462 gswitch~;
#X obj 79 439 bp~;
#X obj 573 -12 inlet;
#X obj 573 11 unpack 1 20 0.6;
#X obj 669 -12 inlet;
#X obj 669 11 unpack 1 20 0.6;
#X obj 765 -12 inlet;
#X obj 765 11 unpack 1 20 0.6;
#X obj 861 -12 inlet;
#X obj 861 11 unpack 1 20 0.6;
#X obj 57 509 gswitch~;
#X obj 957 -12 inlet;
#X obj 957 11 unpack 1 20;
#X obj 79 486 lop~;
#X obj 35 544 gswitch~;
#X obj 1040 -12 inlet;
#X obj 35 567 outlet~;
#X connect 0 0 1 1;
#X connect 1 0 3 0;
#X connect 1 0 4 0;
#X connect 2 0 1 0;
#X connect 2 0 0 0;
#X connect 2 0 41 0;
#X connect 3 0 6 0;
#X connect 3 0 5 0;
#X connect 4 0 3 1;
#X connect 5 0 7 0;
#X connect 5 0 8 0;
#X connect 6 0 5 1;
#X connect 7 0 10 0;
#X connect 7 0 9 0;
#X connect 8 0 7 1;
#X connect 9 0 21 0;
#X connect 9 0 22 0;
#X connect 10 0 9 1;
#X connect 11 0 12 0;
#X connect 12 0 1 2;
#X connect 12 1 0 1;
#X connect 13 0 14 0;
#X connect 14 0 3 2;
#X connect 14 1 4 1;
#X connect 14 2 4 2;
#X connect 15 0 16 0;
#X connect 16 0 5 2;
#X connect 16 1 6 1;
#X connect 16 2 6 2;
#X connect 17 0 18 0;
#X connect 18 0 7 2;
#X connect 18 1 8 1;
#X connect 18 2 8 2;
#X connect 19 0 20 0;
#X connect 20 0 9 2;
#X connect 20 1 10 1;
#X connect 20 2 10 2;
#X connect 21 0 24 0;
#X connect 21 0 23 0;
#X connect 22 0 21 1;
#X connect 23 0 25 0;
#X connect 23 0 26 0;
#X connect 24 0 23 1;
#X connect 25 0 28 0;
#X connect 25 0 27 0;
#X connect 26 0 25 1;
#X connect 27 0 40 0;
#X connect 27 0 37 0;
#X connect 28 0 27 1;
#X connect 29 0 30 0;
#X connect 30 0 21 2;
#X connect 30 1 22 1;
#X connect 30 2 22 2;
#X connect 31 0 32 0;
#X connect 32 0 23 2;
#X connect 32 1 24 1;
#X connect 32 2 24 2;
#X connect 33 0 34 0;
#X connect 34 0 25 2;
#X connect 34 1 26 1;
#X connect 34 2 26 2;
#X connect 35 0 36 0;
#X connect 36 0 27 2;
#X connect 36 1 28 1;
#X connect 36 2 28 2;
#X connect 37 0 41 1;
#X connect 38 0 39 0;
#X connect 39 0 37 2;
#X connect 39 1 40 1;
#X connect 40 0 37 1;
#X connect 41 0 43 0;
#X connect 42 0 41 2;
