#N canvas 0 22 450 300 10;
#X obj 50 34 inlet;
#X obj 59 78 t a a;
#X obj 79 123 != \$1;
#X obj 63 155 spigot;
#X obj 65 186 outlet;
#X connect 0 0 1 0;
#X connect 1 0 3 0;
#X connect 1 1 2 0;
#X connect 2 0 3 1;
#X connect 3 0 4 0;
