#N canvas 849 23 363 280 10;
#X obj -36 107 timer;
#X obj -9 58 tgl 15 0 empty empty empty 17 7 0 10 -262144 -1 -1 1 1
;
#X obj -9 81 metro 1;
#X obj -36 133 > 300;
#X floatatom 74 85 5 0 0 0 - - -;
#X obj -36 157 sel 1 0;
#X obj -36 181 once2;
#X obj -9 36 loadfloat 1;
#X obj 74 10 inlet release_time;
#X obj -36 11 inlet note-offs;
#X obj -36 205 outlet;
#X text -38 226 Takes in note-off bangs & release time \, only sends
bang on last note off after all other notes have finished their release.
Sends out bang when patch is first opened.;
#X connect 0 0 3 0;
#X connect 1 0 2 0;
#X connect 2 0 0 1;
#X connect 3 0 5 0;
#X connect 4 0 3 1;
#X connect 5 0 6 0;
#X connect 5 1 6 1;
#X connect 6 0 10 0;
#X connect 7 0 1 0;
#X connect 8 0 4 0;
#X connect 9 0 0 0;
