#N canvas 424 449 499 385 10;
#X obj 154 7 inlet;
#X obj 185 60 list length;
#X obj 188 84 >= 1;
#X obj 161 109 spigot;
#X obj 161 132 list split 1;
#X obj 154 36 t a a b;
#X obj 323 180 list;
#X obj 83 77 sel 0;
#X obj 83 102 t b b;
#X obj 87 44 t f f;
#X obj 163 156 t b b b a;
#X obj 162 265 outlet;
#X obj 293 100 r BINDING_REFERENCE_HERE;
#X obj 175 190 YOUR_PATCH_HERE_TWO_INPUTS_ONE_OUTPUT;
#X obj 160 238 lbuilder;
#X connect 0 0 5 0;
#X connect 1 0 9 0;
#X connect 2 0 3 1;
#X connect 3 0 4 0;
#X connect 4 0 10 0;
#X connect 4 1 6 1;
#X connect 5 0 3 0;
#X connect 5 1 1 0;
#X connect 6 0 5 0;
#X connect 7 0 8 0;
#X connect 8 0 14 2;
#X connect 8 1 14 1;
#X connect 9 0 7 0;
#X connect 9 1 2 0;
#X connect 10 0 6 0;
#X connect 10 3 13 0;
#X connect 12 0 13 1;
#X connect 13 0 14 0;
#X connect 14 0 11 0;
