#N canvas 104 204 92 108 10;
#X obj 3 5 inlet;
#X obj 45 5 inlet;
#X obj 23 55 list;
#X obj 23 31 t b a;
#X obj 23 78 outlet;
#X connect 0 0 2 0;
#X connect 1 0 3 0;
#X connect 2 0 4 0;
#X connect 3 0 2 0;
#X connect 3 1 2 1;
