#N canvas 795 23 525 638 10;
#X text 100 8 lispd;
#X floatatom 54 80 5 0 0 0 - - -;
#X msg 16 109 ID;
#X obj 28 131 lisp;
#X msg 69 197 ID \$1;
#X msg 67 161;
#X obj 154 233 print PARSER;
#X msg 135 139 @def Variable_Name \;;
#X obj 135 164 route @def @x @y @;
#X obj 430 298 lispd;
#X msg 264 166 @def sam \; f 12 \; @def sams_penis 2 3 \; + 1 \; @def
lube \; print SPLOOSH \; @connect sam 0 sams_penis 0 \; @connect sams_penis
0 lube 0 \;;
#X text 216 61 // Uses default grid position;
#X text 418 62 @x x_grid_size \;;
#X text 126 98 @connect obj1 outlet# obj2 inlet# \;;
#X text 125 60 @obj obj_name \;;
#X text 125 76 @obj obj_name x_grid_position y_grid_position \;;
#X text 419 75 @y y_grid_size;
#X text 124 38 @var x_grid_size 50 \;;
#X text 419 102 @i;
#N canvas 304 30 450 300 sub 0;
#X obj 48 23 inlet;
#X obj 56 84 route obj for;
#X obj 39 141 print OBJ;
#X obj 122 142 print FOR;
#X obj 215 137 print OTHER;
#X connect 0 0 1 0;
#X connect 1 0 2 0;
#X connect 1 1 3 0;
#X connect 1 2 4 0;
#X restore 73 608 pd sub;
#X obj 229 601 s2l;
#X msg 261 584 symbol |;
#X text 325 373 Forbidden Characters:;
#X text 345 395 @ | : % #;
#X obj 192 432 list trim;
#X obj 176 606 print;
#X obj 196 526 textfile;
#X msg 219 455 print;
#X obj 176 493 bng 15 250 50 0 empty empty empty 17 7 0 10 -262144
-1 -1;
#X msg 267 452 rewind;
#X msg 319 452 clear;
#X obj 81 401 l2s;
#X msg 96 377 symbol %;
#X obj 191 406 list prepend add;
#X obj 197 546 list prepend symbol;
#X obj 195 566 list trim;
#X msg 31 281 x_grid_size = 3| routes = @list 1 2 3| obj my_object
= route routes @x 10 @y 100| for route in routes: obj add_#route =
+ route @x @i: connect my_object @i add_#route 0:;
#X connect 2 0 3 0;
#X connect 7 0 8 0;
#X connect 8 0 6 0;
#X connect 20 0 25 0;
#X connect 21 0 20 1;
#X connect 24 0 26 0;
#X connect 26 0 34 0;
#X connect 27 0 26 0;
#X connect 28 0 26 0;
#X connect 29 0 26 0;
#X connect 30 0 26 0;
#X connect 31 0 33 0;
#X connect 32 0 31 1;
#X connect 33 0 24 0;
#X connect 34 0 35 0;
#X connect 35 0 20 0;
#X connect 36 0 31 0;
