#N canvas 702 485 608 484 10;
#X obj 122 294 tgl 15 0 empty \$0-panner_on Panner_off/on 17 7 0 10
-262144 -1 -1 0 1;
#X floatatom 112 274 5 0 0 1 Panner_depth #0-panner_depth -;
#X floatatom 102 254 5 0 0 1 Panner_Rate #0-panner_rate -;
#X obj 83 313 panner~;
#X obj 83 201 remove_dc_offset~;
#X obj 233 209 vsl 15 128 0 1 0 1 empty \$0-volume Volume -9 -9 1 10
-166441 -1 -1 8890 1;
#X obj 251 325 hsl 128 15 0 100 0 0 empty \$0-pan Pan 73 8 1 10 -91543
-203890 -262074 6350 1;
#N canvas 175 73 1428 829 audio_effects~ 0;
#X obj -21 795 outlet~;
#X obj -21 13 inlet~;
#X obj 6 115 tgl 15 0 empty empty Gain_off/on 17 7 0 10 -262144 -1
-1 0 1;
#X floatatom -8 94 5 0 0 1 Gain_amount - -;
#X obj 195 604 tgl 15 0 empty empty Chorus_off/on 17 7 0 10 -262144
-1 -1 0 1;
#X floatatom 185 584 5 0 0 1 Chorus_mix - -;
#X floatatom 175 564 5 0 0 1 Chorus_depth - -;
#X floatatom 165 544 5 0 0 1 Chorus_rate - -;
#X obj 344 659 tgl 15 0 empty empty Tremolo_off/on 17 7 0 10 -262144
-1 -1 0 1;
#X floatatom 332 640 5 0 0 1 Tremolo_Shape_(0-3) - -;
#X floatatom 321 621 5 0 0 1 Tremolo_Depth - -;
#X floatatom 310 602 5 0 0 1 Tremolo_rate - -;
#X obj 147 150 tgl 15 0 empty empty Ring_Modulator_off/on 17 7 0 10
-262144 -1 -1 0 1;
#X floatatom 132 130 5 0 0 1 Ring_Modulator_depth - -;
#X floatatom 117 110 5 0 0 1 Ring_Modulator_rate - -;
#X obj 165 509 r \$0-chorus_rate;
#X obj 175 486 r \$0-chorus_depth;
#X obj 185 463 r \$0-chorus_mix;
#X obj 117 43 r \$0-ringmod_rate;
#X obj 132 65 r \$0-ringmod_depth;
#X obj 147 87 r \$0-ringmod_on;
#X obj 310 515 r \$0-tremolo_rate;
#X obj 321 536 r \$0-tremolo_depth;
#X obj 332 557 r \$0-tremolo_shape;
#X obj -21 701 multitremolo~;
#X obj -21 134 gain~;
#X obj -21 646 chorus~;
#X obj -21 239 ringmod~;
#X obj 339 88 f \$0;
#X obj 339 58 bng 15 250 50 0 empty empty empty 17 7 0 10 -262144 -1
-1;
#X obj 339 26 loadbang;
#X obj 344 578 r \$0-tremolo_on;
#X obj 49 539 tgl 15 0 empty empty Delay_off/on 17 7 0 10 -262144 -1
-1 0 1;
#X floatatom 28 520 5 0 0 1 Delay_Feedback - -;
#X floatatom 7 500 5 0 0 1 Delay_Time_(ms) - -;
#X obj 28 456 r \$0-delay_feedback;
#X obj 49 476 r \$0-delay_on;
#X obj -21 578 multidelay~;
#X obj -8 41 r \$0-pregain_amount;
#X obj 6 61 r \$0-pregain_on;
#X obj 644 739 tgl 15 0 empty empty Gain_off/on 17 7 0 10 -262144 -1
-1 0 1;
#X floatatom 630 718 5 0 0 1 Gain_amount - -;
#X obj -21 771 gain~;
#X obj 630 665 r \$0-gain_amount;
#X obj 644 685 r \$0-gain_on;
#X obj -21 741 vibrato~;
#X obj 523 701 tgl 15 0 empty empty Vibrato_off/on 17 7 0 10 -262144
-1 -1 0 1;
#X floatatom 500 681 5 0 0 1 Vibrato_Depth - -;
#X floatatom 489 662 5 0 0 1 Vibrato_rate - -;
#X obj 489 575 r \$0-vibrato_rate;
#X obj 500 596 r \$0-vibrato_depth;
#X obj 523 620 r \$0-vibrato_on;
#X msg 339 111 \; \$1-chorus_rate 0.3 \; \$1-chorus_depth 0.7 \; \$1-chorus_mix
50 \; \$1-tremolo_shape 1 \; \$1-tremolo_depth 1 \; \$1-tremolo_rate
8 \; \$1-ringmod_depth 1 \; \$1-ringmod_rate 60 \; \$1-delay_time 700
\; \$1-delay_feedback 0.4 \; \$1-vibrato_rate 1.5 \; \$1-vibrato_depth
0.3 \;;
#X connect 1 0 25 0;
#X connect 2 0 25 2;
#X connect 3 0 25 1;
#X connect 4 0 26 4;
#X connect 5 0 26 3;
#X connect 6 0 26 2;
#X connect 7 0 26 1;
#X connect 8 0 24 4;
#X connect 9 0 24 3;
#X connect 10 0 24 2;
#X connect 11 0 24 1;
#X connect 12 0 27 3;
#X connect 13 0 27 2;
#X connect 14 0 27 1;
#X connect 15 0 7 0;
#X connect 16 0 6 0;
#X connect 17 0 5 0;
#X connect 18 0 14 0;
#X connect 19 0 13 0;
#X connect 20 0 12 0;
#X connect 21 0 11 0;
#X connect 22 0 10 0;
#X connect 23 0 9 0;
#X connect 24 0 45 0;
#X connect 25 0 27 0;
#X connect 26 0 24 0;
#X connect 27 0 37 0;
#X connect 28 0 52 0;
#X connect 29 0 28 0;
#X connect 30 0 29 0;
#X connect 31 0 8 0;
#X connect 32 0 37 3;
#X connect 33 0 37 2;
#X connect 34 0 37 1;
#X connect 35 0 33 0;
#X connect 36 0 32 0;
#X connect 37 0 26 0;
#X connect 38 0 3 0;
#X connect 39 0 2 0;
#X connect 40 0 42 2;
#X connect 41 0 42 1;
#X connect 42 0 0 0;
#X connect 43 0 41 0;
#X connect 44 0 40 0;
#X connect 45 0 42 0;
#X connect 46 0 45 3;
#X connect 47 0 45 2;
#X connect 48 0 45 1;
#X connect 49 0 48 0;
#X connect 50 0 47 0;
#X connect 51 0 46 0;
#X restore 83 175 pd audio_effects~;
#X obj 83 340 volume~;
#X obj 91 364 dac~;
#X obj 83 227 normalize~;
#X obj 78 137 dynamo~;
#X obj 279 193 loadbang;
#X obj 279 215 bng 15 250 50 0 empty empty empty 17 7 0 10 -262144
-1 -1;
#X msg 279 260 \; pd dsp 1 \; \$1-pan 50 \; \$1-volume 0.7 \;;
#X obj 279 234 f \$0;
#X obj 21 38 r control;
#X obj 89 37 r new_note;
#X obj 161 37 r prepare_new_note;
#X obj 277 37 r add_channel;
#X obj 363 36 r reset;
#X connect 0 0 3 4;
#X connect 1 0 3 3;
#X connect 2 0 3 2;
#X connect 3 0 8 0;
#X connect 3 1 8 4;
#X connect 4 0 10 0;
#X connect 5 0 8 3;
#X connect 5 0 8 1;
#X connect 6 0 8 2;
#X connect 7 0 4 0;
#X connect 8 0 9 0;
#X connect 8 1 9 1;
#X connect 10 0 3 0;
#X connect 10 0 3 1;
#X connect 11 0 7 0;
#X connect 11 1 7 0;
#X connect 12 0 13 0;
#X connect 13 0 15 0;
#X connect 15 0 14 0;
#X connect 16 0 11 0;
#X connect 17 0 11 1;
#X connect 18 0 11 2;
#X connect 19 0 11 3;
#X connect 20 0 11 4;
