#N canvas 1129 598 608 484 10;
#X obj 261 307 tgl 15 0 empty panner_on Panner_off/on 17 7 0 10 -262144
-1 -1 1 1;
#X floatatom 251 287 5 0 0 1 Panner_depth panner_depth -, f 5;
#X floatatom 241 267 5 0 0 1 Panner_Rate panner_rate -, f 5;
#X obj 222 326 panner~;
#X obj 222 214 remove_dc_offset~;
#X obj 372 222 vsl 15 128 0 1 0 1 empty volume Volume -9 -9 1 10 -166441
-1 -1 8890 1;
#X obj 390 338 hsl 128 15 0 100 0 0 empty pan Pan 73 8 1 10 -91543
-203890 -262074 6350 1;
#N canvas 175 73 1428 829 audio_effects~ 0;
#X obj -21 795 outlet~;
#X obj -21 13 inlet~;
#X obj 6 115 tgl 15 0 empty empty Gain_off/on 17 7 0 10 -262144 -1
-1 0 1;
#X floatatom -8 94 5 0 0 1 Gain_amount - -, f 5;
#X obj 195 604 tgl 15 0 empty empty Chorus_off/on 17 7 0 10 -262144
-1 -1 0 1;
#X floatatom 185 584 5 0 0 1 Chorus_mix - -, f 5;
#X floatatom 175 564 5 0 0 1 Chorus_depth - -, f 5;
#X floatatom 165 544 5 0 0 1 Chorus_rate - -, f 5;
#X obj 344 659 tgl 15 0 empty empty Tremolo_off/on 17 7 0 10 -262144
-1 -1 0 1;
#X floatatom 332 640 5 0 0 1 Tremolo_Shape_(0-3) - -, f 5;
#X floatatom 321 621 5 0 0 1 Tremolo_Depth - -, f 5;
#X floatatom 310 602 5 0 0 1 Tremolo_rate - -, f 5;
#X obj 147 150 tgl 15 0 empty empty Ring_Modulator_off/on 17 7 0 10
-262144 -1 -1 0 1;
#X floatatom 132 130 5 0 0 1 Ring_Modulator_depth - -, f 5;
#X floatatom 117 110 5 0 0 1 Ring_Modulator_rate - -, f 5;
#X obj -21 701 multitremolo~;
#X obj -21 134 gain~;
#X obj -21 646 chorus~;
#X obj -21 239 ringmod~;
#X obj 339 58 bng 15 250 50 0 empty empty empty 17 7 0 10 -262144 -1
-1;
#X obj 339 26 loadbang;
#X obj 49 539 tgl 15 0 empty empty Delay_off/on 17 7 0 10 -262144 -1
-1 0 1;
#X floatatom 28 520 5 0 0 1 Delay_Feedback - -, f 5;
#X floatatom 7 500 5 0 0 1 Delay_Time_(ms) - -, f 5;
#X obj -21 578 multidelay~;
#X obj 644 739 tgl 15 0 empty empty Gain_off/on 17 7 0 10 -262144 -1
-1 0 1;
#X floatatom 630 718 5 0 0 1 Gain_amount - -, f 5;
#X obj -21 771 gain~;
#X obj -21 741 vibrato~;
#X obj 523 701 tgl 15 0 empty empty Vibrato_off/on 17 7 0 10 -262144
-1 -1 0 1;
#X floatatom 500 681 5 0 0 1 Vibrato_Depth - -, f 5;
#X floatatom 489 662 5 0 0 1 Vibrato_rate - -, f 5;
#X obj -8 41 r pregain_amount;
#X obj 6 61 r pregain_on;
#X obj 117 43 r ringmod_rate;
#X obj 132 65 r ringmod_depth;
#X obj 147 87 r ringmod_on;
#X obj 28 456 r delay_feedback;
#X obj 49 476 r delay_on;
#X obj 185 463 r chorus_mix;
#X obj 175 486 r chorus_depth;
#X obj 165 509 r chorus_rate;
#X obj 310 515 r tremolo_rate;
#X obj 321 536 r tremolo_depth;
#X obj 332 557 r tremolo_shape;
#X obj 344 578 r tremolo_on;
#X obj 489 575 r vibrato_rate;
#X obj 500 596 r vibrato_depth;
#X obj 523 620 r vibrato_on;
#X obj 630 665 r gain_amount;
#X obj 644 685 r gain_on;
#X msg 339 111 \; chorus_rate 0.3 \; chorus_depth 0.7 \; chorus_mix
50 \; tremolo_shape 1 \; tremolo_depth 1 \; tremolo_rate 8 \; ringmod_depth
1 \; ringmod_rate 60 \; delay_time 700 \; delay_feedback 0.4 \; vibrato_rate
1.5 \; vibrato_depth 0.3 \;;
#X obj 7 435 r delay_time;
#X connect 1 0 16 0;
#X connect 2 0 16 2;
#X connect 3 0 16 1;
#X connect 4 0 17 4;
#X connect 5 0 17 3;
#X connect 6 0 17 2;
#X connect 7 0 17 1;
#X connect 8 0 15 4;
#X connect 9 0 15 3;
#X connect 10 0 15 2;
#X connect 11 0 15 1;
#X connect 12 0 18 3;
#X connect 13 0 18 2;
#X connect 14 0 18 1;
#X connect 15 0 28 0;
#X connect 16 0 18 0;
#X connect 17 0 15 0;
#X connect 18 0 24 0;
#X connect 19 0 51 0;
#X connect 20 0 19 0;
#X connect 21 0 24 3;
#X connect 22 0 24 2;
#X connect 23 0 24 1;
#X connect 24 0 17 0;
#X connect 25 0 27 2;
#X connect 26 0 27 1;
#X connect 27 0 0 0;
#X connect 28 0 27 0;
#X connect 29 0 28 3;
#X connect 30 0 28 2;
#X connect 31 0 28 1;
#X connect 32 0 3 0;
#X connect 33 0 2 0;
#X connect 34 0 14 0;
#X connect 35 0 13 0;
#X connect 36 0 12 0;
#X connect 37 0 22 0;
#X connect 38 0 21 0;
#X connect 39 0 5 0;
#X connect 40 0 6 0;
#X connect 41 0 7 0;
#X connect 42 0 11 0;
#X connect 43 0 10 0;
#X connect 44 0 9 0;
#X connect 45 0 8 0;
#X connect 46 0 31 0;
#X connect 47 0 30 0;
#X connect 48 0 29 0;
#X connect 49 0 26 0;
#X connect 50 0 25 0;
#X connect 52 0 23 0;
#X restore 222 188 pd audio_effects~;
#X obj 222 353 volume~;
#X obj 230 377 dac~;
#X obj 222 240 normalize~;
#X obj 217 150 dynamo~;
#X obj 414 174 loadbang;
#X obj 414 196 bng 15 250 50 0 empty empty empty 17 7 0 10 -262144
-1 -1;
#X obj 207 52 r control;
#X obj 350 53 r reset;
#X obj 276 52 r add_note;
#X obj 350 77 bng 15 250 50 0 empty empty empty 17 7 0 10 -262144 -1
-1;
#X obj 276 77 bng 15 250 50 0 empty empty empty 17 7 0 10 -262144 -1
-1;
#X msg 27 91 1 note 61 0;
#X msg 3 74 1 note 61 5;
#X msg 91 70 \$1 note 60 5;
#X msg 115 87 \$1 note 60 0;
#X floatatom 87 27 5 0 0 0 - - -, f 5;
#X floatatom 117 53 5 0 0 0 - - -, f 5;
#X msg 414 224 \; pd dsp 1 \; pan 50 \; volume 0.7 \; panner_on 1 \;
panner_rate 1.3 \; panner_depth 0.5 \;;
#X connect 0 0 3 4;
#X connect 1 0 3 3;
#X connect 2 0 3 2;
#X connect 3 0 8 0;
#X connect 3 1 8 4;
#X connect 4 0 10 0;
#X connect 5 0 8 3;
#X connect 5 0 8 1;
#X connect 6 0 8 2;
#X connect 7 0 4 0;
#X connect 8 0 9 0;
#X connect 8 1 9 1;
#X connect 10 0 3 0;
#X connect 10 0 3 1;
#X connect 11 0 7 0;
#X connect 11 1 7 0;
#X connect 12 0 13 0;
#X connect 13 0 25 0;
#X connect 14 0 11 0;
#X connect 15 0 17 0;
#X connect 16 0 18 0;
#X connect 17 0 11 2;
#X connect 18 0 11 1;
#X connect 19 0 11 0;
#X connect 20 0 11 0;
#X connect 21 0 11 0;
#X connect 22 0 11 0;
#X connect 23 0 21 0;
#X connect 24 0 22 0;
