#N canvas 0 22 450 300 10;
#X obj 74 200 tgl 15 0 empty \$0-panner_on Panner_off/on 17 7 0 10
-262144 -1 -1 0 1;
#X floatatom 64 180 5 0 0 1 Panner_depth #0-panner_depth -;
#X floatatom 54 160 5 0 0 1 Panner_Rate #0-panner_rate -;
#X obj 35 219 panner~;
#X obj 35 107 remove_dc_offset~;
#X obj 185 115 vsl 15 128 0 1 0 1 empty \$0-volume Volume -9 -9 1 10
-166441 -1 -1 8890 1;
#X obj 203 231 hsl 128 15 0 100 0 0 empty \$0-pan Pan 73 8 1 10 -91543
-203890 -262074 0 1;
#N canvas 175 73 1428 829 audio_effects~ 0;
#X obj -21 795 outlet~;
#X obj -21 13 inlet~;
#X obj 6 115 tgl 15 0 empty empty Gain_off/on 17 7 0 10 -262144 -1
-1 0 1;
#X floatatom -8 94 5 0 0 1 Gain_amount - -;
#X obj 195 604 tgl 15 0 empty empty Chorus_off/on 17 7 0 10 -262144
-1 -1 0 1;
#X floatatom 185 584 5 0 0 1 Chorus_mix - -;
#X floatatom 175 564 5 0 0 1 Chorus_depth - -;
#X floatatom 165 544 5 0 0 1 Chorus_rate - -;
#X obj 344 659 tgl 15 0 empty empty Tremolo_off/on 17 7 0 10 -262144
-1 -1 0 1;
#X floatatom 332 640 5 0 0 1 Tremolo_Shape_(0-3) - -;
#X floatatom 321 621 5 0 0 1 Tremolo_Depth - -;
#X floatatom 310 602 5 0 0 1 Tremolo_rate - -;
#X obj 147 150 tgl 15 0 empty empty Ring_Modulator_off/on 17 7 0 10
-262144 -1 -1 0 1;
#X floatatom 132 130 5 0 0 1 Ring_Modulator_depth - -;
#X floatatom 117 110 5 0 0 1 Ring_Modulator_rate - -;
#X obj 165 509 r \$0-chorus_rate;
#X obj 175 486 r \$0-chorus_depth;
#X obj 185 463 r \$0-chorus_mix;
#X obj 195 440 r \$0-chorus_on;
#X obj 117 43 r \$0-ringmod_rate;
#X obj 132 65 r \$0-ringmod_depth;
#X obj 147 87 r \$0-ringmod_on;
#X obj 310 515 r \$0-tremolo_rate;
#X obj 321 536 r \$0-tremolo_depth;
#X obj 332 557 r \$0-tremolo_shape;
#X obj 238 387 pack 1 20;
#X obj 242 320 tgl 15 0 empty empty EQ_hp_on 17 7 0 10 -262144 -1 -1
0 1;
#X floatatom 249 339 5 0 0 1 EQ_hp_freq - -;
#X obj 338 387 pack 1 80 0.3;
#X obj 262 367 t b f;
#X obj 348 367 t b f;
#X obj 386 367 t b f;
#X obj 341 301 tgl 15 0 empty empty EQ_bp1_on 17 7 0 10 -262144 -1
-1 0 1;
#X floatatom 350 321 5 0 0 1 EQ_bp1_freq - -;
#X floatatom 359 343 5 0 0 1 EQ_bp1_q - -;
#X obj 454 387 pack 1 80 0.3;
#X obj 464 367 t b f;
#X obj 502 367 t b f;
#X obj 457 301 tgl 15 0 empty empty EQ_bp2_on 17 7 0 10 -262144 -1
-1 0 1;
#X floatatom 466 321 5 0 0 1 EQ_bp2_freq - -;
#X floatatom 475 343 5 0 0 1 EQ_bp2_q - -;
#X obj 571 387 pack 1 80 0.3;
#X obj 581 367 t b f;
#X obj 619 367 t b f;
#X obj 574 301 tgl 15 0 empty empty EQ_bp3_on 17 7 0 10 -262144 -1
-1 0 1;
#X floatatom 583 321 5 0 0 1 EQ_bp3_freq - -;
#X floatatom 592 343 5 0 0 1 EQ_bp3_q - -;
#X obj 684 387 pack 1 80 0.3;
#X obj 694 367 t b f;
#X obj 732 367 t b f;
#X obj 687 301 tgl 15 0 empty empty EQ_bp4_on 17 7 0 10 -262144 -1
-1 0 1;
#X floatatom 696 321 5 0 0 1 EQ_bp4_freq - -;
#X floatatom 705 343 5 0 0 1 EQ_bp4_q - -;
#X obj 798 387 pack 1 80 0.3;
#X obj 808 367 t b f;
#X obj 846 367 t b f;
#X obj 801 301 tgl 15 0 empty empty EQ_bp5_on 17 7 0 10 -262144 -1
-1 0 1;
#X floatatom 810 321 5 0 0 1 EQ_bp5_freq - -;
#X floatatom 819 343 5 0 0 1 EQ_bp5_q - -;
#X obj 913 387 pack 1 80 0.3;
#X obj 923 367 t b f;
#X obj 961 367 t b f;
#X obj 916 301 tgl 15 0 empty empty EQ_bp6_on 17 7 0 10 -262144 -1
-1 0 1;
#X floatatom 925 321 5 0 0 1 EQ_bp6_freq - -;
#X floatatom 934 343 5 0 0 1 EQ_bp6_q - -;
#X obj 1028 387 pack 1 80 0.3;
#X obj 1038 367 t b f;
#X obj 1076 367 t b f;
#X obj 1031 301 tgl 15 0 empty empty EQ_bp7_on 17 7 0 10 -262144 -1
-1 0 1;
#X floatatom 1040 321 5 0 0 1 EQ_bp7_freq - -;
#X floatatom 1049 343 5 0 0 1 EQ_bp7_q - -;
#X obj 1148 367 t b f;
#X obj 1186 367 t b f;
#X obj 1141 301 tgl 15 0 empty empty EQ_bp8_on 17 7 0 10 -262144 -1
-1 0 1;
#X floatatom 1150 321 5 0 0 1 EQ_bp8_freq - -;
#X floatatom 1159 343 5 0 0 1 EQ_bp8_q - -;
#X obj 1253 387 pack 1 20;
#X obj 1257 320 tgl 15 0 empty empty EQ_hp_on 17 7 0 10 -262144 -1
-1 0 1;
#X floatatom 1264 339 5 0 0 1 EQ_hp_freq - -;
#X obj 1277 367 t b f;
#X obj 156 369 tgl 15 0 empty empty EQ_off/on 17 7 0 10 -262144 -1
-1 0 1;
#X obj 156 349 r \$0-eq_on;
#X obj 11 289 r \$0-eq_bp_1;
#X obj 27 309 r \$0-eq_bp_2;
#X obj 43 329 r \$0-eq_bp_3;
#X obj 59 349 r \$0-eq_bp_4;
#X obj 75 369 r \$0-eq_bp_5;
#X obj 91 269 r \$0-eq_bp_6;
#X obj 107 289 r \$0-eq_bp_7;
#X obj 123 309 r \$0-eq_bp_8;
#X obj 139 329 r \$0-eq_lp;
#X obj -5 269 r \$0-eq_hp;
#X text 532 190 EQ Receive format: (off/on) (frequency) (Q);
#X text 536 208 Examples:;
#X text 539 228 \$0-eq_hp: 1 40 -- turns highpass on \, sets cutoff
to 40 Hz;
#X text 539 263 \$0-eq_lp: 1 22000 -- turns lowpass on \, sets cutoff
to 22000;
#X text 898 263 Hz;
#X obj -21 701 multitremolo~;
#X obj -21 134 gain~;
#X obj -21 646 chorus~;
#X obj -21 239 ringmod~;
#X obj 339 88 f \$0;
#X obj 339 58 bng 15 250 50 0 empty empty empty 17 7 0 10 -262144 -1
-1;
#X obj 339 26 loadbang;
#X text 539 245 \$0-eq_bp_3: 1 530 0.5 -- turns bandpass 3 on \, sets
center;
#X obj 344 578 r \$0-tremolo_on;
#X obj 49 539 tgl 15 0 empty empty Delay_off/on 17 7 0 10 -262144 -1
-1 0 1;
#X floatatom 28 520 5 0 0 1 Delay_Feedback - -;
#X floatatom 7 500 5 0 0 1 Delay_Time_(ms) - -;
#X obj 7 435 r \$0-delay_time;
#X obj 28 456 r \$0-delay_feedback;
#X obj 49 476 r \$0-delay_on;
#X obj -21 578 multidelay~;
#X obj 1138 387 pack 1 80 0.3;
#X obj -21 404 eq~ --------------------------;
#X obj -8 41 r \$0-pregain_amount;
#X obj 6 61 r \$0-pregain_on;
#X obj 644 739 tgl 15 0 empty empty Gain_off/on 17 7 0 10 -262144 -1
-1 0 1;
#X floatatom 630 718 5 0 0 1 Gain_amount - -;
#X obj -21 771 gain~;
#X obj 630 665 r \$0-gain_amount;
#X obj 644 685 r \$0-gain_on;
#X text 887 245 frequency to 530 Hz \, sets Q to 0.5;
#X obj -21 741 vibrato~;
#X obj 523 701 tgl 15 0 empty empty Vibrato_off/on 17 7 0 10 -262144
-1 -1 0 1;
#X floatatom 500 681 5 0 0 1 Vibrato_Depth - -;
#X floatatom 489 662 5 0 0 1 Vibrato_rate - -;
#X obj 489 575 r \$0-vibrato_rate;
#X obj 500 596 r \$0-vibrato_depth;
#X obj 523 620 r \$0-vibrato_on;
#X msg 339 111 \; \$1-chorus_rate 0.3 \; \$1-chorus_depth 0.7 \; \$1-chorus_mix
50 \; \$1-tremolo_shape 1 \; \$1-tremolo_depth 1 \; \$1-tremolo_rate
8 \; \$1-ringmod_depth 1 \; \$1-ringmod_rate 60 \; \$1-delay_time 700
\; \$1-delay_feedback 0.4 \; \$1-vibrato_rate 1.5 \; \$1-vibrato_depth
0.3 \;;
#X connect 1 0 98 0;
#X connect 2 0 98 2;
#X connect 3 0 98 1;
#X connect 4 0 99 4;
#X connect 5 0 99 3;
#X connect 6 0 99 2;
#X connect 7 0 99 1;
#X connect 8 0 97 4;
#X connect 9 0 97 3;
#X connect 10 0 97 2;
#X connect 11 0 97 1;
#X connect 12 0 100 3;
#X connect 13 0 100 2;
#X connect 14 0 100 1;
#X connect 15 0 7 0;
#X connect 16 0 6 0;
#X connect 17 0 5 0;
#X connect 18 0 4 0;
#X connect 19 0 14 0;
#X connect 20 0 13 0;
#X connect 21 0 12 0;
#X connect 22 0 11 0;
#X connect 23 0 10 0;
#X connect 24 0 9 0;
#X connect 25 0 114 1;
#X connect 26 0 25 0;
#X connect 27 0 29 0;
#X connect 28 0 114 2;
#X connect 29 0 25 0;
#X connect 29 1 25 1;
#X connect 30 0 28 0;
#X connect 30 1 28 1;
#X connect 31 0 28 0;
#X connect 31 1 28 2;
#X connect 32 0 28 0;
#X connect 33 0 30 0;
#X connect 34 0 31 0;
#X connect 35 0 114 3;
#X connect 36 0 35 0;
#X connect 36 1 35 1;
#X connect 37 0 35 0;
#X connect 37 1 35 2;
#X connect 38 0 35 0;
#X connect 39 0 36 0;
#X connect 40 0 37 0;
#X connect 41 0 114 4;
#X connect 42 0 41 0;
#X connect 42 1 41 1;
#X connect 43 0 41 0;
#X connect 43 1 41 2;
#X connect 44 0 41 0;
#X connect 45 0 42 0;
#X connect 46 0 43 0;
#X connect 47 0 114 5;
#X connect 48 0 47 0;
#X connect 48 1 47 1;
#X connect 49 0 47 0;
#X connect 49 1 47 2;
#X connect 50 0 47 0;
#X connect 51 0 48 0;
#X connect 52 0 49 0;
#X connect 53 0 114 6;
#X connect 54 0 53 0;
#X connect 54 1 53 1;
#X connect 55 0 53 0;
#X connect 55 1 53 2;
#X connect 56 0 53 0;
#X connect 57 0 54 0;
#X connect 58 0 55 0;
#X connect 59 0 114 7;
#X connect 60 0 59 0;
#X connect 60 1 59 1;
#X connect 61 0 59 0;
#X connect 61 1 59 2;
#X connect 62 0 59 0;
#X connect 63 0 60 0;
#X connect 64 0 61 0;
#X connect 65 0 114 8;
#X connect 66 0 65 0;
#X connect 66 1 65 1;
#X connect 67 0 65 0;
#X connect 67 1 65 2;
#X connect 68 0 65 0;
#X connect 69 0 66 0;
#X connect 70 0 67 0;
#X connect 71 0 113 0;
#X connect 71 1 113 1;
#X connect 72 0 113 0;
#X connect 72 1 113 2;
#X connect 73 0 113 0;
#X connect 74 0 71 0;
#X connect 75 0 72 0;
#X connect 76 0 114 10;
#X connect 77 0 76 0;
#X connect 78 0 79 0;
#X connect 79 0 76 0;
#X connect 79 1 76 1;
#X connect 80 0 114 11;
#X connect 81 0 80 0;
#X connect 82 0 114 2;
#X connect 83 0 114 3;
#X connect 84 0 114 4;
#X connect 85 0 114 5;
#X connect 86 0 114 6;
#X connect 87 0 114 7;
#X connect 88 0 114 8;
#X connect 89 0 114 9;
#X connect 90 0 114 10;
#X connect 91 0 114 1;
#X connect 97 0 123 0;
#X connect 98 0 100 0;
#X connect 99 0 97 0;
#X connect 100 0 114 0;
#X connect 101 0 130 0;
#X connect 102 0 101 0;
#X connect 103 0 102 0;
#X connect 105 0 8 0;
#X connect 106 0 112 3;
#X connect 107 0 112 2;
#X connect 108 0 112 1;
#X connect 109 0 108 0;
#X connect 110 0 107 0;
#X connect 111 0 106 0;
#X connect 112 0 99 0;
#X connect 113 0 114 9;
#X connect 114 0 112 0;
#X connect 115 0 3 0;
#X connect 116 0 2 0;
#X connect 117 0 119 2;
#X connect 118 0 119 1;
#X connect 119 0 0 0;
#X connect 120 0 118 0;
#X connect 121 0 117 0;
#X connect 123 0 119 0;
#X connect 124 0 123 3;
#X connect 125 0 123 2;
#X connect 126 0 123 1;
#X connect 127 0 126 0;
#X connect 128 0 125 0;
#X connect 129 0 124 0;
#X restore 35 81 pd audio_effects~;
#X obj 35 246 volume~;
#X obj 43 270 dac~;
#X obj 35 133 normalize~;
#X obj 35 42 inlet~;
#X connect 0 0 3 4;
#X connect 1 0 3 3;
#X connect 2 0 3 2;
#X connect 3 0 8 0;
#X connect 3 1 8 4;
#X connect 4 0 10 0;
#X connect 5 0 8 3;
#X connect 5 0 8 1;
#X connect 6 0 8 2;
#X connect 7 0 4 0;
#X connect 8 0 9 0;
#X connect 8 1 9 1;
#X connect 10 0 3 0;
#X connect 10 0 3 1;
#X connect 11 0 7 0;
