#N canvas 139 95 702 421 10;
#X text 26 16 matrix~ NROWS NCOLS (Columns are tables);
#X obj 42 265 tabread;
#X msg 36 187 set r-\$1;
#X floatatom 36 163 5 0 0 0 - - -;
#X obj 36 215 tabwrite;
#X text 309 16 Read (row \, col) - Write (row \, col);
#X text 89 47 Inlets(hot): readrow readcol writerow writecol;
#X text 382 47 toggle(0-thru \, 1-set);
#X text 200 67 Outlets: value currentrow currentcol;
#X obj 26 107 inlet READ_ROW;
#X obj 122 107 inlet READ_COL;
#X obj 218 107 inlet WRITE_ROW;
#X obj 320 107 inlet WRITE_COL;
#X obj 422 107 inlet TOGGLE_THRU_SET;
#X obj 200 309 table \$1 \$2;
#X text 270 304 \$1 - r#;
#X text 270 315 \$2 - row_length;
#X msg 154 195;
#N canvas 897 430 450 300 matrix_\$1 1;
#X restore 252 200 pd matrix_\$1;
#X obj 406 204 s pd-matrix_\$1;
#X msg 399 157 obj \$1 \$1;
#X connect 2 0 4 0;
#X connect 3 0 2 0;
