#N canvas 368 450 716 601 10;
#X obj -177 -47 inlet;
#X obj -7 -48 inlet;
#X text -198 -64 Bang to output;
#X text -88 -66 Messages to save \, overwrites old;
#X obj -177 -7 s \$0-bang;
#X obj -177 -25 bng 15 250 50 0 empty empty empty 17 7 0 10 -262144
-1 -1;
#X obj 139 163 once;
#X obj 227 16 loadbang;
#X obj 139 183 f \$0;
#X obj 139 226 s pd-sub;
#X obj 89 225 counter;
#X obj 20 308 list prepend;
#X obj 111 452 list trim;
#X msg 89 286 msg \$1 100;
#X msg 139 204 clear \, obj 0 0 r \$1-bang \, obj 0 150 s \$1-message
;
#X obj 111 472 s pd-sub;
#X obj 89 246 - 1;
#X msg 1 242 set \$1;
#X msg 1 279 1;
#X obj -98 295 minigun;
#X obj -54 237 t b b;
#X msg 1 155 1;
#X obj -140 112 list append b;
#X msg -140 92 t;
#X obj -113 151 counter;
#X obj -140 132 t a b;
#X obj -140 194 ggate;
#X obj -113 172 < 10;
#X obj -84 232 b;
#X obj -140 215 list prepend obj 0 50;
#X obj -54 56 t b b b;
#X msg -97 365 1;
#X obj -97 344 t b f;
#X obj -85 386 -;
#X msg -116 387 1;
#X obj -116 409 + 2;
#X obj -116 429 pack 12 9 0;
#X obj -101 320 t f f f;
#X msg -116 450 connect \$1 \$2 \$3 0 \, connect \$3 0 1 0;
#X msg -20 427 connect 0 0 \$1 0;
#X obj -20 405 + 2;
#X obj -85 408 - 0;
#X obj -53 408 + 1;
#X obj 88 137 t b a b b;
#X obj 89 266 * 120;
#X obj -177 14 r \$0-message;
#N canvas 396 41 1389 232 sub 0;
#X obj 0 0 r 1504-bang;
#X obj 0 150 s 1504-message;
#X msg 0 100;
#X obj 0 50 t b;
#X connect 0 0 3 0;
#X connect 2 0 1 0;
#X connect 3 0 2 0;
#X restore 16 102 pd sub;
#X obj -176 35 outlet;
#X obj -66 262 s \$0-count;
#X obj -49 349 r \$0-count;
#X text 181 -62 Messages must terminate with " \, END";
#X obj -191 69 print messages\$0;
#X msg 51 -38 obj 0 0 r control\$1 \, obj 0 25 list trim \, obj 0 50
Module \, obj 0 100 outlet \, connect 0 0 1 0 \, connect 1 0 2 0 \,
connect 2 0 3 0 \, loadbang \, END;
#X obj 17 39 route END;
#X msg 104 15 bang \, END;
#X obj 205 50 t b b;
#X obj 155 135 bng 15 250 50 0 empty empty empty 17 7 0 10 -262144
-1 -1;
#X connect 0 0 5 0;
#X connect 1 0 53 0;
#X connect 5 0 4 0;
#X connect 6 0 8 0;
#X connect 6 0 10 3;
#X connect 7 0 55 0;
#X connect 8 0 14 0;
#X connect 10 0 17 0;
#X connect 10 0 16 0;
#X connect 11 0 12 0;
#X connect 12 0 15 0;
#X connect 13 0 11 1;
#X connect 14 0 9 0;
#X connect 16 0 44 0;
#X connect 17 0 18 0;
#X connect 17 0 21 0;
#X connect 17 0 48 0;
#X connect 18 0 19 1;
#X connect 18 0 40 0;
#X connect 19 2 37 0;
#X connect 20 0 19 0;
#X connect 20 1 18 0;
#X connect 21 0 27 1;
#X connect 22 0 25 0;
#X connect 23 0 22 0;
#X connect 24 0 27 0;
#X connect 25 0 26 0;
#X connect 25 1 24 0;
#X connect 26 0 29 0;
#X connect 26 1 22 0;
#X connect 27 0 26 1;
#X connect 28 0 24 3;
#X connect 29 0 28 0;
#X connect 29 0 12 0;
#X connect 30 0 20 0;
#X connect 30 1 23 0;
#X connect 30 2 21 0;
#X connect 31 0 33 0;
#X connect 32 0 31 0;
#X connect 32 1 33 1;
#X connect 33 0 41 0;
#X connect 34 0 35 0;
#X connect 35 0 36 0;
#X connect 36 0 38 0;
#X connect 37 0 34 0;
#X connect 37 1 32 0;
#X connect 37 2 42 0;
#X connect 38 0 15 0;
#X connect 39 0 15 0;
#X connect 40 0 39 0;
#X connect 41 0 36 1;
#X connect 42 0 36 2;
#X connect 43 1 11 0;
#X connect 43 2 10 0;
#X connect 43 3 6 0;
#X connect 44 0 13 0;
#X connect 45 0 47 0;
#X connect 45 0 51 0;
#X connect 49 0 31 0;
#X connect 49 0 34 0;
#X connect 52 0 53 0;
#X connect 53 0 30 0;
#X connect 53 0 56 0;
#X connect 53 1 43 0;
#X connect 54 0 53 0;
#X connect 55 0 54 0;
#X connect 55 1 6 1;
#X connect 56 0 6 1;
