#N canvas 569 229 802 460 10;
#X obj 8 8 inlet~;
#X obj 93 427 outlet~;
#X obj 93 395 gswitch~;
#X obj 135 332 vcf~;
#X floatatom 145 173 5 0 0 0 - - -;
#X obj 91 9 inlet;
#X text 128 9 Freq;
#X obj 180 8 inlet;
#X text 217 8 Q;
#X obj 170 365 tgl 15 0 empty empty empty 17 7 0 10 -262144 -1 -1 0
1;
#X obj 706 10 inlet;
#X text 744 10 Off/On;
#X obj 145 230 line~;
#X msg 146 205 \$1 5;
#X connect 0 0 3 0;
#X connect 0 0 2 0;
#X connect 2 0 1 0;
#X connect 3 0 2 1;
#X connect 4 0 13 0;
#X connect 5 0 4 0;
#X connect 7 0 3 2;
#X connect 9 0 2 2;
#X connect 10 0 9 0;
#X connect 12 0 3 1;
#X connect 13 0 12 0;
