#N canvas 194 101 651 571 10;
#X obj -326 194 pack 50 100 0.6 250;
#X floatatom -326 83 5 0 0 1 Attack - -;
#X obj -289 166 t b f;
#X obj -252 166 t b f;
#X obj -215 166 t b f;
#X floatatom -289 103 5 0 0 1 Decay - -;
#X floatatom -252 124 5 0 0 1 Sustain - -;
#X floatatom -215 145 5 0 0 1 Release - -;
#X obj -169 204 bng 15 250 50 0 empty empty Note_Flush 17 7 0 10 -262144
-1 -1;
#X obj 61 -25 loadbang;
#X obj -326 28 r \$0-attack;
#X obj -289 52 r \$0-decay;
#X obj -252 76 r \$0-sustain;
#X obj -215 101 r \$0-release;
#X obj -169 180 r \$0-flush;
#X obj -348 6 r \$0-note;
#X obj 52 4 f \$0;
#X floatatom -444 168 5 0 0 0 - - -;
#X obj -444 142 r \$0-wave;
#X obj 43 -25 bng 15 250 50 0 empty empty empty 17 7 0 10 -262144 -1
-1;
#N canvas 0 47 1422 142 wavetables 0;
#X obj 540 -139 inlet;
#X obj 573 -40 outlet;
#X obj 540 -116 route 0 1 2 3 4 5 6 7 8 9 10 11 12 13 14 15 16;
#X msg -27 -76 sine-table;
#X msg 30 -77 triangle-table;
#X msg 110 -77 sawtooth-table;
#X msg 188 -77 square-table;
#X msg 258 -78 trianglesine1-table;
#X msg 370 -77 trianglesine2-table;
#X msg 478 -77 fifth-table;
#X msg 541 -77 dirtysaw-table;
#X msg 622 -77 easyontheharmonics-table;
#X msg 764 -77 chill-table;
#X msg 828 -78 spaghetti1-table;
#X msg 920 -78 spaghetti2-table;
#X msg 1014 -78 dissonant-table;
#X msg 1098 -78 metallic-table;
#X msg 1177 -78 noise1-table;
#X msg 1244 -78 noise2-table;
#X msg 1309 -78 claw-table;
#X connect 0 0 2 0;
#X connect 2 0 3 0;
#X connect 2 1 4 0;
#X connect 2 2 5 0;
#X connect 2 3 6 0;
#X connect 2 4 7 0;
#X connect 2 5 8 0;
#X connect 2 6 9 0;
#X connect 2 7 10 0;
#X connect 2 8 11 0;
#X connect 2 9 12 0;
#X connect 2 10 13 0;
#X connect 2 11 14 0;
#X connect 2 12 15 0;
#X connect 2 13 16 0;
#X connect 2 14 17 0;
#X connect 2 15 18 0;
#X connect 2 16 19 0;
#X connect 3 0 1 0;
#X connect 4 0 1 0;
#X connect 5 0 1 0;
#X connect 6 0 1 0;
#X connect 7 0 1 0;
#X connect 8 0 1 0;
#X connect 9 0 1 0;
#X connect 10 0 1 0;
#X connect 11 0 1 0;
#X connect 12 0 1 0;
#X connect 13 0 1 0;
#X connect 14 0 1 0;
#X connect 15 0 1 0;
#X connect 16 0 1 0;
#X connect 17 0 1 0;
#X connect 18 0 1 0;
#X connect 19 0 1 0;
#X restore -444 202 pd wavetables;
#X obj -41 66 vsl 30 150 0 127 0 0 empty empty empty 0 -9 0 10 -59444
-262144 -1 7509 1;
#X floatatom -6 203 5 0 0 0 - - -;
#X obj -41 39 r \$0-pitchbend;
#X obj -6 178 r \$0-pitchbend_range;
#X msg -41 274 64;
#X obj -348 219 synth~;
#X obj -427 -3 inlet;
#X msg -401 89 60 5;
#X msg -388 108 60 0;
#N canvas 106 143 1376 432 routers 0;
#X obj -305 85 s \$0-note;
#X obj -241 84 s \$0-wave;
#X obj -173 85 s \$0-attack;
#X obj 41 148 s \$0-release;
#X obj 128 85 s \$0-flush;
#X obj 194 85 s \$0-pitchbend;
#X obj 284 85 s \$0-pitchbend_range;
#X obj -305 210 s \$0-pregain_on;
#X obj -209 210 s \$0-pregain_amount;
#X obj -88 211 s \$0-ringmod_on;
#X obj 8 212 s \$0-ringmod_rate;
#X obj 116 212 s \$0-ringmod_depth;
#X obj 234 212 s \$0-filter_on;
#X obj 325 212 s \$0-filter_freq;
#X obj 427 214 s \$0-filter_q;
#X obj 513 215 s \$0-delay_on;
#X obj 599 216 s \$0-delay_time;
#X obj 697 216 s \$0-delay_feedback;
#X obj -308 259 s \$0-chorus_on;
#X obj -218 261 s \$0-chorus_rate;
#X obj -115 261 s \$0-chorus_depth;
#X obj -6 262 s \$0-chorus_mix;
#X obj 91 261 s \$0-tremolo_on;
#X obj 190 261 s \$0-tremolo_rate;
#X obj 298 260 s \$0-tremolo_depth;
#X obj 413 260 s \$0-tremolo_shape;
#X obj 529 260 s \$0-vibrato_on;
#X obj 627 261 s \$0-vibrato_rate;
#X obj 735 262 s \$0-vibrato_depth;
#X obj 852 261 s \$0-gain_on;
#X obj 935 262 s \$0-gain_amount;
#X obj 534 47 route pregain_on pregain_amount ringmod_on ringmod_rate
ringmod_depth filter_on filter_freq filter_q delay_on delay_time delay_feedback
chorus_on chorus_rate chorus_depth chorus_mix tremolo_on tremolo_rate
tremolo_depth tremolo_shape vibrato_on vibrato_rate vibrato_depth gain_on
gain_amount;
#X text 8 38 SYNTH:;
#X text -228 170 FX:;
#X obj 418 85 s \$0-print;
#X obj 291 1 route fx;
#X obj 290 -19 inlet;
#X obj -40 147 s \$0-sustain;
#X obj -180 147 s \$0-attack;
#X obj -107 147 s \$0-decay;
#X obj -250 28 clip;
#X obj 41 124 clip 1 1e+06;
#X obj -107 123 clip 1 1e+06;
#X obj -180 123 clip 1 1e+06;
#X obj 195 131 s \$0-volume_bend;
#X obj 62 37 route note wave attack decay sustain release flush pitchbend
pitchbend_range print volume_bend volume;
#X obj 319 123 s \$0-volume;
#X connect 31 0 7 0;
#X connect 31 1 8 0;
#X connect 31 2 9 0;
#X connect 31 3 10 0;
#X connect 31 4 11 0;
#X connect 31 5 12 0;
#X connect 31 6 13 0;
#X connect 31 7 14 0;
#X connect 31 8 15 0;
#X connect 31 9 16 0;
#X connect 31 10 17 0;
#X connect 31 11 18 0;
#X connect 31 12 19 0;
#X connect 31 13 20 0;
#X connect 31 14 21 0;
#X connect 31 15 22 0;
#X connect 31 16 23 0;
#X connect 31 17 24 0;
#X connect 31 18 25 0;
#X connect 31 19 26 0;
#X connect 31 20 27 0;
#X connect 31 21 28 0;
#X connect 31 22 29 0;
#X connect 31 23 30 0;
#X connect 35 0 31 0;
#X connect 35 1 45 0;
#X connect 36 0 35 0;
#X connect 41 0 3 0;
#X connect 42 0 39 0;
#X connect 43 0 38 0;
#X connect 45 0 0 0;
#X connect 45 1 1 0;
#X connect 45 2 2 0;
#X connect 45 2 43 0;
#X connect 45 3 42 0;
#X connect 45 4 37 0;
#X connect 45 5 41 0;
#X connect 45 6 4 0;
#X connect 45 7 5 0;
#X connect 45 8 6 0;
#X connect 45 9 34 0;
#X connect 45 10 44 0;
#X connect 45 11 46 0;
#X restore -427 28 pd routers;
#X floatatom -204 480 5 0 0 1 Number_of_voices_in_use - -;
#X floatatom -226 243 5 0 0 0 - - -;
#X obj -57 252 sel 0;
#X text -423 71 Test Tones:;
#X obj 124 180 r \$0-print;
#X obj 124 204 tgl 15 0 empty empty empty 17 7 0 10 -262144 -1 -1 1
1;
#X obj -346 455 *~;
#X obj -155 406 switch~;
#X obj -226 359 pipe 5;
#X msg -219 414 \$1 10;
#X obj -219 434 vline~;
#X obj -346 482 outlet~ L;
#X obj -281 481 outlet~ R;
#N canvas 291 417 450 300 if==0 0;
#X obj 30 11 inlet;
#X obj 31 119 outlet;
#X obj 30 36 t f f;
#X obj 57 59 == 0;
#X obj 37 85 ggate;
#X obj 78 119 outlet;
#X connect 0 0 2 0;
#X connect 2 0 4 0;
#X connect 2 1 3 0;
#X connect 3 0 4 1;
#X connect 4 0 1 0;
#X connect 4 1 5 0;
#X restore -226 263 pd if==0;
#X obj -226 283 t f f;
#X obj -140 360 pipe 10;
#X obj -181 283 t f f;
#X obj -339 303 r \$0-volume_bend;
#X msg 53 30 \; pd dsp 1 \; \$1-volume_bend \; \$1-pitchbend 64 \;
\$1-pitchbend_range 19 \; \$1-attack 10 \; \$1-decay 300 \; \$1-sustain
0.7 \; \$1-release 300 \; \$1-wave 9 \; \$1-print 1 \;;
#X obj -349 363 gain~;
#X obj -416 283 loadfloat 1;
#X connect 0 0 26 2;
#X connect 1 0 0 0;
#X connect 2 0 0 0;
#X connect 2 1 0 1;
#X connect 3 0 0 0;
#X connect 3 1 0 2;
#X connect 4 0 0 0;
#X connect 4 1 0 3;
#X connect 5 0 2 0;
#X connect 6 0 3 0;
#X connect 7 0 4 0;
#X connect 8 0 26 3;
#X connect 9 0 16 0;
#X connect 10 0 1 0;
#X connect 11 0 5 0;
#X connect 12 0 6 0;
#X connect 13 0 7 0;
#X connect 14 0 8 0;
#X connect 15 0 26 0;
#X connect 16 0 49 0;
#X connect 17 0 20 0;
#X connect 18 0 17 0;
#X connect 19 0 16 0;
#X connect 20 0 26 1;
#X connect 21 0 26 4;
#X connect 22 0 26 5;
#X connect 23 0 21 0;
#X connect 24 0 22 0;
#X connect 25 0 21 0;
#X connect 26 0 50 0;
#X connect 26 1 31 0;
#X connect 26 2 32 0;
#X connect 27 0 30 0;
#X connect 28 0 26 0;
#X connect 29 0 26 0;
#X connect 32 0 33 0;
#X connect 32 0 44 0;
#X connect 33 0 25 0;
#X connect 35 0 36 0;
#X connect 36 0 26 6;
#X connect 37 0 42 0;
#X connect 37 0 43 0;
#X connect 39 0 40 0;
#X connect 40 0 41 0;
#X connect 41 0 37 1;
#X connect 44 0 45 0;
#X connect 44 1 47 0;
#X connect 45 0 39 0;
#X connect 45 1 38 0;
#X connect 46 0 38 0;
#X connect 47 0 46 0;
#X connect 47 1 40 0;
#X connect 48 0 50 1;
#X connect 50 0 37 0;
#X connect 51 0 50 2;
