#N canvas 209 23 721 645 10;
#X obj 137 5 inlet;
#X obj 167 56 list length;
#X obj 194 104 >= 1;
#X obj 161 129 spigot;
#X obj 161 152 list split 1;
#X obj 137 34 t a a b;
#X obj 137 220 list;
#X obj 90 196 sel 0;
#X obj 90 221 t b b;
#X obj 167 76 t f f;
#X obj 109 510 outlet;
#X obj 109 360 lbuilder;
#X obj 283 360 s &VAR_KEY;
#X obj 330 126 s2l;
#X obj 328 154 list split 1;
#X msg 345 105 symbol;
#X obj 328 177 list trim;
#X obj 437 431 symbol;
#X obj 400 225 bng 15 250 50 0 empty empty empty 17 7 0 10 -262144
-1 -1;
#X obj 362 225 l2s;
#X obj 283 338 list trim;
#X obj 328 245 symbol;
#X obj 417 94 loadbang;
#X obj 282 380 r &VAR;
#X obj 328 202 route [;
#X obj 333 287 s2l;
#X msg 348 266 symbol ];
#X obj 322 309 list split 1;
#X obj 355 336 route 0;
#X obj 343 429 list;
#X obj 145 186 t b b b a b;
#X obj 346 453 l2s;
#X msg 375 428 symbol;
#X obj 394 373 l2s;
#X msg 420 353 symbol ];
#N canvas 97 23 507 802 filter 0;
#X obj 206 10 inlet;
#X obj 205 80 list length;
#X obj 208 104 >= 1;
#X obj 181 129 spigot;
#X obj 181 152 list split 1;
#X obj 343 200 list;
#X obj 103 97 sel 0;
#X obj 103 122 t b b;
#X obj 107 64 t f f;
#X obj 117 286 lbuilder;
#X obj 171 53 t a a a b;
#X obj 206 32 t a b;
#X obj 243 205 route 0;
#X obj 180 324 ggate;
#X msg 209 297 0;
#X msg 233 297 1;
#X obj 260 258 iterator;
#X obj 309 566 f;
#X obj 183 176 t b b b a a b;
#X obj 309 587 - 1;
#X obj 294 609 ==;
#X obj 282 543 t f b;
#X floatatom 215 324 5 0 0 0 - - -;
#X obj 265 392 list length;
#X obj 268 416 >= 1;
#X obj 241 441 spigot;
#X obj 241 464 list split 1;
#X obj 349 492 list;
#X obj 163 409 sel 0;
#X obj 163 434 t b b;
#X obj 167 376 t f f;
#X obj 116 674 lbuilder;
#X obj 231 365 t a a a b;
#X obj 228 345 t a b;
#X obj 243 488 t b b b a a b;
#X obj 322 517 iterator;
#X obj 198 646 makefilename %s];
#X obj 220 615 ggate;
#X obj 132 722 outlet;
#X connect 0 0 11 0;
#X connect 1 0 8 0;
#X connect 2 0 3 1;
#X connect 3 0 4 0;
#X connect 4 0 18 0;
#X connect 4 1 5 1;
#X connect 5 0 10 0;
#X connect 6 0 7 0;
#X connect 7 0 9 2;
#X connect 7 1 9 1;
#X connect 8 0 6 0;
#X connect 8 1 2 0;
#X connect 9 0 13 0;
#X connect 10 1 3 0;
#X connect 10 2 1 0;
#X connect 11 0 10 0;
#X connect 11 1 14 0;
#X connect 11 1 16 1;
#X connect 11 1 35 1;
#X connect 12 0 15 0;
#X connect 12 1 9 0;
#X connect 13 0 38 0;
#X connect 13 1 33 0;
#X connect 14 0 13 1;
#X connect 14 0 22 0;
#X connect 15 0 13 1;
#X connect 15 0 22 0;
#X connect 16 0 17 1;
#X connect 17 0 19 0;
#X connect 18 0 5 0;
#X connect 18 4 12 0;
#X connect 18 5 16 5;
#X connect 19 0 20 1;
#X connect 20 0 37 1;
#X connect 21 0 20 0;
#X connect 21 1 17 0;
#X connect 23 0 30 0;
#X connect 24 0 25 1;
#X connect 25 0 26 0;
#X connect 26 0 34 0;
#X connect 26 1 27 1;
#X connect 27 0 32 0;
#X connect 28 0 29 0;
#X connect 29 0 31 2;
#X connect 29 1 31 1;
#X connect 30 0 28 0;
#X connect 30 1 24 0;
#X connect 31 0 38 0;
#X connect 32 1 25 0;
#X connect 32 2 23 0;
#X connect 33 0 32 0;
#X connect 34 0 27 0;
#X connect 34 4 37 0;
#X connect 34 5 35 5;
#X connect 35 0 21 0;
#X connect 36 0 31 0;
#X connect 37 0 31 0;
#X connect 37 1 36 0;
#X restore 478 302 pd filter;
#X obj 330 77 t a a b;
#X msg 434 243 list;
#X obj 285 428 l2s;
#X msg 300 406 symbol #;
#X obj 313 478 s2l;
#X obj 312 500 l2s;
#X connect 0 0 5 0;
#X connect 1 0 9 0;
#X connect 2 0 3 1;
#X connect 3 0 4 0;
#X connect 4 0 30 0;
#X connect 4 1 6 1;
#X connect 5 0 3 0;
#X connect 5 1 1 0;
#X connect 6 0 5 0;
#X connect 7 0 8 0;
#X connect 8 0 11 2;
#X connect 8 1 11 1;
#X connect 9 0 7 0;
#X connect 9 1 2 0;
#X connect 11 0 10 0;
#X connect 13 0 14 0;
#X connect 14 0 16 0;
#X connect 14 1 19 0;
#X connect 15 0 13 1;
#X connect 15 0 19 1;
#X connect 16 0 24 0;
#X connect 17 0 11 0;
#X connect 18 0 17 0;
#X connect 19 0 21 1;
#X connect 20 0 12 0;
#X connect 21 0 25 0;
#X connect 22 0 15 0;
#X connect 22 0 26 0;
#X connect 22 0 32 0;
#X connect 22 0 39 0;
#X connect 23 0 38 0;
#X connect 24 0 21 0;
#X connect 24 1 18 0;
#X connect 25 0 27 0;
#X connect 26 0 25 1;
#X connect 27 0 20 0;
#X connect 27 1 28 0;
#X connect 28 1 35 0;
#X connect 29 0 31 0;
#X connect 30 0 6 0;
#X connect 30 3 36 0;
#X connect 31 0 40 0;
#X connect 32 0 31 1;
#X connect 33 0 29 1;
#X connect 34 0 33 1;
#X connect 35 0 33 0;
#X connect 36 0 13 0;
#X connect 36 1 17 1;
#X connect 36 2 37 0;
#X connect 37 0 29 1;
#X connect 38 0 29 0;
#X connect 39 0 38 1;
#X connect 39 0 40 1;
#X connect 40 0 41 0;
#X connect 41 0 11 0;
