#N canvas 250 183 844 748 10;
#X obj 46 -23 inlet;
#X obj 65 121 s2l;
#X obj 80 81 loadbang;
#X obj 65 61 l2s;
#X msg 80 100 symbol [;
#X obj 65 214 ggate;
#X obj 92 170 list length;
#X obj 92 190 > 1;
#X obj 46 380 bng 15 250 50 0 empty empty empty 17 7 0 10 -262144 -1
-1;
#X obj 101 488 l2s;
#X msg 116 463 symbol;
#X obj 85 381 bng 15 250 50 0 empty empty empty 17 7 0 10 -262144 -1
-1;
#X obj 101 238 list split 1;
#X obj 65 146 t a a;
#X obj 46 33 t b a b;
#N canvas 359 490 450 300 lbuilder 0;
#X obj 57 114 list prepend add2;
#X obj 57 134 list trim;
#X msg 118 134 set;
#X obj 203 66 inlet RESET;
#X obj 166 138 bng 15 250 50 0 empty empty empty 17 7 0 10 -262144
-1 -1;
#X obj 127 66 inlet BANG;
#X obj 55 196 outlet;
#X obj 57 62 inlet add;
#X msg 57 165;
#X connect 0 0 1 0;
#X connect 1 0 8 0;
#X connect 2 0 8 0;
#X connect 3 0 2 0;
#X connect 4 0 8 0;
#X connect 5 0 4 0;
#X connect 7 0 0 0;
#X connect 8 0 6 0;
#X restore 101 419 pd lbuilder;
#X obj 391 491 s2l;
#X obj 406 451 loadbang;
#X msg 406 470 symbol ];
#X obj 381 468 l2s;
#X obj 453 624 s &VAR_KEY;
#X obj 453 585 list trim;
#X obj 173 442 loadbang;
#X obj 391 516 list split 1;
#X obj 414 278 list length;
#X obj 408 369 list split 1;
#X obj 441 322 >= 1;
#X obj 414 300 t f f;
#X obj 408 345 spigot;
#X obj 233 391 sel 0;
#X obj 429 392 t b b b a;
#X obj 443 421 bng 15 250 50 0 empty empty empty 17 7 0 10 -262144
-1 -1;
#X obj 463 421 bng 15 250 50 0 empty empty empty 17 7 0 10 -262144
-1 -1;
#X obj 500 418 list;
#X obj 238 455 bng 15 250 50 0 empty empty empty 17 7 0 10 -262144
-1 -1;
#X obj 203 539 l2s;
#X msg 218 520 symbol;
#X obj 264 456 bng 15 250 50 0 empty empty empty 17 7 0 10 -262144
-1 -1;
#N canvas 359 490 450 300 lbuilder 0;
#X obj 57 114 list prepend add2;
#X obj 57 134 list trim;
#X msg 118 134 set;
#X obj 203 66 inlet RESET;
#X obj 166 138 bng 15 250 50 0 empty empty empty 17 7 0 10 -262144
-1 -1;
#X obj 127 66 inlet BANG;
#X obj 55 196 outlet;
#X obj 57 62 inlet add;
#X msg 57 165;
#X connect 0 0 1 0;
#X connect 1 0 8 0;
#X connect 2 0 8 0;
#X connect 3 0 2 0;
#X connect 4 0 8 0;
#X connect 5 0 4 0;
#X connect 7 0 0 0;
#X connect 8 0 6 0;
#X restore 203 480 pd lbuilder;
#X obj 262 500 loadbang;
#X obj 233 414 t b b;
#X obj 117 381 bng 15 250 50 0 empty empty empty 17 7 0 10 -262144
-1 -1;
#X obj 387 255 t a a b;
#X obj 175 610 list;
#X obj 203 633 l2s;
#X msg 218 608 symbol;
#X obj 329 621 route 0;
#X obj 368 599 list;
#X obj 417 551 t b b a;
#N canvas 831 470 450 300 lreverse 0;
#X obj 203 137 list split 1;
#X obj 203 108 list;
#X obj 184 63 t b a b;
#X obj 187 31 inlet;
#X obj 204 226 outlet;
#N canvas 359 490 450 300 lbuilder 0;
#X obj 57 114 list prepend add2;
#X obj 57 134 list trim;
#X msg 118 134 set;
#X obj 203 66 inlet RESET;
#X obj 166 138 bng 15 250 50 0 empty empty empty 17 7 0 10 -262144
-1 -1;
#X obj 127 66 inlet BANG;
#X obj 55 196 outlet;
#X obj 57 62 inlet add;
#X msg 57 165 obj sub = pd Subpatch-;
#X connect 0 0 1 0;
#X connect 1 0 8 0;
#X connect 2 0 8 0;
#X connect 3 0 2 0;
#X connect 4 0 8 0;
#X connect 5 0 4 0;
#X connect 7 0 0 0;
#X connect 8 0 6 0;
#X restore 171 184 pd lbuilder;
#X connect 0 0 5 0;
#X connect 0 1 1 0;
#X connect 1 0 0 0;
#X connect 2 0 5 1;
#X connect 2 1 1 0;
#X connect 2 2 5 2;
#X connect 3 0 2 0;
#X connect 5 0 4 0;
#X restore 101 441 pd lreverse;
#X obj 117 559 bng 15 250 50 0 empty empty empty 17 7 0 10 -262144
-1 -1;
#X msg 160 529 list;
#X obj 63 686 outlet;
#X obj 63 619 s2l;
#X obj 63 645 list trim;
#X obj 208 288 r &VAR;
#N canvas 104 32 672 631 process_firstchar[ 1;
#X obj 138 13 inlet;
#X obj 177 66 list length;
#X obj 204 114 >= 1;
#X obj 171 139 spigot;
#X obj 171 162 list split 1;
#X obj 147 44 t a a b;
#X obj 147 230 list;
#X obj 100 206 sel 0;
#X obj 100 231 t b b;
#X obj 177 86 t f f;
#X obj 119 520 outlet;
#X obj 119 370 lbuilder;
#X obj 293 370 s &VAR_KEY;
#X obj 340 136 s2l;
#X obj 338 164 list split 1;
#X msg 355 115 symbol;
#X obj 338 187 list trim;
#X obj 437 421 symbol;
#X obj 410 235 bng 15 250 50 0 empty empty empty 17 7 0 10 -262144
-1 -1;
#X obj 372 235 l2s;
#X obj 293 348 list trim;
#X obj 338 255 symbol;
#X obj 427 104 loadbang;
#X obj 292 390 r &VAR;
#X obj 338 212 route [;
#X obj 343 297 s2l;
#X msg 358 276 symbol ];
#X obj 332 319 list split 1;
#X obj 365 346 route 0;
#X obj 353 439 list;
#X obj 155 196 t b b b a b;
#X obj 356 463 l2s;
#X msg 385 438 symbol;
#X obj 404 383 l2s;
#X msg 476 363 symbol ];
#N canvas 97 23 507 802 filter 0;
#X obj 206 10 inlet;
#X obj 205 80 list length;
#X obj 208 104 >= 1;
#X obj 181 129 spigot;
#X obj 181 152 list split 1;
#X obj 343 200 list;
#X obj 103 97 sel 0;
#X obj 103 122 t b b;
#X obj 107 64 t f f;
#X obj 117 286 lbuilder;
#X obj 171 53 t a a a b;
#X obj 243 205 route 0;
#X obj 180 324 ggate;
#X msg 209 297 0;
#X msg 233 297 1;
#X obj 260 258 iterator;
#X obj 309 566 f;
#X obj 183 176 t b b b a a b;
#X obj 309 587 - 1;
#X obj 294 609 ==;
#X obj 282 543 t f b;
#X floatatom 215 324 5 0 0 0 - - -;
#X obj 265 392 list length;
#X obj 268 416 >= 1;
#X obj 241 441 spigot;
#X obj 241 464 list split 1;
#X obj 349 492 list;
#X obj 163 409 sel 0;
#X obj 163 434 t b b;
#X obj 167 376 t f f;
#X obj 116 674 lbuilder;
#X obj 231 365 t a a a b;
#X obj 228 345 t a b;
#X obj 243 488 t b b b a a b;
#X obj 322 517 iterator;
#X obj 198 646 makefilename %s];
#X obj 220 615 ggate;
#X obj 132 722 outlet;
#X obj 206 33 t a b;
#X connect 0 0 38 0;
#X connect 1 0 8 0;
#X connect 2 0 3 1;
#X connect 3 0 4 0;
#X connect 4 0 17 0;
#X connect 4 1 5 1;
#X connect 5 0 10 0;
#X connect 6 0 7 0;
#X connect 7 0 9 2;
#X connect 7 1 9 1;
#X connect 8 0 6 0;
#X connect 8 1 2 0;
#X connect 9 0 12 0;
#X connect 10 1 3 0;
#X connect 10 2 1 0;
#X connect 11 0 14 0;
#X connect 11 1 9 0;
#X connect 12 0 37 0;
#X connect 12 1 32 0;
#X connect 13 0 12 1;
#X connect 13 0 21 0;
#X connect 14 0 12 1;
#X connect 14 0 21 0;
#X connect 15 0 16 1;
#X connect 16 0 18 0;
#X connect 17 0 5 0;
#X connect 17 4 11 0;
#X connect 17 5 15 5;
#X connect 18 0 19 1;
#X connect 19 0 36 1;
#X connect 20 0 19 0;
#X connect 20 1 16 0;
#X connect 22 0 29 0;
#X connect 23 0 24 1;
#X connect 24 0 25 0;
#X connect 25 0 33 0;
#X connect 25 1 26 1;
#X connect 26 0 31 0;
#X connect 27 0 28 0;
#X connect 28 0 30 2;
#X connect 28 1 30 1;
#X connect 29 0 27 0;
#X connect 29 1 23 0;
#X connect 30 0 37 0;
#X connect 31 1 24 0;
#X connect 31 2 22 0;
#X connect 32 0 31 0;
#X connect 33 0 26 0;
#X connect 33 4 36 0;
#X connect 33 5 34 5;
#X connect 34 0 20 0;
#X connect 35 0 30 0;
#X connect 36 0 30 0;
#X connect 36 1 35 0;
#X connect 38 0 10 0;
#X connect 38 1 13 0;
#X connect 38 1 15 1;
#X connect 38 1 34 1;
#X restore 488 312 pd filter;
#X obj 340 87 t a a b;
#X msg 444 253 list;
#X obj 295 455 l2s;
#X msg 310 416 symbol #;
#X obj 323 488 s2l;
#X obj 322 510 l2s;
#X obj 267 199 list;
#X obj 466 393 l2s;
#X obj 288 110 l2s;
#X connect 0 0 5 0;
#X connect 1 0 9 0;
#X connect 2 0 3 1;
#X connect 3 0 4 0;
#X connect 4 0 30 0;
#X connect 4 1 6 1;
#X connect 5 0 3 0;
#X connect 5 1 1 0;
#X connect 6 0 5 0;
#X connect 7 0 8 0;
#X connect 8 0 11 2;
#X connect 8 1 11 1;
#X connect 9 0 7 0;
#X connect 9 1 2 0;
#X connect 11 0 10 0;
#X connect 13 0 14 0;
#X connect 14 0 16 0;
#X connect 14 1 19 0;
#X connect 15 0 13 1;
#X connect 15 0 19 1;
#X connect 16 0 24 0;
#X connect 17 0 11 0;
#X connect 18 0 17 0;
#X connect 19 0 21 1;
#X connect 20 0 12 0;
#X connect 21 0 25 0;
#X connect 22 0 15 0;
#X connect 22 0 26 0;
#X connect 22 0 32 0;
#X connect 22 0 39 0;
#X connect 22 0 34 0;
#X connect 23 0 38 0;
#X connect 24 0 21 0;
#X connect 24 1 18 0;
#X connect 25 0 27 0;
#X connect 26 0 25 1;
#X connect 27 0 20 0;
#X connect 27 1 28 0;
#X connect 28 1 35 0;
#X connect 29 0 31 0;
#X connect 30 0 6 0;
#X connect 30 3 42 0;
#X connect 31 0 40 0;
#X connect 32 0 31 1;
#X connect 33 0 29 1;
#X connect 34 0 33 1;
#X connect 35 0 33 0;
#X connect 36 0 13 0;
#X connect 36 1 43 0;
#X connect 36 2 37 0;
#X connect 37 0 29 1;
#X connect 38 0 29 0;
#X connect 39 0 38 1;
#X connect 39 0 40 1;
#X connect 40 0 41 0;
#X connect 41 0 11 0;
#X connect 42 0 44 0;
#X connect 43 0 17 1;
#X connect 44 0 36 0;
#X restore 46 7 pd process_firstchar[;
#X obj 209 358 l2s;
#X msg 224 336 symbol #;
#X obj 213 656 s2l;
#X obj 212 678 l2s;
#X obj 279 301 loadbang;
#X msg 348 570 list;
#X obj 300 400 r &CLEAR;
#X connect 0 0 56 0;
#X connect 1 0 13 0;
#X connect 2 0 4 0;
#X connect 3 0 1 0;
#X connect 4 0 1 1;
#X connect 5 0 53 0;
#X connect 5 1 12 0;
#X connect 6 0 7 0;
#X connect 7 0 5 1;
#X connect 8 0 41 0;
#X connect 9 0 43 0;
#X connect 10 0 9 1;
#X connect 11 0 15 2;
#X connect 11 0 37 0;
#X connect 11 0 51 0;
#X connect 12 0 15 0;
#X connect 12 1 42 0;
#X connect 13 0 5 0;
#X connect 13 1 6 0;
#X connect 14 0 8 0;
#X connect 14 1 3 0;
#X connect 14 2 11 0;
#X connect 15 0 49 0;
#X connect 16 0 23 0;
#X connect 17 0 18 0;
#X connect 18 0 16 1;
#X connect 19 0 16 0;
#X connect 21 0 20 0;
#X connect 22 0 10 0;
#X connect 23 0 48 0;
#X connect 23 1 47 1;
#X connect 24 0 27 0;
#X connect 25 0 30 0;
#X connect 25 1 33 1;
#X connect 26 0 28 1;
#X connect 27 0 29 0;
#X connect 27 1 26 0;
#X connect 28 0 25 0;
#X connect 29 0 40 0;
#X connect 30 0 33 0;
#X connect 30 1 31 0;
#X connect 30 2 32 0;
#X connect 30 3 19 0;
#X connect 33 0 42 0;
#X connect 34 0 38 1;
#X connect 35 0 43 1;
#X connect 36 0 35 1;
#X connect 37 0 38 2;
#X connect 38 0 35 0;
#X connect 39 0 36 0;
#X connect 39 0 45 0;
#X connect 40 0 37 0;
#X connect 40 1 34 0;
#X connect 41 0 15 1;
#X connect 42 0 28 0;
#X connect 42 1 24 0;
#X connect 43 0 44 0;
#X connect 44 0 59 0;
#X connect 45 0 44 1;
#X connect 46 1 38 0;
#X connect 47 0 46 0;
#X connect 48 0 62 0;
#X connect 48 1 47 0;
#X connect 48 2 21 0;
#X connect 49 0 9 0;
#X connect 50 0 43 0;
#X connect 51 0 43 1;
#X connect 53 0 54 0;
#X connect 54 0 52 0;
#X connect 55 0 57 0;
#X connect 56 0 14 0;
#X connect 57 0 38 0;
#X connect 58 0 57 1;
#X connect 58 0 59 1;
#X connect 59 0 60 0;
#X connect 60 0 53 0;
#X connect 61 0 58 0;
#X connect 62 0 47 1;
#X connect 63 0 37 0;
#X connect 63 0 15 2;
