#N canvas 319 539 450 300 10;
#X obj 154 220 outlet;
#X msg 156 166 dfadf;
#X obj 159 87 list prepend set;
#X obj 159 115 list trim;
#X symbolatom 69 3 50 0 0 0 Interpreter - -;
#X obj 131 65 t b a;
#X connect 1 0 0 0;
#X connect 2 0 3 0;
#X connect 3 0 1 0;
#X connect 4 0 5 0;
#X connect 5 0 1 0;
#X connect 5 1 2 0;
#X coords 0 -1 100 1 370 20 2 1 1;
