#N canvas 0 22 601 425 10;
#X obj -8 21 inlet;
#X obj 22 379 outlet;
#X obj 1 84 s2l;
#X msg 18 57 symbol ];
#X obj -2 140 list split 1;
#X obj 295 177 lprint OTHER_CODE;
#X obj 133 66 loadbang;
#X obj 39 262 list;
#X obj 337 207 lprint VAR;
#X obj -7 205 r DOLLARZERO-OP-OBJ-BINDINGS;
#X obj -7 182 s DOLLARZERO-OBJECTS;
#X obj 21 295 lbuilder;
#X obj 21 348 l2s;
#X msg 35 321 symbol;
#X obj 93 368 lprint IM_FINISHED;
#X obj -12 228 t b b a;
#X connect 0 0 2 0;
#X connect 2 0 4 0;
#X connect 3 0 2 1;
#X connect 4 0 8 0;
#X connect 4 0 10 0;
#X connect 4 1 5 0;
#X connect 4 1 7 1;
#X connect 6 0 3 0;
#X connect 6 0 13 0;
#X connect 7 0 11 0;
#X connect 9 0 15 0;
#X connect 11 0 12 0;
#X connect 12 0 1 0;
#X connect 12 0 14 0;
#X connect 13 0 12 1;
#X connect 15 0 11 1;
#X connect 15 1 7 0;
#X connect 15 2 11 0;
