#N canvas 530 23 718 540 10;
#X obj 151 10 inlet;
#X obj 256 64 s2l;
#X obj 362 116 list length;
#X obj 362 142 print length[];
#X obj 80 193 lprint test[];
#X msg 77 -17 symbol add_[route1]something[route2][route3];
#X msg 241 16 symbol add_;
#X msg 271 43 symbol [;
#X obj 295 184 spigot;
#X obj 255 90 t a a a a a;
#X obj 451 315 print OUTPUT;
#X obj 328 157 == 1;
#X obj 206 185 spigot;
#X obj 239 158 > 1;
#X obj 296 405 s2l;
#X msg 323 385 symbol ];
#X obj 294 429 lprint step;
#X obj 129 256 list split 1;
#X obj -51 348 ladd2;
#X obj 459 -33 CLASS_listfor;
#X obj 151 35 t a a a;
#X obj 127 73 t b b a;
#X obj -118 115 print START__________________________________________________
;
#X msg -105 327 set;
#X obj -35 289 lprint final;
#X obj 245 287 lprint parse_more;
#N canvas 150 42 408 316 for_embedded_variables 1;
#X obj 188 168 inlet SET;
#X obj 96 165 inlet RUN;
#N canvas 235 93 992 728 backend 0;
#X msg 114 76 obj 164 17 inlet \, obj 195 70 list length \, obj 198
94 >= 1 \, obj 171 119 spigot \, obj 171 142 list split 1 \, obj 164
46 t a a b \, obj 333 190 list \, obj 93 87 sel 0 \, obj 93 112 t b
b \, obj 97 54 t f f \, obj 173 166 t b b b a \, obj 172 275 outlet
\,;
#X obj 308 221 list;
#X msg 286 172 obj 212 191;
#X obj 226 -51 bng 15 250 50 0 empty empty empty 17 7 0 10 -262144
-1 -1;
#X obj 313 263 list trim;
#X obj 267 -72 inlet SET;
#X obj 308 138 t b a;
#X msg 80 -51 makefilename %sPoop;
#X msg 420 302 clear;
#X obj 242 -30 t b b a b b;
#X obj 38 72 t b b;
#X msg 30 258 connect 0 0 2 0 \, connect 2 0 1 0;
#X obj 33 388 r \$0-out;
#X obj 19 -52 s \$0-in;
#X obj 19 -83 inlet RUN;
#X obj 28 431 outlet;
#X obj 242 369 s pd-\$0-FOR;
#N canvas 299 80 197 253 \$0-shell 0;
#X obj 76 -17 r \$0-in;
#X obj 77 59 s \$0-out;
#N canvas 158 535 450 300 \$0-FOR 0;
#X obj 164 17 inlet;
#X obj 195 70 list length;
#X obj 198 94 >= 1;
#X obj 171 119 spigot;
#X obj 171 142 list split 1;
#X obj 164 46 t a a b;
#X obj 333 190 list;
#X obj 93 87 sel 0;
#X obj 93 112 t b b;
#X obj 97 54 t f f;
#X obj 173 166 t b b b a;
#X obj 172 275 outlet;
#X obj 212 191 pdjent_extract[];
#X obj 170 248 lbuilder;
#X connect 0 0 5 0;
#X connect 1 0 9 0;
#X connect 2 0 3 1;
#X connect 3 0 4 0;
#X connect 4 0 10 0;
#X connect 4 1 6 1;
#X connect 5 0 3 0;
#X connect 5 1 1 0;
#X connect 6 0 5 0;
#X connect 7 0 8 0;
#X connect 8 0 13 2;
#X connect 8 1 13 1;
#X connect 9 0 7 0;
#X connect 9 1 2 0;
#X connect 10 0 6 0;
#X connect 10 3 12 0;
#X connect 12 0 13 0;
#X connect 13 0 11 0;
#X restore 78 21 pd \$0-FOR;
#X connect 0 0 2 0;
#X connect 2 0 1 0;
#X restore 56 352 pd \$0-shell;
#X obj 30 283 s pd-\$0-shell;
#X msg 450 -22 obj 170 248 lbuilder \, connect 0 0 5 0 \, connect 1
0 9 0 \, connect 2 0 3 1 \, connect 3 0 4 0 \, connect 4 0 10 0 \,
connect 4 1 6 1 \, connect 5 0 3 0 \, connect 5 1 1 0 \, connect 6
0 5 0 \, connect 7 0 8 0 \, connect 8 0 13 2 \, connect 8 1 13 1 \,
connect 9 0 7 0 \, connect 9 1 2 0 \, connect 10 0 6 0 \, connect 10
3 12 0 \, connect 12 0 13 0 \, connect 13 0 11 0 \, loadbang \,;
#X connect 0 0 16 0;
#X connect 1 0 4 0;
#X connect 2 0 1 0;
#X connect 3 0 9 0;
#X connect 4 0 16 0;
#X connect 5 0 9 0;
#X connect 6 0 2 0;
#X connect 6 1 1 1;
#X connect 7 0 9 0;
#X connect 8 0 16 0;
#X connect 9 0 10 0;
#X connect 9 1 19 0;
#X connect 9 2 6 0;
#X connect 9 3 0 0;
#X connect 9 4 8 0;
#X connect 10 1 11 0;
#X connect 11 0 18 0;
#X connect 12 0 15 0;
#X connect 14 0 13 0;
#X connect 19 0 16 0;
#X restore 125 198 pd backend;
#X text 14 -47 THIS IS A TEMPLATE - COPY AND PASTE IN A SUBPATCH TO
USE IN YOUR OWN PROJECT. DO NOT USE OR SAVE OVER THIS COPY.;
#X text 28 15 For loop that iterates over each element in a list and
passes them through the object defined in the SET inlet: Example:;
#X msg 49 70 makefilename PREFIX_%s;
#X text 49 89 will cause each element in the list to be routed through
the makefilename object \, which will prepend "PREFIX_" to each element
in the list.;
#X obj 127 231 outlet LOOP_OUTPUT;
#X connect 0 0 2 1;
#X connect 1 0 2 0;
#X connect 2 0 7 0;
#X restore 66 383 pd for_embedded_variables;
#X msg 134 335 pdjent_extract[];
#X obj 64 428 lbuilder;
#X obj 457 -5 CLASS_listfor2;
#X obj 124 428 print FOROUT;
#X obj 332 15 loadbang;
#X obj -81 453 outlet;
#X obj 105 308 t a b b b;
#X msg -57 395 add_;
#X obj 17 473 pdjent_extract[];
#X connect 0 0 20 0;
#X connect 1 0 9 0;
#X connect 2 0 3 0;
#X connect 2 0 11 0;
#X connect 2 0 13 0;
#X connect 5 0 20 0;
#X connect 6 0 1 0;
#X connect 7 0 1 1;
#X connect 8 0 10 0;
#X connect 9 2 12 0;
#X connect 9 3 8 0;
#X connect 9 4 2 0;
#X connect 11 0 8 1;
#X connect 12 0 17 0;
#X connect 13 0 12 1;
#X connect 14 0 16 0;
#X connect 15 0 14 1;
#X connect 17 0 18 0;
#X connect 17 0 24 0;
#X connect 17 1 25 0;
#X connect 17 1 33 0;
#X connect 18 0 34 0;
#X connect 20 1 1 0;
#X connect 20 2 21 0;
#X connect 21 1 22 0;
#X connect 21 2 23 0;
#X connect 23 0 34 0;
#X connect 26 0 30 0;
#X connect 27 0 26 1;
#X connect 31 0 7 0;
#X connect 33 0 26 0;
#X connect 33 2 27 0;
