#N canvas 781 23 823 379 10;
#X text 27 -314 Forbidden Characters:;
#X text 23 -283 Forbidden variable names:;
#X text 47 -267 obj for connect loadbang send x_grid;
#N canvas 785 23 699 609 PARSE_obj 0;
#X obj -21 -40 inlet;
#X obj 32 56 list split 1;
#X text 4 55 obj;
#X text 109 56 args;
#X text 60 2 route #routes @x 10 @y 100;
#X text -70 24 =;
#N canvas 298 250 603 315 lobject 0;
#X obj 225 189 list;
#X obj 266 170 list;
#X obj 225 212 list trim;
#X msg 132 125;
#X obj 97 17 inlet OBJ;
#X obj 239 21 inlet ARGS;
#X obj 349 18 inlet XY;
#X msg 349 41 obj \$1 \$2;
#X obj 349 62 list prepend set;
#X obj 349 84 list trim;
#X obj 239 42 list prepend set;
#X obj 239 64 list trim;
#X obj 97 37 list prepend set;
#X obj 97 59 list trim;
#X obj 21 57 t b b b;
#X obj 225 238 outlet;
#X obj 21 15 inlet MAKE;
#X msg 266 129;
#X obj 454 20 inlet RESET;
#X msg 368 116 set;
#X msg 375 147 list;
#X obj 454 94 bng 15 250 50 0 empty empty empty 17 7 0 10 -262144 -1
-1;
#X obj 474 60 loadbang;
#X msg 122 170;
#X connect 0 0 2 0;
#X connect 1 0 0 1;
#X connect 2 0 15 0;
#X connect 3 0 1 0;
#X connect 4 0 12 0;
#X connect 5 0 10 0;
#X connect 6 0 7 0;
#X connect 7 0 8 0;
#X connect 8 0 9 0;
#X connect 9 0 23 0;
#X connect 10 0 11 0;
#X connect 11 0 17 0;
#X connect 12 0 13 0;
#X connect 13 0 3 0;
#X connect 14 0 23 0;
#X connect 14 1 3 0;
#X connect 14 2 17 0;
#X connect 16 0 14 0;
#X connect 17 0 1 1;
#X connect 18 0 21 0;
#X connect 19 0 17 0;
#X connect 19 0 3 0;
#X connect 19 0 23 0;
#X connect 20 0 0 1;
#X connect 20 0 1 1;
#X connect 21 0 20 0;
#X connect 21 0 19 0;
#X connect 22 0 21 0;
#X connect 23 0 0 0;
#X restore 6 491 pd lobject;
#X text -185 24 adder;
#X obj -21 3 list split 2;
#X obj -152 25 list split 1;
#X obj -125 90 f;
#X obj -110 67 r &OBJ_COUNT;
#X obj -152 50 t a b;
#X obj -152 115 list;
#X obj -152 136 list trim;
#X obj -152 159 s &NEW_OBJ;
#X obj -75 153 bng 15 250 50 0 empty empty empty 17 7 0 10 -262144
-1 -1;
#X floatatom -99 91 5 0 0 0 - - -;
#X obj 13 27 t b a b;
#X obj 6 512 outlet;
#X text -75 -59 Ex: adder = route add[route] #routes @x 10 @y 100 \,
;
#X obj 285 93 list length;
#X obj 291 153 >= 1;
#X obj 264 178 spigot;
#X obj 264 201 list split 1;
#X obj 254 69 t a a b;
#X obj 349 242 list;
#X obj 223 148 sel 0;
#X obj 223 173 t b b;
#X obj 265 120 t f f;
#X obj 266 225 t b b b a;
#X obj 113 386 lbuilder;
#X msg 300 312 2;
#X msg 325 309 3;
#X msg 263 313 1;
#X msg 226 406 set \$1;
#X msg 272 407 set \$1;
#X msg 162 453 0;
#X msg 230 449 1.3;
#X obj 39 410 t a b b;
#X obj 286 248 list trim;
#X obj 56 436 bng 15 250 50 0 empty empty empty 17 7 0 10 -262144 -1
-1;
#X msg 85 356 set 0;
#X obj 49 463 pack 0 0;
#X obj 263 351 gate3;
#X obj 274 275 route @x @y;
#X obj 178 477 *;
#X obj 108 458 *;
#X obj 314 436 r &Y;
#X obj 275 436 r &X;
#X obj 261 -41 r &COMMANDS;
#X obj 262 -19 route obj;
#X connect 0 0 8 0;
#X connect 1 0 6 1;
#X connect 1 1 25 0;
#X connect 6 0 19 0;
#X connect 8 0 9 0;
#X connect 8 1 18 0;
#X connect 9 0 12 0;
#X connect 10 0 13 1;
#X connect 11 0 10 1;
#X connect 11 0 17 0;
#X connect 12 0 13 0;
#X connect 12 1 10 0;
#X connect 13 0 14 0;
#X connect 14 0 15 0;
#X connect 14 0 16 0;
#X connect 18 0 6 0;
#X connect 18 1 1 0;
#X connect 18 2 6 4;
#X connect 18 2 42 0;
#X connect 18 2 34 0;
#X connect 18 2 31 2;
#X connect 21 0 29 0;
#X connect 22 0 23 1;
#X connect 23 0 24 0;
#X connect 24 0 30 0;
#X connect 24 1 26 1;
#X connect 25 0 23 0;
#X connect 25 1 21 0;
#X connect 26 0 25 0;
#X connect 27 0 28 0;
#X connect 28 0 31 2;
#X connect 28 1 31 1;
#X connect 29 0 27 0;
#X connect 29 1 22 0;
#X connect 30 0 26 0;
#X connect 30 3 40 0;
#X connect 31 0 39 0;
#X connect 32 0 44 1;
#X connect 33 0 44 1;
#X connect 34 0 44 1;
#X connect 35 0 37 0;
#X connect 36 0 38 0;
#X connect 37 0 47 0;
#X connect 38 0 46 0;
#X connect 39 0 6 2;
#X connect 39 1 37 0;
#X connect 39 1 41 0;
#X connect 39 2 38 0;
#X connect 40 0 45 0;
#X connect 41 0 43 0;
#X connect 42 0 37 0;
#X connect 42 0 38 0;
#X connect 43 0 6 3;
#X connect 44 0 31 0;
#X connect 44 1 35 0;
#X connect 44 2 36 0;
#X connect 45 0 32 0;
#X connect 45 1 33 0;
#X connect 45 2 44 0;
#X connect 46 0 43 1;
#X connect 47 0 43 0;
#X connect 48 0 46 1;
#X connect 49 0 47 1;
#X connect 50 0 51 0;
#X connect 51 0 8 0;
#X restore 160 6 pd PARSE_obj;
#N canvas 59 23 691 352 BINDINGS 0;
#N canvas 792 289 340 285 obj_bindings 0;
#X obj 223 96 bng 15 250 50 0 empty empty empty 17 7 0 10 -262144 -1
-1;
#N canvas 703 308 452 409 add_entry 0;
#X msg 206 54 dictionary_entry;
#X obj 185 190 bng 15 250 50 0 empty empty empty 17 7 0 10 -262144
-1 -1;
#X obj 185 29 t b b a b;
#X msg 30 280 connect 0 0 \$1 0 \, connect \$1 0 1 0 \, connect \$1
1 2 0;
#X obj 30 257 f;
#X obj 146 55 t b b b;
#X obj 45 137 moses 4;
#X obj 84 192 pack 0 0;
#X obj 84 156 t f f;
#X obj 129 173 - 1;
#X obj 30 201 bng 15 250 50 0 empty empty empty 17 7 0 10 -262144 -1
-1;
#X obj 63 176 bng 15 250 50 0 empty empty empty 17 7 0 10 -262144 -1
-1;
#X obj 63 224 list;
#X msg 63 245 disconnect \$2 1 2 0 \, connect \$2 1 \$1 0 \, connect
\$1 0 1 0 \, connect \$1 1 2 0;
#X obj 7 131 ggate;
#X obj 86 114 >= 4;
#X obj 236 166 t b f;
#X obj 236 187 pack 0 0;
#X obj 236 147 * 25;
#X obj 185 5 inlet;
#X obj 130 371 s pd-obj-bindings-entries;
#X obj 193 212 lobject;
#X obj 236 126 - 1;
#X obj 236 103 counter;
#X obj 265 78 r &obj-bindings-reset;
#X obj 143 120 + 3;
#X connect 0 0 21 1;
#X connect 1 0 21 0;
#X connect 2 0 5 0;
#X connect 2 1 0 0;
#X connect 2 2 21 2;
#X connect 2 3 23 0;
#X connect 3 0 20 0;
#X connect 4 0 3 0;
#X connect 5 0 21 4;
#X connect 5 1 14 0;
#X connect 5 2 1 0;
#X connect 6 0 4 1;
#X connect 6 1 8 0;
#X connect 7 0 12 1;
#X connect 8 0 7 0;
#X connect 8 1 9 0;
#X connect 9 0 7 1;
#X connect 10 0 4 0;
#X connect 11 0 12 0;
#X connect 12 0 13 0;
#X connect 13 0 20 0;
#X connect 14 0 10 0;
#X connect 14 1 11 0;
#X connect 15 0 14 1;
#X connect 16 0 17 0;
#X connect 16 1 17 1;
#X connect 17 0 21 3;
#X connect 18 0 16 0;
#X connect 19 0 2 0;
#X connect 21 0 20 0;
#X connect 22 0 18 0;
#X connect 22 0 25 0;
#X connect 23 0 22 0;
#X connect 24 0 23 3;
#X connect 25 0 6 0;
#X connect 25 0 15 0;
#X restore 137 143 pd add_entry;
#X obj 19 64 inlet GET;
#X obj 137 65 inlet SET;
#X obj 223 64 inlet CLEAR;
#X text 51 7 SET key-value pairs;
#X text 51 22 GET value from key (or key if no value);
#X text 50 37 CLEAR to erase all key-value pairs;
#N canvas 703 109 702 386 reset 0;
#X obj 269 101 f \$0;
#X obj 230 58 bng 15 250 50 0 empty empty empty 17 7 0 10 -262144 -1
-1;
#X obj 230 78 t b b b;
#X msg 230 184 connect 0 0 3 0 \, connect 3 0 1 0 \, connect 3 1 2
0;
#X msg 249 163 obj 0 -25 inlet \, obj -60 -25 outlet \, obj 250 -25
outlet;
#X obj 230 212 t a a;
#X msg 269 129 clear \, obj 0 0 inlet \, obj 0 100 outlet \, obj 87
100 outlet \, obj 0 50 pd obj-bindings-entries;
#X obj 249 247 s pd-obj-bindings-entries;
#X obj 269 269 s pd-obj-bindings-shell;
#X obj 230 288 s pd-obj-bindings-guts;
#X obj 203 14 inlet;
#X obj 203 36 t b b;
#X obj 239 15 bng 15 250 50 0 empty empty empty 17 7 0 10 -262144 -1
-1;
#X obj 155 101 s &NEW_OBJ;
#X obj 281 72 s &obj-bindings-reset;
#X msg 155 78 &NULL -1;
#X connect 0 0 6 0;
#X connect 1 0 2 0;
#X connect 1 0 14 0;
#X connect 2 0 3 0;
#X connect 2 1 4 0;
#X connect 2 2 0 0;
#X connect 3 0 5 0;
#X connect 4 0 7 0;
#X connect 5 0 9 0;
#X connect 5 1 8 0;
#X connect 6 0 8 0;
#X connect 10 0 11 0;
#X connect 11 0 15 0;
#X connect 11 1 1 0;
#X connect 12 0 11 0;
#X connect 15 0 13 0;
#X restore 223 143 pd reset;
#X obj 58 226 outlet VALUE;
#X obj 175 226 outlet NO_MATCH;
#X text 64 168 Illegal Bindings;
#X obj 19 167 route 0;
#N canvas 570 168 246 97 obj-bindings-guts 0;
#X obj -18 6 inlet KEY;
#X obj -18 63 outlet VALUE;
#X obj 105 62 outlet NO_MATCH;
#N canvas 250 155 203 135 obj-bindings-shell 0;
#X obj 0 0 inlet;
#X obj 0 100 outlet;
#X obj 87 100 outlet;
#N canvas 81 424 450 300 obj-bindings-entries 0;
#X obj 0 -25 inlet;
#X obj -60 -25 outlet;
#X obj 250 -25 outlet;
#X obj 0 0 dictionary_entry &NULL -1;
#X connect 0 0 3 0;
#X connect 3 0 1 0;
#X connect 3 1 2 0;
#X restore 0 50 pd obj-bindings-entries;
#X connect 0 0 3 0;
#X connect 3 0 1 0;
#X connect 3 1 2 0;
#X restore -18 33 pd obj-bindings-shell;
#X connect 0 0 3 0;
#X connect 3 0 1 0;
#X connect 3 1 2 0;
#X restore 58 197 pd obj-bindings-guts;
#X obj 58 143 s &OBJ_COUNT;
#X obj 58 91 bng 15 250 50 0 empty empty empty 17 7 0 10 -262144 -1
-1;
#X obj 246 94 loadbang;
#N canvas 692 323 450 300 filter_bad_input 0;
#X obj -228 38 t a a;
#X obj -201 60 list length;
#X obj -201 82 > 1;
#X obj -234 103 spigot;
#X obj -233 4 inlet;
#X obj -231 148 outlet;
#X text -189 39 Filter lists length 1 or less;
#X connect 0 0 3 0;
#X connect 0 1 1 0;
#X connect 1 0 2 0;
#X connect 2 0 3 1;
#X connect 3 0 5 0;
#X connect 4 0 0 0;
#X restore 137 117 pd filter_bad_input;
#X obj 58 111 counter;
#X connect 0 0 8 0;
#X connect 0 0 18 3;
#X connect 2 0 12 0;
#X connect 3 0 15 0;
#X connect 3 0 17 0;
#X connect 4 0 0 0;
#X connect 12 1 13 0;
#X connect 13 0 9 0;
#X connect 13 1 10 0;
#X connect 15 0 18 0;
#X connect 16 0 18 3;
#X connect 17 0 1 0;
#X connect 18 0 14 0;
#X restore 25 -147 pd obj_bindings;
#X obj 112 -172 bng 15 250 50 0 empty empty DELETE_ALL_OBJECTS 17 7
0 10 -262144 -1 -1;
#X obj 25 -173 r &OBJ_KEY;
#X obj 115 0 bng 15 250 50 0 empty empty DELETE_ALL_VARIABLES 17 7
0 10 -262144 -1 -1;
#X obj 28 -1 r &VAR_KEY;
#N canvas 473 237 450 300 var_bindings 0;
#X obj 221 138 bng 15 250 50 0 empty empty empty 17 7 0 10 -262144
-1 -1;
#N canvas 38 410 452 409 add_entry 0;
#X msg 206 54 dictionary_entry;
#X obj 185 184 bng 15 250 50 0 empty empty empty 17 7 0 10 -262144
-1 -1;
#X obj 185 29 t b b a b;
#X msg 30 316 connect 0 0 \$1 0 \, connect \$1 0 1 0 \, connect \$1
1 2 0;
#X obj 30 257 f;
#X obj 146 55 t b b b;
#X obj 45 137 moses 4;
#X obj 84 192 pack 0 0;
#X obj 84 156 t f f;
#X obj 30 201 bng 15 250 50 0 empty empty empty 17 7 0 10 -262144 -1
-1;
#X obj 63 176 bng 15 250 50 0 empty empty empty 17 7 0 10 -262144 -1
-1;
#X obj 63 224 list;
#X msg 63 245 disconnect \$2 1 2 0 \, connect \$2 1 \$1 0 \, connect
\$1 0 1 0 \, connect \$1 1 2 0;
#X obj 7 131 ggate;
#X obj 86 114 >= 4;
#X obj 236 163 t b f;
#X obj 236 184 pack 0 0;
#X obj 236 144 * 25;
#X obj 185 5 inlet;
#X obj 130 371 s pd-var-bindings-entries;
#X obj 193 206 lobject;
#X obj 236 123 - 1;
#X obj 236 103 counter;
#X obj 143 120 + 3;
#X floatatom 138 147 5 0 0 0 - - -;
#X obj 129 173 - 1;
#X obj 110 141 bng 15 250 50 0 empty empty empty 17 7 0 10 -262144
-1 -1;
#X obj 245 78 r &var-bindings-reset;
#X connect 0 0 20 1;
#X connect 1 0 20 0;
#X connect 2 0 5 0;
#X connect 2 1 0 0;
#X connect 2 2 20 2;
#X connect 2 3 22 0;
#X connect 3 0 19 0;
#X connect 4 0 3 0;
#X connect 5 0 20 4;
#X connect 5 1 13 0;
#X connect 5 2 1 0;
#X connect 6 0 4 1;
#X connect 6 1 8 0;
#X connect 7 0 11 1;
#X connect 8 0 7 0;
#X connect 8 1 25 0;
#X connect 9 0 4 0;
#X connect 10 0 11 0;
#X connect 11 0 12 0;
#X connect 12 0 19 0;
#X connect 13 0 9 0;
#X connect 13 1 10 0;
#X connect 14 0 13 1;
#X connect 15 0 16 0;
#X connect 15 1 16 1;
#X connect 16 0 20 3;
#X connect 17 0 15 0;
#X connect 18 0 2 0;
#X connect 20 0 19 0;
#X connect 21 0 17 0;
#X connect 21 0 23 0;
#X connect 22 0 21 0;
#X connect 23 0 6 0;
#X connect 23 0 14 0;
#X connect 23 0 24 0;
#X connect 25 0 7 1;
#X connect 26 0 7 0;
#X connect 27 0 22 3;
#X restore 139 136 pd add_entry;
#X obj 45 82 inlet GET;
#X obj 139 83 inlet SET;
#X obj 221 82 inlet CLEAR;
#X text 77 25 SET key-value pairs;
#X text 77 40 GET value from key (or key if no value);
#X text 76 55 CLEAR to erase all key-value pairs;
#N canvas 421 365 659 420 reset 0;
#X obj 198 95 f \$0;
#X obj 159 52 bng 15 250 50 0 empty empty empty 17 7 0 10 -262144 -1
-1;
#X msg 159 178 connect 0 0 3 0 \, connect 3 0 1 0 \, connect 3 1 2
0;
#X obj 132 7 inlet;
#X msg 178 157 obj 0 -25 inlet \, obj -60 -25 outlet \, obj 250 -25
outlet;
#X obj 159 206 t a a;
#X obj 198 263 s pd-var-bindings-shell;
#X obj 159 282 s pd-var-bindings-guts;
#X msg 198 123 clear \, obj 0 0 inlet \, obj 0 100 outlet \, obj 87
100 outlet \, obj 0 50 pd var-bindings-entries;
#X obj 178 241 s pd-var-bindings-entries;
#X obj 84 94 s &NEW_VAR;
#X msg 84 71 &NULL 0;
#X obj 132 29 t b b;
#X obj 168 8 bng 15 250 50 0 empty empty empty 17 7 0 10 -262144 -1
-1;
#X obj 239 94 s &var-bindings-reset;
#X obj 159 72 t b b b b;
#X connect 0 0 8 0;
#X connect 1 0 15 0;
#X connect 2 0 5 0;
#X connect 3 0 12 0;
#X connect 4 0 9 0;
#X connect 5 0 7 0;
#X connect 5 1 6 0;
#X connect 8 0 6 0;
#X connect 11 0 10 0;
#X connect 12 0 11 0;
#X connect 12 1 1 0;
#X connect 13 0 12 0;
#X connect 15 0 2 0;
#X connect 15 1 4 0;
#X connect 15 2 0 0;
#X connect 15 3 14 0;
#X restore 221 156 pd reset;
#X obj 84 222 outlet VALUE;
#X obj 201 221 outlet NO_MATCH;
#X text 90 159 Illegal Bindings;
#X obj 45 158 route 0;
#N canvas 899 263 450 300 var-bindings-guts 0;
#X obj 7 13 inlet KEY;
#X obj 11 142 outlet VALUE;
#X obj 98 143 outlet NO_MATCH;
#N canvas 249 648 450 300 var-bindings-shell 0;
#X obj 0 0 inlet;
#X obj 0 100 outlet;
#X obj 87 100 outlet;
#N canvas 81 424 450 300 var-bindings-entries 0;
#X obj 0 -25 inlet;
#X obj -60 -25 outlet;
#X obj 250 -25 outlet;
#X obj 0 0 dictionary_entry &NULL 0;
#X connect 0 0 3 0;
#X connect 3 0 1 0;
#X connect 3 1 2 0;
#X restore 0 50 pd var-bindings-entries;
#X connect 0 0 3 0;
#X connect 3 0 1 0;
#X connect 3 1 2 0;
#X restore 24 74 pd var-bindings-shell;
#X connect 0 0 3 0;
#X connect 3 0 1 0;
#X connect 3 1 2 0;
#X restore 84 192 pd var-bindings-guts;
#N canvas 692 323 450 300 filter_bad_input 0;
#X obj -228 38 t a a;
#X obj -201 60 list length;
#X obj -201 82 > 1;
#X obj -234 103 spigot;
#X obj -233 4 inlet;
#X obj -231 148 outlet;
#X text -189 39 Filter lists length 1 or less;
#X connect 0 0 3 0;
#X connect 0 1 1 0;
#X connect 1 0 2 0;
#X connect 2 0 3 1;
#X connect 3 0 5 0;
#X connect 4 0 0 0;
#X restore 139 109 pd filter_bad_input;
#X connect 0 0 8 0;
#X connect 2 0 12 0;
#X connect 3 0 14 0;
#X connect 4 0 0 0;
#X connect 12 1 13 0;
#X connect 13 0 9 0;
#X connect 13 1 10 0;
#X connect 14 0 1 0;
#X restore 28 25 pd var_bindings;
#X msg 26 -41 route 14;
#X msg 106 -69 ONE;
#X obj 71 -22 r &NEW_VAR;
#X obj 159 -151 r &RESET;
#X obj 68 -194 r &NEW_OBJ;
#X obj 25 -92 s &OBJ_VALUE;
#X obj 28 79 s &VAR_VALUE;
#X obj 49 -120 s &OBJ;
#X obj 104 -93 s &OBJ_NO_MATCH;
#X obj 44 49 s &VAR;
#X obj 106 79 s &VAR_NO_MATCH;
#X connect 0 0 11 0;
#X connect 0 0 13 0;
#X connect 0 1 13 0;
#X connect 0 1 14 0;
#X connect 1 0 0 2;
#X connect 2 0 0 0;
#X connect 3 0 5 2;
#X connect 4 0 5 0;
#X connect 5 0 12 0;
#X connect 5 0 15 0;
#X connect 5 1 15 0;
#X connect 5 1 16 0;
#X connect 6 0 5 1;
#X connect 7 0 5 0;
#X connect 8 0 5 1;
#X connect 9 0 1 0;
#X connect 9 0 3 0;
#X connect 10 0 0 1;
#X restore -91 -268 pd BINDINGS;
#X text 299 -297 To reference variable alone \, use #varname;
#X text 367 -256 When the variable is treated as code \, the expression
can't begin with the variable (e.g. [varname]something_else is invalid)
;
#X text 299 -276 To insert variable as part of code \, use some_code[varname]
;
#N canvas 743 26 450 300 syntax 0;
#X text 30 27 comment;
#X msg 87 31 beginning a word with [ is a syntax error: [one] is an
error while routes[one] works.;
#X restore -91 -306 pd syntax;
#N canvas 29 23 731 685 PARSE_other 0;
#X obj 54 -125 inlet;
#X obj 88 -7 list split 1;
#X text 74 -9 =;
#X text 16 -40 NewVar;
#X text 131 -39 = expr;
#X text 168 -7 expr;
#X obj 95 131 s &NEW_VAR;
#X obj 95 45 list;
#X obj 95 75 list trim;
#X obj 54 -104 t a b;
#X msg 135 18 list;
#X obj 54 -39 list split 1;
#X obj 54 -81 l2s;
#X obj 54 -60 s2l;
#X text 223 -124 Line is assumed to be a variable declaration if it
doesn't fall under any other options. First word is the new key value
\, the second symbol is "=" \, and the rest of the line is the value
associated with the new key. The line ends with a " \, ":;
#X text 267 -46 NewVar = 3 \,;
#X text 267 -34 NewVar2 = Something Something else \,;
#X text 413 48 Evaluated as: "NewVar3 = Another thingSomething Something
else3f3_";
#X text 386 14 NewVar[NewVar] = Another thing[NewVar2][NewVar][][][][]f[NewVar]_
\,;
#X text 377 -6 With bracket notation:;
#X obj 20 39 route =;
#X obj 20 17 list trim;
#X msg 15 70 0;
#X obj 95 103 ggate;
#X msg 42 80 1;
#X obj 46 60 bng 15 250 50 0 empty empty empty 17 7 0 10 -262144 -1
-1;
#X obj 179 39 list trim;
#X msg 174 92 0;
#X msg 207 101 1;
#X obj 205 82 bng 15 250 50 0 empty empty empty 17 7 0 10 -262144 -1
-1;
#X obj 179 61 route ->;
#X obj 181 124 ggate;
#X obj 177 262 list split 1;
#X obj 107 402 lbuilder;
#X obj 203 301 list split 1;
#X obj 276 343 list split 1;
#X obj 286 393 list;
#X obj 177 242 t b a b;
#X obj 163 438 outlet;
#X obj 107 447 lreverse;
#X obj 107 468 list prepend connect;
#X obj 107 490 list trim;
#X obj 106 512 s &INTERPRETER;
#X obj 181 156 t a a;
#X obj 232 176 list length;
#X obj 172 194 ggate;
#X obj 193 218 list append 0 0;
#X obj 228 197 == 2;
#X obj 358 317 r &RESET;
#X obj 245 384 list;
#X obj 215 333 t b a b;
#X obj 271 42 list trim;
#X msg 266 95 0;
#X msg 299 104 1;
#X obj 297 85 bng 15 250 50 0 empty empty empty 17 7 0 10 -262144 -1
-1;
#X obj 299 130 ggate;
#X obj 271 64 route =>;
#X obj 365 181 list split 1;
#X obj 368 256 list;
#X obj 423 349 list trim;
#X obj 421 377 s &INTERPRETER;
#X obj 422 275 list prepend obj;
#X obj 367 228 list;
#X obj 364 205 t a b;
#X msg 400 213 symbol =;
#X connect 0 0 9 0;
#X connect 1 0 21 0;
#X connect 1 0 26 0;
#X connect 1 0 51 0;
#X connect 1 1 7 1;
#X connect 7 0 8 0;
#X connect 8 0 23 0;
#X connect 9 0 12 0;
#X connect 9 1 10 0;
#X connect 10 0 7 1;
#X connect 11 0 7 0;
#X connect 11 1 1 0;
#X connect 12 0 13 0;
#X connect 13 0 11 0;
#X connect 20 0 22 0;
#X connect 20 1 25 0;
#X connect 21 0 20 0;
#X connect 22 0 23 1;
#X connect 23 0 6 0;
#X connect 23 1 31 0;
#X connect 24 0 23 1;
#X connect 25 0 24 0;
#X connect 26 0 30 0;
#X connect 27 0 31 1;
#X connect 28 0 31 1;
#X connect 29 0 28 0;
#X connect 30 0 27 0;
#X connect 30 1 29 0;
#X connect 31 0 43 0;
#X connect 31 1 55 0;
#X connect 32 0 33 0;
#X connect 32 1 34 0;
#X connect 33 0 38 0;
#X connect 33 0 39 0;
#X connect 34 0 50 0;
#X connect 34 1 35 0;
#X connect 35 0 49 1;
#X connect 35 1 36 1;
#X connect 36 0 33 0;
#X connect 37 0 33 1;
#X connect 37 1 32 0;
#X connect 37 2 33 2;
#X connect 39 0 40 0;
#X connect 40 0 41 0;
#X connect 41 0 42 0;
#X connect 43 0 45 0;
#X connect 43 1 44 0;
#X connect 44 0 47 0;
#X connect 45 0 37 0;
#X connect 45 1 46 0;
#X connect 46 0 37 0;
#X connect 47 0 45 1;
#X connect 48 0 33 2;
#X connect 49 0 33 0;
#X connect 50 0 49 0;
#X connect 50 1 33 0;
#X connect 50 2 36 0;
#X connect 51 0 56 0;
#X connect 52 0 55 1;
#X connect 53 0 55 1;
#X connect 54 0 53 0;
#X connect 55 0 57 0;
#X connect 56 0 52 0;
#X connect 56 1 54 0;
#X connect 57 0 63 0;
#X connect 57 1 58 1;
#X connect 58 0 61 0;
#X connect 59 0 60 0;
#X connect 61 0 59 0;
#X connect 62 0 58 0;
#X connect 63 0 62 0;
#X connect 63 1 64 0;
#X connect 64 0 62 1;
#X restore 469 -162 pd PARSE_other;
#N canvas 600 570 450 300 PARSE_reset 0;
#X obj 59 22 inlet;
#X obj 88 101 s &RESET;
#X obj 58 53 bng 15 250 50 0 empty empty empty 17 7 0 10 -262144 -1
-1;
#X msg 60 141 clear;
#X obj 60 169 outlet;
#X obj 148 79 s &Y;
#X obj 192 91 s &X;
#X msg 126 55 10;
#X msg 186 53 10;
#X msg 120 141 menu_clear_console;
#X obj 120 161 hcs/sys_gui;
#X connect 0 0 2 0;
#X connect 2 0 1 0;
#X connect 2 0 3 0;
#X connect 2 0 7 0;
#X connect 2 0 8 0;
#X connect 2 0 9 0;
#X connect 3 0 4 0;
#X connect 7 0 5 0;
#X connect 8 0 6 0;
#X connect 9 0 10 0;
#X restore 331 -80 pd PARSE_reset;
#X msg -85 -98 reset;
#X obj -91 -209 bng 15 250 50 0 empty empty Generate_New_Variable 17
7 0 10 -262144 -1 -1;
#X obj -4 -193 bng 15 250 50 0 empty empty Reset 17 7 0 10 -262144
-1 -1;
#N canvas 880 66 450 300 generate_var 0;
#X obj 120 68 iterator;
#X obj 165 41 bng 15 250 50 0 empty empty empty 17 7 0 10 -262144 -1
-1;
#X obj 117 202 spigot;
#X obj 110 20 t b b b;
#X obj 150 156 tgl 15 0 empty empty empty 17 7 0 10 -262144 -1 -1 0
1;
#X obj 147 -3 inlet;
#X obj 106 -3 inlet;
#X obj 120 117 pack 0 0;
#X obj 120 91 t f f;
#X obj 150 178 == 0;
#X msg 121 137 var\$1 = \$2;
#X obj 182 65 s &RESET;
#X obj 117 225 s \$0-interpreter;
#X connect 0 0 8 0;
#X connect 1 0 0 5;
#X connect 2 0 12 0;
#X connect 3 0 4 0;
#X connect 3 1 0 1;
#X connect 3 1 11 0;
#X connect 3 2 4 0;
#X connect 4 0 9 0;
#X connect 5 0 3 0;
#X connect 6 0 1 0;
#X connect 7 0 10 0;
#X connect 8 0 7 0;
#X connect 8 1 7 1;
#X connect 9 0 2 1;
#X connect 10 0 2 0;
#X restore -91 -172 pd generate_var;
#X obj 195 -240 r \$0-interpreter;
#X obj -85 -121 bng 15 250 50 0 empty empty empty 17 7 0 10 -262144
-1 -1;
#X obj 603 -21 s pd-sandbox;
#N canvas 316 53 521 394 sandbox 0;
#X restore -91 -249 pd sandbox;
#N canvas 18 468 450 300 PARSE_loadbang 0;
#X obj 37 10 inlet;
#X obj 39 55 bng 15 250 50 0 empty empty empty 17 7 0 10 -262144 -1
-1;
#X msg 46 95 loadbang \,;
#X obj 48 130 outlet;
#X connect 0 0 1 0;
#X connect 1 0 2 0;
#X connect 2 0 3 0;
#X restore 228 -39 pd PARSE_loadbang;
#X obj -85 -143 loadbang;
#X obj 57 -182 s &NEW_VAR;
#X msg 57 -207 route 55;
#X obj 160 -240 inlet;
#N canvas 887 267 450 300 PARSE_show 0;
#X obj 33 26 inlet;
#X msg 37 55 vis 1 \,;
#X obj 37 105 outlet;
#X connect 0 0 1 0;
#X connect 1 0 2 0;
#X restore 366 -100 pd PARSE_show;
#N canvas 93 519 450 300 PARSE_connect 0;
#X obj 54 5 inlet;
#X obj 53 46 list split 1;
#X obj 33 170 lbuilder;
#X obj 90 79 list split 1;
#X obj 135 142 list split 1;
#X obj 146 204 list trim;
#X obj 163 169 list split;
#X obj 51 95 t b b a;
#X obj 40 274 outlet;
#X obj 39 251 list trim;
#X obj -18 229 list prepend connect;
#X obj -11 102 list trim;
#X obj 85 122 r &OBJ;
#X obj 147 227 s &OBJ_KEY;
#X obj 51 26 t b a b;
#X obj -10 125 s &OBJ_KEY;
#X obj 5 199 lreverse;
#X obj 191 31 route connect;
#X obj 183 71 list;
#X obj 191 8 r &INTERPRETER;
#X connect 0 0 14 0;
#X connect 1 0 11 0;
#X connect 1 1 3 0;
#X connect 2 0 16 0;
#X connect 3 0 2 0;
#X connect 3 1 4 0;
#X connect 4 0 5 0;
#X connect 4 1 6 0;
#X connect 4 1 2 0;
#X connect 5 0 13 0;
#X connect 7 0 2 2;
#X connect 7 1 2 1;
#X connect 7 2 2 0;
#X connect 9 0 8 0;
#X connect 10 0 9 0;
#X connect 11 0 15 0;
#X connect 12 0 2 0;
#X connect 14 0 7 0;
#X connect 14 1 1 0;
#X connect 14 2 2 2;
#X connect 16 0 10 0;
#X connect 17 0 18 0;
#X connect 18 0 14 0;
#X connect 19 0 17 0;
#X restore 263 -60 pd PARSE_connect;
#X obj 160 -186 route obj for loadbang connect send reset show @x @y
;
#N canvas 927 271 450 300 PARSE_@x 0;
#X obj 12 6 inlet;
#X obj 12 41 s &X;
#X connect 0 0 1 0;
#X restore 400 -120 pd PARSE_@x;
#N canvas 927 271 450 300 PARSE_@y 0;
#X obj 12 6 inlet;
#X obj 12 41 s &Y;
#X connect 0 0 1 0;
#X restore 434 -140 pd PARSE_@y;
#N canvas 931 52 450 300 tests 0;
#X msg 188 -19 route = 15;
#X msg 187 7 obj nun = t;
#X msg 354 -203 x_grid_size = 3 \, routes = 1 2 3 \, obj adder = route
[routes] @x 10 @y 100 \, obj number_to_add = r the_number @y 0 \, for
route in routes: obj add_[route] = + [route] @x @i: connect adder_[route]
@i add_[route] 0: obj print_[route] = print coming_from_[route]: connect
adder_[route] 0 print_[route] 0 \, loadbang \, connect numbber_to_add
0 adder 0 \, send the_number 8;
#X msg 353 -110 reset \, route = 55 \, routes = 1 2 3 4 5 6 7 8 9 10
11 12 13 14 15 16 \, obj adder[route] = route [routes] [route] \, obj
WUBALUBADUBDUB = select WUBALUBADUBDUB \,;
#X msg 21 -122 reset \, route = 55 \, routes = 1 2 3 4 5 6 7 8 9 10
11 12 13 14 15 16 \, obj adder[route] = route [routes] [route] @x 50
@y 100 \, obj WUBALUBADUBDUB = select WUBALUBADUBDUB @x 200 @y 20 \,
;
#X restore -91 -287 pd tests;
#X obj -85 -76 s \$0-interpreter;
#X text 47 -299 \, = / # @ : ?[];
#N canvas 657 360 462 499 internals 1;
#X obj 91 23 r &INTERPRETER;
#X obj 91 66 pdj_preprocessor;
#X obj 91 87 s &COMMANDS;
#X obj 225 26 r &COMPUTE;
#X obj 225 51 list split 1;
#X obj 259 77 list split 1;
#X obj 272 216 list;
#X obj 238 143 route +;
#X obj 238 99 list trim;
#X obj 224 171 bng 15 250 50 0 empty empty empty 17 7 0 10 -262144
-1 -1;
#X obj 256 172 bng 15 250 50 0 empty empty empty 17 7 0 10 -262144
-1 -1;
#X obj 238 120 t b a;
#X obj 172 388 +;
#X obj 202 265 list;
#X obj 223 241 ggate;
#X msg 225 189 0;
#X msg 256 189 1;
#X obj 202 287 list trim;
#X obj 105 287 list trim;
#X obj 105 241 ggate;
#X obj 157 433 print RESULT;
#X obj 105 264 t a b;
#X obj 61 341 s &VAR_KEY;
#X obj 165 336 r &VAR;
#X obj 202 309 t a b;
#X obj 165 358 ggate;
#X msg 229 341 1;
#X msg 132 341 0;
#X obj 157 409 f;
#X obj 105 309 t b a b;
#X msg 304 18 1 + 3;
#X connect 0 0 1 0;
#X connect 1 0 2 0;
#X connect 3 0 4 0;
#X connect 4 0 19 0;
#X connect 4 1 5 0;
#X connect 5 0 8 0;
#X connect 5 1 6 1;
#X connect 6 0 14 0;
#X connect 7 0 9 0;
#X connect 7 1 10 0;
#X connect 8 0 11 0;
#X connect 9 0 15 0;
#X connect 10 0 16 0;
#X connect 11 0 6 0;
#X connect 11 1 7 0;
#X connect 12 0 28 1;
#X connect 13 0 17 0;
#X connect 14 0 13 1;
#X connect 15 0 14 1;
#X connect 15 0 19 1;
#X connect 16 0 14 1;
#X connect 16 0 19 1;
#X connect 17 0 24 0;
#X connect 18 0 29 0;
#X connect 19 0 21 0;
#X connect 21 0 18 0;
#X connect 21 1 13 0;
#X connect 23 0 25 0;
#X connect 24 0 22 0;
#X connect 24 1 26 0;
#X connect 25 0 12 0;
#X connect 25 1 12 1;
#X connect 26 0 25 1;
#X connect 27 0 25 1;
#X connect 28 0 20 0;
#X connect 29 0 28 0;
#X connect 29 1 22 0;
#X connect 29 2 27 0;
#X connect 30 0 4 0;
#X restore -91 -230 pd internals;
#X obj 160 -212 pdj_preprocessor;
#N canvas 298 195 450 300 PARSE_for 0;
#X obj 34 23 inlet;
#X obj 47 208 outlet;
#X text 110 16 for one 2 3;
#X restore 194 -16 pd PARSE_for;
#X obj 235 39 lprint INTERPRETED_COMMANDS;
#X connect 3 0 17 0;
#X connect 10 0 17 0;
#X connect 11 0 30 0;
#X connect 12 0 14 0;
#X connect 13 0 14 1;
#X connect 15 0 33 0;
#X connect 16 0 11 0;
#X connect 19 0 17 0;
#X connect 20 0 16 0;
#X connect 22 0 21 0;
#X connect 23 0 33 0;
#X connect 24 0 17 0;
#X connect 25 0 17 0;
#X connect 26 0 3 0;
#X connect 26 1 34 0;
#X connect 26 2 19 0;
#X connect 26 3 25 0;
#X connect 26 5 10 0;
#X connect 26 6 24 0;
#X connect 26 7 27 0;
#X connect 26 8 28 0;
#X connect 26 9 9 0;
#X connect 33 0 26 0;
#X connect 34 0 17 0;
