#N canvas 511 66 696 164 10;
#X obj 84 72 bng 66 250 50 0 \$0-C empty empty 17 7 0 10 -262144 -162280
-1;
#X obj 150 72 bng 66 250 50 0 \$0-D empty empty 17 7 0 10 -262144 -162280
-1;
#X obj 216 72 bng 66 250 50 0 \$0-E empty empty 17 7 0 10 -262144 -162280
-1;
#X obj 282 72 bng 66 250 50 0 \$0-F empty empty 17 7 0 10 -262144 -162280
-1;
#X obj 115 6 bng 66 250 50 0 \$0-Csharp empty empty 17 7 0 10 -1 -162280
-1;
#X obj 348 72 bng 66 250 50 0 \$0-G empty empty 17 7 0 10 -262144 -162280
-1;
#X obj 414 72 bng 66 250 50 0 \$0-A empty empty 17 7 0 10 -262144 -162280
-1;
#X obj 480 72 bng 66 250 50 0 \$0-B empty empty 17 7 0 10 -262144 -162280
-1;
#X obj 183 6 bng 66 250 50 0 \$0-Dsharp empty empty 17 7 0 10 -1 -162280
-1;
#X obj 314 5 bng 66 250 50 0 \$0-Fsharp empty empty 17 7 0 10 -1 -162280
-1;
#X obj 382 5 bng 66 250 50 0 \$0-Gsharp empty empty 17 7 0 10 -1 -162280
-1;
#X obj 450 5 bng 66 250 50 0 \$0-Asharp empty empty 17 7 0 10 -1 -162280
-1;
#X obj 9 7 bng 66 250 50 0 \$0-octave-up empty empty 17 7 0 10 -261682
-162280 -1;
#X obj 9 72 bng 66 250 50 0 \$0-octave-down empty empty 17 7 0 10 -204800
-162280 -1;
#X text 14 31 Octave Up;
#X text 8 96 Octave Down;
#X obj 557 70 hsl 100 30 1 127 0 0 \$0-velocity empty empty -2 -8 0
10 -138095 -1 -1 0 1;
#X text 581 77 Velocity;
#X obj 558 107 hsl 100 30 30 1500 0 0 \$0-duration empty empty -2 -8
0 10 -125184 -1 -1 0 1;
#X text 582 114 Duration;
#X obj 609 15 bng 40 250 50 0 \$0-flush empty empty 17 7 0 10 -228856
-75776 -1;
#X text 613 26 Flush;
#X obj 260 39 outlet;
#N canvas 368 475 997 278 guts 0;
#X obj -1 13 r \$0-C;
#X obj -1 71 bng 15 250 50 0 empty empty empty 17 7 0 10 -262144 -1
-1;
#X obj 42 71 bng 15 250 50 0 empty empty empty 17 7 0 10 -262144 -1
-1;
#X obj 42 13 r \$0-Csharp;
#X obj 116 71 bng 15 250 50 0 empty empty empty 17 7 0 10 -262144 -1
-1;
#X obj 159 71 bng 15 250 50 0 empty empty empty 17 7 0 10 -262144 -1
-1;
#X obj 116 13 r \$0-D;
#X obj 159 13 r \$0-Dsharp;
#X obj 232 72 bng 15 250 50 0 empty empty empty 17 7 0 10 -262144 -1
-1;
#X obj 275 72 bng 15 250 50 0 empty empty empty 17 7 0 10 -262144 -1
-1;
#X obj 318 73 bng 15 250 50 0 empty empty empty 17 7 0 10 -262144 -1
-1;
#X obj 390 74 bng 15 250 50 0 empty empty empty 17 7 0 10 -262144 -1
-1;
#X obj 232 14 r \$0-E;
#X obj 275 14 r \$0-F;
#X obj 318 15 r \$0-Fsharp;
#X obj 390 16 r \$0-G;
#X obj 432 74 bng 15 250 50 0 empty empty empty 17 7 0 10 -262144 -1
-1;
#X obj 475 74 bng 15 250 50 0 empty empty empty 17 7 0 10 -262144 -1
-1;
#X obj 518 75 bng 15 250 50 0 empty empty empty 17 7 0 10 -262144 -1
-1;
#X obj 590 76 bng 15 250 50 0 empty empty empty 17 7 0 10 -262144 -1
-1;
#X obj 475 16 r \$0-A;
#X obj 518 17 r \$0-Asharp;
#X obj 590 18 r \$0-B;
#X msg -1 96 0;
#X msg 43 94 1;
#X msg 115 95 2;
#X msg 159 95 3;
#X msg 231 95 4;
#X msg 278 95 5;
#X msg 318 95 6;
#X msg 392 94 7;
#X msg 435 96 8;
#X msg 484 96 9;
#X msg 523 99 10;
#X msg 591 95 11;
#X obj -134 188 iterator;
#X obj -196 117 loadbang;
#X msg -265 170 4;
#X obj -196 139 t b b;
#X msg -230 168 0;
#X msg -203 168 9;
#X obj -89 167 bng 15 250 50 0 empty empty empty 17 7 0 10 -262144
-1 -1;
#X obj -134 131 bng 15 250 50 0 empty empty empty 17 7 0 10 -262144
-1 -1;
#X obj -134 102 r \$0-octave-down;
#X obj -89 126 r \$0-octave-up;
#X obj -134 212 * 12;
#X obj 222 156 +;
#X obj 222 179 makenote;
#X obj 628 147 r \$0-duration;
#X obj 623 94 r \$0-velocity;
#X obj 222 200 pack 0 0;
#X obj 222 254 outlet;
#X obj 222 227 noteflush;
#X obj 298 193 r \$0-flush;
#X obj 297 219 bng 15 250 50 0 empty empty empty 17 7 0 10 -262144
-1 -1;
#X floatatom 622 118 5 0 0 0 - - -;
#X floatatom 629 169 5 0 0 0 - - -;
#X obj 432 16 r \$0-Gsharp;
#X msg 39 156 80;
#X msg 77 156 400;
#X floatatom -109 50 5 0 0 0 - - -;
#X obj -1 44 sel 97;
#X obj 42 44 sel 119;
#X obj 116 44 sel 115;
#X obj 159 44 sel 101;
#X obj 232 45 sel 100;
#X obj 275 45 sel 102;
#X obj 318 45 sel 116;
#X obj 389 46 sel 103;
#X obj 432 46 sel 121;
#X obj 475 46 sel 104;
#X obj 518 46 sel 117;
#X obj 590 46 sel 106;
#X obj -134 78 sel 44;
#X obj -89 78 sel 46;
#X obj -124 4 key;
#X obj -97 4 r \$0-keyboard;
#X obj -124 27 ggate;
#X connect 0 0 1 0;
#X connect 1 0 23 0;
#X connect 2 0 24 0;
#X connect 3 0 2 0;
#X connect 4 0 25 0;
#X connect 5 0 26 0;
#X connect 6 0 4 0;
#X connect 7 0 5 0;
#X connect 8 0 27 0;
#X connect 9 0 28 0;
#X connect 10 0 29 0;
#X connect 11 0 30 0;
#X connect 12 0 8 0;
#X connect 13 0 9 0;
#X connect 14 0 10 0;
#X connect 15 0 11 0;
#X connect 16 0 31 0;
#X connect 17 0 32 0;
#X connect 18 0 33 0;
#X connect 19 0 34 0;
#X connect 20 0 17 0;
#X connect 21 0 18 0;
#X connect 22 0 19 0;
#X connect 23 0 46 0;
#X connect 24 0 46 0;
#X connect 25 0 46 0;
#X connect 26 0 46 0;
#X connect 27 0 46 0;
#X connect 28 0 46 0;
#X connect 29 0 46 0;
#X connect 30 0 46 0;
#X connect 31 0 46 0;
#X connect 32 0 46 0;
#X connect 33 0 46 0;
#X connect 34 0 46 0;
#X connect 35 0 45 0;
#X connect 36 0 38 0;
#X connect 37 0 35 2;
#X connect 38 0 35 1;
#X connect 38 1 37 0;
#X connect 38 1 39 0;
#X connect 38 1 40 0;
#X connect 38 1 58 0;
#X connect 38 1 59 0;
#X connect 39 0 35 3;
#X connect 40 0 35 4;
#X connect 41 0 35 5;
#X connect 42 0 35 0;
#X connect 43 0 42 0;
#X connect 44 0 41 0;
#X connect 45 0 46 1;
#X connect 46 0 47 0;
#X connect 47 0 50 0;
#X connect 47 1 50 1;
#X connect 48 0 47 2;
#X connect 48 0 56 0;
#X connect 49 0 47 1;
#X connect 49 0 55 0;
#X connect 50 0 52 0;
#X connect 52 0 51 0;
#X connect 53 0 54 0;
#X connect 54 0 52 1;
#X connect 57 0 16 0;
#X connect 58 0 47 1;
#X connect 59 0 47 2;
#X connect 61 0 1 0;
#X connect 61 1 62 0;
#X connect 62 0 2 0;
#X connect 62 1 63 0;
#X connect 63 0 4 0;
#X connect 63 1 64 0;
#X connect 64 0 5 0;
#X connect 64 1 65 0;
#X connect 65 0 8 0;
#X connect 65 1 66 0;
#X connect 66 0 9 0;
#X connect 66 1 67 0;
#X connect 67 0 10 0;
#X connect 67 1 68 0;
#X connect 68 0 11 0;
#X connect 68 1 69 0;
#X connect 69 0 16 0;
#X connect 69 1 70 0;
#X connect 70 0 17 0;
#X connect 70 1 71 0;
#X connect 71 0 18 0;
#X connect 71 1 72 0;
#X connect 72 0 19 0;
#X connect 73 0 42 0;
#X connect 73 1 74 0;
#X connect 74 0 41 0;
#X connect 75 0 77 0;
#X connect 76 0 77 1;
#X connect 77 0 60 0;
#X connect 77 0 61 0;
#X connect 77 0 73 0;
#X restore 260 17 pd guts;
#X obj 555 15 tgl 40 0 \$0-keyboard empty empty 17 7 0 10 -228265 -1
-1 0 1;
#X text 561 18 Keys;
#X text 556 32 On/Off;
#X connect 23 0 22 0;
#X coords 0 -1 1 1 675 144 2 0 0;
