#N canvas 99 22 705 341 10;
#X obj -74 7 inlet;
#X obj -74 54 pack 0 0 0;
#X obj -74 231 +~;
#X obj -63 109 r \$0-waveform;
#X obj -52 129 r \$0-adsr;
#X obj -41 149 r \$0-flush;
#X obj -74 255 +~;
#X obj -74 278 +~;
#X obj -74 303 outlet~;
#X obj -4 53 s \$0-waveform;
#X obj 84 53 s \$0-adsr;
#X obj 150 54 s \$0-flush;
#X obj -4 8 inlet;
#X obj 84 7 inlet;
#X obj 150 7 inlet;
#X obj 233 6 inlet;
#X obj 233 55 s \$0-pitch_bend;
#X obj 335 6 inlet;
#X obj 335 55 s \$0-pitch_range;
#X obj -22 170 r \$0-pitch_bend;
#X obj 1 190 r \$0-pitch_range;
#X obj 103 114 r \$0-waveform;
#X obj 114 134 r \$0-adsr;
#X obj 125 154 r \$0-flush;
#X obj 144 175 r \$0-pitch_bend;
#X obj 167 195 r \$0-pitch_range;
#X obj 286 115 r \$0-waveform;
#X obj 297 135 r \$0-adsr;
#X obj 308 155 r \$0-flush;
#X obj 327 176 r \$0-pitch_bend;
#X obj 350 196 r \$0-pitch_range;
#X obj 452 120 r \$0-waveform;
#X obj 463 140 r \$0-adsr;
#X obj 474 160 r \$0-flush;
#X obj 493 181 r \$0-pitch_bend;
#X obj 516 201 r \$0-pitch_range;
#X obj -74 209 voice~ ------;
#X obj -74 79 route 1 2 3 4;
#X obj 567 305 outlet;
#X obj 441 220 voice~ ------;
#X obj 92 214 voice~ ------;
#X obj 275 215 voice~ ------;
#X obj -74 31 poly 4 1;
#X connect 0 0 42 0;
#X connect 1 0 37 0;
#X connect 2 0 6 0;
#X connect 3 0 36 1;
#X connect 4 0 36 2;
#X connect 5 0 36 3;
#X connect 6 0 7 0;
#X connect 7 0 8 0;
#X connect 12 0 9 0;
#X connect 13 0 10 0;
#X connect 14 0 11 0;
#X connect 15 0 16 0;
#X connect 17 0 18 0;
#X connect 19 0 36 4;
#X connect 20 0 36 5;
#X connect 21 0 40 1;
#X connect 22 0 40 2;
#X connect 23 0 40 3;
#X connect 24 0 40 4;
#X connect 25 0 40 5;
#X connect 26 0 41 1;
#X connect 27 0 41 2;
#X connect 28 0 41 3;
#X connect 29 0 41 4;
#X connect 30 0 41 5;
#X connect 31 0 39 1;
#X connect 32 0 39 2;
#X connect 33 0 39 3;
#X connect 34 0 39 4;
#X connect 35 0 39 5;
#X connect 36 0 2 0;
#X connect 36 1 38 0;
#X connect 37 0 36 0;
#X connect 37 1 40 0;
#X connect 37 2 41 0;
#X connect 37 3 39 0;
#X connect 39 0 7 1;
#X connect 39 1 38 0;
#X connect 40 0 2 1;
#X connect 40 1 38 0;
#X connect 41 0 6 1;
#X connect 41 1 38 0;
#X connect 42 0 1 0;
#X connect 42 1 1 1;
#X connect 42 2 1 2;
