#N canvas 99 22 1563 615 10;
#X obj 10 7 inlet;
#X obj 10 31 poly 16 1;
#X obj 10 54 pack 0 0 0;
#X obj 10 77 route 1 2 3 4 5 6 7 8 9 10 11 12 13 14 15 16;
#X obj 10 192 +~;
#X obj 21 109 r \$0-waveform;
#X obj 32 129 r \$0-adsr;
#X obj 43 149 r \$0-flush;
#X obj 10 216 +~;
#X obj 113 109 r \$0-waveform;
#X obj 124 129 r \$0-adsr;
#X obj 135 149 r \$0-flush;
#X obj 208 112 r \$0-waveform;
#X obj 219 132 r \$0-adsr;
#X obj 230 152 r \$0-flush;
#X obj 10 239 +~;
#X obj 306 112 r \$0-waveform;
#X obj 317 132 r \$0-adsr;
#X obj 328 152 r \$0-flush;
#X obj 10 263 +~;
#X obj 402 110 r \$0-waveform;
#X obj 413 130 r \$0-adsr;
#X obj 424 150 r \$0-flush;
#X obj 494 110 r \$0-waveform;
#X obj 505 130 r \$0-adsr;
#X obj 516 150 r \$0-flush;
#X obj 589 113 r \$0-waveform;
#X obj 600 133 r \$0-adsr;
#X obj 611 153 r \$0-flush;
#X obj 687 113 r \$0-waveform;
#X obj 698 133 r \$0-adsr;
#X obj 709 153 r \$0-flush;
#X obj 789 111 r \$0-waveform;
#X obj 800 131 r \$0-adsr;
#X obj 811 151 r \$0-flush;
#X obj 881 111 r \$0-waveform;
#X obj 892 131 r \$0-adsr;
#X obj 903 151 r \$0-flush;
#X obj 976 114 r \$0-waveform;
#X obj 987 134 r \$0-adsr;
#X obj 998 154 r \$0-flush;
#X obj 1074 114 r \$0-waveform;
#X obj 1085 134 r \$0-adsr;
#X obj 1096 154 r \$0-flush;
#X obj 1178 118 r \$0-waveform;
#X obj 1189 138 r \$0-adsr;
#X obj 1200 158 r \$0-flush;
#X obj 1270 118 r \$0-waveform;
#X obj 1281 138 r \$0-adsr;
#X obj 1292 158 r \$0-flush;
#X obj 1365 121 r \$0-waveform;
#X obj 1376 141 r \$0-adsr;
#X obj 1387 161 r \$0-flush;
#X obj 1463 121 r \$0-waveform;
#X obj 1474 141 r \$0-adsr;
#X obj 1485 161 r \$0-flush;
#X obj 10 379 +~;
#X obj 10 403 +~;
#X obj 10 426 +~;
#X obj 10 450 +~;
#X obj 10 285 +~;
#X obj 10 309 +~;
#X obj 10 332 +~;
#X obj 10 356 +~;
#X obj 10 474 +~;
#X obj 10 498 +~;
#X obj 10 521 +~;
#X obj 10 545 +~;
#X obj 10 574 outlet~;
#X obj 80 53 s \$0-waveform;
#X obj 168 53 s \$0-adsr;
#X obj 234 54 s \$0-flush;
#X obj 80 8 inlet;
#X obj 168 7 inlet;
#X obj 234 7 inlet;
#X obj 102 170 voice~;
#X obj 10 170 voice~;
#X obj 197 173 voice~;
#X obj 295 173 voice~;
#X obj 391 171 voice~;
#X obj 483 171 voice~;
#X obj 578 174 voice~;
#X obj 676 174 voice~;
#X obj 778 172 voice~;
#X obj 870 172 voice~;
#X obj 965 175 voice~;
#X obj 1063 175 voice~;
#X obj 1167 179 voice~;
#X obj 1259 179 voice~;
#X obj 1354 182 voice~;
#X obj 1452 182 voice~;
#X connect 0 0 1 0;
#X connect 1 0 2 0;
#X connect 1 1 2 1;
#X connect 1 2 2 2;
#X connect 2 0 3 0;
#X connect 3 0 76 0;
#X connect 3 1 75 0;
#X connect 3 2 77 0;
#X connect 3 3 78 0;
#X connect 3 4 79 0;
#X connect 3 5 80 0;
#X connect 3 6 81 0;
#X connect 3 7 82 0;
#X connect 3 8 83 0;
#X connect 3 9 84 0;
#X connect 3 10 85 0;
#X connect 3 11 86 0;
#X connect 3 12 87 0;
#X connect 3 13 88 0;
#X connect 3 14 89 0;
#X connect 3 15 90 0;
#X connect 4 0 8 0;
#X connect 5 0 76 1;
#X connect 6 0 76 2;
#X connect 7 0 76 3;
#X connect 8 0 15 0;
#X connect 9 0 75 1;
#X connect 10 0 75 2;
#X connect 11 0 75 3;
#X connect 12 0 77 1;
#X connect 13 0 77 2;
#X connect 14 0 77 3;
#X connect 15 0 19 0;
#X connect 16 0 78 1;
#X connect 17 0 78 2;
#X connect 18 0 78 3;
#X connect 19 0 60 0;
#X connect 20 0 79 1;
#X connect 21 0 79 2;
#X connect 22 0 79 3;
#X connect 23 0 80 1;
#X connect 24 0 80 2;
#X connect 25 0 80 3;
#X connect 26 0 81 1;
#X connect 27 0 81 2;
#X connect 28 0 81 3;
#X connect 29 0 82 1;
#X connect 30 0 82 2;
#X connect 31 0 82 3;
#X connect 32 0 83 1;
#X connect 33 0 83 2;
#X connect 34 0 83 3;
#X connect 35 0 84 1;
#X connect 36 0 84 2;
#X connect 37 0 84 3;
#X connect 38 0 85 1;
#X connect 39 0 85 2;
#X connect 40 0 85 3;
#X connect 41 0 86 1;
#X connect 42 0 86 2;
#X connect 43 0 86 3;
#X connect 44 0 87 1;
#X connect 45 0 87 2;
#X connect 46 0 87 3;
#X connect 47 0 88 1;
#X connect 48 0 88 2;
#X connect 49 0 88 3;
#X connect 50 0 89 1;
#X connect 51 0 89 2;
#X connect 52 0 89 3;
#X connect 53 0 90 1;
#X connect 54 0 90 2;
#X connect 55 0 90 3;
#X connect 56 0 57 0;
#X connect 57 0 58 0;
#X connect 58 0 59 0;
#X connect 59 0 64 0;
#X connect 60 0 61 0;
#X connect 61 0 62 0;
#X connect 62 0 63 0;
#X connect 63 0 56 0;
#X connect 64 0 65 0;
#X connect 65 0 66 0;
#X connect 66 0 67 0;
#X connect 67 0 68 0;
#X connect 72 0 69 0;
#X connect 73 0 70 0;
#X connect 74 0 71 0;
#X connect 75 0 8 1;
#X connect 76 0 4 0;
#X connect 77 0 15 1;
#X connect 78 0 19 1;
#X connect 79 0 60 1;
#X connect 80 0 61 1;
#X connect 81 0 62 1;
#X connect 82 0 63 1;
#X connect 83 0 56 1;
#X connect 84 0 57 1;
#X connect 85 0 58 1;
#X connect 86 0 59 1;
#X connect 87 0 64 1;
#X connect 88 0 65 1;
#X connect 89 0 66 1;
#X connect 90 0 67 1;
