#N canvas 99 22 1530 649 10;
#X obj -52 8 inlet;
#X obj -52 32 poly 16 1;
#X obj -52 55 pack 0 0 0;
#X obj 787 49 route 1 2 3 4 5 6 7 8 9 10 11 12 13 14 15 16;
#X obj -52 232 +~;
#X obj -41 110 r \$0-waveform;
#X obj -30 130 r \$0-adsr;
#X obj -19 150 r \$0-flush;
#X obj -52 256 +~;
#X obj -52 279 +~;
#X obj -52 303 +~;
#X obj -52 419 +~;
#X obj -52 443 +~;
#X obj -52 466 +~;
#X obj -52 490 +~;
#X obj -52 325 +~;
#X obj -52 349 +~;
#X obj -52 372 +~;
#X obj -52 396 +~;
#X obj -52 514 +~;
#X obj -52 538 +~;
#X obj -52 561 +~;
#X obj -52 585 +~;
#X obj -52 614 outlet~;
#X obj 18 54 s \$0-waveform;
#X obj 106 54 s \$0-adsr;
#X obj 172 55 s \$0-flush;
#X obj 18 9 inlet;
#X obj 106 8 inlet;
#X obj 172 8 inlet;
#X obj 255 7 inlet;
#X obj 255 56 s \$0-pitch_bend;
#X obj 357 7 inlet;
#X obj 357 56 s \$0-pitch_range;
#X obj 0 171 r \$0-pitch_bend;
#X obj 23 191 r \$0-pitch_range;
#X obj 125 115 r \$0-waveform;
#X obj 136 135 r \$0-adsr;
#X obj 147 155 r \$0-flush;
#X obj 166 176 r \$0-pitch_bend;
#X obj 189 196 r \$0-pitch_range;
#X obj 308 116 r \$0-waveform;
#X obj 319 136 r \$0-adsr;
#X obj 330 156 r \$0-flush;
#X obj 349 177 r \$0-pitch_bend;
#X obj 372 197 r \$0-pitch_range;
#X obj 474 121 r \$0-waveform;
#X obj 485 141 r \$0-adsr;
#X obj 496 161 r \$0-flush;
#X obj 515 182 r \$0-pitch_bend;
#X obj 538 202 r \$0-pitch_range;
#X obj 657 122 r \$0-waveform;
#X obj 668 142 r \$0-adsr;
#X obj 679 162 r \$0-flush;
#X obj 698 183 r \$0-pitch_bend;
#X obj 721 203 r \$0-pitch_range;
#X obj 830 123 r \$0-waveform;
#X obj 841 143 r \$0-adsr;
#X obj 852 163 r \$0-flush;
#X obj 871 184 r \$0-pitch_bend;
#X obj 894 204 r \$0-pitch_range;
#X obj 996 128 r \$0-waveform;
#X obj 1007 148 r \$0-adsr;
#X obj 1018 168 r \$0-flush;
#X obj 1037 189 r \$0-pitch_bend;
#X obj 1060 209 r \$0-pitch_range;
#X obj 1179 129 r \$0-waveform;
#X obj 1190 149 r \$0-adsr;
#X obj 1201 169 r \$0-flush;
#X obj 1220 190 r \$0-pitch_bend;
#X obj 1243 210 r \$0-pitch_range;
#X obj 67 298 r \$0-waveform;
#X obj 78 318 r \$0-adsr;
#X obj 89 338 r \$0-flush;
#X obj 108 359 r \$0-pitch_bend;
#X obj 131 379 r \$0-pitch_range;
#X obj 233 303 r \$0-waveform;
#X obj 244 323 r \$0-adsr;
#X obj 255 343 r \$0-flush;
#X obj 274 364 r \$0-pitch_bend;
#X obj 297 384 r \$0-pitch_range;
#X obj 416 304 r \$0-waveform;
#X obj 427 324 r \$0-adsr;
#X obj 438 344 r \$0-flush;
#X obj 457 365 r \$0-pitch_bend;
#X obj 480 385 r \$0-pitch_range;
#X obj 582 309 r \$0-waveform;
#X obj 593 329 r \$0-adsr;
#X obj 604 349 r \$0-flush;
#X obj 623 370 r \$0-pitch_bend;
#X obj 646 390 r \$0-pitch_range;
#X obj 765 310 r \$0-waveform;
#X obj 776 330 r \$0-adsr;
#X obj 787 350 r \$0-flush;
#X obj 806 371 r \$0-pitch_bend;
#X obj 829 391 r \$0-pitch_range;
#X obj 938 311 r \$0-waveform;
#X obj 949 331 r \$0-adsr;
#X obj 960 351 r \$0-flush;
#X obj 979 372 r \$0-pitch_bend;
#X obj 1002 392 r \$0-pitch_range;
#X obj 1104 316 r \$0-waveform;
#X obj 1115 336 r \$0-adsr;
#X obj 1126 356 r \$0-flush;
#X obj 1145 377 r \$0-pitch_bend;
#X obj 1168 397 r \$0-pitch_range;
#X obj 1287 317 r \$0-waveform;
#X obj 1298 337 r \$0-adsr;
#X obj 1309 357 r \$0-flush;
#X obj 1328 378 r \$0-pitch_bend;
#X obj 1351 398 r \$0-pitch_range;
#X obj -52 210 voice~ ------;
#X obj 1168 229 voice~ ------;
#X obj 463 221 voice~ ------;
#X obj 985 228 voice~ ------;
#X obj 114 215 voice~ ------;
#X obj 297 216 voice~ ------;
#X obj 646 222 voice~ ------;
#X obj 819 223 voice~ ------;
#X obj 56 398 voice~ ------;
#X obj 222 403 voice~ ------;
#X obj 405 404 voice~ ------;
#X obj 571 409 voice~ ------;
#X obj 754 410 voice~ ------;
#X obj 927 411 voice~ ------;
#X obj 1093 416 voice~ ------;
#X obj 1276 417 voice~ ------;
#X obj -49 89 r \$0-voice1;
#X obj 723 75 s \$0voice0;
#X connect 0 0 1 0;
#X connect 1 0 2 0;
#X connect 1 1 2 1;
#X connect 1 2 2 2;
#X connect 2 0 3 0;
#X connect 3 0 128 0;
#X connect 3 1 115 0;
#X connect 3 2 116 0;
#X connect 3 3 113 0;
#X connect 3 4 117 0;
#X connect 3 5 118 0;
#X connect 3 6 114 0;
#X connect 3 7 112 0;
#X connect 3 8 119 0;
#X connect 3 9 120 0;
#X connect 3 10 121 0;
#X connect 3 11 122 0;
#X connect 3 12 123 0;
#X connect 3 13 124 0;
#X connect 3 14 125 0;
#X connect 3 15 126 0;
#X connect 4 0 8 0;
#X connect 5 0 111 1;
#X connect 6 0 111 2;
#X connect 7 0 111 3;
#X connect 8 0 9 0;
#X connect 9 0 10 0;
#X connect 10 0 15 0;
#X connect 11 0 12 0;
#X connect 12 0 13 0;
#X connect 13 0 14 0;
#X connect 14 0 19 0;
#X connect 15 0 16 0;
#X connect 16 0 17 0;
#X connect 17 0 18 0;
#X connect 18 0 11 0;
#X connect 19 0 20 0;
#X connect 20 0 21 0;
#X connect 21 0 22 0;
#X connect 22 0 23 0;
#X connect 27 0 24 0;
#X connect 28 0 25 0;
#X connect 29 0 26 0;
#X connect 30 0 31 0;
#X connect 32 0 33 0;
#X connect 34 0 111 4;
#X connect 35 0 111 5;
#X connect 36 0 115 1;
#X connect 37 0 115 2;
#X connect 38 0 115 3;
#X connect 39 0 115 4;
#X connect 40 0 115 5;
#X connect 41 0 116 1;
#X connect 42 0 116 2;
#X connect 43 0 116 3;
#X connect 44 0 116 4;
#X connect 45 0 116 5;
#X connect 46 0 113 1;
#X connect 47 0 113 2;
#X connect 48 0 113 3;
#X connect 49 0 113 4;
#X connect 50 0 113 5;
#X connect 51 0 117 1;
#X connect 52 0 117 2;
#X connect 53 0 117 3;
#X connect 54 0 117 4;
#X connect 55 0 117 5;
#X connect 56 0 118 1;
#X connect 57 0 118 2;
#X connect 58 0 118 3;
#X connect 59 0 118 4;
#X connect 60 0 118 5;
#X connect 61 0 114 1;
#X connect 62 0 114 2;
#X connect 63 0 114 3;
#X connect 64 0 114 4;
#X connect 65 0 114 5;
#X connect 66 0 112 1;
#X connect 67 0 112 2;
#X connect 68 0 112 3;
#X connect 69 0 112 4;
#X connect 70 0 112 5;
#X connect 71 0 119 1;
#X connect 72 0 119 2;
#X connect 73 0 119 3;
#X connect 74 0 119 4;
#X connect 75 0 119 5;
#X connect 76 0 120 1;
#X connect 77 0 120 2;
#X connect 78 0 120 3;
#X connect 79 0 120 4;
#X connect 80 0 120 5;
#X connect 81 0 121 1;
#X connect 82 0 121 2;
#X connect 83 0 121 3;
#X connect 84 0 121 4;
#X connect 85 0 121 5;
#X connect 86 0 122 1;
#X connect 87 0 122 2;
#X connect 88 0 122 3;
#X connect 89 0 122 4;
#X connect 90 0 122 5;
#X connect 91 0 123 1;
#X connect 92 0 123 2;
#X connect 93 0 123 3;
#X connect 94 0 123 4;
#X connect 95 0 123 5;
#X connect 96 0 124 1;
#X connect 97 0 124 2;
#X connect 98 0 124 3;
#X connect 99 0 124 4;
#X connect 100 0 124 5;
#X connect 101 0 125 1;
#X connect 102 0 125 2;
#X connect 103 0 125 3;
#X connect 104 0 125 4;
#X connect 105 0 125 5;
#X connect 106 0 126 1;
#X connect 107 0 126 2;
#X connect 108 0 126 3;
#X connect 109 0 126 4;
#X connect 110 0 126 5;
#X connect 111 0 4 0;
#X connect 112 0 17 1;
#X connect 113 0 9 1;
#X connect 114 0 16 1;
#X connect 115 0 4 1;
#X connect 116 0 8 1;
#X connect 117 0 10 1;
#X connect 118 0 15 1;
#X connect 119 0 18 1;
#X connect 120 0 11 1;
#X connect 121 0 12 1;
#X connect 122 0 13 1;
#X connect 123 0 14 1;
#X connect 124 0 19 1;
#X connect 125 0 20 1;
#X connect 126 0 21 1;
#X connect 127 0 111 0;
