#N canvas 544 76 500 500 16;
#X msg 66 69 v 1;
#X msg 107 69 a f d g a;
#X msg 206 70 fm3fodl d 2 k j j jjj df;
#X msg 28 132 v;
#X msg 70 132 a;
#X msg 109 131 fm3fodl;
#X obj 295 125 bng 15 250 50 0 empty empty empty 17 7 0 10 -262144
-1 -1;
#X text 314 117 Clear;
#X obj 60 302 lprint VALUE;
#X obj 277 297 print NO_MATCH;
#X obj 116 213 CLASS_binder;
#X msg 229 115 m ga;
#X msg 212 149 m;
#X connect 0 0 10 1;
#X connect 1 0 10 1;
#X connect 2 0 10 1;
#X connect 3 0 10 0;
#X connect 4 0 10 0;
#X connect 5 0 10 0;
#X connect 6 0 10 2;
#X connect 10 0 8 0;
#X connect 11 0 10 1;
#X connect 12 0 10 0;
