#N canvas 292 323 608 572 10;
#X obj 48 28 inlet;
#N canvas 1166 631 450 300 dynamic~ 1;
#X obj 10 100 phasor~ 250;
#X obj 10 200 send~ out;
#X connect 0 0 1 0;
#X restore 53 156 pd dynamic~;
#X msg 221 94 clear;
#X obj 194 117 list prepend obj 10 100;
#X obj 194 140 list trim;
#X obj 178 64 t b a b;
#X msg 168 172 obj 10 200 send~ out \, connect 0 0 1 0;
#X obj 178 240 s pd-dynamic~;
#X obj 62 224 receive~ out;
#X obj 62 258 output~;
#X msg 161 29 osc~ 250;
#X msg 222 29 phasor~ 250;
#X connect 0 0 5 0;
#X connect 2 0 7 0;
#X connect 3 0 4 0;
#X connect 4 0 7 0;
#X connect 5 0 6 0;
#X connect 5 1 3 0;
#X connect 5 2 2 0;
#X connect 6 0 7 0;
#X connect 8 0 9 0;
#X connect 8 0 9 1;
#X connect 10 0 5 0;
#X connect 11 0 5 0;
