#N canvas 526 23 572 685 10;
#X text 49 12 List & String Classes;
#X text 95 30 Replace Character;
#X text 94 43 Replace Sequence of Characters;
#X text 96 59 Remove last element;
#X msg 79 424 one two three four five six seven;
#X obj 72 534 list;
#X obj 72 569 list split 1;
#X obj 115 605 lbuilder;
#X obj 115 655 print;
#X obj 115 626 lreverse;
#X obj 106 480 t b a b;
#X obj 79 446 t b a;
#X obj 161 261 print d;
#X floatatom 197 194 5 0 0 0 - - -;
#X msg 164 199 four;
#X msg 127 200 one;
#X msg 156 163 one two three four one;
#X msg 233 186 set;
#X msg 266 202 &NULL;
#X msg 278 247 g f d s a \, oo ee pp nn kk aa \, ege egk aga sld een
ofj;
#X obj 286 329 print;
#X obj 286 301 lreplace d woo;
#X obj 156 227 lreplace three;
#X msg 374 277 fe;
#X connect 4 0 11 0;
#X connect 5 0 6 0;
#X connect 6 0 7 0;
#X connect 6 1 10 0;
#X connect 7 0 9 0;
#X connect 9 0 8 0;
#X connect 10 1 5 0;
#X connect 10 2 7 2;
#X connect 11 0 7 1;
#X connect 11 1 10 0;
#X connect 13 0 22 1;
#X connect 14 0 22 1;
#X connect 15 0 22 1;
#X connect 16 0 22 0;
#X connect 17 0 22 1;
#X connect 18 0 22 2;
#X connect 19 0 21 0;
#X connect 21 0 20 0;
#X connect 22 0 12 0;
#X connect 23 0 21 2;
