#N canvas 699 306 116 208 10;
#X obj -10 4 inlet~;
#X obj -10 177 outlet~;
#X obj -10 151 *~;
#X obj 38 4 inlet;
#X obj 5 62 tgl 15 0 empty empty empty 17 7 0 10 -262144 -1 -1 1 1
;
#X obj 39 24 loadbang;
#X msg 39 45 1;
#X obj 5 130 line~ 1 10;
#X obj 5 83 pack 1 10;
#X connect 0 0 2 0;
#X connect 2 0 1 0;
#X connect 3 0 4 0;
#X connect 4 0 8 0;
#X connect 5 0 6 0;
#X connect 6 0 4 0;
#X connect 7 0 2 1;
#X connect 8 0 7 0;
