#N canvas 963 42 475 340 10;
#X obj 12 291 outlet~;
#X obj 12 264 *~;
#X obj 12 121 mtof;
#X obj 12 26 inlet;
#X obj 12 50 unpack 0 0;
#X obj 120 99 sel 0;
#X msg 147 124 0;
#X obj 70 71 t f f;
#X text 10 8 Note & Velocity Pair;
#X obj 180 26 inlet;
#X text 157 9 Set Tabosc4~ Wavetable;
#X obj 266 76 unpack 50 100 0.6 250;
#X obj 330 25 inlet;
#X text 322 6 ADSR List;
#X obj 413 80 bng 15 250 50 0 empty empty empty 17 7 0 10 -262144 -1
-1;
#X obj 413 25 inlet;
#X text 409 5 Kill Note;
#X obj 12 151 tabosc4~;
#X obj 70 230 adsr~ ----------;
#X connect 1 0 0 0;
#X connect 2 0 17 0;
#X connect 3 0 4 0;
#X connect 4 0 2 0;
#X connect 4 1 7 0;
#X connect 5 1 6 0;
#X connect 6 0 17 1;
#X connect 7 0 18 0;
#X connect 7 1 5 0;
#X connect 9 0 17 0;
#X connect 11 0 18 1;
#X connect 11 1 18 2;
#X connect 11 2 18 3;
#X connect 11 3 18 4;
#X connect 12 0 11 0;
#X connect 14 0 18 5;
#X connect 15 0 14 0;
#X connect 17 0 1 0;
#X connect 18 0 1 1;
