#N canvas 196 255 949 339 10;
#X obj 129 292 outlet~;
#X obj 129 265 *~;
#X obj 129 127 mtof;
#X obj 129 51 unpack 0 0;
#X msg 174 184 0;
#X text 127 9 Note & Velocity Pair;
#X text 263 10 Set Tabosc4~ Wavetable;
#X obj 363 84 unpack 50 100 0.6 250;
#X text 417 9 ADSR List;
#X obj 511 87 bng 15 250 50 0 empty empty empty 17 7 0 10 -262144 -1
-1;
#X text 507 6 Kill Note;
#X obj 129 207 tabosc4~;
#X obj 129 105 +;
#X text 582 6 Pitch Bend;
#X text 684 6 Pitch Bend Range;
#X obj 585 56 - 64;
#X obj 585 90 / 64;
#X obj 585 130 * 12;
#X obj 585 152 s \$0-pitch_bend;
#X obj 18 54 r \$0-pitch_bend;
#X obj 77 76 t b f;
#X obj 306 291 outlet;
#X text 350 289 1 if on \, 0 if off;
#X text 178 290 Signal;
#X msg 65 18 60 5;
#X msg 18 21 60 0;
#X text 197 183 Reset Phase;
#X obj 268 26 inlet WAVETABLE;
#X obj 413 28 inlet ADSR;
#X obj 511 26 inlet KILL;
#X obj 585 24 inlet PITCHBEND;
#X obj 687 24 inlet PITCHBENDRANGE;
#X obj 826 24 inlet PRINTTOGGLE;
#X text 826 5 Toggle Printing;
#X obj 129 27 inlet NOTE_VELOCITY;
#X obj 129 152 t f b;
#X obj 186 217 adsr~ ----------;
#X floatatom 265 252 5 0 0 0 - - -;
#X obj 75 261 view~;
#X floatatom 76 296 5 0 0 0 - - -;
#X obj 268 52 list prepend set;
#X obj 268 74 list trim;
#X connect 1 0 0 0;
#X connect 1 0 38 0;
#X connect 2 0 35 0;
#X connect 3 0 12 0;
#X connect 3 1 36 0;
#X connect 4 0 11 1;
#X connect 7 0 36 1;
#X connect 7 1 36 2;
#X connect 7 2 36 3;
#X connect 7 3 36 4;
#X connect 9 0 36 5;
#X connect 11 0 1 0;
#X connect 12 0 2 0;
#X connect 15 0 16 0;
#X connect 16 0 17 0;
#X connect 17 0 18 0;
#X connect 19 0 20 0;
#X connect 20 0 12 0;
#X connect 20 1 12 1;
#X connect 24 0 3 0;
#X connect 25 0 3 0;
#X connect 27 0 40 0;
#X connect 28 0 7 0;
#X connect 29 0 9 0;
#X connect 30 0 15 0;
#X connect 31 0 17 1;
#X connect 32 0 36 6;
#X connect 34 0 3 0;
#X connect 35 0 11 0;
#X connect 36 0 1 1;
#X connect 36 1 21 0;
#X connect 38 0 39 0;
#X connect 40 0 41 0;
#X connect 41 0 11 0;
