#N canvas 474 464 792 319 10;
#X obj 129 292 outlet~;
#X obj 129 265 *~;
#X obj 129 127 mtof;
#X obj 129 27 inlet;
#X obj 129 51 unpack 0 0;
#X obj 237 100 sel 0;
#X msg 264 125 0;
#X obj 187 72 t f f;
#X text 127 9 Note & Velocity Pair;
#X obj 297 27 inlet;
#X text 274 10 Set Tabosc4~ Wavetable;
#X obj 383 77 unpack 50 100 0.6 250;
#X obj 447 26 inlet;
#X text 439 7 ADSR List;
#X obj 530 81 bng 15 250 50 0 empty empty empty 17 7 0 10 -262144 -1
-1;
#X obj 530 26 inlet;
#X text 526 6 Kill Note;
#X obj 129 152 tabosc4~;
#X obj 187 231 adsr~ ----------;
#X obj 129 93 +;
#X obj 604 24 inlet;
#X text 601 6 Pitch Bend;
#X obj 681 26 inlet;
#X text 678 8 Pitch Bend Range;
#X obj 604 56 - 64;
#X obj 604 90 / 64;
#X obj 604 130 * 12;
#X obj 604 157 s \$0-pitch_bend;
#X obj 18 54 r \$0-pitch_bend;
#X obj 77 76 t b f;
#X obj 345 295 outlet;
#X connect 1 0 0 0;
#X connect 2 0 17 0;
#X connect 3 0 4 0;
#X connect 4 0 19 0;
#X connect 4 1 7 0;
#X connect 5 0 30 0;
#X connect 5 1 6 0;
#X connect 6 0 17 1;
#X connect 7 0 18 0;
#X connect 7 1 5 0;
#X connect 9 0 17 0;
#X connect 11 0 18 1;
#X connect 11 1 18 2;
#X connect 11 2 18 3;
#X connect 11 3 18 4;
#X connect 12 0 11 0;
#X connect 14 0 18 5;
#X connect 15 0 14 0;
#X connect 17 0 1 0;
#X connect 18 0 1 1;
#X connect 19 0 2 0;
#X connect 20 0 24 0;
#X connect 22 0 26 1;
#X connect 24 0 25 0;
#X connect 25 0 26 0;
#X connect 26 0 27 0;
#X connect 28 0 29 0;
#X connect 29 0 19 0;
#X connect 29 1 19 1;
