#N canvas 66 462 462 525 10;
#X obj 146 201 *~;
#X floatatom 161 81 5 0 1 0 - - -;
#X obj 273 206 *~;
#X floatatom 288 90 5 0 1 0 - - -;
#X obj 161 136 line~;
#X obj 288 140 line~;
#X obj 288 114 pack f 50;
#X obj 161 111 pack f 50;
#X obj 146 266 outlet~;
#X obj 273 270 outlet~;
#X obj 381 -39 loadbang;
#X obj 381 -16 t b b;
#X msg 381 6 0;
#X msg 408 6 1;
#X text 17 -208 Signal R;
#X text 80 -206 Gain R;
#X text 337 -206 Signal L;
#X text 294 -204 Gain L;
#X text 147 -207 Pan (%);
#X obj 161 172 *~;
#X obj 289 172 *~;
#X obj 161 53 number;
#X obj 287 54 number;
#X obj 235 15 -~;
#X obj 235 37 abs~;
#X obj 252 -22 line~;
#X obj 194 -133 / 100;
#X msg 221 -84 30;
#X obj 182 -60 pack 0.5 30;
#X obj 197 -23 line~;
#X obj 20 -180 inlet~;
#X obj 79 -182 inlet;
#X obj 149 -186 inlet;
#X obj 282 -184 inlet;
#X obj 347 -185 inlet~;
#X obj 194 -109 t f b;
#X obj 346 237 view~;
#X floatatom 353 274 5 0 0 0 - - -;
#X obj 388 160 view~;
#X floatatom 386 184 5 0 0 0 - - -;
#X obj 357 -135 view~;
#X floatatom 355 -111 5 0 0 0 - - -;
#X obj 49 -135 view~;
#X floatatom 47 -111 5 0 0 0 - - -;
#X connect 0 0 8 0;
#X connect 1 0 7 0;
#X connect 2 0 9 0;
#X connect 2 0 36 0;
#X connect 3 0 6 0;
#X connect 4 0 19 0;
#X connect 5 0 20 0;
#X connect 6 0 5 0;
#X connect 7 0 4 0;
#X connect 10 0 11 0;
#X connect 11 0 12 0;
#X connect 11 1 13 0;
#X connect 12 0 21 1;
#X connect 12 0 22 1;
#X connect 13 0 21 2;
#X connect 13 0 21 0;
#X connect 13 0 22 2;
#X connect 13 0 22 0;
#X connect 13 0 25 0;
#X connect 19 0 0 1;
#X connect 20 0 2 1;
#X connect 20 0 38 0;
#X connect 21 0 1 0;
#X connect 22 0 3 0;
#X connect 23 0 24 0;
#X connect 24 0 20 1;
#X connect 25 0 23 0;
#X connect 26 0 35 0;
#X connect 27 0 28 1;
#X connect 28 0 29 0;
#X connect 29 0 23 1;
#X connect 29 0 19 1;
#X connect 30 0 0 0;
#X connect 30 0 42 0;
#X connect 31 0 21 0;
#X connect 32 0 26 0;
#X connect 33 0 22 0;
#X connect 34 0 2 0;
#X connect 34 0 40 0;
#X connect 35 0 28 0;
#X connect 35 1 27 0;
#X connect 36 0 37 0;
#X connect 38 0 39 0;
#X connect 40 0 41 0;
#X connect 42 0 43 0;
